<svg class="educational-platform__label-icon" width="46" height="48" viewBox="0 0 46 48" fill="none" xmlns="http://www.w3.org/2000/svg">
<ellipse opacity="0.2" cx="23.283" cy="24.3428" rx="22.532" ry="23.5987" fill="#03C2FF"/>
<path fill-rule="evenodd" clip-rule="evenodd" d="M35 31C35 32.1046 34.1046 33 33 33H21C19.8954 33 19 32.1046 19 31V17C19 15.8954 19.8954 15 21 15H33C34.1046 15 35 15.8954 35 17V31ZM18 32C16.8954 32 16 31.1046 16 30V18C16 16.8954 16.8954 16 18 16V32ZM13 29C13 30.1046 13.8954 31 15 31V17C13.8954 17 13 17.8954 13 19V29ZM21 31H33V17H21V31ZM29 24L25 21V27L29 24Z" fill="#03C2FF"/>
</svg>
