<svg class="educational-platform__label-icon" width="34" height="36" viewBox="0 0 34 36" fill="none" xmlns="http://www.w3.org/2000/svg">
<ellipse opacity="0.2" cx="17.1314" cy="18.08" rx="16.5577" ry="17.3416" fill="black"/>
<path fill-rule="evenodd" clip-rule="evenodd" d="M17 14C17.5523 14 18 14.4477 18 15V25C18 25.5523 17.5523 26 17 26C16.4477 26 16 25.5523 16 25V15C16 14.4477 16.4477 14 17 14Z" fill="black"/>
<path fill-rule="evenodd" clip-rule="evenodd" d="M23 8C23.5523 8 24 8.44772 24 9V25C24 25.5523 23.5523 26 23 26C22.4477 26 22 25.5523 22 25V9C22 8.44772 22.4477 8 23 8Z" fill="black"/>
<path fill-rule="evenodd" clip-rule="evenodd" d="M11 20C11.5523 20 12 20.4477 12 21V25C12 25.5523 11.5523 26 11 26C10.4477 26 10 25.5523 10 25V21C10 20.4477 10.4477 20 11 20Z" fill="black"/>
</svg>
