<svg class="educational-platform__label-icon" width="44" height="44" viewBox="0 0 44 44" fill="none" xmlns="http://www.w3.org/2000/svg">
<circle opacity="0.2" cx="21.9763" cy="21.9763" r="21.9763" fill="#FFC061"/>
<path d="M23.9762 10.5481H15.1116C14.5239 10.5481 13.9602 10.7816 13.5446 11.1972C13.129 11.6128 12.8955 12.1765 12.8955 12.7642V30.4933C12.8955 31.0811 13.129 31.6448 13.5446 32.0604C13.9602 32.476 14.5239 32.7095 15.1116 32.7095H28.4085C28.9962 32.7095 29.5599 32.476 29.9755 32.0604C30.3911 31.6448 30.6246 31.0811 30.6246 30.4933V17.1965L23.9762 10.5481Z" stroke="#FFC061" stroke-width="1.5" stroke-linecap="round" stroke-linejoin="round"/>
<path d="M23.9763 10.5474V17.1958H30.6247" stroke="#FFC061" stroke-width="1.5" stroke-linecap="round" stroke-linejoin="round"/>
<path d="M26.1924 22.7362H17.3279" stroke="#FFC061" stroke-width="1.5" stroke-linecap="round" stroke-linejoin="round"/>
<path d="M26.1924 27.1687H17.3279" stroke="#FFC061" stroke-width="1.5" stroke-linecap="round" stroke-linejoin="round"/>
<path d="M19.544 18.3037H18.4359H17.3279" stroke="#FFC061" stroke-width="1.5" stroke-linecap="round" stroke-linejoin="round"/>
</svg>
