<svg width="18" height="18" viewBox="0 0 18 18" fill="none" xmlns="http://www.w3.org/2000/svg">
<rect width="18" height="18" rx="2" fill="url(#paint0_linear)"/>
<path fill-rule="evenodd" clip-rule="evenodd" d="M7.01598 10.2769L10.2769 7.01598C10.101 6.71823 10 6.3709 10 6C10 4.89543 10.8954 4 12 4C13.1046 4 14 4.89543 14 6C14 7.10457 13.1046 8 12 8C11.6291 8 11.2818 7.89904 10.984 7.72309L7.72309 10.984C7.89904 11.2818 8 11.6291 8 12C8 13.1046 7.10457 14 6 14C4.89543 14 4 13.1046 4 12C4 10.8954 4.89543 10 6 10C6.3709 10 6.71823 10.101 7.01598 10.2769ZM6.00002 12.9999C6.55231 12.9999 7.00002 12.5522 7.00002 11.9999C7.00002 11.4476 6.55231 10.9999 6.00002 10.9999C5.44774 10.9999 5.00002 11.4476 5.00002 11.9999C5.00002 12.5522 5.44774 12.9999 6.00002 12.9999ZM13 5.99993C13 6.55222 12.5523 6.99993 12 6.99993C11.4477 6.99993 11 6.55222 11 5.99993C11 5.44765 11.4477 4.99993 12 4.99993C12.5523 4.99993 13 5.44765 13 5.99993Z" fill="white"/>
<defs>
<linearGradient id="paint0_linear" x1="14" y1="15.5" x2="-2.5" y2="-5.53689e-06" gradientUnits="userSpaceOnUse">
<stop stop-color="#4C9E54"/>
<stop offset="1" stop-color="#38B5C6"/>
</linearGradient>
</defs>
</svg>
