<svg width="281" height="389" viewBox="0 0 281 389" fill="none" xmlns="http://www.w3.org/2000/svg">
<g opacity="0.05">
<path d="M132.404 251.034L91.2949 271.011L96.5786 275.983L140.097 260.675L132.404 251.034Z" fill="white"/>
<path d="M79.6042 248.668L134.707 242.285L128.988 227.361L76.3701 243.248L79.6042 248.668Z" fill="white"/>
<path d="M132.401 215.677C131.081 215.055 85.0742 175.886 85.0742 175.886L142.41 204.72L132.401 215.677Z" fill="white"/>
<path d="M151.133 196.871L134.345 135.789L166.52 195.007L151.133 196.871Z" fill="white"/>
<path d="M176.853 195.007L201.023 140.45L187.656 200.137L176.853 195.007Z" fill="white"/>
<path d="M197.604 208.296L205.997 218.707L244.854 175.886L197.604 208.296Z" fill="white"/>
<path d="M216.257 239.925L210.974 224.188L268.611 218.707L216.257 239.925Z" fill="white"/>
<path d="M280.193 388.304H53.89V374.214C53.89 374.214 41.4561 365.921 44.3541 343.541C44.3541 343.541 30.675 346.859 29.0205 337.746C27.3556 328.617 33.9911 318.671 33.9911 318.671C33.9911 318.671 31.0861 306.238 50.5706 278.882C50.5706 278.882 43.5169 263.139 43.1058 245.309C43.1058 245.309 39.9387 237.848 41.3166 233.709C41.3166 233.709 27.3556 224.593 31.0861 146.258C31.0861 146.258 29.8427 151.641 22.3802 151.641C18.9356 151.641 16.8232 149.777 15.6028 147.091V147.078C15.0443 145.81 14.6836 144.355 14.4876 142.826C14.1864 140.575 14.2495 138.15 14.5083 135.888C14.5083 135.888 8.20415 129.968 15.9757 123.142C16.1763 122.967 16.3738 122.806 16.5874 122.632L16.5235 121.377L16.1618 113.928C16.1618 113.928 16.1117 113.916 16.0263 113.88C15.6535 113.766 14.5337 113.332 13.5276 112.213C13.5276 112.213 13.5276 112.213 13.5276 112.201C12.2482 110.757 11.1801 108.208 12.0955 103.77C12.0955 103.77 12.0833 103.757 12.0739 103.719C11.9225 103.497 11.29 102.463 10.867 101.021C10.2323 98.8959 10.0448 95.8866 12.6444 93.4106C12.6444 93.4106 10.3701 91.5466 11.6135 88.4385C11.6135 88.4385 0 81.1768 0 63.5705C0 45.9499 8.50278 38.9 15.9676 35.3808C15.9676 35.3808 10.1573 28.9507 15.5415 20.2488C15.5415 20.2488 16.9985 24.4006 19.6973 23.7795C19.6973 23.7795 14.2981 12.5905 31.0861 3.0523L32.1319 5.53913C32.1319 5.53913 44.1405 2.21897 52.4328 4.50519C60.7277 6.78355 68.8082 8.02595 73.1618 6.57155C73.1618 6.57155 70.8733 9.47909 68.599 9.67995C68.599 9.67995 84.5513 14.8659 96.3649 0.155899C96.3649 0.155899 99.0612 15.4872 87.4599 20.8704C75.8497 26.2681 78.546 28.1321 83.5199 25.8443C83.5199 25.8443 83.7302 30.6191 75.4361 35.169C67.1428 39.7336 74.8165 39.7336 77.3034 38.0799C77.3034 38.0799 77.7127 43.6751 65.9027 44.0859C65.9027 44.0859 71.4964 55.0647 69.8426 65.844C68.1891 76.6267 62.8558 89.6811 48.3188 92.3673C48.3188 92.3673 58.0308 101.694 58.0308 117.036C58.0308 132.369 61.1393 159.102 69.8426 175.886C78.5463 192.675 84.1438 221.896 85.3875 233.709C85.3875 233.709 88.083 233.497 87.4602 240.335C87.4602 240.335 89.8976 239.216 91.5673 241.629C92.1129 242.436 92.5837 243.644 92.8482 245.42C92.9566 246.23 93.0313 247.151 93.0569 248.219C93.0569 248.219 98.2284 249.252 98.4419 257.122C98.4419 257.122 102.792 257.744 101.959 265.004C101.959 265.004 106.314 267.902 104.869 278.471L116.26 289.875C116.26 289.875 123.931 289.04 126.204 297.745L133.88 304.172C133.88 304.172 133.257 296.502 138.442 291.117C138.442 291.117 136.988 282.202 138.442 279.304C138.442 279.304 127.041 281.367 127.041 270.177C127.041 258.988 132.425 261.475 131.604 257.544C130.772 253.604 123.931 250.904 127.041 238.683C127.041 238.683 116.47 212.569 148.587 196.194C180.718 179.829 207.861 211.116 213.246 226.657C218.644 242.201 222.786 261.685 218.022 265.204C213.246 268.735 215.324 275.362 219.052 279.092C222.786 282.823 222.995 284.066 222.373 296.502C221.751 308.935 220.92 313.288 225.482 316.184C230.033 319.094 229.833 320.959 229.209 323.023C229.209 323.022 266.093 328.206 280.193 388.304Z" fill="white"/>
<path d="M92.8479 245.42C92.8353 245.42 92.8226 245.409 92.8097 245.409C91.8249 245.096 90.3338 244.762 88.5169 244.823C86.7167 244.874 84.6033 245.383 82.564 246.527C81.5412 247.099 80.5359 247.83 79.6038 248.665C78.6924 249.5 77.7239 250.533 76.7831 251.476C74.888 253.416 73.0002 255.357 71.2347 257.184C70.3386 258.092 69.4809 258.973 68.6365 259.783C67.8031 260.614 66.9564 261.338 66.2125 262.032C64.6816 263.375 63.3758 264.458 62.4422 265.193C61.6218 265.838 61.1264 266.236 61.0146 266.322C61.115 266.224 61.5866 265.787 62.333 265.065C63.2021 264.259 64.4083 263.064 65.8133 261.61C66.4848 260.851 67.255 260.082 68.0022 259.185C68.7598 258.315 69.5435 257.368 70.353 256.387C71.9556 254.424 73.6732 252.321 75.3867 250.22C76.2836 249.175 77.0787 248.143 78.0463 247.086C79.0086 246.067 80.0769 245.135 81.2056 244.363C83.47 242.808 86.0321 241.939 88.2697 241.69C89.4766 241.54 90.5957 241.54 91.5668 241.628C92.1126 242.436 92.5835 243.644 92.8479 245.42Z" fill="url(#paint0_linear)"/>
<path d="M75.2105 18.1278C68.7692 16.4198 57.8744 20.148 57.8744 20.148C59.8961 18.4386 58.9617 16.4198 58.9617 16.4198C57.8744 17.8172 51.0365 19.2159 44.8399 21.859C38.6424 24.5006 39.2214 30.0956 39.2214 30.0956C57.0985 28.5424 65.9047 44.0852 65.9047 44.0852C77.7173 43.6711 77.3039 38.0758 77.3039 38.0758C74.8171 39.7344 67.1489 39.7329 75.4366 35.1731C83.7277 30.6136 83.5205 25.8466 83.5205 25.8466C78.5466 28.128 75.8503 26.2625 87.4571 20.8745C94.636 17.5414 96.3432 10.4074 96.5987 5.44769C89.0281 18.7458 81.2094 19.7195 75.2105 18.1278Z" fill="url(#paint1_linear)"/>
<path d="M76.3701 259.975C76.3701 259.975 90.7741 253.074 98.2685 255.251C97.7554 251.737 96.1368 249.937 94.8318 249.048C91.2424 248.954 84.9476 250.634 76.3701 259.975Z" fill="url(#paint2_linear)"/>
<path d="M79.9975 231.014C77.0963 233.294 75.6427 240.752 69.0125 214.434C69.0125 214.434 66.9423 229.356 73.1586 246.763C73.1586 246.763 79.9051 237.284 87.5125 239.533C87.8509 233.535 85.3871 233.708 85.3871 233.708C85.3871 233.708 82.9003 228.733 79.9975 231.014Z" fill="url(#paint3_linear)"/>
<path d="M35.9152 44.2399C58.9813 44.2399 67.3334 54.5829 69.9575 64.8238C70.3838 61.0304 69.979 57.261 69.2701 53.9917C64.5234 46.553 54.8782 40.4879 36.0158 40.4879C17.7438 40.4879 7.53762 45.0667 1.91528 50.7957C0.98494 53.536 0.331699 56.6905 0.0976562 60.3899C3.82815 52.287 13.2334 44.2399 35.9152 44.2399Z" fill="url(#paint4_linear)"/>
<path d="M31.0887 146.253C31.0611 146.339 31.0345 146.436 31.0059 146.525C31.0631 146.356 31.0887 146.253 31.0887 146.253Z" fill="url(#paint5_linear)"/>
<path d="M136.679 261.374C135.122 250.027 138.852 245.831 143.982 244.122C149.113 242.41 148.025 236.971 144.139 237.128C140.251 237.282 140.096 241.324 140.096 241.324C135.9 243.811 135.122 251.034 135.122 251.034C133.569 245.511 133.881 237.282 141.649 231.997C149.422 226.713 152.376 219.408 152.376 219.408C155.096 222.247 160.769 223.138 174.913 225.159C189.056 227.18 192.32 243.204 192.32 243.204C190.922 223.945 175.381 221.272 166.829 220.184C158.282 219.097 151.442 214.434 151.442 214.434C151.442 214.434 146.936 220.65 138.543 225.468C130.148 230.288 127.042 238.682 127.042 238.682C123.932 250.908 130.773 253.604 131.602 257.539C132.429 261.477 127.042 258.99 127.042 270.181C127.042 281.373 138.442 279.299 138.442 279.299C140.513 272.512 138.232 272.721 136.679 261.374Z" fill="url(#paint6_linear)"/>
<path d="M96.5781 325.877C119.889 311.42 126.212 297.744 126.212 297.744C125.175 293.787 123.03 291.812 120.991 290.822C117.212 306.994 96.5781 325.877 96.5781 325.877Z" fill="url(#paint7_linear)"/>
<path d="M65.1775 276.917C53.0549 293.237 47.3282 310.216 38.4463 319.504C38.4463 319.504 49.4815 309.867 57.406 297.122C65.3361 284.378 76.3695 277.849 76.3695 277.849C76.3695 277.849 60.0506 293.548 55.385 308.623C55.385 308.623 82.469 263.007 105.122 275.591C105.488 267.378 101.964 264.998 101.964 264.998C102.791 257.747 98.4414 257.126 98.4414 257.126C98.4414 257.126 77.3031 260.596 65.1775 276.917Z" fill="url(#paint8_linear)"/>
<path d="M174.291 292.7C178.173 290.61 186.102 285.308 185.889 289.35C185.674 293.39 186.257 296.502 184.082 303.805C181.906 311.111 180.35 297.276 180.35 297.276C178.486 312.042 170.096 313.909 170.096 313.909C180.194 312.354 183.925 315.462 194.652 317.949C205.374 320.436 207.861 317.949 207.861 317.949C195.895 299.452 200.558 287.486 204.288 281.578C208.016 275.672 206.776 270.542 206.776 270.542C199.936 276.604 193.719 266.346 193.719 266.346C190.143 271.943 184.704 274.585 173.204 273.34C161.701 272.099 156.106 275.207 150.819 275.983C145.534 276.76 146.002 280.492 143.515 283.289C141.029 286.085 138.076 288.313 138.076 288.313C138.248 289.938 138.441 291.112 138.441 291.112C143.618 296.294 148.643 297.898 159.677 297.898C170.716 297.899 170.406 294.791 174.291 292.7Z" fill="url(#paint9_linear)"/>
<path d="M108.39 364.889C124.576 354.447 139.599 337.137 143.996 331.861C138.258 338.131 120.571 351.133 102.379 361.367C88.987 368.899 77.1075 381.119 70.7666 388.307H85.3299C88.5146 382.858 95.4674 373.226 108.39 364.889Z" fill="url(#paint10_linear)"/>
<path d="M143.996 331.861C144.533 331.273 144.973 330.741 145.29 330.279C145.29 330.279 144.834 330.854 143.996 331.861Z" fill="url(#paint11_linear)"/>
<path d="M26.0086 84.9631C26.0086 84.9631 28.964 89.3141 32.692 91.0251C36.4225 92.7331 35.6459 96.308 40.618 99.8848C40.618 99.8848 38.8275 95.1946 35.1773 90.2475C32.5643 86.7045 26.3191 86.5163 26.7852 80.4542C27.2528 74.3939 29.7373 71.1277 38.7538 80.4542C47.7713 89.7807 48.3191 92.3711 48.3191 92.3711C59.8786 90.2298 65.6003 81.5375 68.3001 72.6493C67.0861 61.2007 60.4521 47.611 35.8098 47.611C8.87716 47.611 2.02079 60.6703 0.621094 70.2675C3.00458 83.0274 11.6084 88.4329 11.6084 88.4329C10.3602 91.5413 12.6416 93.4068 12.6416 93.4068C12.6416 93.4068 16.8364 91.0249 20.5676 90.2475C24.3009 89.4702 25.8533 85.8937 26.0086 84.9631Z" fill="url(#paint12_linear)"/>
<path d="M47.4589 332.404C48.7031 324.789 51.1884 310.178 51.1884 310.178C46.5268 318.726 41.7099 326.807 37.0458 333.336C32.3827 339.865 29.0146 337.743 29.0146 337.743C30.674 346.86 44.353 343.544 44.353 343.544C41.4518 365.926 53.8859 374.214 53.8859 374.214C53.8859 353.697 59.2725 316.085 59.2725 316.085C51.6567 321.991 47.4589 332.404 47.4589 332.404Z" fill="url(#paint13_linear)"/>
<path d="M42.332 148.843C45.5972 145.735 45.7517 139.827 42.332 137.186C42.332 137.186 40.9323 135.476 41.8629 133.302C42.7998 131.124 43.2649 123.665 40.9325 119.156C38.6017 114.65 37.9771 108.743 38.7563 104.703C38.7563 104.703 35.8249 116.22 36.8221 124.37C36.9272 125.195 37.0308 125.929 37.1359 126.613C37.6793 127.284 38.2193 127.998 38.756 128.793C38.219 127.998 37.679 127.284 37.1359 126.613C38.0815 132.719 39.0949 133.786 37.9771 136.721C36.7375 139.983 32.7451 140.864 31.0881 146.252C30.5058 158.482 30.3568 169.022 30.5131 178.105C32.5939 175.511 36.0486 170.548 37.8244 164.386C40.464 155.216 39.0683 151.953 42.332 148.843Z" fill="url(#paint14_linear)"/>
<path d="M182.682 235.106C178.486 233.709 179.42 234.485 177.087 234.33C174.756 234.174 169.782 231.687 169.157 229.512C168.539 227.336 166.497 227.945 164.82 228.171C161.894 228.572 159.024 230.21 155.948 234.641C150.036 243.163 153.926 246.919 150.042 248.318C146.157 249.717 144.447 252.825 145.691 255.469C146.935 258.11 148.024 258.473 150.976 257.127C153.926 255.778 153.308 256.737 153.153 257.89C152.997 259.044 145.511 259.976 145.289 264.172C145.289 264.172 154.861 254.847 161.856 259.976C161.856 259.976 160.21 256.711 155.594 256.402C150.976 256.09 155.482 252.981 157.661 253.449C159.835 253.914 162.166 250.853 158.591 249.042C155.016 247.229 154.861 241.168 158.122 240.391C161.387 239.613 161.078 242.102 164.653 240.391C168.229 238.683 165.742 233.862 171.025 234.952C176.309 236.038 176.468 237.904 174.911 240.391C173.358 242.878 178.332 242.878 182.682 241.633C187.034 240.39 186.878 236.505 182.682 235.106Z" fill="url(#paint15_linear)"/>
<path d="M161.159 260.675C161.159 260.675 158.434 262.228 153.927 262.851C149.421 263.472 146.468 268.368 146.468 268.368C148.412 265.803 149.578 265.57 154.552 264.947C159.525 264.326 162.631 262.073 162.631 262.073C162.322 260.985 161.159 260.675 161.159 260.675Z" fill="url(#paint16_linear)"/>
<path d="M217.506 365.51C219.057 358.465 221.75 364.889 224.444 370.07C224.444 370.07 226.026 340.52 212.009 330.279C210.463 329.148 207.655 326.756 204.756 332.766C201.853 338.777 189.624 355.977 182.58 359.501C182.58 359.501 192.321 362.195 201.649 354.318C201.649 354.318 199.573 353.49 197.295 352.661C195.015 351.833 205.582 346.031 207.862 341.678C210.146 337.327 209.729 353.904 205.998 364.061C203.511 370.835 206.281 381.662 208.891 388.307H226.756C222.767 381.42 216.458 370.282 217.506 365.51Z" fill="url(#paint17_linear)"/>
<path d="M254.952 388.304H248.273C248.212 387.507 248.126 386.66 248.051 385.779C247.851 384.247 247.689 382.572 247.354 380.816C247.193 379.935 247.032 379.025 246.86 378.106C246.646 377.187 246.434 376.24 246.208 375.283C245.811 373.355 245.177 371.429 244.62 369.428C244.022 367.451 243.278 365.473 242.593 363.471C241.785 361.532 241.012 359.544 240.169 357.64C239.262 355.763 238.387 353.885 237.507 352.094C236.535 350.34 235.602 348.649 234.721 347.045C233.813 345.441 232.843 344.012 231.999 342.63C231.14 341.275 230.381 340.008 229.586 338.963C228.828 337.907 228.168 336.973 227.619 336.215C226.652 334.873 226.054 334.027 225.917 333.839C226.054 333.989 226.752 334.76 227.872 336.003C228.493 336.713 229.261 337.57 230.134 338.552C231.04 339.511 231.936 340.691 232.942 341.958C233.937 343.239 235.082 344.584 236.166 346.1C237.234 347.617 238.364 349.234 239.53 350.899C240.643 352.617 241.722 354.42 242.864 356.247C243.948 358.1 244.944 360.037 245.997 361.965C246.931 363.944 247.913 365.909 248.771 367.898C249.582 369.912 250.463 371.864 251.097 373.83C251.444 374.811 251.78 375.781 252.102 376.725C252.389 377.684 252.663 378.616 252.935 379.535C253.498 381.364 253.869 383.142 254.269 384.77C254.516 386.038 254.768 387.209 254.952 388.304Z" fill="url(#paint18_linear)"/>
<path d="M263.915 388.304C263.952 386.623 263.915 384.92 263.915 383.204C263.777 381.09 263.691 378.977 263.515 376.889C263.267 374.811 263.056 372.759 262.794 370.782C262.448 368.819 262.112 366.905 261.798 365.099C261.465 363.298 261.006 361.618 260.659 360.052C260.296 358.485 259.975 357.043 259.565 355.798C259.192 354.545 258.866 353.448 258.59 352.553C258.059 350.75 257.75 349.72 257.75 349.72C257.75 349.72 258.17 350.702 258.903 352.443C259.266 353.311 259.711 354.369 260.223 355.575C260.767 356.781 261.228 358.186 261.776 359.716C262.301 361.245 262.945 362.888 263.482 364.677C264.005 366.468 264.535 368.359 265.107 370.311C265.592 372.286 266.031 374.351 266.514 376.452C266.933 378.553 267.247 380.717 267.634 382.882C267.83 384.684 268.067 386.5 268.231 388.304H263.915Z" fill="url(#paint19_linear)"/>
<path d="M159.654 336.75C159.434 337.198 157.592 340.99 154.905 346.499C153.474 349.446 151.808 352.865 150.019 356.546C149.123 358.387 148.19 360.275 147.258 362.203C146.3 364.142 145.42 366.07 144.36 368.072C143.228 370.024 142.096 372.027 140.855 373.792C140.244 374.7 139.636 375.594 139.038 376.476C138.418 377.348 137.808 378.194 137.212 379.038C136.006 380.73 134.811 382.309 133.669 383.826C132.533 385.344 131.439 386.749 130.434 388.041C130.359 388.129 130.296 388.215 130.236 388.304H121.368C122.563 387.107 124.031 385.63 125.673 383.913C126.803 382.758 128.022 381.488 129.291 380.132C130.557 378.777 131.902 377.347 133.231 375.844C133.9 375.085 134.587 374.327 135.284 373.545C135.954 372.759 136.624 371.963 137.297 371.157C138.705 369.552 139.907 367.86 141.151 366.168C142.322 364.441 143.465 362.513 144.609 360.723C145.752 358.908 146.872 357.116 147.954 355.389C150.13 351.933 152.159 348.697 153.885 345.927C157.129 340.767 159.355 337.211 159.654 336.75Z" fill="url(#paint20_linear)"/>
<path d="M129.732 362.193C129.732 362.193 130.271 360.72 131.488 358.253C132.71 355.795 134.612 352.335 137.386 348.485C138.06 347.507 138.848 346.555 139.62 345.528C140.402 344.509 141.322 343.55 142.209 342.509C143.121 341.493 144.14 340.515 145.142 339.479C146.188 338.486 147.325 337.539 148.46 336.551C149.678 335.662 150.872 334.696 152.17 333.83C153.509 333.035 154.787 332.087 156.249 331.427C157.706 330.758 159.111 329.95 160.68 329.472L162.984 328.654C163.826 328.354 164.512 328.219 165.286 327.992L167.55 327.409L169.879 326.896C171.437 326.536 172.973 326.256 174.501 325.97C177.55 325.384 180.579 325.027 183.497 324.647C186.412 324.283 189.238 324.03 191.908 323.786C194.57 323.547 197.089 323.321 199.411 323.112C200.569 323.01 201.675 322.878 202.72 322.752C203.777 322.652 204.762 322.5 205.692 322.355C207.542 322.061 209.141 321.723 210.424 321.318C211.086 321.161 211.609 320.885 212.1 320.699C212.347 320.6 212.57 320.507 212.777 320.423C212.964 320.307 213.134 320.2 213.288 320.103C213.906 319.711 214.236 319.504 214.236 319.504C214.236 319.504 213.946 319.768 213.406 320.269C213.268 320.393 213.113 320.533 212.942 320.689C212.751 320.81 212.541 320.946 212.318 321.089C211.857 321.372 211.342 321.752 210.698 322.008C209.446 322.618 207.86 323.232 206.006 323.748C204.153 324.293 202.033 324.796 199.722 325.231C197.412 325.698 194.906 326.131 192.26 326.55C189.62 326.979 186.837 327.431 183.96 327.9C181.092 328.368 178.151 328.932 175.172 329.509C173.688 329.807 172.183 330.105 170.719 330.466L168.498 330.984L166.24 331.596C165.515 331.798 164.665 331.967 164.042 332.195L161.943 332.91C160.519 333.312 159.216 334.048 157.879 334.636C157.196 334.919 156.57 335.298 155.937 335.668C155.3 336.03 154.668 336.39 154.04 336.745C152.802 337.497 151.645 338.359 150.466 339.141C149.356 340.027 148.265 340.899 147.194 341.751C146.173 342.672 145.14 343.534 144.195 344.447C142.319 346.282 140.58 348.077 139.056 349.812C136.013 353.289 133.691 356.405 132.122 358.631C131.35 359.752 130.732 360.63 130.338 361.245C129.943 361.865 129.732 362.193 129.732 362.193Z" fill="url(#paint21_linear)"/>
<path d="M168.237 208.92C170.067 209.121 171.852 209.454 173.59 209.914L177.289 198.48C175.282 197.943 173.177 197.528 170.974 197.255L168.237 208.92Z" fill="url(#paint22_linear)"/>
<path d="M194.642 207.689C192.852 206.156 190.937 204.732 188.876 203.459L183.373 213.956C184.738 214.73 186.07 215.565 187.357 216.47L194.642 207.689Z" fill="url(#paint23_linear)"/>
<path d="M200.728 213.886C199.415 212.309 198.006 210.791 196.494 209.354L189.355 217.952C190.703 218.996 191.996 220.104 193.241 221.259L200.728 213.886Z" fill="url(#paint24_linear)"/>
<path d="M215.927 245.769C215.584 244.38 215.186 242.864 214.709 241.263L210.577 245.182C211.206 246.494 211.771 247.757 212.265 248.96L215.927 245.769Z" fill="url(#paint25_linear)"/>
<path d="M213.883 238.617C213.539 237.561 213.16 236.477 212.751 235.372L207.824 239.931C208.39 240.922 208.915 241.896 209.411 242.86L213.883 238.617Z" fill="url(#paint26_linear)"/>
<path d="M211.789 232.877C211.218 231.462 210.594 230.025 209.914 228.578L203.844 233.61C204.796 234.986 205.692 236.369 206.528 237.739L211.789 232.877Z" fill="url(#paint27_linear)"/>
<path d="M199.952 228.441C200.793 229.479 201.614 230.524 202.396 231.58L208.791 226.281C208.053 224.833 207.261 223.381 206.403 221.944L199.952 228.441Z" fill="url(#paint28_linear)"/>
<path d="M186.716 202.221C184.518 201.034 182.181 200.006 179.674 199.183L175.974 210.623C177.763 211.224 179.498 211.952 181.175 212.789L186.716 202.221Z" fill="url(#paint29_linear)"/>
<path d="M205.053 219.774C204.189 218.441 203.265 217.126 202.288 215.843L195.037 222.986C196.185 224.135 197.286 225.321 198.343 226.533L205.053 219.774Z" fill="url(#paint30_linear)"/>
<path d="M168.477 197.011C167.231 196.922 165.961 196.871 164.654 196.871C163.024 196.871 161.481 196.979 159.991 197.138V208.874C161.387 208.759 162.825 208.684 164.345 208.684C164.81 208.684 165.264 208.719 165.727 208.737L168.477 197.011Z" fill="url(#paint31_linear)"/>
<path d="M131.129 220.437C128.424 227.419 127.971 233.242 127.971 233.242C127.971 233.242 129.048 228.674 132.717 223.48L131.129 220.437Z" fill="url(#paint32_linear)"/>
<path d="M213.218 251.428C214.158 254.047 214.719 256.253 214.856 257.8C214.856 257.8 217.652 258.52 217.499 254.507C217.472 253.816 217.202 251.644 216.549 248.525L213.218 251.428Z" fill="url(#paint33_linear)"/>
<path d="M157.503 197.486C155.42 197.849 153.474 198.361 151.673 199.006L152.285 210.158C153.915 209.731 155.657 209.39 157.503 209.142V197.486Z" fill="url(#paint34_linear)"/>
<path d="M134.388 221.309C135.001 220.578 135.669 219.845 136.392 219.118L134.477 213.533C133.691 214.848 133.008 216.171 132.395 217.48L134.388 221.309Z" fill="url(#paint35_linear)"/>
<path d="M145.176 212.807C146.615 212.092 148.161 211.439 149.835 210.881L149.239 199.99C147.095 200.962 145.169 202.125 143.434 203.428L145.176 212.807Z" fill="url(#paint36_linear)"/>
<path d="M138.392 217.273C139.722 216.139 141.215 215.059 142.881 214.063L141.237 205.218C139.289 206.972 137.629 208.903 136.209 210.903L138.392 217.273Z" fill="url(#paint37_linear)"/>
<path d="M38.5842 126.188L37.6012 127.047C27.3684 115.52 16.4629 122.842 16.0027 123.166L15.9756 123.142C16.1762 122.967 16.3738 122.806 16.5873 122.632L16.5235 121.377C19.933 119.636 29.6291 116.116 38.5842 126.188Z" fill="url(#paint38_linear)"/>
<path d="M28.7862 141.059C28.7112 141.01 28.4612 140.86 28.0501 140.625C27.5643 140.326 26.8713 139.94 25.9886 139.568C25.5648 139.369 25.0772 139.195 24.5683 139.019C24.0466 138.871 23.4984 138.734 22.928 138.672C21.7849 138.498 20.5638 138.647 19.5552 139.184C18.5516 139.717 17.7659 140.6 17.2196 141.545C16.6722 142.49 16.3249 143.484 16.0868 144.355C15.8551 145.225 15.7277 145.969 15.6646 146.492C15.6393 146.731 15.6155 146.941 15.6026 147.078C15.044 145.81 14.6834 144.355 14.4873 142.826C14.8194 142.104 15.2583 141.333 15.8135 140.587C16.599 139.542 17.7023 138.548 19.0613 138.038C20.4027 137.528 21.8556 137.567 23.077 137.89C23.6849 138.038 24.2454 138.261 24.7679 138.486C25.2793 138.722 25.7495 138.959 26.1725 139.219C27.0048 139.717 27.6661 140.189 28.1137 140.536C28.4612 140.81 28.697 140.986 28.7862 141.059Z" fill="url(#paint39_linear)"/>
<path d="M28.7233 95.6993C28.6978 95.7854 28.5362 96.1724 28.3123 96.77C28.1864 97.1172 27.9873 97.5156 27.7778 97.9873C27.5888 98.4731 27.2925 98.9685 26.9827 99.5422C26.6841 100.102 26.2332 100.649 25.8125 101.258C25.5529 101.519 25.2915 101.805 25.027 102.079L24.6056 102.514L24.1342 102.874C23.8107 103.124 23.4746 103.385 23.14 103.632C22.7783 103.855 22.3951 104.045 22.0088 104.255C21.2256 104.725 20.4308 104.951 19.6461 105.249L19.0509 105.461C18.7753 105.56 18.675 105.609 18.4766 105.684L17.9533 105.883L17.5103 106.181C16.8969 106.554 16.5017 107.113 16.1768 107.685C15.9042 108.295 15.7036 108.916 15.6542 109.563C15.5564 110.197 15.5785 110.831 15.616 111.403C15.6795 112.386 15.8652 113.244 16.0268 113.879C15.654 113.766 14.5342 113.331 13.5281 112.213C13.5281 112.213 13.5281 112.213 13.5281 112.2C13.5146 111.963 13.5146 111.716 13.5146 111.455C13.5281 110.771 13.5767 110.024 13.7646 109.24C13.9143 108.445 14.2497 107.625 14.7094 106.841C15.2208 106.082 15.8923 105.348 16.736 104.926L17.3685 104.59L18.044 104.392L18.6628 104.217L19.2722 104.056C20.0815 103.844 20.9379 103.671 21.6094 103.323C21.9726 103.174 22.331 103.011 22.6816 102.861C23.0144 102.651 23.3381 102.454 23.6631 102.253L24.1451 101.94L24.5688 101.582C24.8437 101.334 25.1167 101.096 25.3804 100.873C25.8394 100.325 26.3221 99.852 26.659 99.3307C27.0055 98.8082 27.3439 98.3495 27.5759 97.8875C27.8259 97.4414 28.0506 97.0559 28.2125 96.7309C28.5116 96.16 28.6833 95.7854 28.7233 95.6993Z" fill="url(#paint40_linear)"/>
<path d="M27.0305 91.2115C26.9335 91.8566 26.7063 92.827 25.9969 93.7733C25.6382 94.2447 25.1787 94.7054 24.605 95.0653C24.0371 95.4508 23.3616 95.7249 22.6542 95.9366C22.2925 96.0228 21.9069 96.0848 21.524 96.1598C21.1488 96.2089 20.7887 96.2234 20.4173 96.2586C19.6336 96.3462 18.9852 96.3574 18.312 96.5947C17.9799 96.6697 17.6549 96.8049 17.3449 96.9546C17.0351 97.0805 16.7355 97.2525 16.4632 97.4531C16.162 97.6269 15.9039 97.8244 15.6539 98.0491C15.3928 98.2609 15.1537 98.484 14.9323 98.734C14.7091 98.9681 14.4989 99.2054 14.311 99.4668C14.1086 99.7026 13.9252 99.9511 13.7747 100.212C13.4297 100.709 13.1549 101.221 12.9168 101.692C12.5311 102.462 12.2484 103.172 12.0741 103.717C11.9227 103.496 11.2902 102.462 10.8672 101.02C10.9303 100.894 11.0161 100.771 11.0901 100.649C11.4262 100.136 11.7879 99.6038 12.2332 99.0686C12.4452 98.7945 12.696 98.5331 12.9574 98.272C13.1922 97.9979 13.4766 97.7368 13.7643 97.5007C14.0478 97.2411 14.3619 97.0038 14.698 96.7933C15.0078 96.5575 15.3543 96.3457 15.7279 96.172C16.0784 95.9729 16.4487 95.8118 16.8457 95.6988C17.2327 95.5506 17.6174 95.4377 18.0295 95.3883C18.8117 95.1892 19.6975 95.2639 20.3923 95.2512C20.7514 95.2512 21.1395 95.2766 21.486 95.2639C21.8221 95.2256 22.1574 95.213 22.4809 95.1636C23.1397 95.041 23.7729 94.8657 24.3099 94.5679C24.8667 94.3065 25.3279 93.9194 25.7015 93.5369C26.4487 92.7262 26.7588 91.8067 26.9338 91.1854C27.0835 90.5514 27.0835 90.1656 27.0835 90.1656C27.0835 90.1656 27.1293 90.5519 27.0305 91.2115Z" fill="url(#paint41_linear)"/>
</g>
<defs>
<linearGradient id="paint0_linear" x1="72.2005" y1="241.568" x2="92.8964" y2="255.922" gradientUnits="userSpaceOnUse">
<stop stop-color="#00236A"/>
</linearGradient>
<linearGradient id="paint1_linear" x1="59.3738" y1="5.44769" x2="93.0332" y2="32.411" gradientUnits="userSpaceOnUse">
<stop stop-color="#00236A"/>
</linearGradient>
<linearGradient id="paint2_linear" x1="84.065" y1="249.044" x2="93.7937" y2="259.555" gradientUnits="userSpaceOnUse">
<stop stop-color="#00236A"/>
</linearGradient>
<linearGradient id="paint3_linear" x1="75.3098" y1="214.434" x2="91.8353" y2="219.634" gradientUnits="userSpaceOnUse">
<stop stop-color="#00236A"/>
</linearGradient>
<linearGradient id="paint4_linear" x1="24.7068" y1="40.4879" x2="44.489" y2="71.1897" gradientUnits="userSpaceOnUse">
<stop stop-color="#00236A"/>
</linearGradient>
<linearGradient id="paint5_linear" x1="31.035" y1="146.253" x2="31.1126" y2="146.265" gradientUnits="userSpaceOnUse">
<stop stop-color="#00236A"/>
</linearGradient>
<linearGradient id="paint6_linear" x1="149.458" y1="214.434" x2="198.384" y2="241.253" gradientUnits="userSpaceOnUse">
<stop stop-color="#00236A"/>
</linearGradient>
<linearGradient id="paint7_linear" x1="106.991" y1="290.822" x2="130.614" y2="301.592" gradientUnits="userSpaceOnUse">
<stop stop-color="#00236A"/>
</linearGradient>
<linearGradient id="paint8_linear" x1="61.8846" y1="257.126" x2="110.08" y2="284.919" gradientUnits="userSpaceOnUse">
<stop stop-color="#00236A"/>
</linearGradient>
<linearGradient id="paint9_linear" x1="162.598" y1="266.346" x2="207.1" y2="298.121" gradientUnits="userSpaceOnUse">
<stop stop-color="#00236A"/>
</linearGradient>
<linearGradient id="paint10_linear" x1="96.4984" y1="331.861" x2="143.835" y2="364.979" gradientUnits="userSpaceOnUse">
<stop stop-color="#00236A"/>
</linearGradient>
<linearGradient id="paint11_linear" x1="144.451" y1="330.279" x2="145.494" y2="330.739" gradientUnits="userSpaceOnUse">
<stop stop-color="#00236A"/>
</linearGradient>
<linearGradient id="paint12_linear" x1="24.4027" y1="47.611" x2="68.2096" y2="78.1983" gradientUnits="userSpaceOnUse">
<stop stop-color="#00236A"/>
</linearGradient>
<linearGradient id="paint13_linear" x1="39.6469" y1="310.178" x2="67.0038" y2="317.149" gradientUnits="userSpaceOnUse">
<stop stop-color="#00236A"/>
</linearGradient>
<linearGradient id="paint14_linear" x1="35.5095" y1="104.703" x2="49.206" y2="106.15" gradientUnits="userSpaceOnUse">
<stop stop-color="#00236A"/>
</linearGradient>
<linearGradient id="paint15_linear" x1="159.555" y1="227.918" x2="188.198" y2="245.216" gradientUnits="userSpaceOnUse">
<stop stop-color="#00236A"/>
</linearGradient>
<linearGradient id="paint16_linear" x1="152.147" y1="260.675" x2="158.962" y2="268.396" gradientUnits="userSpaceOnUse">
<stop stop-color="#00236A"/>
</linearGradient>
<linearGradient id="paint17_linear" x1="198.103" y1="328.844" x2="234.754" y2="343.529" gradientUnits="userSpaceOnUse">
<stop stop-color="#00236A"/>
</linearGradient>
<linearGradient id="paint18_linear" x1="236.12" y1="333.839" x2="261.942" y2="341.263" gradientUnits="userSpaceOnUse">
<stop stop-color="#00236A"/>
</linearGradient>
<linearGradient id="paint19_linear" x1="261.433" y1="349.72" x2="271.313" y2="351.168" gradientUnits="userSpaceOnUse">
<stop stop-color="#00236A"/>
</linearGradient>
<linearGradient id="paint20_linear" x1="134.821" y1="336.75" x2="166.588" y2="349.473" gradientUnits="userSpaceOnUse">
<stop stop-color="#00236A"/>
</linearGradient>
<linearGradient id="paint21_linear" x1="159.426" y1="319.504" x2="197.453" y2="360.099" gradientUnits="userSpaceOnUse">
<stop stop-color="#00236A"/>
</linearGradient>
<linearGradient id="paint22_linear" x1="171.418" y1="197.255" x2="179.005" y2="200.181" gradientUnits="userSpaceOnUse">
<stop stop-color="#00236A"/>
</linearGradient>
<linearGradient id="paint23_linear" x1="187.333" y1="203.459" x2="196.239" y2="207.619" gradientUnits="userSpaceOnUse">
<stop stop-color="#00236A"/>
</linearGradient>
<linearGradient id="paint24_linear" x1="193.352" y1="209.354" x2="202.005" y2="213.811" gradientUnits="userSpaceOnUse">
<stop stop-color="#00236A"/>
</linearGradient>
<linearGradient id="paint25_linear" x1="212.457" y1="241.263" x2="216.973" y2="242.956" gradientUnits="userSpaceOnUse">
<stop stop-color="#00236A"/>
</linearGradient>
<linearGradient id="paint26_linear" x1="209.953" y1="235.372" x2="214.854" y2="237.51" gradientUnits="userSpaceOnUse">
<stop stop-color="#00236A"/>
</linearGradient>
<linearGradient id="paint27_linear" x1="206.636" y1="228.578" x2="212.912" y2="231.514" gradientUnits="userSpaceOnUse">
<stop stop-color="#00236A"/>
</linearGradient>
<linearGradient id="paint28_linear" x1="203.058" y1="221.944" x2="209.895" y2="225.326" gradientUnits="userSpaceOnUse">
<stop stop-color="#00236A"/>
</linearGradient>
<linearGradient id="paint29_linear" x1="179.748" y1="199.183" x2="188.504" y2="202.911" gradientUnits="userSpaceOnUse">
<stop stop-color="#00236A"/>
</linearGradient>
<linearGradient id="paint30_linear" x1="198.556" y1="215.843" x2="206.239" y2="219.724" gradientUnits="userSpaceOnUse">
<stop stop-color="#00236A"/>
</linearGradient>
<linearGradient id="paint31_linear" x1="162.973" y1="196.871" x2="170.106" y2="199.591" gradientUnits="userSpaceOnUse">
<stop stop-color="#00236A"/>
</linearGradient>
<linearGradient id="paint32_linear" x1="129.638" y1="220.437" x2="134.033" y2="221.316" gradientUnits="userSpaceOnUse">
<stop stop-color="#00236A"/>
</linearGradient>
<linearGradient id="paint33_linear" x1="214.724" y1="248.525" x2="218.613" y2="249.489" gradientUnits="userSpaceOnUse">
<stop stop-color="#00236A"/>
</linearGradient>
<linearGradient id="paint34_linear" x1="153.721" y1="197.486" x2="159.009" y2="198.798" gradientUnits="userSpaceOnUse">
<stop stop-color="#00236A"/>
</linearGradient>
<linearGradient id="paint35_linear" x1="133.799" y1="213.533" x2="137.373" y2="214.523" gradientUnits="userSpaceOnUse">
<stop stop-color="#00236A"/>
</linearGradient>
<linearGradient id="paint36_linear" x1="145.683" y1="199.99" x2="151.429" y2="201.538" gradientUnits="userSpaceOnUse">
<stop stop-color="#00236A"/>
</linearGradient>
<linearGradient id="paint37_linear" x1="138.554" y1="205.218" x2="144.452" y2="206.978" gradientUnits="userSpaceOnUse">
<stop stop-color="#00236A"/>
</linearGradient>
<linearGradient id="paint38_linear" x1="23.92" y1="119.339" x2="30.1357" y2="129.171" gradientUnits="userSpaceOnUse">
<stop stop-color="#00236A"/>
</linearGradient>
<linearGradient id="paint39_linear" x1="19.5118" y1="137.65" x2="27.7605" y2="144.397" gradientUnits="userSpaceOnUse">
<stop stop-color="#00236A"/>
</linearGradient>
<linearGradient id="paint40_linear" x1="18.8588" y1="95.6993" x2="31.0258" y2="101.188" gradientUnits="userSpaceOnUse">
<stop stop-color="#00236A"/>
</linearGradient>
<linearGradient id="paint41_linear" x1="16.5691" y1="90.1656" x2="27.5951" y2="97.2858" gradientUnits="userSpaceOnUse">
<stop stop-color="#00236A"/>
</linearGradient>
</defs>
</svg>
