<svg width="123" height="124" viewBox="0 0 123 124" fill="none" xmlns="http://www.w3.org/2000/svg">
<circle cx="61.5005" cy="61.6738" r="61.5" fill="#3A3849"/>
<path fill-rule="evenodd" clip-rule="evenodd" d="M66.4612 42.1838C68.1315 41.517 69.9218 41.1738 71.7298 41.1738C73.5378 41.1738 75.3281 41.517 76.9984 42.1838C78.6684 42.8505 80.1857 43.8275 81.4637 45.0592C82.7421 46.2905 83.757 47.753 84.449 49.3619C85.141 50.9711 85.4973 52.696 85.4973 54.4379C85.4973 56.1797 85.141 57.9046 84.449 59.5138C83.7569 61.1229 82.7427 62.5848 81.4641 63.8162C81.464 63.8163 81.4642 63.816 81.4641 63.8162L62.7456 81.8502C61.9187 82.6469 60.578 82.6469 59.751 81.8502L41.0326 63.8162C38.4509 61.3289 37.0005 57.9554 37.0005 54.4379C37.0005 50.9203 38.4509 47.5468 41.0326 45.0595C43.6142 42.5723 47.1158 41.1749 50.7668 41.1749C54.4179 41.1749 57.9194 42.5723 60.5011 45.0595L61.2483 45.7795L61.9952 45.0599C61.9953 45.0598 61.9951 45.06 61.9952 45.0599C63.2733 43.828 64.7911 42.8505 66.4612 42.1838ZM71.7298 45.2539C70.4781 45.2539 69.2387 45.4915 68.0823 45.9531C66.926 46.4148 65.8753 47.0913 64.9905 47.9443L62.7456 50.1071C61.9187 50.9037 60.578 50.9037 59.751 50.1071L57.5065 47.9446C55.719 46.2225 53.2947 45.255 50.7668 45.255C48.2389 45.255 45.8146 46.2225 44.0271 47.9446C42.2396 49.6667 41.2354 52.0024 41.2354 54.4379C41.2354 56.8733 42.2396 59.209 44.0271 60.9311L61.2483 77.5226L78.4695 60.9311C79.3548 60.0786 80.0574 59.066 80.5366 57.952C81.0157 56.8379 81.2623 55.6438 81.2623 54.4379C81.2623 53.2319 81.0157 52.0378 80.5366 50.9237C80.0574 49.8097 79.3551 48.7975 78.4699 47.9449C77.585 47.092 76.5337 46.4148 75.3773 45.9531C74.2209 45.4915 72.9815 45.2539 71.7298 45.2539Z" fill="white"/>
</svg>
