<svg width="30" height="30" viewBox="0 0 30 30" fill="none" xmlns="http://www.w3.org/2000/svg">
<path fill-rule="evenodd" clip-rule="evenodd" d="M19.4399 4.30391C17.1235 3.27178 14.5355 3.01609 12.0619 3.57496C9.58832 4.13384 7.36165 5.47735 5.71399 7.40511C4.06632 9.33287 3.08596 11.7416 2.9191 14.2721C2.75224 16.8025 3.40783 19.3191 4.7881 21.4465C6.16836 23.574 8.19935 25.1982 10.5781 26.0771C12.9569 26.9559 15.5561 27.0422 17.988 26.3232C20.4199 25.6042 22.5542 24.1183 24.0726 22.0872C25.591 20.056 26.4122 17.5885 26.4136 15.0526V13.8512C26.4136 13.1295 26.9986 12.5445 27.7203 12.5445C28.4419 12.5445 29.0269 13.1295 29.0269 13.8512V15.0533C29.0252 18.1528 28.0215 21.1694 26.1657 23.6519C24.3099 26.1344 21.7013 27.9505 18.729 28.8293C15.7567 29.7081 12.5799 29.6026 9.67249 28.5284C6.76506 27.4543 4.28275 25.4691 2.59576 22.8689C0.908771 20.2687 0.107493 17.1929 0.31143 14.1001C0.515367 11.0073 1.71359 8.06332 3.7274 5.70717C5.74121 3.35102 8.4627 1.70896 11.486 1.02588C14.5093 0.342809 17.6724 0.655325 20.5036 1.91682C21.1627 2.21053 21.459 2.983 21.1653 3.64218C20.8716 4.30136 20.0991 4.59762 19.4399 4.30391Z" fill="white"/>
<path fill-rule="evenodd" clip-rule="evenodd" d="M28.6436 3.67559C29.1541 4.18562 29.1545 5.01295 28.6445 5.52349L15.5778 18.6032C15.3328 18.8485 15.0004 18.9863 14.6538 18.9864C14.3071 18.9865 13.9746 18.8488 13.7295 18.6037L9.80947 14.6837C9.29919 14.1734 9.29919 13.3461 9.80947 12.8358C10.3198 12.3255 11.1471 12.3255 11.6574 12.8358L14.653 15.8314L26.7957 3.67651C27.3057 3.16597 28.133 3.16556 28.6436 3.67559Z" fill="white"/>
</svg>
