<svg width="25" height="30" viewBox="0 0 25 30" fill="none" xmlns="http://www.w3.org/2000/svg">
<path fill-rule="evenodd" clip-rule="evenodd" d="M2.0417 1.82807C2.77684 1.09293 3.77391 0.679932 4.81355 0.679932H15.2669C15.6134 0.679932 15.9458 0.817598 16.1908 1.06265L24.0308 8.90265C24.2759 9.14769 24.4136 9.48005 24.4136 9.8266V25.5066C24.4136 26.5462 24.0006 27.5433 23.2654 28.2785C22.5303 29.0136 21.5332 29.4266 20.4936 29.4266H4.81355C3.77391 29.4266 2.77684 29.0136 2.0417 28.2785C1.30655 27.5433 0.893555 26.5462 0.893555 25.5066V4.59993C0.893555 3.56028 1.30655 2.56322 2.0417 1.82807ZM4.81355 3.29326C4.467 3.29326 4.13465 3.43093 3.8896 3.67598C3.64455 3.92103 3.50689 4.25338 3.50689 4.59993V25.5066C3.50689 25.8531 3.64455 26.1855 3.8896 26.4305C4.13465 26.6756 4.46701 26.8133 4.81355 26.8133H20.4936C20.8401 26.8133 21.1725 26.6756 21.4175 26.4305C21.6626 26.1855 21.8002 25.8531 21.8002 25.5066V10.3678L14.7256 3.29326H4.81355Z" fill="white"/>
<path fill-rule="evenodd" clip-rule="evenodd" d="M15.2669 0.679932C15.9885 0.679932 16.5736 1.26495 16.5736 1.9866V8.51993H23.1069C23.8285 8.51993 24.4136 9.10495 24.4136 9.8266C24.4136 10.5483 23.8285 11.1333 23.1069 11.1333H15.2669C14.5452 11.1333 13.9602 10.5483 13.9602 9.8266V1.9866C13.9602 1.26495 14.5452 0.679932 15.2669 0.679932Z" fill="white"/>
<path fill-rule="evenodd" clip-rule="evenodd" d="M6.12022 16.3599C6.12022 15.6383 6.70524 15.0533 7.42689 15.0533H17.8802C18.6019 15.0533 19.1869 15.6383 19.1869 16.3599C19.1869 17.0816 18.6019 17.6666 17.8802 17.6666H7.42689C6.70524 17.6666 6.12022 17.0816 6.12022 16.3599Z" fill="white"/>
<path fill-rule="evenodd" clip-rule="evenodd" d="M6.12022 21.5866C6.12022 20.8649 6.70524 20.2799 7.42689 20.2799H17.8802C18.6019 20.2799 19.1869 20.8649 19.1869 21.5866C19.1869 22.3082 18.6019 22.8933 17.8802 22.8933H7.42689C6.70524 22.8933 6.12022 22.3082 6.12022 21.5866Z" fill="white"/>
<path fill-rule="evenodd" clip-rule="evenodd" d="M6.12022 11.1333C6.12022 10.4116 6.70524 9.8266 7.42689 9.8266H10.0402C10.7619 9.8266 11.3469 10.4116 11.3469 11.1333C11.3469 11.8549 10.7619 12.4399 10.0402 12.4399H7.42689C6.70524 12.4399 6.12022 11.8549 6.12022 11.1333Z" fill="white"/>
</svg>
