<svg width="33" height="33" viewBox="0 0 33 33" fill="none" xmlns="http://www.w3.org/2000/svg">
<g clip-path="url(#clip0)">
<path fill-rule="evenodd" clip-rule="evenodd" d="M16.6535 3.60003C12.3236 3.60003 8.81353 7.11012 8.81353 11.44C8.81353 15.7699 12.3236 19.28 16.6535 19.28C20.9834 19.28 24.4935 15.7699 24.4935 11.44C24.4935 7.11012 20.9834 3.60003 16.6535 3.60003ZM6.2002 11.44C6.2002 5.66681 10.8803 0.986694 16.6535 0.986694C22.4267 0.986694 27.1069 5.66681 27.1069 11.44C27.1069 17.2132 22.4267 21.8934 16.6535 21.8934C10.8803 21.8934 6.2002 17.2132 6.2002 11.44Z" fill="white"/>
<path fill-rule="evenodd" clip-rule="evenodd" d="M21.4339 17.8279C22.1493 17.733 22.8062 18.236 22.9011 18.9514L24.4822 30.8682C24.5481 31.3655 24.3235 31.8568 23.9042 32.1322C23.4848 32.4076 22.9448 32.4186 22.5146 32.1605L16.6535 28.6438L10.7924 32.1605C10.3622 32.4186 9.82213 32.4076 9.40277 32.1321C8.9834 31.8566 8.75882 31.3654 8.82488 30.868L10.406 18.9642C10.501 18.2489 11.1579 17.746 11.8733 17.841C12.5887 17.936 13.0915 18.593 12.9965 19.3083L11.7724 28.5249L15.9812 25.9996C16.395 25.7513 16.912 25.7513 17.3258 25.9996L21.5351 28.5251L20.3105 19.2951C20.2155 18.5797 20.7185 17.9228 21.4339 17.8279Z" fill="white"/>
</g>
<defs>
<clipPath id="clip0">
<rect width="31.36" height="31.36" fill="white" transform="translate(0.973633 0.986694)"/>
</clipPath>
</defs>
</svg>
