<svg width="175" height="51" viewBox="0 0 175 51" fill="none" xmlns="http://www.w3.org/2000/svg">
<path d="M21.4652 21.2064H0V26.6905H7.34264V45.4576H14.1264V26.6905H21.4652V21.2064ZM28.0743 30.4929V26.7177H21.4303V45.4576H28.0743V39.6395C28.0743 35.4371 29.879 33.3359 33.4921 33.3359H34.0509V26.407C31.28 26.2905 29.2852 27.6498 28.0743 30.4929ZM44.8243 26.2982C42.0494 26.2982 39.7675 27.2382 37.9706 29.1219C36.1738 31.0056 35.2773 33.332 35.2773 36.1013C35.2773 39.0336 36.2203 41.4028 38.1103 43.2011C40.0003 45.0032 42.4336 45.9043 45.418 45.9043C48.8681 45.9043 51.6081 44.6342 53.6339 42.0942L49.9626 39.0802C48.6586 40.3503 47.2576 40.9873 45.7673 40.9873C43.5746 40.9873 42.2124 39.958 41.6769 37.9034H54.3324C54.3557 37.6044 54.3674 37.1538 54.3674 36.5518C54.3674 33.5961 53.5524 31.1493 51.9185 29.2073C50.2885 27.2692 47.9251 26.2982 44.8243 26.2982ZM41.5721 34.5438C41.7584 33.5029 42.1387 32.6795 42.7092 32.0659C43.2797 31.4561 43.9976 31.1493 44.8592 31.1493C45.7673 31.1493 46.5124 31.4561 47.0985 32.0659C47.6806 32.6795 48.0299 33.5029 48.1463 34.5438H41.5721ZM69.5106 26.2982C67.3179 26.2982 65.4318 27.3158 63.8445 29.3471V26.7138H57.2004V45.4538H63.8445V35.3051C63.8445 34.3108 64.1006 33.5379 64.6129 32.9825C65.1252 32.4271 65.8005 32.1513 66.6426 32.1513C67.4576 32.1513 68.1057 32.4271 68.5831 32.9825C69.0604 33.5379 69.301 34.3108 69.301 35.3051V45.4538H75.9451V33.1922C75.9451 31.0677 75.3746 29.386 74.2336 28.1509C73.0849 26.9197 71.5131 26.2982 69.5106 26.2982ZM92.7959 29.0015C91.2086 27.1993 89.2759 26.2982 86.9901 26.2982C84.6577 26.2982 82.6901 27.1954 81.0795 28.982C79.4728 30.7725 78.6656 33.1456 78.6656 36.1013C78.6656 39.0336 79.4767 41.3951 81.095 43.1855C82.7134 44.976 84.6887 45.8693 87.0212 45.8693C89.2604 45.8693 91.1815 44.8984 92.792 42.9603V45.4538H99.4361V20.1655H92.7959V29.0015ZM91.7791 39.154C91.034 39.9619 90.122 40.3658 89.0509 40.3658C87.9797 40.3658 87.0638 39.9619 86.3071 39.154C85.5503 38.3462 85.17 37.3286 85.17 36.1052C85.17 34.8584 85.5425 33.8292 86.2877 33.0213C87.0328 32.2135 87.9526 31.8095 89.0509 31.8095C90.122 31.8095 91.0301 32.2096 91.7791 33.0058C92.5243 33.802 92.8968 34.8118 92.8968 36.0352C92.9007 37.3053 92.5281 38.3423 91.7791 39.154ZM118.984 34.8584C118.984 36.5207 118.581 37.7675 117.777 38.5986C116.974 39.4298 115.872 39.8454 114.475 39.8454C113.077 39.8454 111.975 39.4143 111.172 38.5481C110.369 37.682 109.965 36.3965 109.965 34.6836V21.2064H103.076V34.8196C103.076 38.5132 104.066 41.2863 106.049 43.1351C108.028 44.9838 110.815 45.9082 114.405 45.9082C118.018 45.9082 120.831 44.9799 122.85 43.1195C124.864 41.2591 125.873 38.4355 125.873 34.6487V21.2064H118.984V34.8584ZM147.831 28.9859C146.201 27.1954 144.218 26.3021 141.885 26.3021C139.669 26.3021 137.76 27.2731 136.149 29.2112V26.7177H129.509V51H136.153V43.17C137.713 44.9722 139.638 45.8732 141.924 45.8732C144.257 45.8732 146.232 44.9799 147.85 43.1894C149.469 41.3989 150.28 39.0259 150.28 36.0702C150.276 33.1378 149.461 30.7764 147.831 28.9859ZM142.619 39.154C141.874 39.9619 140.95 40.3658 139.856 40.3658C138.784 40.3658 137.872 39.9619 137.127 39.154C136.382 38.3462 136.01 37.3286 136.01 36.1052C136.01 34.8584 136.382 33.8292 137.127 33.0213C137.872 32.2135 138.781 31.8095 139.856 31.8095C140.95 31.8095 141.87 32.2096 142.619 33.0058C143.364 33.802 143.736 34.8118 143.736 36.0352C143.74 37.3053 143.364 38.3423 142.619 39.154Z" fill="white"/>
<path fill-rule="evenodd" clip-rule="evenodd" d="M134.673 13.3879L136.292 11.7722C136.261 12.2965 136.241 12.8208 136.241 13.349C136.241 13.3607 136.241 13.3724 136.241 13.3879H134.673ZM161.626 38.746C162.185 38.746 162.744 38.7266 163.295 38.6917L161.626 40.3656V38.746ZM168.189 33.7824L166.229 35.7476C164.731 36.0545 163.19 36.2098 161.626 36.2137V34.8039C163.889 34.8039 166.097 34.4543 168.189 33.7824ZM161.626 30.8655C166.986 30.8617 171.79 28.4342 175 24.6202V26.702C171.577 30.1393 166.846 32.2715 161.626 32.2715V30.8655ZM161.626 28.3371V26.9311C168.352 26.9273 173.948 21.9986 175 15.559V20.0605C172.539 24.9581 167.471 28.3332 161.626 28.3371ZM175 6.6454V11.1469C174.076 5.51517 169.679 1.03701 164.087 0H168.41C171.251 1.45647 173.568 3.79071 175 6.6454ZM161.665 10.8284C163.062 10.8284 164.191 11.9625 164.191 13.3568C164.191 14.755 163.058 15.8853 161.665 15.8853C161.653 15.8853 161.642 15.8853 161.626 15.8853V13.3918H159.138C159.138 13.3801 159.138 13.3685 159.138 13.3568C159.138 11.9586 160.268 10.8284 161.665 10.8284ZM161.614 6.24535C165.53 6.24535 168.716 9.43406 168.716 13.3529C168.716 17.2679 165.538 20.4528 161.626 20.4605V19.0507C164.762 19.0429 167.308 16.4911 167.308 13.3529C167.308 10.2108 164.754 7.65522 161.614 7.65522C158.475 7.65522 155.921 10.2108 155.921 13.3529C155.921 13.3646 155.921 13.3801 155.921 13.3918H154.516C154.516 13.3801 154.516 13.3646 154.516 13.3529C154.512 9.43406 157.699 6.24535 161.614 6.24535ZM161.614 2.30705C167.7 2.30705 172.652 7.26294 172.652 13.3529C172.652 19.439 167.707 24.3911 161.626 24.3988V22.989C166.931 22.9812 171.243 18.6623 171.243 13.3529C171.243 8.03973 166.923 3.71692 161.614 3.71692C156.305 3.71692 151.986 8.03973 151.986 13.3529C151.986 13.3646 151.986 13.3801 151.986 13.3918H150.581C150.581 13.3801 150.581 13.3646 150.581 13.3529C150.577 7.26294 155.529 2.30705 161.614 2.30705ZM172.931 0.00388179H175V2.08567C174.371 1.33218 173.676 0.636962 172.931 0.00388179ZM148.051 13.3529C148.051 13.3646 148.051 13.3762 148.051 13.3918H146.646C146.646 13.3801 146.646 13.3685 146.646 13.3529C146.646 7.5387 149.972 2.48571 154.823 0.00388179H159.146C152.84 1.16906 148.051 6.71142 148.051 13.3529ZM150.298 0.00388179C146.518 3.21977 144.112 8.00866 144.112 13.3529C144.112 13.3646 144.112 13.3762 144.112 13.3918H142.707C142.707 13.3801 142.707 13.3685 142.707 13.3529C142.707 8.14848 144.818 3.4295 148.225 0.00388179H150.298ZM140.18 13.3529C140.18 13.3646 140.18 13.3762 140.18 13.3918H138.775C138.775 13.3801 138.775 13.3685 138.775 13.3529C138.775 11.8266 138.923 10.3235 139.214 8.85923L141.162 6.91339C140.514 8.96799 140.18 11.1352 140.18 13.3529Z" fill="#E30B17"/>
</svg>
