<svg class="header-main__logo-icon" width="152" height="47" viewBox="0 0 152 47" fill="none" xmlns="http://www.w3.org/2000/svg">
<path d="M18.6331 19.1848H0V24.1459H6.37387V41.1234H12.2626V24.1459H18.6331V19.1848ZM24.3703 27.5857V24.1705H18.6028V41.1234H24.3703V35.8601C24.3703 32.0584 25.9368 30.1576 29.0732 30.1576H29.5583V23.8894C27.153 23.784 25.4214 25.0138 24.3703 27.5857ZM38.9103 23.7911C36.5015 23.7911 34.5206 24.6413 32.9609 26.3454C31.4011 28.0495 30.6229 30.1541 30.6229 32.6592C30.6229 35.312 31.4415 37.4552 33.0821 39.082C34.7228 40.7123 36.835 41.5274 39.4257 41.5274C42.4206 41.5274 44.799 40.3785 46.5576 38.0806L43.3706 35.3541C42.2387 36.503 41.0225 37.0793 39.7289 37.0793C37.8255 37.0793 36.643 36.1482 36.1781 34.2895H47.164C47.1842 34.019 47.1943 33.6114 47.1943 33.0668C47.1943 30.393 46.4868 28.1795 45.0685 26.4227C43.6536 24.6694 41.602 23.7911 38.9103 23.7911ZM36.0872 31.2503C36.2489 30.3087 36.579 29.5638 37.0742 29.0087C37.5695 28.457 38.1927 28.1795 38.9406 28.1795C39.7289 28.1795 40.3757 28.457 40.8844 29.0087C41.3897 29.5638 41.6929 30.3087 41.794 31.2503H36.0872ZM60.3395 23.7911C58.4361 23.7911 56.7989 24.7116 55.421 26.5492V24.167H49.6535V41.1198H55.421V31.939C55.421 31.0395 55.6434 30.3403 56.088 29.8379C56.5327 29.3354 57.1189 29.086 57.85 29.086C58.5574 29.086 59.12 29.3354 59.5344 29.8379C59.9487 30.3403 60.1576 31.0395 60.1576 31.939V41.1198H65.9251V30.0276C65.9251 28.1057 65.4299 26.5843 64.4394 25.467C63.4422 24.3532 62.0779 23.7911 60.3395 23.7911ZM80.5527 26.2365C79.1748 24.6062 77.4971 23.7911 75.5129 23.7911C73.4882 23.7911 71.7802 24.6027 70.3821 26.2189C68.9874 27.8387 68.2867 29.9854 68.2867 32.6592C68.2867 35.312 68.9908 37.4482 70.3956 39.0679C71.8004 40.6877 73.5151 41.4958 75.5398 41.4958C77.4836 41.4958 79.1512 40.6174 80.5493 38.8641V41.1198H86.3168V18.2432H80.5527V26.2365ZM79.67 35.4209C79.0232 36.1517 78.2315 36.5171 77.3017 36.5171C76.3719 36.5171 75.5769 36.1517 74.9199 35.4209C74.263 34.6901 73.9329 33.7695 73.9329 32.6627C73.9329 31.5349 74.2563 30.6038 74.9031 29.873C75.5499 29.1422 76.3483 28.7768 77.3017 28.7768C78.2315 28.7768 79.0198 29.1387 79.67 29.8589C80.3168 30.5792 80.6403 31.4927 80.6403 32.5995C80.6436 33.7484 80.3202 34.6865 79.67 35.4209ZM103.286 31.5349C103.286 33.0387 102.935 34.1665 102.238 34.9184C101.541 35.6703 100.584 36.0463 99.3711 36.0463C98.1583 36.0463 97.2015 35.6563 96.5042 34.8728C95.8068 34.0892 95.4565 32.9263 95.4565 31.3768V19.1848H89.4767V31.4998C89.4767 34.8411 90.3358 37.3498 92.0573 39.0223C93.7754 40.6947 96.1942 41.5309 99.3104 41.5309C102.447 41.5309 104.889 40.6912 106.641 39.0082C108.389 37.3252 109.265 34.7709 109.265 31.3452V19.1848H103.286V31.5349ZM128.326 26.2224C126.911 24.6027 125.19 23.7946 123.165 23.7946C121.242 23.7946 119.584 24.673 118.186 26.4262V24.1705H112.422V46.1372H118.189V39.0539C119.544 40.6842 121.215 41.4993 123.199 41.4993C125.224 41.4993 126.938 40.6912 128.343 39.0714C129.748 37.4517 130.452 35.3049 130.452 32.6311C130.449 29.9784 129.741 27.8422 128.326 26.2224ZM123.802 35.4209C123.155 36.1517 122.353 36.5171 121.403 36.5171C120.474 36.5171 119.682 36.1517 119.035 35.4209C118.388 34.6901 118.065 33.7695 118.065 32.6627C118.065 31.5349 118.388 30.6038 119.035 29.873C119.682 29.1422 120.47 28.7768 121.403 28.7768C122.353 28.7768 123.152 29.1387 123.802 29.8589C124.449 30.5792 124.772 31.4927 124.772 32.5995C124.776 33.7484 124.449 34.6865 123.802 35.4209Z" fill="#222222"/>
<path fill-rule="evenodd" clip-rule="evenodd" d="M116.907 12.1112L118.312 10.6495C118.285 11.1239 118.268 11.5982 118.268 12.076C118.268 12.0866 118.268 12.0971 118.268 12.1112H116.907ZM140.303 35.0511C140.789 35.0511 141.274 35.0335 141.752 35.0019L140.303 36.5162V35.0511ZM146 30.5608L144.299 32.3386C142.998 32.6162 141.661 32.7567 140.303 32.7603V31.4848C142.267 31.4848 144.184 31.1686 146 30.5608ZM140.303 27.9221C144.956 27.9186 149.126 25.7226 151.912 22.2723V24.1556C148.941 27.2651 144.835 29.194 140.303 29.194V27.9221ZM140.303 25.6348V24.3629C146.142 24.3594 151 19.9007 151.912 14.0752V18.1474C149.777 22.578 145.377 25.6313 140.303 25.6348ZM151.912 6.01167V10.0839C151.111 4.98923 147.294 0.938116 142.439 0H146.192C148.658 1.31758 150.669 3.42922 151.912 6.01167ZM140.337 9.79576C141.55 9.79576 142.53 10.8217 142.53 12.0831C142.53 13.3479 141.547 14.3704 140.337 14.3704C140.327 14.3704 140.317 14.3704 140.303 14.3704V12.1147H138.144C138.144 12.1041 138.144 12.0936 138.144 12.0831C138.144 10.8182 139.124 9.79576 140.337 9.79576ZM140.293 5.64978C143.692 5.64978 146.458 8.53439 146.458 12.0796C146.458 15.6212 143.699 18.5023 140.303 18.5093V17.2339C143.025 17.2269 145.235 14.9185 145.235 12.0796C145.235 9.2371 143.019 6.92519 140.293 6.92519C137.568 6.92519 135.351 9.2371 135.351 12.0796C135.351 12.0901 135.351 12.1041 135.351 12.1147H134.132C134.132 12.1041 134.132 12.0901 134.132 12.0796C134.128 8.53439 136.894 5.64978 140.293 5.64978ZM140.293 2.08704C145.576 2.08704 149.874 6.57032 149.874 12.0796C149.874 17.5853 145.582 22.065 140.303 22.0721V20.7967C144.909 20.7896 148.651 16.8826 148.651 12.0796C148.651 7.27303 144.902 3.36246 140.293 3.36246C135.685 3.36246 131.935 7.27303 131.935 12.0796C131.935 12.0901 131.935 12.1041 131.935 12.1147H130.716C130.716 12.1041 130.716 12.0901 130.716 12.0796C130.712 6.57032 135.011 2.08704 140.293 2.08704ZM150.117 0.00351161H151.912V1.88677C151.367 1.20514 150.764 0.576219 150.117 0.00351161ZM128.519 12.0796C128.519 12.0901 128.519 12.1006 128.519 12.1147H127.3C127.3 12.1041 127.3 12.0936 127.3 12.0796C127.3 6.81979 130.187 2.24866 134.398 0.00351161H138.151C132.676 1.05757 128.519 6.0714 128.519 12.0796ZM130.47 0.00351161C127.188 2.91272 125.1 7.24492 125.1 12.0796C125.1 12.0901 125.1 12.1006 125.1 12.1147H123.88C123.88 12.1041 123.88 12.0936 123.88 12.0796C123.88 7.37141 125.713 3.10246 128.671 0.00351161H130.47ZM121.687 12.0796C121.687 12.0901 121.687 12.1006 121.687 12.1147H120.468C120.468 12.1041 120.468 12.0936 120.468 12.0796C120.468 10.6987 120.596 9.33899 120.848 8.01439L122.539 6.25411C121.977 8.11277 121.687 10.0733 121.687 12.0796Z" fill="#E30B17"/>
</svg>
