<svg width="1440" height="749" viewBox="0 0 1440 749" fill="none" xmlns="http://www.w3.org/2000/svg">
<g opacity="0.05">
<path opacity="0.5" d="M3.3685 0.492188H-0.223633V742.507H3.3685V0.492188Z" fill="white"/>
<path opacity="0.2" d="M73.5946 -0.43457H70.0024V743.435H73.5946V-0.43457Z" fill="white"/>
<path opacity="0.2" d="M145.617 -0.43457H142.025V743.435H145.617V-0.43457Z" fill="white"/>
<path opacity="0.2" d="M217.64 -0.43457H214.047V743.435H217.64V-0.43457Z" fill="white"/>
<path opacity="0.2" d="M289.662 -0.43457H286.07V743.435H289.662V-0.43457Z" fill="white"/>
<path opacity="0.4" d="M361.684 -0.43457H358.092V743.435H361.684V-0.43457Z" fill="white"/>
<path opacity="0.2" d="M433.706 -0.43457H430.114V743.435H433.706V-0.43457Z" fill="white"/>
<path opacity="0.2" d="M505.729 -0.43457H502.137V743.435H505.729V-0.43457Z" fill="white"/>
<path opacity="0.2" d="M577.751 -0.43457H574.159V743.435H577.751V-0.43457Z" fill="white"/>
<path opacity="0.4" d="M649.774 -0.43457H646.182V743.435H649.774V-0.43457Z" fill="white"/>
<path opacity="0.2" d="M721.796 -0.43457H718.204V743.435H721.796V-0.43457Z" fill="white"/>
<path opacity="0.2" d="M793.818 -0.43457H790.226V743.435H793.818V-0.43457Z" fill="white"/>
<path opacity="0.2" d="M865.841 -0.43457H862.249V743.435H865.841V-0.43457Z" fill="white"/>
<path opacity="0.2" d="M937.863 -0.43457H934.271V743.435H937.863V-0.43457Z" fill="white"/>
<path opacity="0.2" d="M1009.89 -0.43457H1006.29V743.435H1009.89V-0.43457Z" fill="white"/>
<path opacity="0.5" d="M1081.91 -0.43457H1078.32V743.435H1081.91V-0.43457Z" fill="white"/>
<path opacity="0.2" d="M1153.93 -0.43457H1150.34V743.435H1153.93V-0.43457Z" fill="white"/>
<path opacity="0.2" d="M1225.95 -0.43457H1222.36V743.435H1225.95V-0.43457Z" fill="white"/>
<path opacity="0.2" d="M1297.97 -0.43457H1294.38V743.435H1297.97V-0.43457Z" fill="white"/>
<path opacity="0.2" d="M1370 -0.43457H1366.41V743.435H1370V-0.43457Z" fill="white"/>
<path opacity="0.5" d="M1440.22 0.492188H1436.63V742.507H1440.22V0.492188Z" fill="white"/>
<path opacity="0.5" d="M1438.43 -0.43457H1.57227V1.42047H1438.43V-0.43457Z" fill="white"/>
<path opacity="0.2" d="M1440.22 35.8301H-0.223633V37.6851H1440.22V35.8301Z" fill="white"/>
<path opacity="0.2" d="M1440.22 73.0244H-0.223633V74.8795H1440.22V73.0244Z" fill="white"/>
<path opacity="0.2" d="M1440.22 110.219H-0.223633V112.074H1440.22V110.219Z" fill="white"/>
<path opacity="0.2" d="M1440.22 147.412H-0.223633V149.267H1440.22V147.412Z" fill="white"/>
<path opacity="0.5" d="M1440.22 184.605H-0.223633V186.461H1440.22V184.605Z" fill="white"/>
<path opacity="0.2" d="M1440.22 221.798H-0.223633V223.653H1440.22V221.798Z" fill="white"/>
<path opacity="0.2" d="M1440.22 258.99H-0.223633V260.845H1440.22V258.99Z" fill="white"/>
<path opacity="0.2" d="M1440.22 296.188H-0.223633V298.043H1440.22V296.188Z" fill="white"/>
<path opacity="0.2" d="M1440.22 333.38H-0.223633V335.235H1440.22V333.38Z" fill="white"/>
<path opacity="0.5" d="M1440.22 370.572H-0.223633V372.427H1440.22V370.572Z" fill="white"/>
<path opacity="0.2" d="M1440.22 407.766H-0.223633V409.621H1440.22V407.766Z" fill="white"/>
<path opacity="0.2" d="M1440.22 444.958H-0.223633V446.813H1440.22V444.958Z" fill="white"/>
<path opacity="0.2" d="M1440.22 482.153H-0.223633V484.008H1440.22V482.153Z" fill="white"/>
<path opacity="0.2" d="M1440.22 519.348H-0.223633V521.203H1440.22V519.348Z" fill="white"/>
<path opacity="0.5" d="M1440.22 556.54H-0.223633V558.395H1440.22V556.54Z" fill="white"/>
<path opacity="0.2" d="M1440.22 593.732H-0.223633V595.587H1440.22V593.732Z" fill="white"/>
<path opacity="0.2" d="M1440.22 630.927H-0.223633V632.782H1440.22V630.927Z" fill="white"/>
<path opacity="0.2" d="M1440.22 668.121H-0.223633V669.976H1440.22V668.121Z" fill="white"/>
<path opacity="0.2" d="M1440.22 705.314H-0.223633V707.169H1440.22V705.314Z" fill="white"/>
<path opacity="0.5" d="M1438.43 741.58H1.57227V743.435H1438.43V741.58Z" fill="white"/>
<path d="M1440.22 -6H1436.63V6.98526H1440.22V-6Z" fill="white"/>
<path d="M1451 -0.43457H1425.85V1.42047H1451V-0.43457Z" fill="white"/>
<path d="M1440.22 179.504H1436.63V192.489H1440.22V179.504Z" fill="white"/>
<path d="M1451 185.068H1425.85V186.923H1451V185.068Z" fill="white"/>
<path d="M1440.22 365.008H1436.63V377.993H1440.22V365.008Z" fill="white"/>
<path d="M1451 370.572H1425.85V372.427H1451V370.572Z" fill="white"/>
<path d="M1440.22 550.511H1436.63V563.496H1440.22V550.511Z" fill="white"/>
<path d="M1451 556.076H1425.85V557.931H1451V556.076Z" fill="white"/>
<path d="M3.3685 736.015H-0.223633V749H3.3685V736.015Z" fill="white"/>
<path d="M14.145 741.58H-11V743.435H14.145V741.58Z" fill="white"/>
<path d="M362.582 -6H358.99V6.98526H362.582V-6Z" fill="white"/>
<path d="M373.359 -0.43457H348.214V1.42047H373.359V-0.43457Z" fill="white"/>
<path d="M362.582 365.008H358.99V377.993H362.582V365.008Z" fill="white"/>
<path d="M373.359 370.572H348.214V372.427H373.359V370.572Z" fill="white"/>
<path d="M362.582 736.015H358.99V749H362.582V736.015Z" fill="white"/>
<path d="M373.359 741.58H348.214V743.435H373.359V741.58Z" fill="white"/>
<path d="M721.796 -6H718.204V6.98526H721.796V-6Z" fill="white"/>
<path d="M732.572 -0.43457H707.427V1.42047H732.572V-0.43457Z" fill="white"/>
<path d="M721.796 736.015H718.204V749H721.796V736.015Z" fill="white"/>
<path d="M732.572 741.58H707.427V743.435H732.572V741.58Z" fill="white"/>
<path d="M1081.01 -6H1077.42V6.98526H1081.01V-6Z" fill="white"/>
<path d="M1091.79 -0.43457H1066.64V1.42047H1091.79V-0.43457Z" fill="white"/>
<path d="M1081.01 179.504H1077.42V192.489H1081.01V179.504Z" fill="white"/>
<path d="M1091.79 185.068H1066.64V186.923H1091.79V185.068Z" fill="white"/>
<path d="M1081.01 365.008H1077.42V377.993H1081.01V365.008Z" fill="white"/>
<path d="M1091.79 370.572H1066.64V372.427H1091.79V370.572Z" fill="white"/>
<path d="M1081.01 550.511H1077.42V563.496H1081.01V550.511Z" fill="white"/>
<path d="M1091.79 556.076H1066.64V557.931H1091.79V556.076Z" fill="white"/>
<path d="M1081.01 736.015H1077.42V749H1081.01V736.015Z" fill="white"/>
<path d="M1091.79 741.58H1066.64V743.435H1091.79V741.58Z" fill="white"/>
<path d="M1440.22 736.015H1436.63V749H1440.22V736.015Z" fill="white"/>
<path d="M1451 741.58H1425.85V743.435H1451V741.58Z" fill="white"/>
<path d="M1260.62 92.3174H1257.02V94.1724H1260.62V92.3174Z" fill="white"/>
<path d="M901.403 277.82H897.811V279.675H901.403V277.82Z" fill="white"/>
<path d="M1260.62 277.82H1257.02V279.675H1260.62V277.82Z" fill="white"/>
<path d="M182.975 463.325H179.383V465.18H182.975V463.325Z" fill="white"/>
<path d="M901.403 463.325H897.811V465.18H901.403V463.325Z" fill="white"/>
<path d="M1260.62 463.325H1257.02V465.18H1260.62V463.325Z" fill="white"/>
<path d="M901.403 648.827H897.811V650.682H901.403V648.827Z" fill="white"/>
<path d="M1260.62 648.827H1257.02V650.682H1260.62V648.827Z" fill="white"/>
</g>
</svg>
