<svg class="investment__picture" width="431" height="509" viewBox="0 0 431 509" fill="none" xmlns="http://www.w3.org/2000/svg">
<path d="M215.037 508.215C333.799 508.215 430.074 406.022 430.074 279.961C430.074 153.9 333.799 51.707 215.037 51.707C96.2754 51.707 0 153.9 0 279.961C0 406.022 96.2754 508.215 215.037 508.215Z" fill="white"/>
<path d="M428.796 254.97H1.28034C0.43886 263.178 0.00244141 271.514 0.00244141 279.96C0.00244141 283.286 0.0729999 286.595 0.206278 289.885H429.87C430.003 286.592 430.074 283.286 430.074 279.96C430.074 271.516 429.638 263.178 428.796 254.97ZM51.0034 427.554H379.076C387.723 416.736 395.437 405.049 402.088 392.639H27.9908C34.6416 405.049 42.3534 416.736 51.0034 427.554ZM365.892 117.304H64.1822C54.0113 127.933 44.8308 139.628 36.8054 152.219H393.271C385.246 139.628 376.065 127.933 365.892 117.304ZM13.1473 358.72H416.927C420.823 347.471 423.907 335.804 426.107 323.804H3.9668C6.16719 335.804 9.25087 347.471 13.1473 358.72ZM215.037 51.709C175.108 51.709 137.72 63.2623 105.681 83.387H324.395C292.354 63.2595 254.968 51.709 215.037 51.709ZM411.125 186.138H18.9514C14.1926 197.325 10.2622 208.995 7.23603 221.053H422.84C419.814 208.992 415.884 197.325 411.125 186.138ZM146.54 496.386H283.534C306.066 488.356 326.93 476.469 345.435 461.471H84.6416C103.144 476.472 124.008 488.356 146.54 496.386Z" fill="#FF0010"/>
<path d="M211.569 51.7393C94.4075 53.706 0.00244141 155.128 0.00244141 279.96C0.00244141 283.286 0.0729999 286.595 0.206278 289.885H211.569V51.7393Z" fill="#2E67AA"/>
<path d="M177.092 58.4282L180.722 68.639L190.993 69.1494L182.967 75.9677L185.682 86.4919L177.092 80.4975L168.503 86.4919L171.22 75.9677L163.192 69.1494L173.463 68.639L177.092 58.4282Z" fill="white"/>
<path d="M144.147 82.4336L147.777 92.6443L158.047 93.1547L150.019 99.9729L152.737 110.5L144.147 104.503L135.557 110.5L138.272 99.9729L130.247 93.1547L140.517 92.6443L144.147 82.4336Z" fill="white"/>
<path d="M111.331 106.373L114.961 116.583L125.231 117.094L117.206 123.912L119.921 134.436L111.331 128.442L102.741 134.436L105.459 123.912L97.4312 117.094L107.701 116.583L111.331 106.373Z" fill="white"/>
<path d="M177.092 106.373L180.722 116.583L190.993 117.094L182.967 123.912L185.682 134.436L177.092 128.442L168.503 134.436L171.22 123.912L163.192 117.094L173.463 116.583L177.092 106.373Z" fill="white"/>
<path d="M78.3859 130.38L82.0158 140.588L92.286 141.098L84.258 147.917L86.9758 158.444L78.3859 152.446L69.796 158.444L72.5112 147.917L64.4858 141.098L74.7561 140.588L78.3859 130.38Z" fill="white"/>
<path d="M144.147 130.38L147.777 140.588L158.047 141.098L150.019 147.917L152.737 158.444L144.147 152.446L135.557 158.444L138.272 147.917L130.247 141.098L140.517 140.588L144.147 130.38Z" fill="white"/>
<path d="M45.5705 154.316L49.2003 164.527L59.4706 165.037L51.4452 171.855L54.163 182.38L45.5705 176.385L36.9806 182.38L39.6984 171.855L31.6704 165.037L41.9406 164.527L45.5705 154.316Z" fill="white"/>
<path d="M111.331 154.316L114.961 164.527L125.231 165.037L117.206 171.855L119.921 182.38L111.331 176.385L102.741 182.38L105.459 171.855L97.4312 165.037L107.701 164.527L111.331 154.316Z" fill="white"/>
<path d="M177.092 154.316L180.722 164.527L190.993 165.037L182.967 171.855L185.682 182.38L177.092 176.385L168.503 182.38L171.22 171.855L163.192 165.037L173.463 164.527L177.092 154.316Z" fill="white"/>
<path d="M78.3859 178.324L82.0158 188.532L92.286 189.043L84.258 195.861L86.9758 206.388L78.3859 200.391L69.796 206.388L72.5112 195.861L64.4858 189.043L74.7561 188.532L78.3859 178.324Z" fill="white"/>
<path d="M144.147 178.324L147.777 188.532L158.047 189.043L150.019 195.861L152.737 206.388L144.147 200.391L135.557 206.388L138.272 195.861L130.247 189.043L140.517 188.532L144.147 178.324Z" fill="white"/>
<path d="M45.5705 202.26L49.2003 212.471L59.4706 212.981L51.4452 219.8L54.163 230.327L45.5705 224.33L36.9806 230.327L39.6984 219.8L31.6704 212.981L41.9406 212.471L45.5705 202.26Z" fill="white"/>
<path d="M111.331 202.26L114.961 212.471L125.231 212.981L117.206 219.8L119.921 230.327L111.331 224.33L102.741 230.327L105.459 219.8L97.4312 212.981L107.701 212.471L111.331 202.26Z" fill="white"/>
<path d="M177.092 202.26L180.722 212.471L190.993 212.981L182.967 219.8L185.682 230.327L177.092 224.33L168.503 230.327L171.22 219.8L163.192 212.981L173.463 212.471L177.092 202.26Z" fill="white"/>
<path d="M12.6248 248.335L21.2147 254.33L18.4969 243.806L26.5223 236.987L16.2521 236.477L12.6222 226.266L8.99235 236.477L3.85202 236.732C3.61159 238.069 3.38163 239.412 3.16211 240.76L6.74754 243.806L4.02972 254.33L12.6248 248.335Z" fill="white"/>
<path d="M78.3859 226.269L82.0158 236.477L92.286 236.987L84.258 243.805L86.9758 254.332L78.3859 248.335L69.796 254.332L72.5112 243.805L64.4858 236.987L74.7561 236.477L78.3859 226.269Z" fill="white"/>
<path d="M144.147 226.269L147.777 236.477L158.047 236.987L150.019 243.805L152.737 254.332L144.147 248.335L135.557 254.332L138.272 243.805L130.247 236.987L140.517 236.477L144.147 226.269Z" fill="white"/>
<path d="M45.5705 250.205L49.2003 260.415L59.4706 260.926L51.4452 267.744L54.163 278.271L45.5705 272.274L36.9806 278.271L39.6984 267.744L31.6704 260.926L41.9406 260.415L45.5705 250.205Z" fill="white"/>
<path d="M111.331 250.205L114.961 260.415L125.231 260.926L117.206 267.744L119.921 278.271L111.331 272.274L102.741 278.271L105.459 267.744L97.4312 260.926L107.701 260.415L111.331 250.205Z" fill="white"/>
<path d="M177.092 250.205L180.722 260.415L190.993 260.926L182.967 267.744L185.682 278.271L177.092 272.274L168.503 278.271L171.22 267.744L163.192 260.926L173.463 260.415L177.092 250.205Z" fill="white"/>
<path d="M133.286 45.2212C133.505 45.9868 134.067 47.69 135.029 49.052C132.319 51.9285 135.457 56.4666 135.457 56.4666C135.457 56.4666 134.03 59.1906 133.746 61.3099C133.461 63.4291 139.735 75.9894 139.735 75.9894C139.735 75.9894 139.879 106.561 140.02 118.971C140.164 131.382 143.869 139.856 143.869 139.856L143.2 155.573C136.795 162.122 128.827 172.152 127.33 182.674C126.596 187.833 129.875 198.274 136.874 200.849C135.172 211.595 136.131 220.979 143.637 228.696C141.875 235.808 146.666 240.502 146.666 240.502C146.666 240.502 142.432 249.886 145.004 253.367C147.578 256.848 150.113 254.904 149.7 259.508C149.287 264.113 145.283 268.87 148.806 272.182C142.158 289.389 141.22 302.102 149.104 312.695C149.104 312.695 136.314 341.905 149.859 355.83C148.432 361.58 150.429 365.818 150.429 365.818C150.429 365.818 145.296 379.743 153.28 396.542C147.149 410.919 151.997 423.935 151.997 423.935C151.997 423.935 147.293 434.378 148.288 443.457C149.287 452.539 150.57 457.532 149.002 461.771C147.434 466.009 144.01 472.969 144.298 480.991C144.413 484.237 145.228 490.381 146.159 496.547C167.543 504.114 190.423 508.211 214.201 508.211C239.414 508.211 263.61 503.604 286.09 495.141L285.311 481.144C285.311 481.144 291.013 477.513 291.013 473.879C291.013 470.245 288.876 423.33 288.876 423.33C288.876 423.33 297.147 417.277 296.718 411.524C296.289 405.774 291.87 379.438 291.87 379.438C291.87 379.438 305.559 353.255 302.279 320.715C315.539 313.3 315.968 313.45 317.392 309.666C318.819 305.883 331.365 282.879 330.936 280.607C330.508 278.338 327.8 274.249 327.8 274.249L331.221 266.834L329.368 263.655L332.933 261.536L327.518 251.098L288.737 254.579L289.735 258.818H286.456L278.757 273.497L269.631 269.259C269.631 269.259 262.217 241.714 258.509 236.416C254.801 231.117 244.964 217.195 244.964 217.195C244.964 217.195 240.117 201.908 240.258 197.37C245.39 191.012 243.822 191.62 242.254 187.534C240.686 183.448 237.835 173.761 237.548 169.523L186.503 164.075L180.941 169.523C180.941 169.523 178.375 162.56 176.094 160.743C177.204 149.831 173.039 142.228 169.129 141.004L168.392 134.863C171.957 128.203 162.262 106.713 161.12 79.9228C165.113 68.5719 165.398 57.3709 164.828 54.6469C164.52 53.1684 162.361 48.7052 160.453 44.9327C164.705 41.8953 167.384 37.482 167.384 32.5638C167.384 27.5264 164.574 23.0188 160.142 19.9786C160.5 19.7872 160.885 19.6763 161.263 19.5376C164.718 18.2699 166.576 13.263 166.033 9.9121C165.967 9.51266 165.557 9.29075 165.217 9.47105C164.23 9.99532 162.834 9.69851 162.834 9.69851C162.834 9.69851 166.242 6.41421 165.45 2.40591C165.377 2.03143 165 1.81784 164.669 1.96763C158.71 4.62781 151.537 -3.58573 141.162 1.9815C132.397 6.68327 135.745 18.1756 135.745 18.1756L135.679 18.5112C129.833 21.4432 125.945 26.6388 125.945 32.5666C125.945 37.6401 128.799 42.181 133.286 45.2212Z" fill="#13376B"/>
<path d="M211.091 186.89C229.269 186.89 244.005 172.013 244.005 153.661C244.005 135.31 229.269 120.433 211.091 120.433C192.913 120.433 178.177 135.31 178.177 153.661C178.177 172.013 192.913 186.89 211.091 186.89Z" fill="#13376B"/>
<path d="M211.028 81.4604L203.967 126.833H218.087L211.028 81.4604Z" fill="#13376B"/>
<path d="M250.79 100.278L225.227 125.718L234.151 133.49L250.79 100.278Z" fill="#13376B"/>
<path d="M272.94 135.101L237.987 137.747L240.3 149.75L272.94 135.101Z" fill="#13376B"/>
<path d="M273.87 165.698L240.164 155.535L238.481 167.656L273.87 165.698Z" fill="#13376B"/>
<path d="M171.027 100.278L196.59 125.718L187.666 133.49L171.027 100.278Z" fill="#13376B"/>
<path d="M148.876 135.101L183.827 137.747L181.516 149.75L148.876 135.101Z" fill="#13376B"/>
<path d="M147.946 165.698L181.653 155.535L183.335 167.656L147.946 165.698Z" fill="#13376B"/>
<path d="M211.392 141.628C211.392 141.628 214.321 147.187 218.583 149.639C222.846 152.088 227.194 156.801 227.194 156.801C227.194 156.801 226.572 158.496 226.928 160.382C227.283 162.266 228.26 165.19 227.461 167.545C226.661 169.9 223.82 176.402 223.465 179.137C223.11 181.869 220.447 187.053 217.428 186.299C214.41 185.544 211.036 184.884 208.995 185.167C206.954 185.45 205.799 186.205 204.025 185.262C202.25 184.318 199.762 178.759 198.788 173.952C197.81 169.145 196.569 167.545 196.658 165.19C196.747 162.834 198.093 160.405 198.093 160.405C198.093 160.405 205.914 162.521 208.287 156.801C208.02 155.669 207.576 154.918 207.576 154.918C207.576 154.918 203.225 152.374 197.633 156.521C197.366 154.826 197.099 153.789 199.496 152.657C201.892 151.525 209.973 146.435 211.392 141.628Z" fill="#B7C9E2"/>
<path d="M225.331 157.459C225.331 157.459 221.575 161.046 217.864 159.789C217.219 159.57 216.532 159.95 216.299 160.624C215.484 162.982 215.962 165.592 216.187 167.259C216.453 169.237 216.276 169.991 215.121 170.18C213.965 170.369 213.61 170.369 213.61 170.369C213.61 170.369 212.722 171.406 211.391 171.312C210.059 171.218 209.439 170.18 209.439 170.18C209.439 170.18 206.954 169.803 208.018 168.297C209.084 166.788 212.102 166.036 213.255 166.507C214.41 166.979 214.232 164.435 213.877 162.455C213.521 160.477 213.255 156.99 213.255 156.99C213.255 156.99 213.432 155.107 214.054 154.446C214.676 153.783 220.891 152.277 225.331 157.459Z" fill="#13376B"/>
<path d="M217.076 174.611C217.076 174.611 215.92 175.082 215.035 174.139C214.146 173.196 213.702 172.35 213.171 172.35C212.638 172.35 211.13 173.293 211.13 173.293C211.13 173.293 209.62 172.35 209.089 172.35C208.556 172.35 208.112 173.199 207.226 174.139C206.338 175.082 205.185 174.611 205.185 174.611C205.185 174.611 204.563 176.589 206.34 176.12C207.673 175.177 211.133 174.705 211.133 174.705C211.133 174.705 214.595 175.177 215.928 176.12C217.695 176.591 217.076 174.611 217.076 174.611Z" fill="#13376B"/>
<path d="M211.282 176.525C209.633 176.525 207.775 177.979 207.775 177.979C208.473 179.407 211.282 179.235 211.282 179.235C211.282 179.235 214.091 179.407 214.789 177.979C214.786 177.979 212.928 176.525 211.282 176.525Z" fill="#13376B"/>
<path d="M189.401 158.263C189.492 158.069 190.516 155.758 192.827 152.987C192.764 150.929 193.174 147.844 195.699 145.5C195.356 147.306 195.662 148.931 195.908 149.827C196.441 149.361 197.01 148.898 197.619 148.446C197.4 147.187 197.272 144.399 199.775 142.291C199.37 144.271 199.728 145.949 199.995 146.809C200.685 146.332 201.335 145.852 201.952 145.378C201.895 144.033 202.041 140.843 204.592 139.963C204.759 139.905 204.268 142.019 204.158 143.567C207.516 140.637 209.259 138.277 209.259 138.277C191.031 138.84 189.252 158.585 189.401 158.263Z" fill="#B7C9E2"/>
<path d="M232.588 158.263C232.496 158.069 231.472 155.758 229.162 152.987C229.225 150.929 228.814 147.844 226.29 145.5C226.632 147.306 226.326 148.931 226.081 149.827C225.548 149.361 224.978 148.898 224.369 148.446C224.589 147.187 224.717 144.399 222.213 142.291C222.618 144.271 222.26 145.949 221.994 146.809C221.304 146.332 220.653 145.852 220.036 145.378C220.094 144.033 219.947 140.843 217.397 139.963C217.23 139.905 217.721 142.019 217.831 143.567C214.473 140.637 212.729 138.277 212.729 138.277C230.96 138.84 232.737 158.585 232.588 158.263Z" fill="#B7C9E2"/>
<path d="M230.516 161.144C230.516 161.144 230.516 164.09 232.695 163.563C234.875 163.036 234.48 160.304 234.083 160.406C233.686 160.512 233.49 161.774 232.397 161.774C231.305 161.774 230.516 161.144 230.516 161.144Z" fill="#B7C9E2"/>
<path d="M230.714 164.717C230.714 164.717 231.21 167.558 233.092 167.136C234.974 166.714 235.47 164.19 235.073 163.771C234.676 163.35 232.002 165.558 230.714 164.717Z" fill="#B7C9E2"/>
<path d="M230.317 168.084C230.317 168.084 230.416 172.081 232.894 171.659C235.371 171.238 236.064 167.978 235.47 167.767C234.874 167.557 233.685 169.24 232.201 168.924C230.717 168.608 230.317 168.084 230.317 168.084Z" fill="#B7C9E2"/>
<path d="M231.451 175.996C231.451 175.996 231.352 181.572 232.144 183.99C232.935 186.409 233.432 188.828 232.442 191.142C231.451 193.455 232.044 196.085 232.044 197.241C232.044 198.398 227.387 193.56 228.08 191.666C228.773 189.771 231.151 189.982 230.657 186.301C230.163 182.623 230.063 177.785 231.451 175.996Z" fill="#B7C9E2"/>
<path d="M233.531 173.789C233.557 173.476 231.945 176.63 233.035 181.151C234.125 185.672 235.611 190.826 233.333 192.826C236.307 193.248 238.685 192.826 237.89 189.67C237.098 186.516 233.134 178.627 233.531 173.789Z" fill="#B7C9E2"/>
<path d="M226.298 183.359L223.622 186.724C223.622 186.724 221.442 199.872 221.641 202.396C223.721 203.869 225.605 204.291 225.605 204.291L226.298 183.359Z" fill="#B7C9E2"/>
<path d="M228.973 198.504C228.973 198.504 231.054 200.923 231.649 202.606C232.243 204.29 234.623 208.706 234.623 208.706C234.623 208.706 228.477 204.501 228.973 198.504Z" fill="#B7C9E2"/>
<path d="M233.333 199.031C233.333 199.031 232.836 202.607 234.323 205.447C235.81 208.288 239.576 211.231 239.576 211.231C239.576 211.231 235.611 201.134 235.909 198.61C234.422 197.98 233.333 199.031 233.333 199.031Z" fill="#B7C9E2"/>
<path d="M202.914 197.769L207.174 206.709L217.282 206.182C217.282 206.182 204.2 199.555 202.914 197.769Z" fill="#B7C9E2"/>
<path d="M197.264 195.456C197.264 195.456 189.931 201.45 187.553 200.505C185.175 199.559 185.473 186.41 184.284 187.462C183.095 188.513 175.169 216.072 176.852 216.28C178.537 216.491 185.967 206.499 186.861 207.023C187.752 207.55 184.284 218.172 177.942 224.169C171.599 230.163 157.827 249.411 156.936 248.782C156.045 248.152 171.996 212.915 170.907 212.704C169.817 212.493 150.991 242.26 150.196 244.89C149.404 247.52 150.789 250.884 153.465 252.673C156.141 254.463 155.844 259.511 155.844 259.511C155.844 259.511 175.166 229.85 193.201 215.756C192.803 206.71 192.704 201.45 193.796 202.396C194.886 203.342 197.463 209.442 199.642 210.704C201.524 209.231 203.706 207.969 203.706 207.969C203.706 207.969 197.165 203.026 196.969 200.607C196.77 198.191 199.049 197.242 197.264 195.456Z" fill="#B7C9E2"/>
<path d="M173.285 166.529C173.285 166.529 176.06 169.475 175.07 172.735C174.079 175.994 167.044 193.034 169.025 194.507C171.006 195.98 175.862 187.985 178.736 186.829C181.611 185.672 182.303 186.407 182.303 186.407C182.303 186.407 171.701 201.342 169.224 207.547C166.746 213.752 149.308 236.681 149.308 236.681C149.308 236.681 146.039 234.892 147.722 227.214C149.407 219.536 155.452 195.766 155.452 195.766C155.452 195.766 161.695 189.034 162.388 186.826C155.055 209.86 151.487 221.114 152.083 223.638C161.496 211.647 171.406 197.974 170.416 197.345C169.425 196.712 161.695 206.707 161.102 205.128C160.503 203.553 174.375 170.948 173.285 166.529Z" fill="#B7C9E2"/>
<path d="M140.684 200.504C140.684 200.504 148.709 200.609 149.7 199.769C148.014 207.552 147.62 212.706 147.62 212.706C147.62 212.706 144.745 206.079 143.755 205.45C142.764 204.817 144.152 216.074 146.924 220.279C146.232 223.96 146.232 225.011 146.232 225.011C146.232 225.011 140.979 218.068 140.485 212.706C139.991 207.339 140.684 200.504 140.684 200.504Z" fill="#B7C9E2"/>
<path d="M171.304 151.489C171.304 151.489 172.592 154.33 171.403 157.694C170.214 161.059 148.215 188.091 139.001 189.459C145.738 192.51 159.91 182.202 165.061 175.259C165.061 175.259 156.439 191.561 148.017 196.085C144.251 198.083 139.296 197.137 137.812 196.191C136.325 195.245 131.767 187.251 132.065 182.832C132.363 178.413 145.045 160.848 145.045 160.848L145.244 170.524C145.244 170.524 137.613 175.467 136.722 178.307C140.885 175.572 143.065 176.205 143.065 176.205C143.065 176.205 139.497 184.094 137.713 185.04C146.433 182.937 170.214 156.854 171.304 151.489Z" fill="#B7C9E2"/>
<path d="M143.425 81.4995C143.425 81.4995 143.77 97.7407 143.77 108.872C143.77 120.004 143.255 128.218 147.381 139.349C148.928 153.948 149.101 172.381 149.101 172.381C149.101 172.381 162.855 159.424 164.229 156.14C162.51 142.817 161.822 134.057 161.822 134.057C161.822 134.057 161.135 140.445 159.93 140.808C158.726 141.175 156.319 129.494 157.696 123.838C159.071 118.182 153.055 84.2373 151.678 80.2207C149.514 83.5022 145.617 83.6021 143.425 81.4995Z" fill="#B7C9E2"/>
<path d="M234.718 212.349C234.718 212.349 224.918 218.554 223.026 220.563C224.401 216.549 225.948 215.087 224.058 215.087C222.169 215.087 166.979 242.46 150.988 304.873C144.282 286.623 155.802 256.876 180.215 234.066C180.215 234.066 199.127 213.445 209.1 209.428C221.994 207.057 226.293 208.333 226.293 208.333C226.293 208.333 208.927 213.989 205.661 215.997C206.693 213.625 206.865 212.529 206.865 212.529C206.865 212.529 181.247 230.779 176.951 245.015C199.99 219.464 221.406 210.513 228.015 209.611C228.012 209.611 229.732 212.166 234.718 212.349Z" fill="#B7C9E2"/>
<path d="M214.431 230.415C214.431 230.415 191.219 240.088 184.686 248.482C160.273 289.178 146.002 328.961 149.268 343.014C150.815 346.115 152.02 346.847 152.02 346.847C152.02 346.847 175.231 283.338 167.666 296.112C160.1 308.886 155.459 314.545 165.946 287.899C176.433 261.255 192.424 250.487 192.424 250.487C192.424 250.487 155.632 331.15 156.491 350.495C187.61 266.914 214.431 230.415 214.431 230.415Z" fill="#B7C9E2"/>
<path d="M227.842 220.926C227.842 220.926 223.371 224.94 214.603 238.629C205.836 252.315 153.74 348.309 154.599 368.747C153.912 377.141 157.179 388.093 157.179 388.093C157.179 388.093 161.478 379.699 166.806 373.677C157.866 392.292 153.567 411.088 158.726 416.198C175.231 400.503 206.35 350.134 206.35 350.134C206.35 350.134 214.776 348.126 217.87 343.566C220.964 339.003 229.731 322.395 234.03 322.762C235.063 317.469 234.718 313.818 234.718 313.818C234.718 313.818 231.451 264.179 229.904 262.354C222.856 317.286 219.417 334.623 219.417 334.623C219.417 334.623 207.21 349.951 209.789 338.273C212.369 326.592 222.341 287.358 222.511 277.869C204.116 332.071 190.877 360.72 187.61 362.365C184.344 364.007 198.098 330.975 210.992 291.558C223.886 252.138 228.529 228.049 228.529 228.049C228.529 228.049 218.902 240.823 215.635 243.197C223.886 228.407 227.842 220.926 227.842 220.926Z" fill="#B7C9E2"/>
<path d="M238.828 216.158C238.828 216.158 242.382 216.866 242.16 221.465C241.938 226.064 240.937 255.9 241.05 257.55C241.05 257.55 242.939 257.079 244.826 257.55C242.936 258.258 241.159 260.263 241.159 260.263C241.159 260.263 244.826 259.908 246.603 260.618C243.271 261.917 241.159 264.155 241.159 264.155C241.159 264.155 246.381 262.976 248.38 263.8C243.935 265.57 241.159 267.573 241.159 267.573C241.159 267.573 244.604 266.51 246.937 266.629C249.271 266.749 250.269 266.274 250.269 266.274C250.269 266.274 248.602 268.161 245.824 268.868C243.046 269.575 241.047 271.462 241.047 271.462C241.047 271.462 246.603 269.22 249.046 268.984C251.49 268.749 253.601 266.155 253.601 266.155C253.601 266.155 254.268 269.575 248.824 271.581C243.381 273.586 235.159 278.066 235.269 280.424C235.381 282.782 237.49 283.137 237.49 283.137L237.046 284.787C237.046 284.787 232.379 284.08 233.936 278.89C235.494 273.7 243.161 219.578 238.828 216.158Z" fill="#B7C9E2"/>
<path d="M208.828 445.684C211.838 444.208 218.829 442.693 218.829 442.693L220.06 440.397V438.921C220.062 438.921 213.113 440.766 208.828 445.684Z" fill="#13376B"/>
<path d="M209.583 441.31C212.594 439.834 219.584 438.319 219.584 438.319L220.815 436.023V434.547C220.818 434.55 213.869 436.394 209.583 441.31Z" fill="#13376B"/>
<path d="M210.338 436.939C213.349 435.463 220.339 433.948 220.339 433.948L221.57 431.651V430.176C221.573 430.176 214.624 432.02 210.338 436.939Z" fill="#13376B"/>
<path d="M211.096 432.564C214.106 431.088 221.097 429.573 221.097 429.573L222.328 427.276V425.801C222.328 425.804 215.379 427.648 211.096 432.564Z" fill="#13376B"/>
<path d="M211.852 428.192C214.862 426.717 221.853 425.202 221.853 425.202L223.083 422.905V421.43C223.086 421.43 216.135 423.274 211.852 428.192Z" fill="#13376B"/>
<path d="M212.606 423.818C215.617 422.343 222.608 420.828 222.608 420.828L223.838 418.531V417.056C223.841 417.058 216.892 418.903 212.606 423.818Z" fill="#13376B"/>
<path d="M213.362 419.445C216.372 417.97 223.363 416.455 223.363 416.455L224.594 414.158V412.683C224.596 412.685 217.648 414.527 213.362 419.445Z" fill="#13376B"/>
<path d="M214.117 415.073C217.128 413.598 224.118 412.083 224.118 412.083L225.349 409.786V408.311C225.352 408.311 218.403 410.155 214.117 415.073Z" fill="#13376B"/>
<path d="M214.872 410.7C217.883 409.224 224.873 407.71 224.873 407.71L226.104 405.413V403.937C226.107 403.94 219.158 405.782 214.872 410.7Z" fill="#13376B"/>
<path d="M215.627 406.328C218.638 404.852 225.628 403.337 225.628 403.337L226.859 401.041V399.565C226.862 399.565 219.913 401.41 215.627 406.328Z" fill="#13376B"/>
<path d="M216.383 401.954C219.393 400.478 226.384 398.963 226.384 398.963L227.615 396.667V395.191C227.617 395.194 220.669 397.036 216.383 401.954Z" fill="#13376B"/>
<path d="M217.141 397.583C220.151 396.107 227.142 394.592 227.142 394.592L228.373 392.296V390.82C228.373 390.82 221.424 392.664 217.141 397.583Z" fill="#13376B"/>
<path d="M217.896 393.207C220.907 391.731 227.897 390.217 227.897 390.217L229.128 387.92V386.444C229.131 386.447 222.179 388.292 217.896 393.207Z" fill="#13376B"/>
<path d="M218.651 388.836C221.661 387.36 228.652 385.845 228.652 385.845L229.883 383.548V382.073C229.885 382.073 222.937 383.917 218.651 388.836Z" fill="#13376B"/>
<path d="M219.406 384.461C222.417 382.985 229.407 381.471 229.407 381.471L230.638 379.174V377.698C230.641 377.701 223.692 379.546 219.406 384.461Z" fill="#13376B"/>
<path d="M220.162 380.09C223.172 378.614 230.163 377.1 230.163 377.1L231.394 374.803V373.327C231.396 373.327 224.447 375.172 220.162 380.09Z" fill="#13376B"/>
<path d="M220.917 375.714C223.927 374.238 230.918 372.724 230.918 372.724L232.148 370.427V368.951C232.151 368.954 225.202 370.799 220.917 375.714Z" fill="#13376B"/>
<path d="M221.672 371.344C224.682 369.868 231.673 368.354 231.673 368.354L232.904 366.057V364.581C232.906 364.581 225.958 366.426 221.672 371.344Z" fill="#13376B"/>
<path d="M222.427 366.968C225.438 365.492 232.428 363.978 232.428 363.978L233.659 361.681V360.205C233.662 360.208 226.713 362.052 222.427 366.968Z" fill="#13376B"/>
<path d="M223.185 362.597C226.196 361.121 233.186 359.607 233.186 359.607L234.417 357.31V355.834C234.417 355.837 227.468 357.679 223.185 362.597Z" fill="#13376B"/>
<path d="M223.94 358.226C226.951 356.75 233.941 355.235 233.941 355.235L235.172 352.939V351.463C235.175 351.463 228.224 353.308 223.94 358.226Z" fill="#13376B"/>
<path d="M224.696 353.851C227.706 352.375 234.697 350.86 234.697 350.86L235.928 348.564V347.088C235.93 347.091 228.982 348.933 224.696 353.851Z" fill="#13376B"/>
<path d="M240.38 402.273C243.265 400.536 250.112 398.406 250.112 398.406L251.16 396.006L251.045 394.536C251.043 394.539 244.264 396.991 240.38 402.273Z" fill="#13376B"/>
<path d="M240.642 398.262C243.521 396.515 250.36 394.362 250.36 394.362L251.4 391.96L251.28 390.49C251.28 390.493 244.509 392.97 240.642 398.262Z" fill="#13376B"/>
<path d="M240.903 394.25C243.775 392.494 250.609 390.32 250.609 390.32L251.641 387.915L251.516 386.444C251.516 386.444 244.753 388.946 240.903 394.25Z" fill="#13376B"/>
<path d="M241.165 390.24C244.031 388.473 250.857 386.276 250.857 386.276L251.882 383.868L251.751 382.4C251.754 382.398 244.998 384.922 241.165 390.24Z" fill="#13376B"/>
<path d="M241.426 386.231C244.287 384.455 251.105 382.233 251.105 382.233L252.122 379.823L251.989 378.355C251.989 378.353 245.241 380.899 241.426 386.231Z" fill="#13376B"/>
<path d="M241.687 382.221C244.543 380.435 251.354 378.191 251.354 378.191L252.362 375.775L252.224 374.307C252.226 374.307 245.487 376.876 241.687 382.221Z" fill="#13376B"/>
<path d="M241.948 378.209C244.799 376.414 251.604 374.145 251.604 374.145L252.608 371.726L252.464 370.259C252.461 370.259 245.732 372.852 241.948 378.209Z" fill="#13376B"/>
<path d="M242.207 374.197C245.053 372.391 251.85 370.1 251.85 370.1L252.846 367.678L252.699 366.211C252.697 366.214 245.975 368.827 242.207 374.197Z" fill="#13376B"/>
<path d="M242.469 370.186C245.309 368.372 252.099 366.059 252.099 366.059L253.087 363.634L252.935 362.169C252.935 362.167 246.221 364.805 242.469 370.186Z" fill="#13376B"/>
<path d="M242.73 366.176C245.565 364.35 252.347 362.015 252.347 362.015L253.327 359.588L253.17 358.123C253.17 358.12 246.464 360.78 242.73 366.176Z" fill="#13376B"/>
<path d="M242.991 362.165C245.819 360.332 252.595 357.971 252.595 357.971L253.567 355.538L253.408 354.074C253.408 354.077 246.71 356.759 242.991 362.165Z" fill="#13376B"/>
<path d="M243.252 358.154C246.075 356.309 252.843 353.927 252.843 353.927L253.807 351.491L253.643 350.026C253.643 350.029 246.953 352.734 243.252 358.154Z" fill="#13376B"/>
<path d="M243.514 354.143C246.331 352.29 253.091 349.882 253.091 349.882L254.05 347.444L253.881 345.979C253.881 345.982 247.198 348.711 243.514 354.143Z" fill="#13376B"/>
<path d="M243.775 350.134C246.587 348.27 253.34 345.84 253.34 345.84L254.291 343.399L254.116 341.937C254.116 341.934 247.444 344.689 243.775 350.134Z" fill="#13376B"/>
<path d="M244.034 346.122C246.84 344.25 253.585 341.798 253.585 341.798L254.529 339.354L254.351 337.892C254.354 337.889 247.687 340.663 244.034 346.122Z" fill="#13376B"/>
<path d="M244.295 342.112C247.096 340.228 253.836 337.754 253.836 337.754L254.772 335.305L254.589 333.843C254.589 333.843 247.933 336.642 244.295 342.112Z" fill="#13376B"/>
<path d="M244.557 338.101C247.353 336.21 254.085 333.71 254.085 333.71L255.012 331.258L254.824 329.796C254.824 329.796 248.176 332.617 244.557 338.101Z" fill="#13376B"/>
<path d="M244.818 334.089C247.606 332.186 254.333 329.665 254.333 329.665L255.255 327.21L255.065 325.748C255.062 325.751 248.422 328.594 244.818 334.089Z" fill="#13376B"/>
<path d="M245.079 330.079C247.862 328.167 254.581 325.621 254.581 325.621L255.496 323.163L255.3 321.704C255.297 321.704 248.667 324.57 245.079 330.079Z" fill="#13376B"/>
<path d="M245.34 326.068C248.118 324.146 254.829 321.577 254.829 321.577L255.736 319.117L255.535 317.658C255.535 317.658 248.91 320.548 245.34 326.068Z" fill="#13376B"/>
<path d="M245.602 322.056C248.375 320.125 255.078 317.535 255.078 317.535L255.977 315.068L255.773 313.609C255.77 313.609 249.156 316.522 245.602 322.056Z" fill="#13376B"/>
<path d="M256.217 311.022L256.008 309.563C256.008 309.563 249.402 312.498 245.863 318.046C248.631 316.107 255.326 313.491 255.326 313.491L256.217 311.022Z" fill="#13376B"/>
<path d="M248.639 231.093L252.836 245.013C252.836 245.013 247.241 245.013 247.065 247.798C246.89 250.583 249.514 251.695 249.514 251.695L249.164 248.727C249.164 248.727 252.661 252.438 254.584 254.294C256.507 256.15 256.682 261.531 256.682 261.531C256.682 261.531 242.521 251.509 244.97 245.942C247.416 240.372 248.639 231.093 248.639 231.093Z" fill="#B7C9E2"/>
<path d="M146.666 65.7314C141.159 65.7314 138.63 68.8049 141.057 71.2931C140.916 70.0365 141.69 67.3764 146.666 67.3764C151.641 67.3764 152.417 70.0365 152.274 71.2931C154.701 68.8049 152.172 65.7314 146.666 65.7314Z" fill="#B7C9E2"/>
<path d="M150.729 71.9774C150.729 71.9774 150.512 69.8887 146.666 69.8887C142.819 69.8887 142.602 71.9774 142.602 71.9774C142.602 71.9774 142.884 73.5807 143.399 75.3726C143.248 73.7693 146.666 73.5446 146.666 73.5446C146.666 73.5446 150.084 73.7693 149.932 75.3726C150.447 73.5807 150.729 71.9774 150.729 71.9774Z" fill="#B7C9E2"/>
<path d="M149.639 77.3125C149.253 76.2307 146.665 76.1558 146.665 76.1558C146.665 76.1558 144.078 76.2307 143.692 77.3125C143.454 77.981 144.016 79.0018 144.868 79.8118C145.887 80.7799 147.442 80.7799 148.461 79.8118C149.315 79.0046 149.877 77.981 149.639 77.3125Z" fill="#B7C9E2"/>
<path d="M146.666 18.945C134.472 18.9061 124.821 27.0698 131.132 38.7063C128.535 31.8132 134.966 22.9505 146.666 22.9505C158.363 22.9505 164.797 31.8132 162.199 38.7063C168.51 27.067 158.859 18.9034 146.666 18.945Z" fill="#B7C9E2"/>
<path d="M158.551 70.7298C158.551 70.7298 154.916 65.0932 155.203 60.4996C155.491 55.906 155.804 52.1696 155.187 51.1904C154.571 50.2112 152.031 47.2708 151.683 43.6564C151.338 40.042 152.203 38.8798 152.721 39.2459C153.241 39.6121 154.913 44.5136 156.703 45.8617C158.493 47.2098 158.666 49.5371 159.703 51.4983C160.741 53.4594 161.493 56.4608 161.088 59.0933C160.686 61.7257 159.706 68.7687 158.551 70.7298Z" fill="#B7C9E2"/>
<path d="M140.135 66.0761L139.278 59.0331C139.278 59.0331 142.568 55.6017 142.97 54.5005C146.085 55.4797 149.491 52.5393 149.088 51.316C148.683 50.09 144.818 51.255 143.953 50.8861C139.51 52.7224 138.76 53.8264 138.76 53.8264C138.76 53.8264 136.568 59.9513 136.913 61.1163C137.258 62.2786 138.567 66.5033 140.135 66.0761Z" fill="#B7C9E2"/>
<path d="M137.488 52.7228C137.488 52.7228 137.143 50.1514 137.488 49.6604C137.833 49.1695 142.918 46.046 143.637 45.924C144.355 45.8019 149.433 46.2291 150.068 46.6591C150.703 47.089 148.338 49.2166 148.338 49.2166L143.425 48.8033C143.425 48.8033 138.353 51.1916 137.488 52.7228Z" fill="#B7C9E2"/>
<path d="M137.334 47.2091C137.334 47.2091 136.315 45.0648 137.334 44.4518C138.353 43.8388 140.373 42.3686 140.373 42.3686C140.373 42.3686 144.588 41.517 146.666 40.4158C148.743 39.3145 150.176 42.6127 146.666 44.6349C144.701 44.2687 142.884 44.2049 142.884 44.2049C142.884 44.2049 138.392 45.922 137.334 47.2091Z" fill="#B7C9E2"/>
<path d="M135.353 43.9606C135.353 43.9606 136.853 42.5515 137.718 42.1853C138.525 38.815 136.91 33.5474 135.353 34.1604C133.795 34.7735 135.18 35.9607 134.66 38.7041C134.14 41.4502 133.782 42.876 135.353 43.9606Z" fill="#B7C9E2"/>
<path d="M211.193 124.811C192.359 124.811 181.035 141.06 182.836 157.468C183.34 159.138 184.263 161.684 184.263 161.684C184.263 161.684 183.975 159.593 184.263 157.953C185.086 157.476 186.403 157.127 187.232 156.938C187.349 156.378 187.48 155.809 187.626 155.235C186.001 155.468 184.122 155.948 184.122 155.948C184.122 155.948 183.978 153.67 184.409 151.493C185.627 150.921 187.726 151.165 188.831 151.351C188.983 150.944 189.142 150.539 189.309 150.134L184.697 149.415C184.697 149.415 184.911 147.365 185.912 145.543C186.696 145.365 189.628 146.442 190.864 146.919C191.112 146.475 191.376 146.037 191.651 145.607C189.654 143.887 186.913 143.948 186.913 143.948C186.913 143.948 187.77 140.608 189.346 139.543C191.35 140.037 193.122 141.743 193.914 142.605C194.152 142.339 194.395 142.075 194.646 141.817C193.193 138.938 190.992 138.403 190.992 138.403C190.992 138.403 192.28 136.048 193.924 135.138C195.56 135.923 196.788 138.314 197.319 139.518C197.633 139.293 197.957 139.077 198.286 138.869C197.499 136.095 195.424 134.075 195.424 134.075C195.424 134.075 197.141 132.406 198.714 131.493C200.766 132.522 201.775 135.718 202.099 136.974C202.383 136.866 202.676 136.766 202.971 136.669C202.397 132.969 200.716 130.658 200.716 130.658C200.716 130.658 202.718 128.91 204.866 128.988C206.468 130.103 206.834 134.023 206.915 135.751C207.33 135.69 207.754 135.637 208.185 135.593C208.274 133.792 207.952 130.156 206.938 128.303C207.811 127.737 209.923 127.554 211.193 127.496C212.463 127.554 214.574 127.737 215.447 128.303C214.433 130.156 214.112 133.792 214.201 135.593C214.632 135.637 215.055 135.687 215.471 135.751C215.554 134.023 215.918 130.103 217.52 128.988C219.665 128.913 221.67 130.658 221.67 130.658C221.67 130.658 219.989 132.971 219.414 136.669C219.71 136.766 220.002 136.869 220.287 136.974C220.611 135.718 221.617 132.519 223.671 131.493C225.245 132.403 226.961 134.075 226.961 134.075C226.961 134.075 224.889 136.095 224.1 138.869C224.429 139.08 224.753 139.293 225.067 139.518C225.6 138.314 226.828 135.92 228.461 135.138C230.108 136.05 231.394 138.403 231.394 138.403C231.394 138.403 229.193 138.935 227.74 141.817C227.991 142.073 228.234 142.336 228.472 142.605C229.264 141.743 231.033 140.037 233.04 139.543C234.613 140.605 235.473 143.948 235.473 143.948C235.473 143.948 232.732 143.884 230.735 145.607C231.012 146.039 231.273 146.475 231.522 146.919C232.758 146.442 235.69 145.365 236.474 145.543C237.475 147.365 237.689 149.415 237.689 149.415L233.077 150.134C233.244 150.539 233.403 150.944 233.555 151.351C234.66 151.165 236.759 150.921 237.976 151.493C238.405 153.668 238.261 155.948 238.261 155.948C238.261 155.948 236.382 155.468 234.757 155.235C234.903 155.809 235.034 156.378 235.152 156.938C235.977 157.127 237.297 157.476 238.12 157.953C238.405 159.593 238.12 161.684 238.12 161.684C238.12 161.684 239.043 159.14 239.547 157.468C241.35 141.06 230.027 124.811 211.193 124.811Z" fill="#B7C9E2"/>
<path d="M312.855 288.435C312.855 288.435 310.689 291.539 309.165 290.454C306.839 284.687 306.437 282.646 306.437 282.646C306.437 282.646 306.437 281.539 307.239 281.198C308.042 280.856 308.925 281.198 308.925 281.198L312.855 288.435Z" fill="#B7C9E2"/>
<path d="M313.979 283.837C313.979 283.837 316.064 282.73 316.386 281.623C315.343 279.155 309.808 274.814 308.927 275.493C308.041 276.176 310.689 280.517 313.979 283.837Z" fill="#B7C9E2"/>
<path d="M318.39 279.63C318.39 279.63 320.076 279.411 320.557 278.901C320.076 276.773 319.475 275.07 319.475 275.07L312.571 271.409C312.571 271.409 310.692 272.005 311.815 273.622C315.343 276.773 317.35 278.646 317.35 278.646L318.39 279.63Z" fill="#B7C9E2"/>
<path d="M322.077 278.05C322.077 278.05 324.965 279.157 325.927 278.05L322.077 270.048L318.8 268.128L314.295 266.896C314.295 266.896 312.369 267.748 314.295 269.279C317.157 270.708 320.07 272.719 320.07 272.719L322.077 278.05Z" fill="#B7C9E2"/>
<path d="M303.39 280.349C303.952 278.646 306.437 278.049 306.437 278.049C306.437 278.049 304.511 274.815 306.437 273.281C308.363 271.747 309.646 272.718 309.646 272.718C309.646 272.718 309.165 270.812 310.046 269.875C310.929 268.937 311.972 268.854 311.972 268.854C311.972 268.854 311.865 265.675 313.443 264.627C314.444 263.961 317.841 265.051 320.193 265.941L324.283 259.511L319.827 259.878L323.578 255.664L293.381 258.36L294.366 261.975L290.982 262.255L274.471 290.457C274.471 290.457 278.422 315.877 278.846 319.173L285.478 320.521L305.109 289.658C304.271 286.568 303.006 281.511 303.39 280.349Z" fill="#B7C9E2"/>
<path d="M140.354 16.7772C140.354 16.7772 143.341 16.3139 144.497 16.2251C142.957 9.11285 145.926 5.16281 151.605 5.16281C148.435 6.60247 149.127 9.12395 149.127 9.12395C149.127 9.12395 151.126 4.9825 157.822 6.78277C154.513 2.82163 147.896 0.841062 143.203 5.16281C138.51 9.48455 140.354 16.7772 140.354 16.7772Z" fill="#D6BB38"/>
<path d="M148.908 15.4303C148.908 15.4303 149.358 10.8395 152.358 10.4789C155.358 10.1183 159.821 12.3707 161.745 11.5607C157.822 15.9684 151.605 12.0988 148.908 15.4303Z" fill="#D6BB38"/>
<path d="M151.033 49.9399C152.198 52.5946 149.784 56.6612 143.951 56.6612C143.229 57.6986 142.001 58.8026 141.167 59.4961L141.724 65.2215C142.215 64.4004 144.635 63.804 146.666 63.804C148.696 63.804 151.116 64.4004 151.608 65.2215L152.872 52.2257L151.033 49.9399Z" fill="#B7C9E2"/>
<path d="M145.033 38.7085C145.866 38.1787 147.782 37.7349 149.115 38.7085C149.449 36.4089 151.281 35.8791 152.115 35.8791C152.504 35.8791 153.406 36.9055 154.255 37.9984L154.315 37.3853C154.386 35.2578 151.257 33.2051 146.666 33.2051C142.074 33.2051 138.946 35.2578 139.017 37.3853L139.296 40.2702C141.183 39.8486 144.447 39.083 145.033 38.7085Z" fill="#B7C9E2"/>
<path d="M166.798 502.646C167.575 502.124 168.304 501.631 168.947 501.187C173.724 497.886 183.056 485.031 185.834 473.001C188.612 460.973 196.167 456.61 206.941 452.011C217.718 447.412 244.047 441.986 248.492 433.614C252.938 425.243 248.27 418.047 243.825 416.161C239.38 414.275 238.604 412.033 238.604 412.033C238.604 412.033 237.271 413.803 238.604 417.459C230.382 411.917 237.271 405.196 244.604 402.247C251.937 399.298 264.935 397.057 269.046 395.171C273.157 393.284 276.489 388.802 283.49 386.68C282.157 383.85 273.601 307.315 269.268 293.046C269.712 295.759 272.6 337.152 271.38 338.566C270.159 339.981 263.493 288.802 258.047 264.625C259.048 268.988 269.156 392.929 269.156 392.929C269.156 392.929 264.379 395.642 258.935 396.466C253.492 397.293 246.381 399.767 246.381 399.767L245.27 277.241L240.603 279.246C240.603 279.246 232.382 404.838 232.272 410.971C232.159 417.104 235.938 417.928 239.492 419.343C243.046 420.757 248.492 425.356 245.824 431.37C244.936 425.001 238.604 423.706 238.604 423.706C238.604 423.706 240.603 429.248 241.269 433.495C241.936 437.739 218.826 442.693 218.826 442.693C218.826 442.693 224.604 368.871 227.827 348.941C222.827 348.941 218.717 353.895 218.717 353.895C218.717 353.895 200.162 403.659 198.72 406.255C197.275 408.849 201.607 378.78 209.497 356.372C200.387 364.272 170.614 499.772 168.058 497.176C165.502 494.582 184.389 405.193 184.389 405.193C184.389 405.193 165.168 455.192 163.059 456.846C160.947 458.496 163.947 440.807 174.058 408.141C155.726 423.589 154.393 443.048 155.948 452.718C157.503 462.388 155.948 467.93 152.06 475.833C149.901 480.219 150.959 490.416 152.331 498.624C157.087 500.135 161.912 501.478 166.798 502.646Z" fill="#B7C9E2"/>
<path d="M186.913 506.392C188.28 503.921 189.126 502.892 188.886 504.917C188.826 505.432 188.74 506.001 188.638 506.614C190.2 506.811 191.771 506.991 193.344 507.152C197.604 493.213 201.997 474.595 201.464 464.678L195.445 467.96C195.445 467.96 191.005 496.054 184.747 499.083C185.003 490.789 186.27 485.316 186.27 485.316C186.27 485.316 181.057 492.459 180.847 493.499C180.769 493.887 179.711 498.994 178.563 505.091C181.328 505.582 184.111 506.015 186.913 506.392Z" fill="#B7C9E2"/>
<path d="M211.164 508.189C215.322 484.827 218.628 462.555 217.711 454.982L206.738 459.124C206.738 459.124 203.863 482.006 199.637 507.695C203.455 507.967 207.297 508.13 211.164 508.189Z" fill="#B7C9E2"/>
<path d="M244.374 505.982C242.939 487.38 242.37 467.425 243.627 449.275C241.604 448.729 231.783 454.984 231.783 454.984L229.125 507.671C234.261 507.299 239.343 506.734 244.374 505.982Z" fill="#B7C9E2"/>
<path d="M256.241 452.653C257.409 451.413 257.777 479.36 256.957 503.771C258.509 503.441 260.054 503.094 261.593 502.73C263.832 485.277 265.168 461.116 262.826 432.983C258.193 434.537 251.61 444.631 251.61 444.631C251.61 444.631 251.853 462.75 248.683 492.775C257.215 482.678 254.532 454.467 256.241 452.653Z" fill="#B7C9E2"/>
<path d="M219.736 247.398C219.736 247.398 207.785 266.158 207.984 261.528C208.18 256.901 211.363 251.018 206.389 256.433C201.416 261.847 165.403 339.464 162.22 350.135C159.037 360.806 155.255 373.561 161.224 366.973C167.193 360.385 180.325 324.288 186.095 318.049C191.865 311.811 169.184 368.518 166.796 382.401C164.407 396.285 162.617 402.005 167.193 399.569C171.769 397.134 197.037 362.285 201.414 352.992C205.791 343.7 209.583 323.808 209.583 323.808C209.583 323.808 193.456 364.568 184.702 371.345C175.947 378.121 194.651 322.857 201.612 304.873C208.577 286.89 219.736 247.398 219.736 247.398Z" fill="white"/>
<path d="M182.303 256.432C182.303 256.432 186.027 247.83 194.64 242.917C203.254 238.008 207.04 235.924 206.199 238.155C205.357 240.388 189.236 270.595 185.591 277.888C181.945 285.181 177.759 291.133 182.306 277.888C186.853 264.643 196.653 246.31 196.653 246.31C196.653 246.31 185.465 251.342 182.303 256.432Z" fill="white"/>
<path d="M176.196 240.298C176.528 240.009 170.143 249.995 171.907 250.472C173.671 250.949 186.725 236.664 190.992 234.284C195.262 231.904 195.262 231.904 195.262 231.904C195.262 231.904 168.557 257.352 158.075 279.377C160.772 266.877 160.351 261.526 160.351 261.526C160.351 261.526 169.014 246.583 176.196 240.298Z" fill="white"/>
<path d="M199.326 162.522C199.326 162.522 198.362 165.24 199.326 166.899C200.29 168.56 201.681 171.04 202.608 170.815C203.536 170.588 205.564 168.191 206.202 166.039C206.839 163.886 206.782 161.487 206.202 161.426C205.619 161.365 200.852 162.447 199.326 162.522Z" fill="white"/>
<path d="M202.914 174.27C203.105 174.428 203.246 177.66 204.579 177.474C205.911 177.288 206.954 177.571 206.259 178.323C205.564 179.074 208.146 180.489 209.259 180.242C210.372 179.995 212.863 180.054 213.733 180.27C214.603 180.486 217.614 181.41 216.919 183.008C216.223 184.606 216.048 184.237 213.733 183.807C211.415 183.377 207.187 184.73 205.331 183.746C203.478 182.761 202.088 179.258 201.333 177.166C200.578 175.077 199.569 171.496 202.914 174.27Z" fill="white"/>
<path d="M222.665 161.682C222.665 161.682 220.624 162.001 219.004 161.682C217.381 161.363 217.324 161.962 217.614 164.001C217.904 166.039 219.004 170.087 219.757 169.723C220.509 169.36 223.256 164.766 222.665 161.682Z" fill="white"/>
<path d="M210.37 145.312C210.37 145.312 208.906 148.449 206.654 149.678C204.401 150.907 202.002 151.809 202.911 152.219C203.821 152.63 206.873 152.508 207.751 152.937C208.629 153.367 208.629 154.782 209.615 154.968C210.6 155.154 211.844 155.265 212.207 154.316C212.57 153.367 212.453 152.508 213.67 152.139C214.888 151.77 215.416 151.462 215.037 150.602C214.658 149.742 211.849 144.974 210.37 145.312Z" fill="white"/>
<path d="M205.073 162.523L206.199 161.427C206.199 161.427 208.75 158.628 208.938 157.799C209.298 156.969 210.516 157.521 210.516 157.799C210.516 158.076 210.203 164.534 210.098 164.903C209.994 165.272 208.491 165.527 207.984 165.677C207.474 165.826 205.075 164.004 205.075 164.004V162.523H205.073Z" fill="white"/>
<path d="M145.006 88.6748C145.006 88.6748 148.383 89.9036 149.107 89.7816C149.713 94.4556 154.004 117.454 153.829 121.759C153.654 126.064 152.096 136.025 152.875 140.209C153.654 144.392 155.392 146.128 155.972 148.272C156.552 150.417 157.942 157.016 157.595 158.267C157.247 159.518 151.608 164.594 151.608 164.594C151.608 164.594 149.444 141.446 149.122 138.275C149.018 137.254 146.007 127.415 146.007 122.372C146.005 117.332 145.006 88.6748 145.006 88.6748Z" fill="white"/>
<path d="M151.325 178.324C151.338 178.297 141.606 185.295 138.907 185.933C135.778 186.671 132.737 182.982 133.345 184.918C133.954 186.854 136.387 192.113 137.603 193.772C138.82 195.434 145.636 196.446 149.702 193.403C153.768 190.36 154.505 187.403 154.505 187.403C154.505 187.403 146.294 192.205 142.123 191.836C137.953 191.467 135.258 189.068 137.519 188.147C139.777 187.223 148.62 183.789 151.325 178.324Z" fill="white"/>
<path d="M150.813 220.926C150.988 220.645 148.673 228.695 153.826 223.455C158.982 218.215 166.106 208.163 166.367 208.992C166.629 209.822 153.923 229.378 151.325 231.039C148.728 232.698 148.592 224.457 150.813 220.926Z" fill="white"/>
<path d="M183.487 196.263C183.155 196.371 179.664 209.822 180.706 209.639C181.749 209.453 187.138 204.196 187.833 205.489C188.528 206.781 187.658 213.605 185.4 217.666C183.139 221.725 178.88 225.536 180.314 225.014C181.749 224.493 192.341 215.639 191.912 214.069C191.483 212.501 191.719 201.791 190.992 201.611C190.266 201.431 184.618 204.865 184.271 203.608C183.923 202.349 185.486 195.617 183.487 196.263Z" fill="white"/>
<path d="M228.802 282.737L222.428 329.796C222.428 329.796 226.682 322.162 230.639 320.517C231.446 303.913 231.104 277.361 228.802 282.737Z" fill="white"/>
<path d="M241.165 299.248C241.081 299.842 234.417 404.939 234.417 404.939C234.417 404.939 238.233 402.224 241.685 400.709C239.56 387.533 244.669 273.947 241.165 299.248Z" fill="white"/>
<path d="M218.651 359.216C218.424 360.042 191.552 452.45 192.566 454.982C198.145 449.26 209.586 448.441 209.586 444.874C209.586 441.31 222.43 355.834 222.43 355.834C222.43 355.834 219.543 355.968 218.651 359.216Z" fill="white"/>
<path d="M193.41 410.701C193.41 411.758 182.34 471.691 181.619 475.818C180.9 479.946 178.561 483.535 178.561 483.535L174.137 490.176L193.41 410.701Z" fill="#B7C9E2"/>
<path d="M172.616 441.311C172.616 441.311 163.655 463.435 161.967 462.897C160.276 462.359 160.953 444.903 162.644 437.929C164.334 430.956 166.804 424.812 166.804 424.812C166.804 424.812 158.413 435.347 158.078 442.304C157.744 449.261 160.278 462.373 158.925 468.378C157.571 474.384 157.911 495.557 160.616 495.918C163.318 496.276 173.298 445.799 172.616 441.311Z" fill="white"/>
<path d="M142.602 59.6487L142.997 63.2242C142.997 63.2242 145.364 62.3893 146.666 62.5086C146.666 59.8872 146.666 57.5793 146.666 57.5793C146.666 57.5793 145.973 57.4184 145.004 57.5793C143.812 59.2908 142.602 59.6487 142.602 59.6487Z" fill="white"/>
<path d="M140.135 39.0377V36.7381C140.135 36.7381 141.863 34.494 144.635 34.7326C144.635 36.1639 144.635 37.9503 144.635 37.9503C144.635 37.9503 141.092 39.0349 140.135 39.0377Z" fill="white"/>
<path d="M130.246 30.322C129.844 27.8477 133.367 21.3817 142.997 20.666C146.731 21.3817 147.019 22.3359 147.019 22.3359C147.019 22.3359 136.111 21.2624 130.246 30.322Z" fill="white"/>
</svg>
