<svg class="logo__picture" width="114" height="33" viewBox="0 0 114 33" fill="none" xmlns="http://www.w3.org/2000/svg">
<path d="M13.983 13.7219H0V17.2704H4.78321V29.4138H9.20236V17.2704H13.983V13.7219ZM18.2884 19.7307V17.288H13.9603V29.4138H18.2884V25.6492C18.2884 22.93 19.464 21.5704 21.8177 21.5704H22.1817V17.0869C20.3767 17.0115 19.0772 17.8911 18.2884 19.7307ZM29.1998 17.0166C27.3922 17.0166 25.9057 17.6247 24.7351 18.8436C23.5646 20.0625 22.9806 21.5678 22.9806 23.3597C22.9806 25.2571 23.595 26.7901 24.8262 27.9537C26.0573 29.1198 27.6425 29.7028 29.5866 29.7028C31.8341 29.7028 33.619 28.881 34.9386 27.2375L32.547 25.2873C31.6976 26.1091 30.7849 26.5212 29.8141 26.5212C28.3857 26.5212 27.4984 25.8552 27.1495 24.5258H35.3937C35.4089 24.3323 35.4165 24.0408 35.4165 23.6512C35.4165 21.7387 34.8855 20.1555 33.8212 18.8989C32.7594 17.6449 31.2198 17.0166 29.1998 17.0166ZM27.0812 22.3519C27.2026 21.6784 27.4503 21.1456 27.822 20.7486C28.1936 20.354 28.6613 20.1555 29.2226 20.1555C29.8141 20.1555 30.2995 20.354 30.6813 20.7486C31.0605 21.1456 31.288 21.6784 31.3639 22.3519H27.0812ZM45.2812 17.0166C43.8528 17.0166 42.6241 17.675 41.5901 18.9894V17.2855H37.262V29.4113H41.5901V22.8445C41.5901 22.2012 41.757 21.701 42.0907 21.3417C42.4244 20.9823 42.8643 20.8039 43.4129 20.8039C43.9438 20.8039 44.366 20.9823 44.677 21.3417C44.9879 21.701 45.1447 22.2012 45.1447 22.8445V29.4113H49.4728V21.4774C49.4728 20.1027 49.1012 19.0145 48.3579 18.2153C47.6096 17.4187 46.5857 17.0166 45.2812 17.0166ZM60.4499 18.7657C59.4159 17.5996 58.1569 17.0166 56.6678 17.0166C55.1484 17.0166 53.8667 17.5971 52.8175 18.7531C51.7709 19.9117 51.245 21.4472 51.245 23.3597C51.245 25.2571 51.7734 26.7851 52.8276 27.9436C53.8819 29.1022 55.1687 29.6802 56.6881 29.6802C58.1468 29.6802 59.3982 29.0519 60.4474 27.7979V29.4113H64.7755V13.0483H60.4499V18.7657ZM59.7875 25.335C59.3021 25.8578 58.708 26.1191 58.0103 26.1191C57.3125 26.1191 56.7159 25.8578 56.2229 25.335C55.7299 24.8123 55.4822 24.1539 55.4822 23.3622C55.4822 22.5555 55.7249 21.8895 56.2103 21.3668C56.6957 20.8441 57.2948 20.5827 58.0103 20.5827C58.708 20.5827 59.2996 20.8415 59.7875 21.3567C60.2729 21.8719 60.5156 22.5254 60.5156 23.317C60.5182 24.1388 60.2755 24.8098 59.7875 25.335ZM77.5097 22.5555C77.5097 23.6311 77.2467 24.4378 76.7234 24.9756C76.2001 25.5135 75.4821 25.7824 74.572 25.7824C73.6619 25.7824 72.9439 25.5034 72.4206 24.943C71.8973 24.3826 71.6343 23.5507 71.6343 22.4424V13.7219H67.1469V22.5304C67.1469 24.9204 67.7916 26.7147 69.0835 27.911C70.3728 29.1072 72.188 29.7054 74.5265 29.7054C76.8802 29.7054 78.7131 29.1047 80.0277 27.9009C81.3398 26.6971 81.9971 24.8701 81.9971 22.4198V13.7219H77.5097V22.5555ZM96.3012 18.7557C95.2394 17.5971 93.9475 17.0191 92.4281 17.0191C90.9846 17.0191 89.7407 17.6474 88.6916 18.9014V17.288H84.3659V33.0001H88.6941V27.9336C89.7104 29.0997 90.9643 29.6827 92.4534 29.6827C93.9728 29.6827 95.2596 29.1047 96.3138 27.9462C97.3681 26.7876 97.8964 25.2521 97.8964 23.3396C97.8939 21.4422 97.363 19.9142 96.3012 18.7557ZM92.9059 25.335C92.4205 25.8578 91.8188 26.1191 91.1059 26.1191C90.4081 26.1191 89.814 25.8578 89.3287 25.335C88.8433 24.8123 88.6005 24.1539 88.6005 23.3622C88.6005 22.5555 88.8433 21.8895 89.3287 21.3668C89.814 20.8441 90.4056 20.5827 91.1059 20.5827C91.8188 20.5827 92.418 20.8415 92.9059 21.3567C93.3913 21.8719 93.634 22.5254 93.634 23.317C93.6366 24.1388 93.3913 24.8098 92.9059 25.335Z" fill="white"/>
<path fill-rule="evenodd" clip-rule="evenodd" d="M87.73 8.66275L88.7842 7.61729C88.764 7.95656 88.7513 8.29584 88.7513 8.63762C88.7513 8.64516 88.7513 8.6527 88.7513 8.66275H87.73ZM105.288 25.071C105.652 25.071 106.016 25.0584 106.375 25.0358L105.288 26.1189V25.071ZM109.563 21.8592L108.286 23.1308C107.31 23.3294 106.307 23.4299 105.288 23.4324V22.5201C106.762 22.5201 108.2 22.294 109.563 21.8592ZM105.288 19.9718C108.779 19.9693 111.909 18.3986 114 15.9307V17.2778C111.77 19.5019 108.688 20.8816 105.288 20.8816V19.9718ZM105.288 18.3358V17.426C109.669 17.4235 113.315 14.2344 114 10.0676V12.9803C112.397 16.1494 109.095 18.3333 105.288 18.3358ZM114 4.29996V7.21268C113.398 3.56864 110.534 0.671005 106.891 0H109.707C111.558 0.942423 113.067 2.45281 114 4.29996ZM105.313 7.0066C106.223 7.0066 106.959 7.74043 106.959 8.64265C106.959 9.54737 106.221 10.2787 105.313 10.2787C105.305 10.2787 105.298 10.2787 105.288 10.2787V8.66527H103.667C103.667 8.65773 103.667 8.65019 103.667 8.64265C103.667 7.73792 104.403 7.0066 105.313 7.0066ZM105.28 4.04111C107.831 4.04111 109.907 6.10439 109.907 8.64014C109.907 11.1734 107.836 13.2341 105.288 13.2392V12.3269C107.33 12.3219 108.989 10.6707 108.989 8.64014C108.989 6.60702 107.325 4.95338 105.28 4.95338C103.235 4.95338 101.571 6.60702 101.571 8.64014C101.571 8.64768 101.571 8.65773 101.571 8.66527H100.656C100.656 8.65773 100.656 8.64768 100.656 8.64014C100.654 6.10439 102.729 4.04111 105.28 4.04111ZM105.28 1.4928C109.244 1.4928 112.47 4.69955 112.47 8.64014C112.47 12.5782 109.249 15.7824 105.288 15.7875V14.8752C108.744 14.8702 111.552 12.0756 111.552 8.64014C111.552 5.20218 108.739 2.40507 105.28 2.40507C101.822 2.40507 99.0079 5.20218 99.0079 8.64014C99.0079 8.64768 99.0079 8.65773 99.0079 8.66527H98.0927C98.0927 8.65773 98.0927 8.64768 98.0927 8.64014C98.0902 4.69955 101.316 1.4928 105.28 1.4928ZM112.652 0.00251175H114V1.34955C113.59 0.862002 113.138 0.412152 112.652 0.00251175ZM96.4444 8.64014C96.4444 8.64768 96.4444 8.65521 96.4444 8.66527H95.5292C95.5292 8.65773 95.5292 8.65019 95.5292 8.64014C95.5292 4.87798 97.6958 1.6084 100.856 0.00251175H103.672C99.5641 0.75645 96.4444 4.34269 96.4444 8.64014ZM97.9082 0.00251175C95.4458 2.08338 93.8784 5.18207 93.8784 8.64014C93.8784 8.64768 93.8784 8.65521 93.8784 8.66527H92.9632C92.9632 8.65773 92.9632 8.65019 92.9632 8.64014C92.9632 5.27254 94.3385 2.21909 96.5582 0.00251175H97.9082ZM91.3174 8.64014C91.3174 8.64768 91.3174 8.65521 91.3174 8.66527H90.4022C90.4022 8.65773 90.4022 8.65019 90.4022 8.64014C90.4022 7.65248 90.4983 6.67989 90.6879 5.73244L91.957 4.47337C91.5348 5.80281 91.3174 7.20514 91.3174 8.64014Z" fill="#E30B17"/>
</svg>
