<svg width="13" height="21" viewBox="0 0 13 21" fill="none" xmlns="http://www.w3.org/2000/svg">
<path d="M4.592 13.672V9.304C6.08533 9.248 7.21467 8.968 7.98 8.464C8.764 7.94133 9.156 7.13867 9.156 6.056V5.664C9.156 4.88 8.92267 4.27333 8.456 3.844C7.98933 3.41467 7.364 3.2 6.58 3.2C5.74 3.2 5.05867 3.452 4.536 3.956C4.032 4.44133 3.67733 5.076 3.472 5.86L0.476 4.628C0.644 4.04933 0.886667 3.48933 1.204 2.948C1.52133 2.40667 1.932 1.93067 2.436 1.52C2.94 1.09067 3.54667 0.754666 4.256 0.511999C4.96533 0.250666 5.78667 0.119999 6.72 0.119999C7.672 0.119999 8.53067 0.259999 9.296 0.539999C10.0613 0.801332 10.7147 1.184 11.256 1.688C11.7973 2.17333 12.2173 2.76133 12.516 3.452C12.8147 4.14267 12.964 4.908 12.964 5.748C12.964 6.56933 12.824 7.30667 12.544 7.96C12.2827 8.59467 11.9187 9.15467 11.452 9.64C10.9853 10.1067 10.4533 10.4893 9.856 10.788C9.25867 11.068 8.64267 11.264 8.008 11.376V13.672H4.592ZM6.328 20.336C5.544 20.336 4.97467 20.1493 4.62 19.776C4.26533 19.4027 4.088 18.9267 4.088 18.348V17.788C4.088 17.2093 4.26533 16.7333 4.62 16.36C4.97467 15.9867 5.544 15.8 6.328 15.8C7.13067 15.8 7.70933 15.9867 8.064 16.36C8.41867 16.7333 8.596 17.2093 8.596 17.788V18.348C8.596 18.9267 8.41867 19.4027 8.064 19.776C7.70933 20.1493 7.13067 20.336 6.328 20.336Z" fill="url(#paint0_linear)"/>
<defs>
<linearGradient id="paint0_linear" x1="-2.57014" y1="-17.1833" x2="24.2114" y2="-12.9245" gradientUnits="userSpaceOnUse">
<stop stop-color="#0190D1"/>
<stop offset="1" stop-color="#ED1B24"/>
</linearGradient>
</defs>
</svg>
