<svg width="250" height="348" viewBox="0 0 250 348" fill="none" xmlns="http://www.w3.org/2000/svg">
<g opacity="0.05">
<path d="M118.134 224.862L81.4551 242.768L86.1694 247.224L124.998 233.503L118.134 224.862Z" fill="white"/>
<path d="M71.0252 222.745L120.191 217.023L115.087 203.647L68.1396 217.887L71.0252 222.745Z" fill="white"/>
<path d="M118.133 193.174C116.956 192.618 75.9062 157.509 75.9062 157.509L127.063 183.354L118.133 193.174Z" fill="white"/>
<path d="M134.845 176.317L119.865 121.568L148.573 174.646L134.845 176.317Z" fill="white"/>
<path d="M157.795 174.647L179.361 125.747L167.434 179.245L157.795 174.647Z" fill="white"/>
<path d="M176.31 186.559L183.799 195.89L218.468 157.509L176.31 186.559Z" fill="white"/>
<path d="M192.952 214.906L188.237 200.8L239.663 195.888L192.952 214.906Z" fill="white"/>
<path d="M250 347.9H48.083V335.271C48.083 335.271 36.9889 327.838 39.5746 307.778C39.5746 307.778 27.3695 310.752 25.8933 302.584C24.4078 294.402 30.3283 285.487 30.3283 285.487C30.3283 285.487 27.7363 274.344 45.1213 249.824C45.1213 249.824 38.8277 235.714 38.4609 219.732C38.4609 219.732 35.635 213.045 36.8644 209.335C36.8644 209.335 24.4078 201.164 27.7363 130.952C27.7363 130.952 26.6269 135.777 19.9685 135.777C16.8952 135.777 15.0104 134.106 13.9215 131.699V131.687C13.4232 130.551 13.1014 129.247 12.9264 127.876C12.6577 125.859 12.714 123.685 12.945 121.657C12.945 121.657 7.32009 116.351 14.2542 110.234C14.4332 110.076 14.6094 109.932 14.8 109.777L14.743 108.651L14.4203 101.974C14.4203 101.974 14.3755 101.964 14.2994 101.931C13.9667 101.83 12.9676 101.44 12.0699 100.438C12.0699 100.438 12.0699 100.438 12.0699 100.426C10.9284 99.1326 9.97535 96.8478 10.7921 92.8696C10.7921 92.8696 10.7813 92.8582 10.7729 92.8239C10.6377 92.6253 10.0734 91.6986 9.69601 90.4063C9.12966 88.5013 8.96242 85.804 11.2818 83.5848C11.2818 83.5848 9.2526 81.9141 10.362 79.1283C10.362 79.1283 0 72.6196 0 56.8389C0 41.0455 7.58654 34.7266 14.2469 31.5723C14.2469 31.5723 9.06277 25.809 13.8668 18.0094C13.8668 18.0094 15.1668 21.7306 17.5748 21.174C17.5748 21.174 12.7574 11.1452 27.7363 2.59606L28.6695 4.82502C28.6695 4.82502 39.3841 1.84914 46.7828 3.89829C54.1838 5.94041 61.3936 7.05398 65.2781 5.75039C65.2781 5.75039 63.2362 8.35644 61.2069 8.53647C61.2069 8.53647 75.4403 13.1846 85.9809 0C85.9809 0 88.3867 13.7415 78.0355 18.5666C67.6764 23.4045 70.0821 25.0752 74.5201 23.0247C74.5201 23.0247 74.7076 27.3044 67.3073 31.3825C59.9077 35.4738 66.7545 35.4738 68.9734 33.9915C68.9734 33.9915 69.3386 39.0065 58.8012 39.3748C58.8012 39.3748 63.7921 49.2151 62.3166 58.8767C60.8413 68.5413 56.0827 80.2421 43.1122 82.6497C43.1122 82.6497 51.7776 91.0091 51.7776 104.76C51.7776 118.503 54.5511 142.464 62.3166 157.508C70.0824 172.556 75.0767 198.747 76.1863 209.335C76.1863 209.335 78.5914 209.145 78.0357 215.274C78.0357 215.274 80.2105 214.272 81.7003 216.434C82.1871 217.158 82.6072 218.24 82.8431 219.832C82.9399 220.557 83.0065 221.383 83.0294 222.341C83.0294 222.341 87.6436 223.266 87.8341 230.321C87.8341 230.321 91.7154 230.877 90.9721 237.385C90.9721 237.385 94.8577 239.982 93.5684 249.455L103.732 259.677C103.732 259.677 110.576 258.929 112.605 266.731L119.454 272.492C119.454 272.492 118.898 265.617 123.524 260.791C123.524 260.791 122.227 252.8 123.524 250.202C123.524 250.202 113.351 252.051 113.351 242.022C113.351 231.993 118.155 234.222 117.422 230.699C116.68 227.168 110.577 224.747 113.351 213.793C113.351 213.793 103.92 190.387 132.576 175.71C161.244 161.042 185.463 189.085 190.267 203.015C195.084 216.946 198.779 234.41 194.528 237.565C190.267 240.729 192.122 246.669 195.447 250.012C198.779 253.357 198.966 254.47 198.41 265.617C197.856 276.761 197.114 280.662 201.185 283.258C205.246 285.866 205.067 287.538 204.51 289.388C204.51 289.387 237.42 294.034 250 347.9Z" fill="white"/>
<path d="M82.8405 219.833C82.8292 219.833 82.8179 219.823 82.8064 219.823C81.9277 219.543 80.5973 219.243 78.9762 219.298C77.37 219.343 75.4843 219.8 73.6648 220.826C72.7522 221.338 71.8552 221.994 71.0235 222.742C70.2104 223.49 69.3462 224.416 68.5068 225.261C66.8159 227 65.1315 228.74 63.5563 230.377C62.7567 231.191 61.9915 231.981 61.238 232.706C60.4945 233.452 59.739 234.1 59.0752 234.723C57.7093 235.926 56.5443 236.897 55.7112 237.556C54.9792 238.134 54.5372 238.491 54.4375 238.568C54.527 238.479 54.9478 238.088 55.6138 237.441C56.3892 236.719 57.4654 235.648 58.719 234.344C59.3182 233.664 60.0054 232.975 60.6721 232.171C61.3481 231.391 62.0473 230.543 62.7696 229.663C64.1995 227.904 65.732 226.019 67.2609 224.135C68.0611 223.198 68.7705 222.273 69.6339 221.327C70.4924 220.413 71.4457 219.577 72.4527 218.886C74.4732 217.492 76.7591 216.713 78.7556 216.49C79.8325 216.356 80.8309 216.356 81.6974 216.434C82.1845 217.158 82.6046 218.241 82.8405 219.833Z" fill="url(#paint0_linear)"/>
<path d="M67.1082 16.1069C61.361 14.5761 51.6402 17.9177 51.6402 17.9177C53.4441 16.3855 52.6104 14.5761 52.6104 14.5761C51.6402 15.8286 45.5391 17.0822 40.0103 19.4513C34.4805 21.8189 34.9972 26.8338 34.9972 26.8338C50.9479 25.4416 58.8052 39.3727 58.8052 39.3727C69.3449 39.0015 68.9761 33.9865 68.9761 33.9865C66.7572 35.4731 59.9153 35.4717 67.31 31.3848C74.7076 27.298 74.5227 23.0254 74.5227 23.0254C70.0848 25.0702 67.679 23.3981 78.0352 18.5688C84.4404 15.5814 85.9637 9.18713 86.1917 4.7417C79.4368 16.6609 72.4607 17.5336 67.1082 16.1069Z" fill="url(#paint1_linear)"/>
<path d="M68.1416 232.876C68.1416 232.876 80.9935 226.69 87.6803 228.642C87.2225 225.492 85.7783 223.878 84.614 223.081C81.4113 222.997 75.7948 224.503 68.1416 232.876Z" fill="url(#paint2_linear)"/>
<path d="M71.3768 206.921C68.7882 208.965 67.4912 215.649 61.5755 192.06C61.5755 192.06 59.7284 205.434 65.2748 221.037C65.2748 221.037 71.2943 212.54 78.0819 214.556C78.3839 209.18 76.1856 209.336 76.1856 209.336C76.1856 209.336 73.9667 204.876 71.3768 206.921Z" fill="url(#paint3_linear)"/>
<path d="M32.0459 39.5104C52.6264 39.5104 60.0785 48.7809 62.4198 57.9598C62.8002 54.5599 62.439 51.1812 61.8064 48.251C57.5712 41.5836 48.9655 36.1475 32.1356 36.1475C15.8325 36.1475 6.72614 40.2514 1.70965 45.3864C0.879563 47.8426 0.296713 50.67 0.0878906 53.9857C3.41639 46.7231 11.8082 39.5104 32.0459 39.5104Z" fill="url(#paint4_linear)"/>
<path d="M27.7383 130.948C27.7135 131.026 27.6897 131.113 27.6641 131.194C27.7153 131.041 27.7383 130.948 27.7383 130.948Z" fill="url(#paint5_linear)"/>
<path d="M121.949 234.133C120.56 223.963 123.888 220.202 128.465 218.669C133.044 217.136 132.073 212.261 128.605 212.401C125.137 212.539 124.998 216.162 124.998 216.162C121.255 218.391 120.56 224.865 120.56 224.865C119.174 219.915 119.453 212.539 126.384 207.802C133.319 203.066 135.955 196.518 135.955 196.518C138.382 199.063 143.444 199.861 156.063 201.673C168.682 203.484 171.595 217.847 171.595 217.847C170.348 200.585 156.481 198.189 148.851 197.214C141.224 196.24 135.121 192.06 135.121 192.06C135.121 192.06 131.101 197.632 123.612 201.95C116.122 206.27 113.35 213.794 113.35 213.794C110.576 224.752 116.68 227.168 117.419 230.695C118.157 234.225 113.35 231.996 113.35 242.026C113.35 252.058 123.523 250.199 123.523 250.199C125.37 244.116 123.335 244.303 121.949 234.133Z" fill="url(#paint6_linear)"/>
<path d="M86.1699 291.946C106.969 278.989 112.611 266.731 112.611 266.731C111.685 263.184 109.772 261.413 107.952 260.526C104.581 275.022 86.1699 291.946 86.1699 291.946Z" fill="url(#paint7_linear)"/>
<path d="M58.1535 248.063C47.3372 262.691 42.2276 277.909 34.3027 286.234C34.3027 286.234 44.1488 277.597 51.2194 266.173C58.295 254.751 68.1395 248.899 68.1395 248.899C68.1395 248.899 53.5791 262.97 49.4162 276.481C49.4162 276.481 73.5817 235.595 93.7933 246.875C94.1203 239.514 90.9759 237.38 90.9759 237.38C91.7143 230.882 87.833 230.325 87.833 230.325C87.833 230.325 68.9725 233.435 58.1535 248.063Z" fill="url(#paint8_linear)"/>
<path d="M155.509 262.21C158.972 260.336 166.047 255.584 165.857 259.207C165.665 262.828 166.186 265.617 164.245 272.163C162.303 278.711 160.915 266.311 160.915 266.311C159.252 279.545 151.766 281.219 151.766 281.219C160.776 279.825 164.105 282.611 173.675 284.84C183.242 287.069 185.461 284.84 185.461 284.84C174.785 268.262 178.945 257.536 182.273 252.241C185.599 246.947 184.493 242.349 184.493 242.349C178.39 247.783 172.843 238.588 172.843 238.588C169.653 243.605 164.8 245.973 154.538 244.857C144.275 243.744 139.283 246.53 134.566 247.226C129.85 247.923 130.268 251.267 128.049 253.775C125.831 256.281 123.196 258.277 123.196 258.277C123.35 259.734 123.522 260.786 123.522 260.786C128.141 265.431 132.625 266.869 142.469 266.869C152.319 266.869 152.042 264.084 155.509 262.21Z" fill="url(#paint9_linear)"/>
<path d="M96.7095 326.912C111.152 317.553 124.556 302.038 128.479 297.309C123.36 302.929 107.578 314.583 91.3461 323.755C79.3976 330.506 68.7983 341.459 63.1406 347.902H76.1346C78.9761 343.018 85.1798 334.385 96.7095 326.912Z" fill="url(#paint10_linear)"/>
<path d="M128.478 297.309C128.957 296.782 129.349 296.305 129.632 295.891C129.632 295.891 129.225 296.407 128.478 297.309Z" fill="url(#paint11_linear)"/>
<path d="M23.2094 76.014C23.2094 76.014 25.8464 79.9139 29.1726 81.4475C32.5011 82.9783 31.8082 86.1826 36.2446 89.3885C36.2446 89.3885 34.647 85.1846 31.3901 80.7505C29.0587 77.5748 23.4865 77.4062 23.9023 71.9727C24.3195 66.5408 26.5364 63.6133 34.5812 71.9727C42.627 80.3321 43.1158 82.6539 43.1158 82.6539C53.4297 80.7346 58.5348 72.9437 60.9437 64.9771C59.8605 54.7156 53.9414 42.5352 31.9544 42.5352C7.92404 42.5352 1.80648 54.2402 0.557617 62.8423C2.68426 74.2791 10.361 79.1241 10.361 79.1241C9.24726 81.9102 11.2828 83.5822 11.2828 83.5822C11.2828 83.5822 15.0256 81.4473 18.3548 80.7505C21.6858 80.0538 23.0709 76.8481 23.2094 76.014Z" fill="url(#paint12_linear)"/>
<path d="M42.3474 297.795C43.4575 290.969 45.675 277.873 45.675 277.873C41.5157 285.535 37.2179 292.778 33.0564 298.63C28.8957 304.482 25.8906 302.58 25.8906 302.58C27.3711 310.752 39.5762 307.779 39.5762 307.779C36.9876 327.841 48.0819 335.269 48.0819 335.269C48.0819 316.88 52.888 283.168 52.888 283.168C46.0929 288.462 42.3474 297.795 42.3474 297.795Z" fill="url(#paint13_linear)"/>
<path d="M37.7699 133.268C40.6833 130.483 40.8211 125.188 37.7699 122.82C37.7699 122.82 36.521 121.288 37.3514 119.339C38.1873 117.387 38.6023 110.701 36.5213 106.66C34.4416 102.621 33.8843 97.3264 34.5795 93.7051C34.5795 93.7051 31.964 104.028 32.8538 111.333C32.9476 112.073 33.04 112.73 33.1338 113.344C33.6186 113.945 34.1004 114.585 34.5793 115.297C34.1002 114.585 33.6183 113.945 33.1338 113.344C33.9774 118.816 34.8817 119.773 33.8843 122.403C32.7783 125.328 29.2161 126.117 27.7376 130.946C27.2181 141.908 27.0852 151.355 27.2246 159.496C29.0812 157.171 32.1636 152.723 33.7481 147.2C36.1032 138.98 34.8579 136.056 37.7699 133.268Z" fill="url(#paint14_linear)"/>
<path d="M162.996 210.587C159.252 209.335 160.086 210.031 158.004 209.892C155.924 209.752 151.486 207.523 150.929 205.574C150.377 203.623 148.556 204.169 147.06 204.372C144.448 204.731 141.888 206.199 139.143 210.171C133.868 217.809 137.339 221.176 133.874 222.43C130.407 223.684 128.882 226.47 129.991 228.839C131.101 231.206 132.073 231.532 134.707 230.325C137.339 229.116 136.787 229.975 136.649 231.009C136.51 232.043 129.831 232.878 129.633 236.64C129.633 236.64 138.173 228.282 144.414 232.878C144.414 232.878 142.946 229.953 138.827 229.675C134.707 229.396 138.727 226.609 140.671 227.028C142.611 227.445 144.692 224.702 141.502 223.078C138.312 221.453 138.173 216.021 141.083 215.324C143.996 214.627 143.721 216.858 146.91 215.324C150.1 213.794 147.882 209.473 152.595 210.449C157.31 211.423 157.452 213.095 156.063 215.324C154.677 217.553 159.115 217.553 162.996 216.438C166.88 215.324 166.74 211.841 162.996 210.587Z" fill="url(#paint15_linear)"/>
<path d="M143.793 233.503C143.793 233.503 141.361 234.896 137.34 235.454C133.32 236.011 130.685 240.399 130.685 240.399C132.419 238.1 133.459 237.891 137.897 237.333C142.335 236.776 145.106 234.757 145.106 234.757C144.83 233.782 143.793 233.503 143.793 233.503Z" fill="url(#paint16_linear)"/>
<path d="M194.067 327.468C195.45 321.154 197.853 326.911 200.257 331.555C200.257 331.555 201.669 305.069 189.162 295.89C187.782 294.876 185.277 292.733 182.69 298.119C180.1 303.507 169.19 318.923 162.904 322.082C162.904 322.082 171.595 324.497 179.918 317.437C179.918 317.437 178.066 316.694 176.033 315.952C173.999 315.209 183.427 310.009 185.462 306.107C187.5 302.207 187.128 317.066 183.799 326.169C181.58 332.241 184.051 341.945 186.38 347.901H202.32C198.761 341.728 193.131 331.745 194.067 327.468Z" fill="url(#paint17_linear)"/>
<path d="M227.478 347.902H221.518C221.464 347.188 221.388 346.428 221.321 345.638C221.141 344.266 220.997 342.764 220.698 341.19C220.555 340.4 220.411 339.585 220.257 338.761C220.067 337.937 219.878 337.089 219.676 336.231C219.322 334.503 218.756 332.776 218.259 330.983C217.725 329.211 217.062 327.438 216.45 325.644C215.73 323.906 215.04 322.124 214.288 320.417C213.478 318.735 212.698 317.051 211.912 315.446C211.045 313.874 210.213 312.359 209.427 310.921C208.616 309.483 207.751 308.202 206.998 306.964C206.231 305.749 205.555 304.614 204.845 303.677C204.168 302.73 203.579 301.893 203.09 301.214C202.227 300.011 201.694 299.253 201.571 299.084C201.694 299.219 202.316 299.91 203.315 301.024C203.87 301.661 204.555 302.429 205.334 303.309C206.142 304.168 206.942 305.226 207.839 306.362C208.727 307.51 209.749 308.715 210.716 310.074C211.669 311.434 212.677 312.883 213.718 314.375C214.71 315.915 215.673 317.531 216.692 319.169C217.66 320.83 218.548 322.566 219.488 324.294C220.321 326.068 221.197 327.828 221.963 329.612C222.686 331.417 223.472 333.166 224.038 334.928C224.348 335.808 224.648 336.678 224.935 337.523C225.191 338.383 225.435 339.218 225.678 340.042C226.18 341.681 226.511 343.275 226.868 344.735C227.088 345.871 227.314 346.921 227.478 347.902Z" fill="url(#paint18_linear)"/>
<path d="M235.479 347.897C235.511 346.391 235.479 344.864 235.479 343.326C235.355 341.431 235.278 339.538 235.122 337.666C234.9 335.804 234.712 333.964 234.478 332.192C234.169 330.433 233.869 328.717 233.589 327.099C233.292 325.484 232.882 323.979 232.573 322.575C232.249 321.17 231.962 319.878 231.597 318.762C231.264 317.638 230.973 316.656 230.727 315.853C230.253 314.237 229.978 313.314 229.978 313.314C229.978 313.314 230.353 314.194 231.007 315.755C231.33 316.533 231.727 317.481 232.184 318.562C232.67 319.643 233.081 320.903 233.57 322.273C234.038 323.644 234.612 325.117 235.091 326.72C235.558 328.325 236.032 330.02 236.542 331.77C236.975 333.54 237.366 335.391 237.797 337.274C238.171 339.158 238.451 341.097 238.796 343.038C238.971 344.653 239.183 346.281 239.33 347.897H235.479Z" fill="url(#paint19_linear)"/>
<path d="M142.451 301.69C142.255 302.091 140.612 305.49 138.214 310.428C136.937 313.069 135.451 316.134 133.854 319.433C133.055 321.083 132.223 322.775 131.391 324.504C130.536 326.241 129.751 327.969 128.805 329.764C127.795 331.513 126.785 333.308 125.678 334.891C125.132 335.705 124.59 336.506 124.057 337.297C123.503 338.078 122.96 338.836 122.428 339.593C121.351 341.109 120.286 342.525 119.267 343.884C118.253 345.245 117.276 346.504 116.38 347.662C116.313 347.741 116.257 347.818 116.203 347.898H108.291C109.357 346.825 110.666 345.502 112.132 343.962C113.14 342.927 114.228 341.789 115.36 340.574C116.49 339.358 117.69 338.078 118.875 336.73C119.473 336.05 120.085 335.37 120.707 334.669C121.305 333.965 121.903 333.251 122.504 332.528C123.76 331.091 124.832 329.574 125.942 328.057C126.987 326.51 128.007 324.782 129.028 323.177C130.047 321.55 131.047 319.944 132.012 318.396C133.953 315.298 135.764 312.398 137.304 309.915C140.198 305.29 142.184 302.103 142.451 301.69Z" fill="url(#paint20_linear)"/>
<path d="M115.755 324.496C115.755 324.496 116.235 323.175 117.321 320.964C118.412 318.761 120.109 315.659 122.584 312.209C123.185 311.332 123.888 310.479 124.577 309.559C125.275 308.645 126.096 307.786 126.887 306.853C127.701 305.942 128.61 305.065 129.504 304.137C130.437 303.247 131.452 302.397 132.464 301.512C133.551 300.715 134.617 299.85 135.775 299.073C136.97 298.36 138.11 297.511 139.414 296.92C140.714 296.32 141.968 295.596 143.368 295.168L145.424 294.434C146.175 294.165 146.787 294.044 147.477 293.841L149.497 293.318L151.575 292.859C152.965 292.536 154.336 292.285 155.699 292.029C158.42 291.503 161.123 291.183 163.726 290.842C166.327 290.517 168.848 290.29 171.23 290.071C173.606 289.857 175.853 289.654 177.925 289.467C178.958 289.376 179.945 289.257 180.878 289.144C181.82 289.054 182.7 288.919 183.529 288.789C185.18 288.525 186.607 288.222 187.751 287.859C188.342 287.718 188.809 287.471 189.246 287.304C189.467 287.215 189.667 287.132 189.851 287.057C190.018 286.953 190.169 286.857 190.307 286.77C190.858 286.419 191.153 286.233 191.153 286.233C191.153 286.233 190.894 286.47 190.412 286.918C190.289 287.03 190.151 287.155 189.998 287.295C189.827 287.404 189.64 287.525 189.441 287.654C189.03 287.908 188.57 288.248 187.996 288.478C186.878 289.024 185.464 289.574 183.809 290.037C182.156 290.525 180.265 290.976 178.203 291.366C176.142 291.785 173.906 292.173 171.545 292.549C169.189 292.933 166.706 293.338 164.139 293.758C161.58 294.178 158.956 294.684 156.298 295.2C154.974 295.467 153.631 295.734 152.325 296.059L150.343 296.523L148.329 297.071C147.682 297.252 146.923 297.404 146.368 297.608L144.494 298.249C143.224 298.609 142.061 299.269 140.869 299.796C140.259 300.05 139.7 300.389 139.136 300.721C138.567 301.045 138.004 301.368 137.443 301.686C136.339 302.36 135.306 303.133 134.255 303.834C133.264 304.628 132.29 305.409 131.335 306.173C130.424 306.998 129.502 307.771 128.659 308.589C126.985 310.234 125.434 311.843 124.074 313.399C121.359 316.515 119.287 319.307 117.887 321.303C117.198 322.308 116.646 323.095 116.295 323.646C115.942 324.201 115.755 324.496 115.755 324.496Z" fill="url(#paint21_linear)"/>
<path d="M150.106 187.116C151.739 187.296 153.332 187.594 154.882 188.007L158.183 177.758C156.392 177.277 154.514 176.904 152.548 176.66L150.106 187.116Z" fill="url(#paint22_linear)"/>
<path d="M173.669 186.012C172.073 184.638 170.364 183.362 168.525 182.221L163.615 191.629C164.833 192.323 166.022 193.072 167.17 193.883L173.669 186.012Z" fill="url(#paint23_linear)"/>
<path d="M179.098 191.569C177.926 190.155 176.669 188.794 175.319 187.506L168.95 195.213C170.153 196.148 171.306 197.142 172.417 198.177L179.098 191.569Z" fill="url(#paint24_linear)"/>
<path d="M192.659 220.144C192.353 218.899 191.998 217.541 191.572 216.105L187.886 219.618C188.447 220.794 188.951 221.926 189.392 223.004L192.659 220.144Z" fill="url(#paint25_linear)"/>
<path d="M190.833 213.732C190.526 212.786 190.187 211.815 189.823 210.824L185.427 214.911C185.931 215.799 186.4 216.671 186.842 217.535L190.833 213.732Z" fill="url(#paint26_linear)"/>
<path d="M188.967 208.59C188.458 207.322 187.901 206.034 187.294 204.737L181.878 209.247C182.728 210.481 183.527 211.72 184.273 212.948L188.967 208.59Z" fill="url(#paint27_linear)"/>
<path d="M178.405 204.612C179.156 205.541 179.888 206.478 180.586 207.425L186.292 202.675C185.633 201.377 184.927 200.076 184.161 198.788L178.405 204.612Z" fill="url(#paint28_linear)"/>
<path d="M166.597 181.113C164.635 180.049 162.55 179.128 160.313 178.39L157.012 188.644C158.608 189.182 160.156 189.835 161.653 190.585L166.597 181.113Z" fill="url(#paint29_linear)"/>
<path d="M182.956 196.845C182.185 195.65 181.361 194.472 180.489 193.321L174.02 199.724C175.044 200.754 176.026 201.816 176.969 202.903L182.956 196.845Z" fill="url(#paint30_linear)"/>
<path d="M150.319 176.442C149.207 176.362 148.075 176.316 146.909 176.316C145.454 176.316 144.078 176.414 142.748 176.556V187.075C143.993 186.972 145.276 186.905 146.632 186.905C147.047 186.905 147.453 186.936 147.866 186.952L150.319 176.442Z" fill="url(#paint31_linear)"/>
<path d="M116.999 197.438C114.585 203.695 114.181 208.914 114.181 208.914C114.181 208.914 115.142 204.82 118.415 200.165L116.999 197.438Z" fill="url(#paint32_linear)"/>
<path d="M190.242 225.214C191.081 227.562 191.581 229.54 191.703 230.926C191.703 230.926 194.199 231.571 194.062 227.974C194.038 227.355 193.797 225.408 193.215 222.612L190.242 225.214Z" fill="url(#paint33_linear)"/>
<path d="M140.533 176.867C138.674 177.193 136.938 177.651 135.331 178.23L135.877 188.225C137.332 187.843 138.886 187.537 140.533 187.314V176.867Z" fill="url(#paint34_linear)"/>
<path d="M119.906 198.222C120.454 197.566 121.049 196.909 121.694 196.258L119.986 191.252C119.284 192.431 118.675 193.617 118.128 194.79L119.906 198.222Z" fill="url(#paint35_linear)"/>
<path d="M129.532 190.598C130.815 189.957 132.194 189.371 133.688 188.872L133.156 179.11C131.244 179.981 129.525 181.023 127.977 182.191L129.532 190.598Z" fill="url(#paint36_linear)"/>
<path d="M123.478 194.602C124.665 193.586 125.997 192.618 127.484 191.725L126.017 183.797C124.278 185.369 122.797 187.1 121.53 188.893L123.478 194.602Z" fill="url(#paint37_linear)"/>
<path d="M34.4283 112.962L33.5512 113.732C24.421 103.4 14.6907 109.963 14.28 110.253L14.2559 110.231C14.4349 110.074 14.6111 109.93 14.8016 109.774L14.7447 108.649C17.7869 107.089 26.4381 103.934 34.4283 112.962Z" fill="url(#paint38_linear)"/>
<path d="M25.6878 126.293C25.6209 126.249 25.3978 126.115 25.031 125.905C24.5975 125.636 23.9792 125.291 23.1916 124.957C22.8135 124.778 22.3785 124.623 21.9244 124.466C21.4589 124.333 20.9698 124.21 20.4609 124.154C19.4409 123.999 18.3514 124.131 17.4515 124.613C16.5561 125.091 15.855 125.882 15.3675 126.729C14.8792 127.576 14.5693 128.467 14.3569 129.248C14.1501 130.028 14.0364 130.694 13.9801 131.163C13.9575 131.377 13.9363 131.566 13.9248 131.688C13.4264 130.552 13.1046 129.248 12.9297 127.877C13.226 127.23 13.6176 126.539 14.113 125.871C14.8138 124.934 15.7983 124.043 17.0108 123.586C18.2077 123.129 19.504 123.163 20.5938 123.453C21.1361 123.586 21.6363 123.786 22.1025 123.987C22.5588 124.199 22.9783 124.411 23.3557 124.644C24.0983 125.091 24.6884 125.513 25.0877 125.825C25.3978 126.071 25.6082 126.228 25.6878 126.293Z" fill="url(#paint39_linear)"/>
<path d="M25.6314 85.6362C25.6085 85.7134 25.4644 86.0603 25.2646 86.5959C25.1523 86.9071 24.9746 87.2642 24.7877 87.687C24.6191 88.1224 24.3547 88.5665 24.0783 89.0807C23.8119 89.582 23.4096 90.073 23.0342 90.6188C22.8026 90.8529 22.5693 91.1085 22.3334 91.3541L21.9573 91.744L21.5367 92.0666C21.2481 92.2906 20.9482 92.5249 20.6497 92.7463C20.327 92.9463 19.985 93.1161 19.6404 93.3048C18.9416 93.7261 18.2324 93.9286 17.5323 94.1956L17.0012 94.3856C16.7553 94.4742 16.6658 94.5185 16.4888 94.5854L16.0219 94.7639L15.6266 95.0309C15.0793 95.365 14.7267 95.8663 14.4368 96.379C14.1936 96.9259 14.0146 97.4828 13.9705 98.0626C13.8833 98.6308 13.903 99.1993 13.9364 99.712C13.9931 100.593 14.1588 101.361 14.303 101.931C13.9703 101.83 12.9712 101.44 12.0735 100.438C12.0735 100.438 12.0735 100.438 12.0735 100.426C12.0615 100.213 12.0615 99.9921 12.0615 99.7578C12.0735 99.1451 12.1169 98.4753 12.2846 97.7729C12.4181 97.0603 12.7174 96.3249 13.1276 95.6223C13.5838 94.9426 14.183 94.2844 14.9358 93.9059L15.5001 93.6047L16.1028 93.4278L16.6549 93.2707L17.1987 93.1266C17.9208 92.9365 18.6849 92.781 19.284 92.4698C19.6081 92.3356 19.9279 92.1898 20.2406 92.0557C20.5376 91.8672 20.8264 91.6902 21.1164 91.5101L21.5465 91.2302L21.9245 90.9089C22.1698 90.6862 22.4134 90.4733 22.6486 90.2735C23.0582 89.7824 23.4889 89.3583 23.7895 88.8911C24.0987 88.4228 24.4006 88.0116 24.6076 87.5975C24.8307 87.1977 25.0311 86.8522 25.1755 86.5609C25.4424 86.0492 25.5957 85.7134 25.6314 85.6362Z" fill="url(#paint40_linear)"/>
<path d="M24.1179 81.6122C24.0314 82.1904 23.8287 83.0602 23.1956 83.9084C22.8756 84.3309 22.4657 84.7438 21.9538 85.0664C21.4471 85.412 20.8444 85.6576 20.2131 85.8474C19.8904 85.9246 19.5464 85.9802 19.2047 86.0474C18.87 86.0915 18.5487 86.1044 18.2173 86.1359C17.5181 86.2145 16.9395 86.2245 16.3388 86.4372C16.0426 86.5044 15.7526 86.6256 15.476 86.7598C15.1996 86.8727 14.9322 87.0268 14.6893 87.2066C14.4206 87.3623 14.1903 87.5394 13.9672 87.7408C13.7342 87.9306 13.5209 88.1306 13.3233 88.3547C13.1242 88.5645 12.9367 88.7772 12.769 89.0115C12.5884 89.2228 12.4248 89.4456 12.2905 89.6796C11.9827 90.125 11.7375 90.5836 11.5251 91.0064C11.1809 91.6961 10.9287 92.3329 10.7732 92.8212C10.638 92.6226 10.0737 91.6958 9.69629 90.4036C9.75256 90.2908 9.82918 90.1809 9.89517 90.071C10.1951 89.6113 10.5178 89.1343 10.9151 88.6546C11.1043 88.4089 11.328 88.1747 11.5612 87.9406C11.7707 87.6949 12.0245 87.4609 12.2813 87.2493C12.5342 87.0166 12.8144 86.8039 13.1143 86.6152C13.3907 86.4038 13.6999 86.214 14.0332 86.0583C14.346 85.8799 14.6764 85.7355 15.0305 85.6342C15.3759 85.5014 15.7192 85.4001 16.0869 85.3559C16.7847 85.1774 17.5751 85.2444 18.195 85.2331C18.5154 85.2331 18.8617 85.2558 19.1708 85.2444C19.4707 85.2101 19.77 85.1988 20.0586 85.1545C20.6464 85.0446 21.2114 84.8875 21.6905 84.6205C22.1872 84.3862 22.5988 84.0393 22.9321 83.6965C23.5988 82.9698 23.8754 82.1457 24.0316 81.5888C24.1652 81.0206 24.1652 80.6748 24.1652 80.6748C24.1652 80.6748 24.2061 81.021 24.1179 81.6122Z" fill="url(#paint41_linear)"/>
</g>
<defs>
<linearGradient id="paint0_linear" x1="64.418" y1="216.381" x2="82.9382" y2="229.167" gradientUnits="userSpaceOnUse">
<stop stop-color="#00236A"/>
</linearGradient>
<linearGradient id="paint1_linear" x1="52.9781" y1="4.7417" x2="83.1169" y2="28.7755" gradientUnits="userSpaceOnUse">
<stop stop-color="#00236A"/>
</linearGradient>
<linearGradient id="paint2_linear" x1="75.0073" y1="223.078" x2="83.7302" y2="232.46" gradientUnits="userSpaceOnUse">
<stop stop-color="#00236A"/>
</linearGradient>
<linearGradient id="paint3_linear" x1="67.1942" y1="192.06" x2="81.951" y2="196.682" gradientUnits="userSpaceOnUse">
<stop stop-color="#00236A"/>
</linearGradient>
<linearGradient id="paint4_linear" x1="22.0452" y1="36.1475" x2="39.8093" y2="63.5922" gradientUnits="userSpaceOnUse">
<stop stop-color="#00236A"/>
</linearGradient>
<linearGradient id="paint5_linear" x1="27.6901" y1="130.948" x2="27.7597" y2="130.96" gradientUnits="userSpaceOnUse">
<stop stop-color="#00236A"/>
</linearGradient>
<linearGradient id="paint6_linear" x1="133.351" y1="192.06" x2="177.097" y2="215.931" gradientUnits="userSpaceOnUse">
<stop stop-color="#00236A"/>
</linearGradient>
<linearGradient id="paint7_linear" x1="95.4609" y1="260.526" x2="116.571" y2="270.107" gradientUnits="userSpaceOnUse">
<stop stop-color="#00236A"/>
</linearGradient>
<linearGradient id="paint8_linear" x1="55.2154" y1="230.325" x2="98.3145" y2="255.066" gradientUnits="userSpaceOnUse">
<stop stop-color="#00236A"/>
</linearGradient>
<linearGradient id="paint9_linear" x1="145.075" y1="238.588" x2="184.904" y2="266.897" gradientUnits="userSpaceOnUse">
<stop stop-color="#00236A"/>
</linearGradient>
<linearGradient id="paint10_linear" x1="86.0997" y1="297.309" x2="128.461" y2="326.812" gradientUnits="userSpaceOnUse">
<stop stop-color="#00236A"/>
</linearGradient>
<linearGradient id="paint11_linear" x1="128.883" y1="295.891" x2="129.815" y2="296.301" gradientUnits="userSpaceOnUse">
<stop stop-color="#00236A"/>
</linearGradient>
<linearGradient id="paint12_linear" x1="21.7766" y1="42.5352" x2="60.9792" y2="69.7834" gradientUnits="userSpaceOnUse">
<stop stop-color="#00236A"/>
</linearGradient>
<linearGradient id="paint13_linear" x1="35.3772" y1="277.873" x2="59.7996" y2="284.068" gradientUnits="userSpaceOnUse">
<stop stop-color="#00236A"/>
</linearGradient>
<linearGradient id="paint14_linear" x1="31.6826" y1="93.7051" x2="43.9044" y2="94.9908" gradientUnits="userSpaceOnUse">
<stop stop-color="#00236A"/>
</linearGradient>
<linearGradient id="paint15_linear" x1="142.362" y1="204.145" x2="167.98" y2="219.547" gradientUnits="userSpaceOnUse">
<stop stop-color="#00236A"/>
</linearGradient>
<linearGradient id="paint16_linear" x1="135.752" y1="233.503" x2="141.863" y2="240.396" gradientUnits="userSpaceOnUse">
<stop stop-color="#00236A"/>
</linearGradient>
<linearGradient id="paint17_linear" x1="176.755" y1="294.604" x2="209.497" y2="307.663" gradientUnits="userSpaceOnUse">
<stop stop-color="#00236A"/>
</linearGradient>
<linearGradient id="paint18_linear" x1="210.675" y1="299.084" x2="233.73" y2="305.683" gradientUnits="userSpaceOnUse">
<stop stop-color="#00236A"/>
</linearGradient>
<linearGradient id="paint19_linear" x1="233.264" y1="313.314" x2="242.081" y2="314.6" gradientUnits="userSpaceOnUse">
<stop stop-color="#00236A"/>
</linearGradient>
<linearGradient id="paint20_linear" x1="120.294" y1="301.69" x2="148.674" y2="313.004" gradientUnits="userSpaceOnUse">
<stop stop-color="#00236A"/>
</linearGradient>
<linearGradient id="paint21_linear" x1="142.249" y1="286.233" x2="176.342" y2="322.464" gradientUnits="userSpaceOnUse">
<stop stop-color="#00236A"/>
</linearGradient>
<linearGradient id="paint22_linear" x1="152.944" y1="176.66" x2="159.722" y2="179.262" gradientUnits="userSpaceOnUse">
<stop stop-color="#00236A"/>
</linearGradient>
<linearGradient id="paint23_linear" x1="167.148" y1="182.221" x2="175.108" y2="185.922" gradientUnits="userSpaceOnUse">
<stop stop-color="#00236A"/>
</linearGradient>
<linearGradient id="paint24_linear" x1="172.516" y1="187.506" x2="180.252" y2="191.473" gradientUnits="userSpaceOnUse">
<stop stop-color="#00236A"/>
</linearGradient>
<linearGradient id="paint25_linear" x1="189.563" y1="216.105" x2="193.597" y2="217.611" gradientUnits="userSpaceOnUse">
<stop stop-color="#00236A"/>
</linearGradient>
<linearGradient id="paint26_linear" x1="187.326" y1="210.824" x2="191.705" y2="212.726" gradientUnits="userSpaceOnUse">
<stop stop-color="#00236A"/>
</linearGradient>
<linearGradient id="paint27_linear" x1="184.369" y1="204.737" x2="189.978" y2="207.349" gradientUnits="userSpaceOnUse">
<stop stop-color="#00236A"/>
</linearGradient>
<linearGradient id="paint28_linear" x1="181.176" y1="198.788" x2="187.288" y2="201.797" gradientUnits="userSpaceOnUse">
<stop stop-color="#00236A"/>
</linearGradient>
<linearGradient id="paint29_linear" x1="160.38" y1="178.39" x2="168.203" y2="181.706" gradientUnits="userSpaceOnUse">
<stop stop-color="#00236A"/>
</linearGradient>
<linearGradient id="paint30_linear" x1="177.16" y1="193.321" x2="184.027" y2="196.775" gradientUnits="userSpaceOnUse">
<stop stop-color="#00236A"/>
</linearGradient>
<linearGradient id="paint31_linear" x1="145.409" y1="176.316" x2="151.781" y2="178.735" gradientUnits="userSpaceOnUse">
<stop stop-color="#00236A"/>
</linearGradient>
<linearGradient id="paint32_linear" x1="115.669" y1="197.437" x2="119.591" y2="198.218" gradientUnits="userSpaceOnUse">
<stop stop-color="#00236A"/>
</linearGradient>
<linearGradient id="paint33_linear" x1="191.586" y1="222.612" x2="195.058" y2="223.469" gradientUnits="userSpaceOnUse">
<stop stop-color="#00236A"/>
</linearGradient>
<linearGradient id="paint34_linear" x1="137.159" y1="176.867" x2="141.879" y2="178.033" gradientUnits="userSpaceOnUse">
<stop stop-color="#00236A"/>
</linearGradient>
<linearGradient id="paint35_linear" x1="119.381" y1="191.252" x2="122.572" y2="192.133" gradientUnits="userSpaceOnUse">
<stop stop-color="#00236A"/>
</linearGradient>
<linearGradient id="paint36_linear" x1="129.983" y1="179.11" x2="135.114" y2="180.485" gradientUnits="userSpaceOnUse">
<stop stop-color="#00236A"/>
</linearGradient>
<linearGradient id="paint37_linear" x1="123.622" y1="183.797" x2="128.889" y2="185.362" gradientUnits="userSpaceOnUse">
<stop stop-color="#00236A"/>
</linearGradient>
<linearGradient id="paint38_linear" x1="21.3442" y1="106.823" x2="26.9262" y2="115.612" gradientUnits="userSpaceOnUse">
<stop stop-color="#00236A"/>
</linearGradient>
<linearGradient id="paint39_linear" x1="17.4127" y1="123.238" x2="24.7994" y2="129.253" gradientUnits="userSpaceOnUse">
<stop stop-color="#00236A"/>
</linearGradient>
<linearGradient id="paint40_linear" x1="16.8298" y1="85.6362" x2="27.7024" y2="90.5192" gradientUnits="userSpaceOnUse">
<stop stop-color="#00236A"/>
</linearGradient>
<linearGradient id="paint41_linear" x1="14.7838" y1="80.6748" x2="24.6479" y2="87.0158" gradientUnits="userSpaceOnUse">
<stop stop-color="#00236A"/>
</linearGradient>
</defs>
</svg>
