<svg class="sidebar__logo-icon" width="161" height="47" viewBox="0 0 161 47" fill="none" xmlns="http://www.w3.org/2000/svg">
<path class="sidebar__logo-icon-text" d="M20.0294 19.7966H0.415039V24.8039H7.12457V41.9395H13.3234V24.8039H20.0294V19.7966ZM26.0687 28.2757V24.8287H19.9975V41.9395H26.0687V36.6272C26.0687 32.7901 27.7177 30.8716 31.0193 30.8716H31.53V24.545C28.9979 24.4387 27.1751 25.6798 26.0687 28.2757ZM41.3744 24.4457C38.8388 24.4457 36.7536 25.3039 35.1117 27.0239C33.4698 28.7438 32.6506 30.868 32.6506 33.3965C32.6506 36.0739 33.5123 38.2372 35.2394 39.8791C36.9664 41.5245 39.1899 42.3473 41.917 42.3473C45.0696 42.3473 47.5733 41.1877 49.4244 38.8684L46.0696 36.1165C44.8781 37.2761 43.5979 37.8577 42.2361 37.8577C40.2325 37.8577 38.9878 36.918 38.4984 35.042H50.0627C50.084 34.7689 50.0947 34.3576 50.0947 33.8079C50.0947 31.1092 49.3499 28.875 47.857 27.1019C46.3675 25.3323 44.2079 24.4457 41.3744 24.4457ZM38.4026 31.9745C38.5728 31.0241 38.9204 30.2723 39.4417 29.7119C39.963 29.1552 40.619 28.875 41.4063 28.875C42.2361 28.875 42.917 29.1552 43.4525 29.7119C43.9844 30.2723 44.3036 31.0241 44.41 31.9745H38.4026ZM63.9322 24.4457C61.9285 24.4457 60.2051 25.3749 58.7546 27.2296V24.8252H52.6834V41.9359H58.7546V32.6695C58.7546 31.7617 58.9887 31.056 59.4568 30.5489C59.9249 30.0417 60.542 29.79 61.3115 29.79C62.0562 29.79 62.6484 30.0417 63.0846 30.5489C63.5208 31.056 63.7407 31.7617 63.7407 32.6695V41.9359H69.8119V30.7404C69.8119 28.8006 69.2906 27.265 68.248 26.1373C67.1983 25.0131 65.762 24.4457 63.9322 24.4457ZM85.2098 26.9139C83.7593 25.2685 81.9933 24.4457 79.9045 24.4457C77.7732 24.4457 75.9753 25.2649 74.5036 26.8962C73.0354 28.531 72.2978 30.6978 72.2978 33.3965C72.2978 36.0739 73.039 38.2301 74.5178 39.8649C75.9966 41.4997 77.8016 42.3154 79.9329 42.3154C81.9791 42.3154 83.7345 41.4288 85.2062 39.6592V41.9359H91.2774V18.8462H85.2098V26.9139ZM84.2806 36.1839C83.5998 36.9215 82.7664 37.2903 81.7876 37.2903C80.8089 37.2903 79.9719 36.9215 79.2804 36.1839C78.5889 35.4463 78.2414 34.5171 78.2414 33.4001C78.2414 32.2617 78.5818 31.3219 79.2627 30.5843C79.9436 29.8467 80.784 29.4779 81.7876 29.4779C82.7664 29.4779 83.5962 29.8432 84.2806 30.5701C84.9615 31.2971 85.302 32.2192 85.302 33.3362C85.3055 34.4959 84.9651 35.4427 84.2806 36.1839ZM109.14 32.2617C109.14 33.7795 108.771 34.9179 108.037 35.6768C107.303 36.4357 106.296 36.8151 105.019 36.8151C103.743 36.8151 102.735 36.4215 102.001 35.6307C101.267 34.8398 100.898 33.666 100.898 32.1021V19.7966H94.6038V32.2262C94.6038 35.5987 95.5081 38.1308 97.3203 39.8188C99.1289 41.5068 101.675 42.3508 104.955 42.3508C108.257 42.3508 110.828 41.5033 112.672 39.8046C114.513 38.106 115.435 35.5278 115.435 32.0702V19.7966H109.14V32.2617ZM135.499 26.8998C134.01 25.2649 132.198 24.4493 130.066 24.4493C128.042 24.4493 126.297 25.3359 124.825 27.1054V24.8287H118.757V47H124.829V39.8507C126.254 41.4962 128.013 42.3189 130.102 42.3189C132.233 42.3189 134.038 41.5033 135.517 39.8684C136.996 38.2336 137.737 36.0669 137.737 33.3681C137.733 30.6907 136.989 28.5346 135.499 26.8998ZM130.737 36.1839C130.056 36.9215 129.212 37.2903 128.212 37.2903C127.233 37.2903 126.4 36.9215 125.719 36.1839C125.038 35.4463 124.697 34.5171 124.697 33.4001C124.697 32.2617 125.038 31.3219 125.719 30.5843C126.4 29.8467 127.229 29.4779 128.212 29.4779C129.212 29.4779 130.052 29.8432 130.737 30.5701C131.418 31.2971 131.758 32.2192 131.758 33.3362C131.762 34.4959 131.418 35.4427 130.737 36.1839Z" fill="#222222"/>
<path fill-rule="evenodd" clip-rule="evenodd" d="M123.479 12.6571L124.957 11.1818C124.929 11.6606 124.911 12.1393 124.911 12.6216C124.911 12.6322 124.911 12.6429 124.911 12.6571H123.479ZM148.107 35.8106C148.618 35.8106 149.129 35.7929 149.632 35.761L148.107 37.2894V35.8106ZM154.104 31.2785L152.313 33.0729C150.944 33.3531 149.536 33.4949 148.107 33.4985V32.2112C150.175 32.2112 152.193 31.892 154.104 31.2785ZM148.107 28.6153C153.005 28.6117 157.395 26.3953 160.328 22.9129V24.8137C157.2 27.9521 152.877 29.899 148.107 29.899V28.6153ZM148.107 26.3066V25.0229C154.253 25.0193 159.367 20.5191 160.328 14.6394V18.7496C158.079 23.2214 153.448 26.3031 148.107 26.3066ZM160.328 6.50076V10.6109C159.484 5.4688 155.466 1.37996 150.356 0.433105H154.306C156.902 1.76295 159.019 3.89426 160.328 6.50076ZM148.143 10.3201C149.419 10.3201 150.451 11.3556 150.451 12.6287C150.451 13.9054 149.416 14.9373 148.143 14.9373C148.132 14.9373 148.122 14.9373 148.107 14.9373V12.6606H145.834C145.834 12.65 145.834 12.6393 145.834 12.6287C145.834 11.352 146.866 10.3201 148.143 10.3201ZM148.097 6.1355C151.675 6.1355 154.586 9.04698 154.586 12.6252C154.586 16.1998 151.682 19.1077 148.107 19.1148V17.8275C150.973 17.8204 153.299 15.4905 153.299 12.6252C153.299 9.75623 150.966 7.42279 148.097 7.42279C145.228 7.42279 142.894 9.75623 142.894 12.6252C142.894 12.6358 142.894 12.65 142.894 12.6606H141.611C141.611 12.65 141.611 12.6358 141.611 12.6252C141.607 9.04698 144.518 6.1355 148.097 6.1355ZM148.097 2.53959C153.657 2.53959 158.182 7.06462 158.182 12.6252C158.182 18.1822 153.664 22.7036 148.107 22.7107V21.4234C152.955 21.4163 156.895 17.4729 156.895 12.6252C156.895 7.77387 152.948 3.82688 148.097 3.82688C143.245 3.82688 139.298 7.77387 139.298 12.6252C139.298 12.6358 139.298 12.65 139.298 12.6606H138.015C138.015 12.65 138.015 12.6358 138.015 12.6252C138.011 7.06462 142.536 2.53959 148.097 2.53959ZM158.438 0.43665H160.328V2.33745C159.753 1.64947 159.118 1.01469 158.438 0.43665ZM135.702 12.6252C135.702 12.6358 135.702 12.6464 135.702 12.6606H134.419C134.419 12.65 134.419 12.6393 134.419 12.6252C134.419 7.3164 137.458 2.70271 141.891 0.43665H145.841C140.079 1.50053 135.702 6.56105 135.702 12.6252ZM137.756 0.43665C134.302 3.37296 132.103 7.7455 132.103 12.6252C132.103 12.6358 132.103 12.6464 132.103 12.6606H130.819C130.819 12.65 130.819 12.6393 130.819 12.6252C130.819 7.87317 132.748 3.56445 135.862 0.43665H137.756ZM128.511 12.6252C128.511 12.6358 128.511 12.6464 128.511 12.6606H127.227C127.227 12.65 127.227 12.6393 127.227 12.6252C127.227 11.2315 127.362 9.85907 127.628 8.52213L129.408 6.74546C128.816 8.62143 128.511 10.6002 128.511 12.6252Z" fill="#E30B17"/>
</svg>
