<svg width="316" height="318" viewBox="0 0 316 318" fill="none" xmlns="http://www.w3.org/2000/svg">
<path d="M96.0952 216.652L99.465 219.656L83.7933 237.238L87.0167 240.111L102.688 222.529L106.058 225.532L108.67 222.602L98.7071 213.722L96.0952 216.652Z" fill="white"/>
<path d="M108.289 254.587C108.434 253.488 108.897 252.623 109.574 251.472L111.722 247.817C113.174 245.347 113.62 243.195 112.216 241.323C114.332 241.519 116.045 240.386 117.477 237.95L118.571 236.088C120.72 232.434 120.116 229.665 116.258 227.398L110.64 224.095L96.7154 247.784L100.438 249.972L106.107 240.327L107.393 241.083C109.085 242.078 109.352 243.328 108.059 245.527L105.871 249.25C104.737 251.179 104.654 251.631 104.499 252.359L108.289 254.587ZM114.167 230.722C115.487 231.498 115.625 232.58 114.63 234.272L113.257 236.607C112.143 238.503 110.939 238.614 109.552 237.799L108.097 236.943L112.374 229.668L114.167 230.722Z" fill="white"/>
<path d="M127.85 237.248L134.894 239.699L136.184 235.992L125.061 232.122L116.032 258.074L127.154 261.944L128.444 258.236L121.4 255.785L124.044 248.185L129.642 250.133L130.932 246.425L125.334 244.478L127.85 237.248Z" fill="white"/>
<path d="M144.232 265.198L148.628 265.788L152.287 238.555L148.475 238.043L146.284 254.344L144.078 237.452L138.71 236.73L135.05 263.964L138.902 264.481L141.552 244.757L144.232 265.198Z" fill="white"/>
<path d="M157.885 266.089L164.695 265.563C169 265.231 170.929 262.68 170.591 258.297L169.521 244.442C169.183 240.058 166.885 237.834 162.58 238.167L155.77 238.692L157.885 266.089ZM162.804 242.086C164.174 241.981 165.05 242.622 165.201 244.579L166.301 258.825C166.452 260.782 165.685 261.55 164.315 261.655L161.888 261.843L160.377 242.274L162.804 242.086Z" fill="white"/>
<path d="M171.892 237.15L177.641 257.267C178.849 261.494 181.652 263.306 185.729 262.141C189.805 260.977 191.229 257.957 190.021 253.73L184.272 233.612L180.347 234.734L186.171 255.116C186.71 257.003 186.074 257.919 184.753 258.297C183.432 258.674 182.407 258.232 181.868 256.345L176.044 235.963L171.892 237.15Z" fill="white"/>
<path d="M192.586 229.641L186.931 232.548L199.495 256.986L203.335 255.011L198.615 245.83L200.43 244.897C204.27 242.922 205.06 239.823 203.05 235.913L201.417 232.737C199.406 228.827 196.426 227.666 192.586 229.641ZM194.381 233.132C195.603 232.504 196.553 232.721 197.451 234.467L199.336 238.132C200.233 239.878 199.857 240.777 198.635 241.406L196.82 242.339L192.566 234.065L194.381 233.132Z" fill="white"/>
<path d="M218.72 230.829L224.409 225.418L221.703 222.574L216.015 227.985L218.72 230.829Z" fill="white"/>
<path d="M255.199 200.322L230.921 187.453L228.899 191.268L249.709 202.298L247.962 205.593L227.152 194.563L225.13 198.378L245.94 209.408L244.193 212.703L223.384 201.673L221.361 205.488L245.639 218.357L255.199 200.322Z" fill="white"/>
<path d="M260.291 182.721L261.383 178.422L245.142 180.494L234.75 171.658L233.687 175.843L243.9 184.269L232.296 181.322L231.233 185.507L257.866 192.271L258.929 188.086L250.749 186.008L248.642 184.096L260.291 182.721Z" fill="white"/>
<path d="M241.441 165.882C239.48 165.789 238.776 164.891 238.841 163.519C238.906 162.146 239.692 161.319 241.653 161.412L256.474 162.116C258.435 162.209 259.139 163.107 259.074 164.479C259.009 165.852 258.223 166.679 256.262 166.586L241.441 165.882ZM255.783 170.886C260.175 171.094 262.794 168.9 262.995 164.665C263.196 160.431 260.796 157.998 256.405 157.79L242.132 157.112C237.741 156.904 235.121 159.098 234.92 163.333C234.719 167.567 237.119 170 241.51 170.208L255.783 170.886Z" fill="white"/>
<path d="M262.888 151.094L262.779 150.435C262.078 146.174 259.848 144.712 254.864 145.373L238.404 147.606L237.791 143.888L261.031 140.061L260.317 135.723L233.204 140.187L235.187 152.233L255.792 149.557C258.322 149.22 258.695 149.795 259.014 151.731L262.888 151.094Z" fill="white"/>
<path d="M228.707 127.774L231.042 133.647L258.2 127.578L256.735 123.894L251.827 125.043L249.869 120.119L254.225 117.584L252.615 113.535L228.707 127.774ZM234.477 129.112L246.621 122.044L248.159 125.911L234.477 129.112Z" fill="white"/>
<path d="M221.603 108.343L218.436 104.595L236.428 89.3954L233.591 86.037L212.6 103.77L221.391 114.175L242.381 96.4423L239.594 93.1437L221.603 108.343Z" fill="white"/>
<path d="M210.738 93.8279C209.529 95.3744 208.39 95.4302 207.307 94.5842C206.225 93.7382 206.003 92.6187 207.212 91.0723L216.349 79.3812C217.558 77.8347 218.698 77.7789 219.78 78.6249C220.863 79.4709 221.084 80.5904 219.875 82.1368L210.738 93.8279ZM223.108 85.0123C225.816 81.5482 225.538 78.1426 222.197 75.532C218.857 72.9214 215.485 73.4747 212.778 76.9387L203.979 88.1968C201.272 91.6609 201.55 95.0665 204.89 97.6771C208.23 100.288 211.602 99.7344 214.309 96.2704L223.108 85.0123Z" fill="white"/>
<path d="M187.428 71.0376L183.482 76.7937L190.029 58.5823L186.372 57.2676L177.076 83.1256L181.546 84.7324L188.708 75.2519L192.231 70.0943L186.348 86.4588L189.968 87.7601L199.264 61.9022L195.089 60.4016L187.428 71.0376Z" fill="white"/>
<path d="M171.611 66.1277L166.746 65.4926L168.27 53.8153L163.911 53.2463L160.354 80.4933L164.714 81.0623L166.238 69.385L171.103 70.0201L169.579 81.6974L173.861 82.2563L177.417 55.0093L173.136 54.4504L171.611 66.1277Z" fill="white"/>
<path d="M150.336 80.8899L156.831 80.3637L154.612 52.9754L147.843 53.5237C143.539 53.8724 141.493 56.3223 141.835 60.548L142.016 62.7782C142.25 65.6735 143.318 67.6743 145.7 68.3872C143.855 69.4424 143.14 71.312 143.369 74.1291L143.448 75.1072C143.79 79.3328 145.875 81.2512 150.336 80.8899ZM149.389 65.8041C147.433 65.9626 146.548 65.2466 146.342 62.7034L146.149 60.3167C145.984 58.2821 146.712 57.5536 148.16 57.4363L150.625 57.2366L151.306 65.6488L149.389 65.8041ZM150.136 76.9678C148.61 77.0914 147.875 76.2845 147.717 74.3282L147.593 72.8022C147.416 70.6112 148.337 69.8277 149.941 69.6977L151.623 69.5614L152.21 76.7998L150.136 76.9678Z" fill="white"/>
<path d="M135.189 79.49L128.016 81.5326L129.091 85.308L140.417 82.0828L132.891 55.6553L121.565 58.8805L122.64 62.6558L129.813 60.6132L132.017 68.3527L126.317 69.976L127.392 73.7514L133.092 72.128L135.189 79.49Z" fill="white"/>
<path d="M111.056 74.7882L109.281 71.2872C108.393 69.5367 108.844 68.5159 110.069 67.8945C111.295 67.2732 112.384 67.5127 113.272 69.2632L119.983 82.497C120.871 84.2475 120.438 85.3033 119.213 85.9247C117.987 86.5461 116.88 86.2715 115.992 84.521L114.66 81.8952L111.019 83.7416L112.227 86.1223C114.215 90.0434 117.312 91.2899 121.093 89.3724C124.874 87.455 125.698 84.2201 123.71 80.299L117.247 67.5554C115.259 63.6343 112.162 62.3878 108.381 64.3053C104.6 66.2227 103.776 69.4576 105.764 73.3787L107.415 76.6346L111.056 74.7882Z" fill="white"/>
<path d="M111.164 89.8515L107.601 92.6236L93.1376 74.035L89.7297 76.6866L104.193 95.2752L100.63 98.0474L103.041 101.145L113.574 92.9496L111.164 89.8515Z" fill="white"/>
<path d="M84.7369 99.1341L88.7155 104.868L74.018 92.2784L71.4898 95.2298L92.3586 113.105L95.4485 109.498L89.131 99.435L85.5614 94.3098L98.7683 105.623L101.271 102.701L80.4022 84.8253L77.5165 88.1941L84.7369 99.1341Z" fill="white"/>
<path d="M66.1635 102.788L60.8598 112.772L57.6011 111.041L55.6306 114.75L62.2866 118.286L63.1706 116.622L84.0398 127.708L86.1024 123.825L65.3025 112.776L67.6044 108.443L88.4044 119.492L90.4301 115.679L66.1635 102.788Z" fill="white"/>
<path d="M65.8438 135.431L71.8857 138.924L53.2258 133.793L52.1955 137.54L78.6903 144.825L79.9495 140.245L69.9476 133.831L64.535 130.715L81.3024 135.325L82.3223 131.616L55.8275 124.331L54.6515 128.608L65.8438 135.431Z" fill="white"/>
<path d="M50.4555 150.241C51.1473 150.517 51.5694 150.699 53.8031 150.828L58.1139 151.077C60.6612 151.224 61.552 152.141 61.4388 154.1L61.3528 155.589L50.1839 154.944L49.9349 159.255L77.3673 160.839L77.743 154.334C78.0011 149.866 76.035 147.826 71.8025 147.582L69.6471 147.457C66.8255 147.294 64.9316 148.089 63.9193 149.957C63.1425 147.75 61.1062 146.925 58.2454 146.759L54.013 146.515C52.6805 146.438 51.7031 146.342 50.709 145.852L50.4555 150.241ZM73.6973 156.302L65.2717 155.816L65.369 154.13C65.4618 152.524 66.2238 151.585 68.4184 151.711L71.1225 151.868C73.0819 151.981 73.9056 152.697 73.8173 154.225L73.6973 156.302Z" fill="white"/>
<path d="M78.1765 169.792L77.1506 163.874L50.0764 168.568L50.7201 172.281L69.8654 168.962L51.2699 175.453L51.9672 179.475L71.8929 179.049L52.4768 182.415L53.1741 186.437L80.2484 181.743L79.2225 175.826L59.4969 176.257L78.1765 169.792Z" fill="white"/>
<path fill-rule="evenodd" clip-rule="evenodd" d="M52.8657 204.725L54.126 203.468C54.1018 203.876 54.0867 204.283 54.0867 204.694C54.0867 204.703 54.0867 204.713 54.0867 204.725H52.8657ZM73.8548 224.453C74.29 224.453 74.7252 224.438 75.1544 224.411L73.8548 225.713V224.453ZM78.9653 220.591L77.4391 222.12C76.2726 222.359 75.0728 222.48 73.8548 222.483V221.386C75.6168 221.386 77.3364 221.114 78.9653 220.591ZM73.8548 218.322C78.0285 218.319 81.7699 216.43 84.2693 213.463V215.083C81.6037 217.757 77.9197 219.416 73.8548 219.416V218.322ZM73.8548 216.355V215.261C79.0923 215.258 83.4503 211.424 84.2693 206.414V209.916C82.3532 213.726 78.4062 216.352 73.8548 216.355ZM84.2693 199.479V202.981C83.55 198.6 80.1259 195.116 75.7709 194.309H79.1376C81.3499 195.442 83.1541 197.258 84.2693 199.479ZM73.885 202.733C74.973 202.733 75.8525 203.616 75.8525 204.7C75.8525 205.788 74.97 206.668 73.885 206.668C73.876 206.668 73.8669 206.668 73.8548 206.668V204.728H71.9176C71.9176 204.719 71.9176 204.71 71.9176 204.7C71.9176 203.613 72.7971 202.733 73.885 202.733ZM73.8458 199.168C76.8951 199.168 79.3764 201.649 79.3764 204.697C79.3764 207.743 76.9012 210.221 73.8548 210.227V209.13C76.2967 209.124 78.2793 207.139 78.2793 204.697C78.2793 202.253 76.2907 200.265 73.8458 200.265C71.4008 200.265 69.4122 202.253 69.4122 204.697C69.4122 204.707 69.4122 204.719 69.4122 204.728H68.3182C68.3182 204.719 68.3182 204.707 68.3182 204.697C68.3152 201.649 70.7964 199.168 73.8458 199.168ZM73.8458 196.104C78.5845 196.104 82.4409 199.96 82.4409 204.697C82.4409 209.432 78.5906 213.285 73.8548 213.291V212.194C77.9862 212.188 81.3438 208.828 81.3438 204.697C81.3438 200.564 77.9801 197.201 73.8458 197.201C69.7114 197.201 66.3477 200.564 66.3477 204.697C66.3477 204.707 66.3477 204.719 66.3477 204.728H65.2537C65.2537 204.719 65.2537 204.707 65.2537 204.697C65.2506 199.96 69.107 196.104 73.8458 196.104ZM82.6585 194.312H84.2693V195.932C83.7797 195.345 83.2387 194.805 82.6585 194.312ZM63.2832 204.697C63.2832 204.707 63.2832 204.716 63.2832 204.728H62.1892C62.1892 204.719 62.1892 204.71 62.1892 204.697C62.1892 200.174 64.7792 196.243 68.5569 194.312H71.9236C67.0126 195.219 63.2832 199.53 63.2832 204.697ZM65.0331 194.312C62.0894 196.814 60.2157 200.54 60.2157 204.697C60.2157 204.707 60.2157 204.716 60.2157 204.728H59.1216C59.1216 204.719 59.1216 204.71 59.1216 204.697C59.1216 200.648 60.7657 196.977 63.4192 194.312H65.0331ZM57.1542 204.697C57.1542 204.707 57.1542 204.716 57.1542 204.728H56.0602C56.0602 204.719 56.0602 204.71 56.0602 204.697C56.0602 203.51 56.175 202.341 56.4017 201.201L57.9188 199.688C57.4141 201.286 57.1542 202.972 57.1542 204.697Z" fill="#E30B17"/>
</svg>
