<svg width="20" height="20" viewBox="0 0 20 20" fill="none" xmlns="http://www.w3.org/2000/svg">
<g id="24 / various / atom">
<path id="icon" fill-rule="evenodd" clip-rule="evenodd" d="M16.3566 9.99984C18.1005 7.14795 18.5385 4.39613 17.0711 2.92877C15.6038 1.46141 12.852 1.8994 10.0001 3.64333L10.0001 3.64332L10.0001 3.64333C7.14819 1.8994 4.39637 1.46141 2.92901 2.92877C1.46165 4.39613 1.89964 7.14795 3.64358 9.99984C1.89964 12.8517 1.46165 15.6035 2.92901 17.0709C4.39637 18.5383 7.14819 18.1003 10.0001 16.3563C12.852 18.1003 15.6038 18.5383 17.0711 17.0709C18.5385 15.6035 18.1005 12.8517 16.3566 9.99984ZM15.8927 4.1074C15.1748 3.38951 13.4831 3.63997 11.5247 4.69444C12.2067 5.21844 12.8825 5.81113 13.5356 6.46429C14.1888 7.11752 14.7816 7.79331 15.3056 8.47545C16.3601 6.51702 16.6106 4.82529 15.8927 4.1074ZM12.3571 7.6428C11.5852 6.87085 10.7862 6.20192 10.0002 5.64529C9.21413 6.20195 8.41511 6.87092 7.6431 7.64293C6.87113 8.4149 6.20219 9.21387 5.64555 9.99989C6.20218 10.7859 6.87111 11.5848 7.64305 12.3568C8.41508 13.1288 9.21414 13.7978 10.0002 14.3545C10.7862 13.7979 11.5852 13.1289 12.3571 12.357C13.1291 11.585 13.7981 10.786 14.3548 9.99992C13.7981 9.21385 13.1291 8.41482 12.3571 7.6428ZM8.47554 4.69442C7.79347 5.21843 7.11772 5.81113 6.46455 6.4643C5.81135 7.1175 5.21864 7.79326 4.69462 8.47536L4.6946 8.4753L4.69457 8.47534C3.64013 6.51696 3.38968 4.82528 4.10756 4.1074C4.82545 3.38951 6.51715 3.63997 8.47554 4.69442ZM4.69469 11.5243C3.64015 13.4828 3.38965 15.1746 4.10756 15.8925C4.82548 16.6104 6.51728 16.3599 8.47578 15.3054C7.79362 14.7813 7.11779 14.1885 6.46454 13.5353C5.81137 12.8821 5.21869 12.2064 4.69469 11.5243ZM11.5245 15.3054C13.483 16.3599 15.1748 16.6104 15.8927 15.8925C16.6106 15.1746 16.3601 13.4828 15.3055 11.5243C14.7815 12.2064 14.1888 12.8822 13.5356 13.5354C12.8824 14.1886 12.2066 14.7813 11.5245 15.3054ZM10.8334 9.99997C10.8334 9.53973 10.4603 9.16663 10 9.16663C9.53981 9.16663 9.16671 9.53973 9.16671 9.99997C9.16671 10.4602 9.53981 10.8333 10 10.8333C10.4603 10.8333 10.8334 10.4602 10.8334 9.99997Z" fill="white"/>
</g>
</svg>
