<svg width="18" height="18" viewBox="0 0 18 18" fill="none" xmlns="http://www.w3.org/2000/svg">
<g clip-path="url(#clip0)">
<path fill-rule="evenodd" clip-rule="evenodd" d="M8.9996 1.99998C6.68 1.99998 4.7996 3.88038 4.7996 6.19998C4.7996 8.51957 6.68 10.4 8.9996 10.4C11.3192 10.4 13.1996 8.51957 13.1996 6.19998C13.1996 3.88038 11.3192 1.99998 8.9996 1.99998ZM3.3996 6.19998C3.3996 3.10718 5.9068 0.599976 8.9996 0.599976C12.0924 0.599976 14.5996 3.10718 14.5996 6.19998C14.5996 9.29277 12.0924 11.8 8.9996 11.8C5.9068 11.8 3.3996 9.29277 3.3996 6.19998Z" fill="white"/>
<path fill-rule="evenodd" clip-rule="evenodd" d="M11.5606 9.62201C11.9438 9.57116 12.2957 9.84062 12.3466 10.2239L13.1936 16.6079C13.2289 16.8743 13.1086 17.1375 12.8839 17.285C12.6593 17.4326 12.37 17.4385 12.1395 17.3002L8.99964 15.4163L5.85979 17.3002C5.62929 17.4385 5.33997 17.4326 5.11531 17.285C4.89065 17.1374 4.77034 16.8742 4.80573 16.6078L5.65273 10.2308C5.70363 9.84753 6.05557 9.57812 6.4388 9.62902C6.82204 9.67992 7.09145 10.0319 7.04054 10.4151L6.38475 15.3525L8.63949 13.9997C8.86117 13.8667 9.13811 13.8667 9.35979 13.9997L11.6148 15.3527L10.9587 10.408C10.9079 10.0248 11.1773 9.67285 11.5606 9.62201Z" fill="white"/>
</g>
<defs>
<clipPath id="clip0">
<rect width="16.8" height="16.8" fill="white" transform="translate(0.599609 0.599976)"/>
</clipPath>
</defs>
</svg>
