<svg width="20" height="20" viewBox="0 0 20 20" fill="none" xmlns="http://www.w3.org/2000/svg">
<path fill-rule="evenodd" clip-rule="evenodd" d="M15.8334 8.33326C15.8334 4.9506 13.968 2.60283 11.5545 1.89801C11.4671 1.67191 11.329 1.46171 11.1413 1.28534C10.4998 0.682638 9.50024 0.682638 8.85878 1.28534C8.67147 1.46133 8.53355 1.67099 8.44613 1.89652C6.02949 2.59827 4.16669 4.94091 4.16669 8.33326C4.16669 10.5282 3.72417 11.7581 2.90499 12.6494C2.76802 12.7984 2.39695 13.1398 2.14558 13.371L2.14556 13.371L2.14545 13.3711L2.14537 13.3712C2.02654 13.4805 1.9345 13.5652 1.90666 13.5932L1.66669 13.8366V16.6783H6.73999C6.91153 17.5634 7.39175 18.1555 8.26019 18.6855C9.32847 19.3374 10.6716 19.3374 11.7399 18.6855C12.5063 18.2178 13.0202 17.499 13.2286 16.6783H18.3334V13.8366L18.0934 13.5932C18.0681 13.5676 17.9798 13.4861 17.8642 13.3795L17.8642 13.3795C17.6136 13.1483 17.2352 12.7993 17.0962 12.6474C16.2764 11.7519 15.8334 10.5205 15.8334 8.33326ZM11.4473 16.6783H8.48217C8.59991 16.8974 8.80059 17.0628 9.12837 17.2628C9.66358 17.5894 10.3365 17.5894 10.8717 17.2628C11.1195 17.1115 11.3132 16.9114 11.4473 16.6783ZM15.8668 13.7728C16.0422 13.9643 16.418 14.3145 16.6667 14.5432V15.0117H3.33335V14.5436C3.58008 14.3175 3.95705 13.9676 4.13209 13.7772C5.2452 12.5661 5.83335 10.9314 5.83335 8.33326C5.83335 5.18317 7.77733 3.34358 10 3.34358C12.2164 3.34358 14.1667 5.19267 14.1667 8.33326C14.1667 10.9231 14.755 12.5583 15.8668 13.7728Z" fill="#FF0010"/>
</svg>
