<svg width="32" height="32" viewBox="0 0 32 32" fill="none" xmlns="http://www.w3.org/2000/svg">
<path fill-rule="evenodd" clip-rule="evenodd" d="M10.6667 8.00033H8.00002V6.66699H5.33335V10.667H26.6667V6.66699H24V8.00033H21.3334V6.66699H10.6667V8.00033ZM26.6667 13.3337H5.33335V26.667H26.6667V13.3337ZM21.3334 4.00033H10.6667V2.66699H8.00002V4.00033H5.33335C3.86059 4.00033 2.66669 5.19423 2.66669 6.66699V26.667C2.66669 28.1398 3.86059 29.3337 5.33335 29.3337H26.6667C28.1394 29.3337 29.3334 28.1398 29.3334 26.667V6.66699C29.3334 5.19423 28.1394 4.00033 26.6667 4.00033H24V2.66699H21.3334V4.00033ZM12 18.667H9.33335V16.0003H12V18.667ZM14.6667 18.667H17.3334V16.0003H14.6667V18.667ZM20 18.667V16.0003H22.6667V18.667H20ZM9.33335 24.0003H12V21.3337H9.33335V24.0003ZM17.3334 24.0003H14.6667V21.3337H17.3334V24.0003Z" fill="#878FA4"/>
</svg>
