<svg width="40" height="40" viewBox="0 0 40 40" fill="none" xmlns="http://www.w3.org/2000/svg">
<path fill-rule="evenodd" clip-rule="evenodd" d="M26.105 6.28915C23.1504 4.97265 19.8494 4.64651 16.6943 5.35937C13.5392 6.07222 10.6991 7.78588 8.59744 10.2448C6.49583 12.7036 5.24537 15.776 5.03254 19.0036C4.81971 22.2312 5.65592 25.4412 7.41646 28.1547C9.177 30.8683 11.7675 32.94 14.8017 34.061C17.8359 35.182 21.1512 35.2921 24.2531 34.375C27.3549 33.4579 30.0773 31.5626 32.014 28.9719C33.9508 26.3812 34.9982 23.2338 35 19.9991V18.4668C35 17.5463 35.7462 16.8001 36.6667 16.8001C37.5872 16.8001 38.3334 17.5463 38.3334 18.4668V20.0001C38.3311 23.9535 37.0509 27.8013 34.6838 30.9677C32.3167 34.1342 28.9894 36.4506 25.1982 37.5715C21.407 38.6925 17.355 38.5579 13.6465 37.1878C9.9381 35.8177 6.77189 33.2856 4.62011 29.969C2.46834 26.6524 1.4463 22.7292 1.70643 18.7843C1.96655 14.8394 3.4949 11.0843 6.06353 8.07902C8.63217 5.07372 12.1035 2.97925 15.9597 2.10799C19.8159 1.23672 23.8505 1.63534 27.4617 3.24439C28.3025 3.61902 28.6804 4.60431 28.3057 5.4451C27.9311 6.28589 26.9458 6.66378 26.105 6.28915Z" fill="#00C820"/>
<path fill-rule="evenodd" clip-rule="evenodd" d="M37.8446 5.48781C38.4958 6.13836 38.4963 7.19363 37.8458 7.84483L21.1791 24.5282C20.8666 24.841 20.4426 25.0168 20.0004 25.0169C19.5583 25.017 19.1342 24.8414 18.8215 24.5288L13.8215 19.5288C13.1706 18.8779 13.1706 17.8226 13.8215 17.1717C14.4724 16.5209 15.5276 16.5209 16.1785 17.1717L19.9994 20.9926L35.4876 5.48899C36.1381 4.83779 37.1934 4.83726 37.8446 5.48781Z" fill="#00C820"/>
</svg>
