<svg width="19" height="23" viewBox="0 0 19 23" fill="none" xmlns="http://www.w3.org/2000/svg">
<path d="M16.2396 1.90219C18.3886 3.14291 18.9421 5.78051 17.4736 7.78046L8.29954 20.2741C7.32053 21.6073 5.3572 22.0197 3.9244 21.1925C2.49176 20.3653 2.12264 18.6063 3.10164 17.2731L11.0919 6.39165C11.5816 5.72465 12.5638 5.51857 13.2804 5.93226C13.9967 6.34582 14.1815 7.22566 13.6917 7.89269L6.88472 17.1628L6.88305 17.1618L13.6901 7.89172C14.1794 7.22527 13.9955 6.34736 13.2792 5.93381C12.5628 5.52018 11.5829 5.72611 11.0935 6.39262L3.10331 17.274C2.12442 18.6071 2.49321 20.364 3.92554 21.1909C5.35807 22.018 7.31899 21.6062 8.29787 20.2731L17.4719 7.7795C18.9404 5.77968 18.3872 3.14428 16.2385 1.90375C14.0897 0.663116 11.1478 1.28062 9.67934 3.28045L1.68849 14.1627L1.68682 14.1618L9.67766 3.27948C11.1462 1.27954 14.0905 0.661366 16.2396 1.90219Z" fill="black" stroke="white" stroke-width="0.998047"/>
</svg>
