<svg width="38" height="38" viewBox="0 0 38 38" fill="none" xmlns="http://www.w3.org/2000/svg">
<path fill-rule="evenodd" clip-rule="evenodd" d="M18.9273 3.92733C10.6431 3.92733 3.92733 10.6431 3.92733 18.9273C3.92733 27.2116 10.6431 33.9273 18.9273 33.9273C27.2116 33.9273 33.9273 27.2116 33.9273 18.9273C33.9273 10.6431 27.2116 3.92733 18.9273 3.92733ZM0.593994 18.9273C0.593994 8.80211 8.80211 0.593994 18.9273 0.593994C29.0525 0.593994 37.2607 8.80211 37.2607 18.9273C37.2607 29.0525 29.0525 37.2607 18.9273 37.2607C8.80211 37.2607 0.593994 29.0525 0.593994 18.9273Z" fill="#E30B17"/>
<path fill-rule="evenodd" clip-rule="evenodd" d="M13.0347 13.0346C13.6856 12.3837 14.7409 12.3837 15.3917 13.0346L24.8198 22.4627C25.4707 23.1136 25.4707 24.1689 24.8198 24.8197C24.169 25.4706 23.1137 25.4706 22.4628 24.8197L13.0347 15.3916C12.3838 14.7408 12.3838 13.6855 13.0347 13.0346Z" fill="#E30B17"/>
<path fill-rule="evenodd" clip-rule="evenodd" d="M13.0347 24.8199C12.3838 24.169 12.3838 23.1137 13.0347 22.4628L22.4628 13.0348C23.1137 12.3839 24.169 12.3839 24.8198 13.0348C25.4707 13.6856 25.4707 14.7409 24.8198 15.3918L15.3917 24.8199C14.7409 25.4707 13.6856 25.4707 13.0347 24.8199Z" fill="#E30B17"/>
</svg>
