<svg width="26" height="26" viewBox="0 0 26 26" fill="none" xmlns="http://www.w3.org/2000/svg">
<path fill-rule="evenodd" clip-rule="evenodd" d="M18.0569 8.8061C18.6428 8.8061 19.1178 9.2811 19.1178 9.86704V20.4765C19.1178 22.2343 17.6928 23.6593 15.935 23.6593H9.56934C7.81151 23.6593 6.38651 22.2343 6.38651 20.4765V9.86704C6.38651 9.2811 6.86151 8.8061 7.44745 8.8061H18.0569ZM16.9959 10.928H8.5084V20.4765C8.5084 21.0624 8.9834 21.5374 9.56934 21.5374H15.935C16.5209 21.5374 16.9959 21.0624 16.9959 20.4765V10.928ZM9.56937 3.50137C9.56937 2.91543 10.0444 2.44043 10.6303 2.44043H14.8741C15.46 2.44043 15.935 2.91543 15.935 3.50137V4.56232H20.1788C20.7647 4.56232 21.2397 5.03732 21.2397 5.62326C21.2397 6.2092 20.7647 6.68421 20.1788 6.68421H5.32559C4.73965 6.68421 4.26465 6.2092 4.26465 5.62326C4.26465 5.03732 4.73965 4.56232 5.32559 4.56232H9.56937V3.50137Z" fill="#FF0000"/>
</svg>
