<svg width="42" height="42" viewBox="0 0 42 42" fill="none" xmlns="http://www.w3.org/2000/svg">
<path fill-rule="evenodd" clip-rule="evenodd" d="M5.25 24.5C6.2165 24.5 7 25.2835 7 26.25V33.25C7 33.7141 7.18437 34.1592 7.51256 34.4874C7.84075 34.8156 8.28587 35 8.75 35H33.25C33.7141 35 34.1592 34.8156 34.4874 34.4874C34.8156 34.1592 35 33.7141 35 33.25V26.25C35 25.2835 35.7835 24.5 36.75 24.5C37.7165 24.5 38.5 25.2835 38.5 26.25V33.25C38.5 34.6424 37.9469 35.9777 36.9623 36.9623C35.9777 37.9469 34.6424 38.5 33.25 38.5H8.75C7.35761 38.5 6.02225 37.9469 5.03769 36.9623C4.05312 35.9777 3.5 34.6424 3.5 33.25V26.25C3.5 25.2835 4.2835 24.5 5.25 24.5Z" fill="white"/>
<path fill-rule="evenodd" clip-rule="evenodd" d="M11.0126 16.2626C11.696 15.5791 12.804 15.5791 13.4874 16.2626L21 23.7751L28.5126 16.2626C29.196 15.5791 30.304 15.5791 30.9874 16.2626C31.6709 16.946 31.6709 18.054 30.9874 18.7374L22.2374 27.4874C21.554 28.1709 20.446 28.1709 19.7626 27.4874L11.0126 18.7374C10.3291 18.054 10.3291 16.946 11.0126 16.2626Z" fill="white"/>
<path fill-rule="evenodd" clip-rule="evenodd" d="M21 3.5C21.9665 3.5 22.75 4.2835 22.75 5.25V26.25C22.75 27.2165 21.9665 28 21 28C20.0335 28 19.25 27.2165 19.25 26.25V5.25C19.25 4.2835 20.0335 3.5 21 3.5Z" fill="white"/>
</svg>
