<svg width="19" height="19" viewBox="0 0 19 19" fill="none" xmlns="http://www.w3.org/2000/svg">
<path fill-rule="evenodd" clip-rule="evenodd" d="M10.4258 1.48962C10.7197 1.19568 11.1963 1.19568 11.4902 1.48962L14.501 4.50038C14.7949 4.79432 14.7949 5.27089 14.501 5.56484L6.22142 13.8444C6.08027 13.9856 5.88882 14.0649 5.68919 14.0649H2.67844C2.26274 14.0649 1.92575 13.7279 1.92575 13.3122V10.3014C1.92575 10.1018 2.00505 9.91035 2.14621 9.76919L10.4258 1.48962ZM3.43113 10.6132V12.5595H5.37742L12.9043 5.03261L10.958 3.08632L3.43113 10.6132Z" fill="white"/>
<path fill-rule="evenodd" clip-rule="evenodd" d="M1.92575 17.0756C1.92575 16.6599 2.26274 16.3229 2.67844 16.3229H16.2268C16.6425 16.3229 16.9795 16.6599 16.9795 17.0756C16.9795 17.4913 16.6425 17.8283 16.2268 17.8283H2.67844C2.26274 17.8283 1.92575 17.4913 1.92575 17.0756Z" fill="white"/>
</svg>
