<svg width="32" height="33" viewBox="0 0 32 33" fill="none" xmlns="http://www.w3.org/2000/svg">
<path fill-rule="evenodd" clip-rule="evenodd" d="M5.17157 3.26239C5.92172 2.51225 6.93913 2.09082 8 2.09082H18.6667C19.0203 2.09082 19.3594 2.2313 19.6095 2.48134L27.6095 10.4813C27.8595 10.7314 28 11.0705 28 11.4242V27.4242C28 28.485 27.5786 29.5024 26.8284 30.2526C26.0783 31.0027 25.0609 31.4242 24 31.4242H8C6.93913 31.4242 5.92172 31.0027 5.17157 30.2526C4.42143 29.5024 4 28.485 4 27.4242V6.09082C4 5.02995 4.42143 4.01254 5.17157 3.26239ZM8 4.75749C7.64638 4.75749 7.30724 4.89796 7.05719 5.14801C6.80714 5.39806 6.66667 5.7372 6.66667 6.09082V27.4242C6.66667 27.7778 6.80714 28.1169 7.05719 28.367C7.30724 28.617 7.64638 28.7575 8 28.7575H24C24.3536 28.7575 24.6928 28.617 24.9428 28.367C25.1929 28.1169 25.3333 27.7778 25.3333 27.4242V11.9764L18.1144 4.75749H8Z" fill="white"/>
<path fill-rule="evenodd" clip-rule="evenodd" d="M18.6667 2.09082C19.403 2.09082 20 2.68777 20 3.42415V10.0908H26.6667C27.403 10.0908 28 10.6878 28 11.4242C28 12.1605 27.403 12.7575 26.6667 12.7575H18.6667C17.9303 12.7575 17.3333 12.1605 17.3333 11.4242V3.42415C17.3333 2.68777 17.9303 2.09082 18.6667 2.09082Z" fill="white"/>
<path fill-rule="evenodd" clip-rule="evenodd" d="M9.33333 18.0908C9.33333 17.3544 9.93029 16.7575 10.6667 16.7575H21.3333C22.0697 16.7575 22.6667 17.3544 22.6667 18.0908C22.6667 18.8272 22.0697 19.4242 21.3333 19.4242H10.6667C9.93029 19.4242 9.33333 18.8272 9.33333 18.0908Z" fill="white"/>
<path fill-rule="evenodd" clip-rule="evenodd" d="M9.33333 23.4242C9.33333 22.6878 9.93029 22.0908 10.6667 22.0908H21.3333C22.0697 22.0908 22.6667 22.6878 22.6667 23.4242C22.6667 24.1605 22.0697 24.7575 21.3333 24.7575H10.6667C9.93029 24.7575 9.33333 24.1605 9.33333 23.4242Z" fill="white"/>
<path fill-rule="evenodd" clip-rule="evenodd" d="M9.33333 12.7575C9.33333 12.0211 9.93029 11.4242 10.6667 11.4242H13.3333C14.0697 11.4242 14.6667 12.0211 14.6667 12.7575C14.6667 13.4939 14.0697 14.0908 13.3333 14.0908H10.6667C9.93029 14.0908 9.33333 13.4939 9.33333 12.7575Z" fill="white"/>
</svg>
