<svg width="17" height="17" viewBox="0 0 17 17" fill="none" xmlns="http://www.w3.org/2000/svg">
<g clip-path="url(#clip0)">
<path d="M6.375 7.31316V11.8118C6.37498 11.9058 6.3999 11.9981 6.44722 12.0793C6.49453 12.1605 6.56255 12.2277 6.64432 12.2741C6.7261 12.3204 6.81871 12.3443 6.91269 12.3431C7.00668 12.342 7.09869 12.3159 7.17931 12.2676L10.9278 10.0183C11.0066 9.97112 11.0718 9.90434 11.1171 9.82445C11.1624 9.74456 11.1862 9.6543 11.1862 9.56247C11.1862 9.47065 11.1624 9.38039 11.1171 9.3005C11.0718 9.22061 11.0066 9.15383 10.9278 9.10666L7.17931 6.85735C7.09861 6.80899 7.00651 6.78293 6.91243 6.78184C6.81835 6.78074 6.72567 6.80465 6.64386 6.85112C6.56205 6.89759 6.49405 6.96495 6.44681 7.04632C6.39958 7.12769 6.37479 7.22014 6.375 7.31422V7.31316Z" fill="white"/>
<path d="M14.875 14.875V4.78125L10.0938 0H4.25C3.68641 0 3.14591 0.223883 2.7474 0.622398C2.34888 1.02091 2.125 1.56141 2.125 2.125V14.875C2.125 15.4386 2.34888 15.9791 2.7474 16.3776C3.14591 16.7761 3.68641 17 4.25 17H12.75C13.3136 17 13.8541 16.7761 14.2526 16.3776C14.6511 15.9791 14.875 15.4386 14.875 14.875ZM10.0938 3.1875C10.0938 3.61019 10.2617 4.01557 10.5605 4.31445C10.8594 4.61334 11.2648 4.78125 11.6875 4.78125H13.8125V14.875C13.8125 15.1568 13.7006 15.427 13.5013 15.6263C13.302 15.8256 13.0318 15.9375 12.75 15.9375H4.25C3.96821 15.9375 3.69796 15.8256 3.4987 15.6263C3.29944 15.427 3.1875 15.1568 3.1875 14.875V2.125C3.1875 1.84321 3.29944 1.57296 3.4987 1.3737C3.69796 1.17444 3.96821 1.0625 4.25 1.0625H10.0938V3.1875Z" fill="white"/>
</g>
<defs>
<clipPath id="clip0">
<rect width="17" height="17" fill="white"/>
</clipPath>
</defs>
</svg>
