<svg width="16" height="16" viewBox="0 0 16 16" fill="none" xmlns="http://www.w3.org/2000/svg">
<path fill-rule="evenodd" clip-rule="evenodd" d="M7.99984 2.00002C4.68613 2.00002 1.99984 4.68631 1.99984 8.00002C1.99984 11.3137 4.68613 14 7.99984 14C11.3135 14 13.9998 11.3137 13.9998 8.00002C13.9998 4.68631 11.3135 2.00002 7.99984 2.00002ZM0.666504 8.00002C0.666504 3.94993 3.94975 0.666687 7.99984 0.666687C12.0499 0.666687 15.3332 3.94993 15.3332 8.00002C15.3332 12.0501 12.0499 15.3334 7.99984 15.3334C3.94975 15.3334 0.666504 12.0501 0.666504 8.00002Z" fill="white"/>
<path fill-rule="evenodd" clip-rule="evenodd" d="M0.666504 8.00002C0.666504 7.63183 0.964981 7.33335 1.33317 7.33335H14.6665C15.0347 7.33335 15.3332 7.63183 15.3332 8.00002C15.3332 8.36821 15.0347 8.66669 14.6665 8.66669H1.33317C0.964981 8.66669 0.666504 8.36821 0.666504 8.00002Z" fill="white"/>
<path fill-rule="evenodd" clip-rule="evenodd" d="M5.99999 8.00002C6.04568 10.0499 6.75067 12.0235 7.99984 13.6328C9.249 12.0235 9.95399 10.0499 9.99968 8.00002C9.95399 5.95013 9.249 3.97658 7.99984 2.36722C6.75067 3.97658 6.04568 5.95013 5.99999 8.00002ZM7.99984 1.33335L7.50761 0.883738C5.7311 2.82862 4.72151 5.35259 4.66665 7.98613C4.66646 7.99539 4.66646 8.00465 4.66665 8.01391C4.72151 10.6474 5.7311 13.1714 7.50761 15.1163C7.63391 15.2546 7.81256 15.3334 7.99984 15.3334C8.18712 15.3334 8.36576 15.2546 8.49207 15.1163C10.2686 13.1714 11.2782 10.6474 11.333 8.01391C11.3332 8.00465 11.3332 7.99539 11.333 7.98613C11.2782 5.35259 10.2686 2.82862 8.49207 0.883738L7.99984 1.33335Z" fill="white"/>
</svg>
