<svg width="19" height="19" viewBox="0 0 19 19" fill="none" xmlns="http://www.w3.org/2000/svg">
<g clip-path="url(#clip0)">
<path fill-rule="evenodd" clip-rule="evenodd" d="M11.7409 2.29732C12.3346 2.05131 12.971 1.92468 13.6137 1.92468C14.2564 1.92468 14.8927 2.05131 15.4865 2.29732C16.0801 2.54329 16.6195 2.90378 17.0737 3.35822C17.5282 3.8125 17.8889 4.35211 18.1349 4.94573C18.3809 5.53946 18.5075 6.17585 18.5075 6.81853C18.5075 7.46121 18.3809 8.0976 18.1349 8.69133C17.8889 9.28501 17.5284 9.82441 17.0739 10.2787C17.0738 10.2788 17.0739 10.2787 17.0739 10.2787L10.4201 16.9325C10.1262 17.2264 9.64958 17.2264 9.35564 16.9325L2.70187 10.2787C1.78417 9.36102 1.26862 8.11635 1.26862 6.81853C1.26862 5.52071 1.78417 4.27604 2.70187 3.35834C3.61957 2.44064 4.86424 1.92509 6.16206 1.92509C7.45988 1.92509 8.70455 2.44064 9.62225 3.35834L9.88787 3.62396L10.1534 3.35847C10.1534 3.35843 10.1533 3.35851 10.1534 3.35847C10.6077 2.90397 11.1472 2.54331 11.7409 2.29732ZM13.6137 3.43006C13.1687 3.43006 12.7282 3.51772 12.3171 3.68804C11.9061 3.85836 11.5326 4.10799 11.2181 4.42268L10.4201 5.22065C10.1262 5.5146 9.64958 5.5146 9.35564 5.22065L8.55779 4.4228C7.9224 3.78742 7.06063 3.43046 6.16206 3.43046C5.26349 3.43046 4.40172 3.78742 3.76633 4.4228C3.13095 5.05819 2.77399 5.91996 2.77399 6.81853C2.77399 7.7171 3.13095 8.57887 3.76633 9.21426L9.88787 15.3358L16.0094 9.21426C16.3241 8.89972 16.5738 8.52613 16.7442 8.11508C16.9145 7.70404 17.0021 7.26346 17.0021 6.81853C17.0021 6.3736 16.9145 5.93302 16.7442 5.52198C16.5738 5.11093 16.3242 4.73747 16.0095 4.42293C15.695 4.10824 15.3213 3.85836 14.9102 3.68804C14.4992 3.51772 14.0586 3.43006 13.6137 3.43006Z" fill="white"/>
</g>
<defs>
<clipPath id="clip0">
<rect width="18.0645" height="18.0645" fill="white" transform="translate(0.51593 0.419312)"/>
</clipPath>
</defs>
</svg>
