<svg width="20" height="18" viewBox="0 0 20 18" fill="none" xmlns="http://www.w3.org/2000/svg">
<path d="M9.86469 4.65402C7.22996 4.65402 5.10477 6.67339 5.10477 9.17695C5.10477 11.6805 7.22996 13.6999 9.86469 13.6999C12.4994 13.6999 14.6246 11.6805 14.6246 9.17695C14.6246 6.67339 12.4994 4.65402 9.86469 4.65402ZM9.86469 12.1174C8.16206 12.1174 6.77012 10.7987 6.77012 9.17695C6.77012 7.55515 8.15791 6.23645 9.86469 6.23645C11.5715 6.23645 12.9593 7.55515 12.9593 9.17695C12.9593 10.7987 11.5673 12.1174 9.86469 12.1174ZM15.9295 4.46901C15.9295 5.05553 15.4324 5.52396 14.8193 5.52396C14.2021 5.52396 13.7091 5.05159 13.7091 4.46901C13.7091 3.88642 14.2062 3.41405 14.8193 3.41405C15.4324 3.41405 15.9295 3.88642 15.9295 4.46901ZM19.0821 5.53971C19.0117 4.12654 18.672 2.87476 17.5825 1.84342C16.4971 0.812084 15.1797 0.489299 13.6925 0.418444C12.1597 0.335779 7.56551 0.335779 6.03273 0.418444C4.54966 0.485363 3.23229 0.808148 2.14277 1.83949C1.05325 2.87082 0.717696 4.1226 0.643128 5.53577C0.556132 6.99224 0.556132 11.3577 0.643128 12.8142C0.713553 14.2274 1.05325 15.4791 2.14277 16.5105C3.23229 17.5418 4.54551 17.8646 6.03273 17.9354C7.56551 18.0181 12.1597 18.0181 13.6925 17.9354C15.1797 17.8685 16.4971 17.5457 17.5825 16.5105C18.6678 15.4791 19.0075 14.2274 19.0821 12.8142C19.1691 11.3577 19.1691 6.99618 19.0821 5.53971ZM17.1019 14.3769C16.7788 15.1485 16.1532 15.7429 15.3371 16.0538C14.1151 16.5144 11.2152 16.4081 9.86469 16.4081C8.51418 16.4081 5.61018 16.5105 4.39223 16.0538C3.58027 15.7468 2.95473 15.1524 2.62746 14.3769C2.14277 13.2157 2.25462 10.4602 2.25462 9.17695C2.25462 7.89368 2.14691 5.13426 2.62746 3.97695C2.95059 3.20542 3.57613 2.61102 4.39223 2.30005C5.61432 1.83949 8.51418 1.94577 9.86469 1.94577C11.2152 1.94577 14.1192 1.84342 15.3371 2.30005C16.1491 2.60708 16.7746 3.20148 17.1019 3.97695C17.5866 5.13819 17.4748 7.89368 17.4748 9.17695C17.4748 10.4602 17.5866 13.2196 17.1019 14.3769Z" fill="white"/>
</svg>
