<svg width="20" height="20" viewBox="0 0 20 20" fill="none" xmlns="http://www.w3.org/2000/svg">
<g id="24 / various / lightbulb">
<path id="icon" fill-rule="evenodd" clip-rule="evenodd" d="M13.3334 13.2625V15C13.3334 16.8409 11.841 18.3333 10.0001 18.3333C8.15913 18.3333 6.66675 16.8409 6.66675 15V13.2625C6.66675 13.0997 6.6091 12.9222 6.47297 12.6885C6.3855 12.5383 6.27106 12.3733 6.09842 12.1449L6.04035 12.0691C5.92508 11.9189 5.67329 11.5907 5.58033 11.4652C4.63878 10.1935 4.16675 9.05818 4.16675 7.49996C4.16675 4.2783 6.77842 1.66663 10.0001 1.66663C13.2217 1.66663 15.8334 4.2783 15.8334 7.49996C15.8334 9.09226 15.3549 10.2706 14.4214 11.5399C14.3225 11.6745 14.0729 11.9987 13.9251 12.1909L13.925 12.191C13.8672 12.2662 13.8249 12.3211 13.8133 12.3365C13.6247 12.5875 13.5075 12.7654 13.4313 12.9199C13.3623 13.0597 13.3334 13.1677 13.3334 13.2625ZM11.7031 12.8662C11.7456 12.6356 11.8247 12.4094 11.9366 12.1825C12.0682 11.9159 12.2354 11.6618 12.4811 11.3351C12.4979 11.3127 12.5522 11.242 12.6224 11.1508C12.7725 10.9557 12.995 10.6663 13.0788 10.5525C13.8193 9.54561 14.1667 8.68988 14.1667 7.49996C14.1667 5.19877 12.3013 3.33329 10.0001 3.33329C7.69889 3.33329 5.83341 5.19877 5.83341 7.49996C5.83341 8.64875 6.1723 9.4638 6.91983 10.4735C7.00007 10.5819 7.22667 10.8773 7.34909 11.0369L7.34918 11.037L7.42798 11.1399C7.63737 11.4169 7.7855 11.6305 7.91314 11.8496C8.11195 12.1909 8.24394 12.5236 8.3011 12.8686C8.82039 13.1803 9.38175 13.3334 10.0001 13.3334C10.62 13.3334 11.1827 13.1795 11.7031 12.8662ZM11.6667 15V14.7188C11.1397 14.9058 10.5829 15.0001 10.0001 15.0001C9.41729 15.0001 8.86047 14.9058 8.33341 14.7188V15C8.33341 15.9204 9.07961 16.6666 10.0001 16.6666C10.9206 16.6666 11.6667 15.9204 11.6667 15Z" fill="white"/>
</g>
</svg>
