<svg width="24" height="24" viewBox="0 0 24 24" fill="none" xmlns="http://www.w3.org/2000/svg">
<path d="M11.7651 5.07361L12.5969 5.62872C14.3025 3.07301 16.6314 2.60863 18.4945 3.30421C20.4116 4.01991 22 6.02295 22 8.77712C22 9.65198 21.5111 10.8015 20.5642 12.1464C19.6394 13.4599 18.3774 14.8221 17.055 16.0954C15.7372 17.3643 14.3847 18.5211 13.2939 19.4262C12.902 19.7514 12.5473 20.0413 12.2383 20.2938C12.1162 20.3936 12.0013 20.4876 11.894 20.5756C11.8476 20.6136 11.802 20.6511 11.7573 20.6879C11.7063 20.6473 11.6542 20.6061 11.6013 20.5643C11.4449 20.4406 11.2756 20.3077 11.0928 20.1642C10.8083 19.9408 10.4912 19.6919 10.1396 19.4127C8.99839 18.5065 7.57932 17.3488 6.19495 16.0789C4.8057 14.8044 3.47844 13.4412 2.50569 12.1271C1.50729 10.7784 1 9.6361 1 8.77712C1 6.03801 2.68372 4.01891 4.7544 3.29297C6.78562 2.58086 9.24511 3.09438 10.9329 5.628L11.7651 5.07361Z" fill="url(#paint0_linear)" stroke="#E30B17" stroke-width="2"/>
<defs>
<linearGradient id="paint0_linear" x1="3.42727e-07" y1="22" x2="24.3946" y2="20.1228" gradientUnits="userSpaceOnUse">
<stop stop-color="#53183E"/>
<stop offset="0.102898" stop-color="#361B48"/>
<stop offset="0.428573" stop-color="#222222"/>
<stop offset="1" stop-color="#1D1C57"/>
</linearGradient>
</defs>
</svg>
