<svg width="18" height="18" viewBox="0 0 18 18" fill="none" xmlns="http://www.w3.org/2000/svg">
<path fill-rule="evenodd" clip-rule="evenodd" d="M9.58113 2.06301C10.4298 1.2433 11.5665 0.789722 12.7464 0.799975C13.9263 0.810228 15.055 1.28349 15.8893 2.11782C16.7236 2.95216 17.1969 4.08082 17.2072 5.2607C17.2174 6.44059 16.7638 7.5773 15.9441 8.42601L15.935 8.4353L13.6851 10.6852C13.2289 11.1416 12.6799 11.4945 12.0753 11.72C11.4707 11.9455 10.8247 12.0384 10.1811 11.9923C9.53745 11.9462 8.91126 11.7622 8.34498 11.4529C7.77871 11.1435 7.28559 10.7159 6.89909 10.1992C6.65098 9.86752 6.71874 9.3975 7.05043 9.1494C7.38212 8.90129 7.85213 8.96905 8.10024 9.30074C8.35791 9.64522 8.68665 9.93025 9.06417 10.1365C9.44168 10.3428 9.85914 10.4654 10.2882 10.4961C10.7173 10.5269 11.148 10.465 11.551 10.3146C11.9541 10.1643 12.3201 9.92898 12.6242 9.62474L14.8695 7.37951C15.4132 6.81418 15.714 6.05827 15.7072 5.27374C15.7004 4.48715 15.3849 3.73471 14.8287 3.17848C14.2724 2.62226 13.52 2.30675 12.7334 2.29992C11.9485 2.2931 11.1923 2.59415 10.6269 3.13838L9.34094 4.41685C9.0472 4.70889 8.57233 4.7075 8.28029 4.41376C7.98825 4.12001 7.98963 3.64514 8.28338 3.3531L9.57338 2.0706L9.58113 2.06301Z" fill="#3A3849"/>
<path fill-rule="evenodd" clip-rule="evenodd" d="M5.92402 6.27994C6.52861 6.05441 7.17462 5.96154 7.81825 6.00764C8.46188 6.05373 9.08807 6.23771 9.65434 6.54709C10.2206 6.85648 10.7137 7.28402 11.1002 7.80074C11.3483 8.13243 11.2806 8.60244 10.9489 8.85055C10.6172 9.09865 10.1472 9.0309 9.89909 8.69921C9.64142 8.35473 9.31267 8.0697 8.93516 7.86344C8.55764 7.65719 8.14018 7.53454 7.7111 7.50381C7.28201 7.47308 6.85134 7.53499 6.44828 7.68534C6.04523 7.83569 5.67922 8.07097 5.37509 8.37521L3.12986 10.6204C2.58608 11.1858 2.28529 11.9417 2.29211 12.7262C2.29894 13.5128 2.61445 14.2652 3.17067 14.8215C3.7269 15.3777 4.47933 15.6932 5.26592 15.7C6.05046 15.7068 6.80636 15.4061 7.37169 14.8623L8.64933 13.5846C8.94222 13.2917 9.4171 13.2917 9.70999 13.5846C10.0029 13.8775 10.0029 14.3524 9.70999 14.6453L8.42749 15.9278L8.4182 15.9369C7.56949 16.7567 6.43278 17.2102 5.25289 17.2C4.073 17.1897 2.94435 16.7165 2.11001 15.8821C1.27568 15.0478 0.802415 13.9191 0.792162 12.7392C0.781909 11.5594 1.23548 10.4226 2.0552 9.57394L2.06433 9.56464L4.31424 7.31474C4.3142 7.31477 4.31427 7.31471 4.31424 7.31474C4.77041 6.85842 5.31948 6.50545 5.92402 6.27994Z" fill="#3A3849"/>
</svg>
