<svg width="32" height="32" viewBox="0 0 32 32" fill="none" xmlns="http://www.w3.org/2000/svg">
<path fill-rule="evenodd" clip-rule="evenodd" d="M5.33331 6.66667C4.60303 6.66667 3.99998 7.26971 3.99998 8V24C3.99998 24.7303 4.60303 25.3333 5.33331 25.3333H26.6666C27.3969 25.3333 28 24.7303 28 24V8C28 7.26971 27.3969 6.66667 26.6666 6.66667H5.33331ZM1.33331 8C1.33331 5.79695 3.13027 4 5.33331 4H26.6666C28.8697 4 30.6666 5.79695 30.6666 8V24C30.6666 26.203 28.8697 28 26.6666 28H5.33331C3.13027 28 1.33331 26.203 1.33331 24V8Z" fill="#878FA4"/>
<path fill-rule="evenodd" clip-rule="evenodd" d="M1.57433 7.23582C1.99662 6.63256 2.82799 6.48584 3.43126 6.90813L16 15.7062L28.5687 6.90813C29.172 6.48584 30.0033 6.63256 30.4256 7.23582C30.8479 7.83909 30.7012 8.67046 30.0979 9.09275L16.7646 18.4261C16.3055 18.7474 15.6944 18.7474 15.2354 18.4261L1.90202 9.09275C1.29876 8.67046 1.15204 7.83909 1.57433 7.23582Z" fill="#878FA4"/>
</svg>
