<svg width="16" height="16" viewBox="0 0 16 16" fill="none" xmlns="http://www.w3.org/2000/svg">
<path fill-rule="evenodd" clip-rule="evenodd" d="M14.2375 0.543945H2.30763C1.48405 0.543945 0.816406 1.21159 0.816406 2.03517V13.965C0.816406 14.7886 1.48405 15.4562 2.30763 15.4562H14.2375C15.061 15.4562 15.7287 14.7886 15.7287 13.965V2.03517C15.7287 1.21159 15.061 0.543945 14.2375 0.543945ZM2.30794 10.6736V2.03516H14.2378V6.94581L12.7463 5.45435L7.89983 10.3008L5.29029 7.69128L2.30794 10.6736ZM2.30794 12.7825V13.965H9.45507L5.29029 9.8002L2.30794 12.7825ZM11.564 13.965H14.2378V9.05473L12.7463 7.56326L8.95428 11.3553L11.564 13.965Z" fill="#FF0010"/>
</svg>
