<svg width="19" height="19" viewBox="0 0 19 19" fill="none" xmlns="http://www.w3.org/2000/svg">
<path fill-rule="evenodd" clip-rule="evenodd" d="M0.125 9.5C0.125 8.46447 0.964466 7.625 2 7.625H17C18.0355 7.625 18.875 8.46447 18.875 9.5C18.875 10.5355 18.0355 11.375 17 11.375H2C0.964466 11.375 0.125 10.5355 0.125 9.5Z" fill="#2C2C2C"/>
<path fill-rule="evenodd" clip-rule="evenodd" d="M9.5 0.125366C10.5355 0.125366 11.375 0.964832 11.375 2.00037L11.375 17.0004C11.375 18.0359 10.5355 18.8754 9.5 18.8754C8.46447 18.8754 7.625 18.0359 7.625 17.0004L7.625 2.00037C7.625 0.964832 8.46447 0.125366 9.5 0.125366Z" fill="#2C2C2C"/>
</svg>
