<svg width="45" height="45" viewBox="0 0 45 45" fill="none" xmlns="http://www.w3.org/2000/svg">
<path fill-rule="evenodd" clip-rule="evenodd" d="M22.5 5.625C13.1802 5.625 5.625 13.1802 5.625 22.5C5.625 31.8198 13.1802 39.375 22.5 39.375C31.8198 39.375 39.375 31.8198 39.375 22.5C39.375 13.1802 31.8198 5.625 22.5 5.625ZM1.875 22.5C1.875 11.1091 11.1091 1.875 22.5 1.875C33.8909 1.875 43.125 11.1091 43.125 22.5C43.125 33.8909 33.8909 43.125 22.5 43.125C11.1091 43.125 1.875 33.8909 1.875 22.5Z" fill="#2C2C2C"/>
<path fill-rule="evenodd" clip-rule="evenodd" d="M13.125 22.5C13.125 21.4645 13.9645 20.625 15 20.625H30C31.0355 20.625 31.875 21.4645 31.875 22.5C31.875 23.5355 31.0355 24.375 30 24.375H15C13.9645 24.375 13.125 23.5355 13.125 22.5Z" fill="#2C2C2C"/>
<path fill-rule="evenodd" clip-rule="evenodd" d="M22.5 13.1254C23.5355 13.1254 24.375 13.9648 24.375 15.0004L24.375 30.0004C24.375 31.0359 23.5355 31.8754 22.5 31.8754C21.4645 31.8754 20.625 31.0359 20.625 30.0004L20.625 15.0004C20.625 13.9648 21.4645 13.1254 22.5 13.1254Z" fill="#2C2C2C"/>
</svg>
