<svg width="22" height="18" viewBox="0 0 22 18" fill="none" xmlns="http://www.w3.org/2000/svg">
<path d="M15.0897 10.2C15.8897 9.6 15.8897 8.4 15.0897 7.8C14.1008 7.05836 12.6897 7.76393 12.6897 9C12.6897 10.2361 14.1008 10.9416 15.0897 10.2Z" fill="#3A3849"/>
<path fill-rule="evenodd" clip-rule="evenodd" d="M22 16C22 17.1046 21.1046 18 20 18H8C6.89543 18 6 17.1046 6 16V2C6 0.89543 6.89543 0 8 0H20C21.1046 0 22 0.89543 22 2V16ZM8 10C8 13.3137 10.6863 16 14 16C17.3137 16 20 13.3137 20 10V8C20 4.68629 17.3137 2 14 2C10.6863 2 8 4.68629 8 8V10Z" fill="#3A3849"/>
<path d="M5 13.8583C5 15.5934 3 16.7351 3 15V3C3 1.26488 5 2.4066 5 4.14172V13.8583Z" fill="#3A3849"/>
<path d="M0 14C0 15.7351 2 14.5934 2 12.8583V5.14172C2 3.40659 0 2.26488 0 4V14Z" fill="#3A3849"/>
</svg>
