<svg width="20" height="20" viewBox="0 0 20 20" fill="none" xmlns="http://www.w3.org/2000/svg">
<g id="24 / various / rocket">
<path id="icon" fill-rule="evenodd" clip-rule="evenodd" d="M5.83333 6.66671V9.58337L2.5 12.0834V16.6667H5.83333C5.83333 17.5872 6.57952 18.3334 7.5 18.3334H9.16667V19.1667H10.8333V18.3334H12.5C13.4205 18.3334 14.1667 17.5872 14.1667 16.6667H17.5V12.0834L14.1667 9.58337V6.66671C14.1667 4.03664 12.572 0.833374 10 0.833374C7.42797 0.833374 5.83333 4.03664 5.83333 6.66671ZM10.8333 16.6667H12.5V8.33337V6.66671C12.5 4.8394 11.3354 2.50004 10 2.50004C8.66457 2.50004 7.5 4.8394 7.5 6.66671V8.33337V16.6667H9.16667V11.6667H10.8333V16.6667ZM4.16667 12.9167L5.83333 11.6667V15H4.16667V12.9167ZM14.1667 15V11.6667L15.8333 12.9167V15H14.1667ZM10 9.16671C9.07952 9.16671 8.33333 8.42052 8.33333 7.50004C8.33333 6.57957 9.07952 5.83337 10 5.83337C10.9205 5.83337 11.6667 6.57957 11.6667 7.50004C11.6667 8.42052 10.9205 9.16671 10 9.16671Z" fill="white"/>
</g>
</svg>
