<svg width="24" height="24" viewBox="0 0 24 24" fill="none" xmlns="http://www.w3.org/2000/svg">
<path fill-rule="evenodd" clip-rule="evenodd" d="M8.03197 14.5538L14.5538 8.03197C14.2019 7.43645 14 6.74181 14 6C14 3.79086 15.7909 2 18 2C20.2091 2 22 3.79086 22 6C22 8.20914 20.2091 10 18 10C17.2582 10 16.5635 9.79807 15.968 9.44618L9.44618 15.968C9.79807 16.5635 10 17.2582 10 18C10 20.2091 8.20914 22 6 22C3.79086 22 2 20.2091 2 18C2 15.7909 3.79086 14 6 14C6.74181 14 7.43645 14.2019 8.03197 14.5538ZM6.0001 20C7.10467 20 8.0001 19.1045 8.0001 18C8.0001 16.8954 7.10467 16 6.0001 16C4.89553 16 4.0001 16.8954 4.0001 18C4.0001 19.1045 4.89553 20 6.0001 20ZM20.0001 5.99995C20.0001 7.10452 19.1047 7.99995 18.0001 7.99995C16.8955 7.99995 16.0001 7.10452 16.0001 5.99995C16.0001 4.89538 16.8955 3.99995 18.0001 3.99995C19.1047 3.99995 20.0001 4.89538 20.0001 5.99995Z" fill="#878FA4"/>
</svg>
