<svg width="19" height="19" viewBox="0 0 19 19" fill="none" xmlns="http://www.w3.org/2000/svg">
<path fill-rule="evenodd" clip-rule="evenodd" d="M8.01213 1.71616C8.13294 1.44434 8.40249 1.26917 8.69995 1.26917C9.49845 1.26917 10.2642 1.58637 10.8289 2.15099C11.3935 2.71562 11.7107 3.48142 11.7107 4.27992V6.53798H15.2144C15.5401 6.53497 15.8627 6.60246 16.1599 6.73586C16.4585 6.86989 16.7244 7.06725 16.9392 7.31426C17.154 7.56127 17.3125 7.85202 17.4038 8.16638C17.4951 8.48074 17.5169 8.81118 17.4678 9.13481L16.4291 15.9089C16.429 15.9091 16.4291 15.9087 16.4291 15.9089C16.3473 16.4471 16.0738 16.9383 15.659 17.2908C15.2452 17.6426 14.7186 17.8333 14.1756 17.8283H3.43113C2.83225 17.8283 2.25791 17.5904 1.83444 17.1669C1.41097 16.7435 1.17307 16.1691 1.17307 15.5702V10.3014C1.17307 9.70255 1.41097 9.1282 1.83444 8.70473C2.25791 8.28126 2.83225 8.04336 3.43113 8.04336H5.20004L8.01213 1.71616ZM6.44188 8.95578L9.15745 2.84574C9.3843 2.91812 9.59292 3.04396 9.76441 3.21546C10.0467 3.49777 10.2053 3.88067 10.2053 4.27992V7.29067C10.2053 7.70637 10.5423 8.04336 10.958 8.04336H15.2182L15.2268 8.04331C15.3359 8.04208 15.4439 8.06458 15.5435 8.10925C15.643 8.15393 15.7317 8.21972 15.8033 8.30205C15.8749 8.38439 15.9277 8.48131 15.9581 8.58609C15.9885 8.69078 15.9958 8.80082 15.9795 8.9086C15.9795 8.9085 15.9795 8.9087 15.9795 8.9086L14.9407 15.6832C14.9135 15.8627 14.8223 16.0263 14.684 16.1438C14.5457 16.2614 14.3695 16.325 14.188 16.323L6.44188 16.3229V8.95578ZM4.93651 16.3229V9.54874H3.43113C3.2315 9.54874 3.04006 9.62804 2.8989 9.76919C2.75774 9.91035 2.67844 10.1018 2.67844 10.3014V15.5702C2.67844 15.7699 2.75774 15.9613 2.8989 16.1025C3.04006 16.2436 3.2315 16.3229 3.43113 16.3229H4.93651Z" fill="white"/>
</svg>
