<svg width="24" height="25" viewBox="0 0 24 25" fill="none" xmlns="http://www.w3.org/2000/svg">
<path fill-rule="evenodd" clip-rule="evenodd" d="M20.5641 3.69769C20.3205 3.48861 20.0087 3.37624 19.6877 3.38192L19.67 3.38208H18V12.3821H19.67L19.6877 12.3822C20.0087 12.3879 20.3205 12.2755 20.5641 12.0665C20.793 11.87 20.9466 11.6009 21 11.3052V4.45894C20.9466 4.16322 20.793 3.89418 20.5641 3.69769ZM16 13.1699L12.3922 21.2875C12.0908 21.1913 11.8137 21.0241 11.5858 20.7963C11.2107 20.4212 11 19.9125 11 19.3821V15.3821C11 14.8298 10.5523 14.3821 10 14.3821H4.34003L4.32871 14.3821C4.18375 14.3838 4.04017 14.3539 3.90792 14.2945C3.77567 14.2352 3.6579 14.1478 3.56278 14.0384C3.46766 13.929 3.39745 13.8002 3.35704 13.661C3.31667 13.522 3.30698 13.3758 3.32862 13.2327C3.32859 13.2329 3.32865 13.2325 3.32862 13.2327L4.70873 4.23201C4.74489 3.99356 4.86601 3.77621 5.04977 3.62001C5.23354 3.46381 5.46756 3.37929 5.70873 3.38201L16 3.38208V13.1699ZM19.662 1.38208C20.4696 1.37014 21.2538 1.6539 21.8668 2.1801C22.4822 2.70838 22.8823 3.44426 22.991 4.24803C22.997 4.29246 23 4.33724 23 4.38208V11.3821C23 11.4269 22.997 11.4717 22.991 11.5161C22.8823 12.3199 22.4822 13.0558 21.8668 13.5841C21.2538 14.1102 20.4696 14.394 19.662 14.3821H17.6499L13.9138 22.7882C13.7533 23.1493 13.3952 23.3821 13 23.3821C11.9392 23.3821 10.9217 22.9606 10.1716 22.2105C9.42146 21.4604 9.00003 20.4429 9.00003 19.3821V16.3821H4.34514C3.91239 16.3861 3.48387 16.2964 3.089 16.1192C2.69224 15.9411 2.33893 15.6789 2.05357 15.3507C1.7682 15.0226 1.5576 14.6363 1.43634 14.2186C1.31509 13.801 1.28609 13.362 1.35135 12.932L2.73133 3.93214C2.73138 3.93184 2.73129 3.93244 2.73133 3.93214C2.83999 3.21713 3.20342 2.56453 3.75448 2.09613C4.30419 1.62887 5.00382 1.37542 5.72511 1.38208H19.662Z" fill="#8A8A8A"/>
</svg>
