<svg width="19" height="19" viewBox="0 0 19 19" fill="none" xmlns="http://www.w3.org/2000/svg">
<path fill-rule="evenodd" clip-rule="evenodd" d="M3.43067 6.5381C3.01497 6.5381 2.67798 6.87509 2.67798 7.29079V15.5704C2.67798 15.9861 3.01497 16.3231 3.43067 16.3231H15.4737C15.8894 16.3231 16.2264 15.9861 16.2264 15.5704V7.29079C16.2264 6.87509 15.8894 6.5381 15.4737 6.5381H3.43067ZM1.17261 7.29079C1.17261 6.0437 2.18358 5.03273 3.43067 5.03273H15.4737C16.7208 5.03273 17.7317 6.0437 17.7317 7.29079V15.5704C17.7317 16.8175 16.7208 17.8284 15.4737 17.8284H3.43067C2.18358 17.8284 1.17261 16.8175 1.17261 15.5704V7.29079Z" fill="white"/>
<path fill-rule="evenodd" clip-rule="evenodd" d="M5.15651 1.48974C5.45045 1.1958 5.92702 1.1958 6.22097 1.48974L9.45218 4.72095L12.6834 1.48974C12.9773 1.1958 13.4539 1.1958 13.7479 1.48974C14.0418 1.78369 14.0418 2.26026 13.7479 2.55421L9.98441 6.31765C9.69047 6.61159 9.21389 6.61159 8.91995 6.31765L5.15651 2.55421C4.86256 2.26026 4.86256 1.78369 5.15651 1.48974Z" fill="white"/>
</svg>
