<svg width="19" height="11" viewBox="0 0 19 11" fill="none" xmlns="http://www.w3.org/2000/svg">
<path d="M18.3687 0.832703C18.4967 0.441353 18.3687 0.15332 17.7532 0.15332H15.7163C15.1976 0.15332 14.959 0.400653 14.831 0.676163C14.831 0.676163 13.7936 2.96478 12.3273 4.44877C11.8536 4.87769 11.6357 5.01545 11.3764 5.01545C11.2484 5.01545 11.0513 4.87769 11.0513 4.48634V0.832703C11.0513 0.363084 10.906 0.15332 10.4772 0.15332H7.27499C6.94992 0.15332 6.75627 0.372476 6.75627 0.575978C6.75627 1.02055 7.4894 1.12387 7.56547 2.37619V5.09372C7.56547 5.68857 7.4479 5.79815 7.18854 5.79815C6.49691 5.79815 4.81625 3.50014 3.8203 0.870273C3.61973 0.359953 3.42261 0.15332 2.90043 0.15332H0.863585C0.282616 0.15332 0.165039 0.400653 0.165039 0.676163C0.165039 1.16457 0.856669 3.59094 3.38457 6.79687C5.06869 8.9853 7.44098 10.1719 9.59886 10.1719C10.8957 10.1719 11.0547 9.90888 11.0547 9.45492C11.0547 7.36354 10.9372 7.1663 11.5873 7.1663C11.8882 7.1663 12.4069 7.30406 13.6172 8.35914C15.0005 9.61146 15.2287 10.1719 16.0034 10.1719H18.0402C18.6212 10.1719 18.9151 9.90888 18.7457 9.38917C18.3584 8.29652 15.7405 6.04861 15.623 5.89833C15.3221 5.54768 15.4086 5.39114 15.623 5.07806C15.6264 5.07493 18.1128 1.90657 18.3687 0.832703Z" fill="white"/>
</svg>
