<svg width="21" height="15" viewBox="0 0 21 15" fill="none" xmlns="http://www.w3.org/2000/svg">
<path d="M20.4898 2.39238C20.2549 1.53463 19.5627 0.85909 18.6839 0.629837C17.091 0.213257 10.7034 0.213257 10.7034 0.213257C10.7034 0.213257 4.31596 0.213257 2.72298 0.629837C1.84414 0.859126 1.15199 1.53463 0.917064 2.39238C0.490234 3.9471 0.490234 7.19088 0.490234 7.19088C0.490234 7.19088 0.490234 10.4347 0.917064 11.9894C1.15199 12.8471 1.84414 13.4945 2.72298 13.7238C4.31596 14.1404 10.7034 14.1404 10.7034 14.1404C10.7034 14.1404 17.0909 14.1404 18.6839 13.7238C19.5627 13.4945 20.2549 12.8471 20.4898 11.9894C20.9167 10.4347 20.9167 7.19088 20.9167 7.19088C20.9167 7.19088 20.9167 3.9471 20.4898 2.39238ZM8.61436 10.136V4.24577L13.9531 7.19095L8.61436 10.136Z" fill="white"/>
</svg>
