<svg width="62" height="72" viewBox="0 0 62 72" fill="none" xmlns="http://www.w3.org/2000/svg">
<path d="M21.5166 57.3195C20.7549 57.5146 19.9901 57.6983 19.2322 57.9074C18.9515 57.9857 18.8476 57.9316 18.8059 57.629C18.6621 56.5777 18.4748 55.5334 18.3356 54.4824C18.293 54.1648 18.2162 54.0536 17.8647 54.0826C16.8465 54.1689 15.8197 54.1727 14.8036 54.2782C14.3303 54.3278 14.2962 54.1611 14.3235 53.7763C14.3962 52.7746 14.424 51.7697 14.497 50.7694C14.5215 50.4308 14.4392 50.2877 14.0793 50.2401C13.0481 50.1026 12.0244 49.9085 10.9925 49.7682C10.64 49.7201 10.5931 49.6129 10.6923 49.2817C10.9902 48.2832 11.2328 47.2709 11.5257 46.2708C11.618 45.9535 11.5454 45.8183 11.2371 45.7084C10.308 45.3753 9.40061 44.9757 8.46245 44.6707C7.93785 44.5006 7.95043 44.2986 8.18666 43.8791C8.66044 43.0337 9.06467 42.1492 9.53306 41.3007C9.71263 40.9752 9.63079 40.8394 9.34546 40.6628C8.48844 40.1345 7.66426 39.5534 6.79829 39.0427C6.40406 38.8103 6.45301 38.6593 6.70938 38.3602C7.37395 37.5818 7.99887 36.7686 8.65767 35.9858C8.85301 35.7531 8.84897 35.6192 8.62698 35.4074C7.90001 34.7139 7.22117 33.9681 6.47471 33.298C6.08089 32.9427 6.17539 32.7749 6.53412 32.5014C7.30314 31.9149 8.03473 31.2793 8.80119 30.6889C9.08906 30.4677 9.14386 30.3045 8.92183 29.9851C8.33909 29.1453 7.81147 28.268 7.23258 27.4257C7.02945 27.1315 7.07091 27.0204 7.38518 26.8695C8.3065 26.427 9.20607 25.9374 10.1259 25.4893C10.4436 25.3345 10.5416 25.2021 10.3819 24.8326C9.96945 23.876 9.63174 22.8872 9.23587 21.9246C9.10552 21.6079 9.20106 21.5231 9.49213 21.4497C10.5029 21.194 11.5045 20.8984 12.5183 20.654C12.8656 20.57 12.9469 20.4209 12.8878 20.0927C12.7137 19.1207 12.5744 18.1424 12.3915 17.1712C12.3127 16.7527 12.3599 16.5612 12.8636 16.5627C13.7934 16.5652 14.724 16.4629 15.6548 16.4575C16.1271 16.4552 16.3292 16.3496 16.3297 15.825C16.3294 14.8397 16.4223 13.8568 16.4522 12.8711C16.4617 12.5275 16.5654 12.4451 16.9082 12.5079C17.8964 12.6888 18.8937 12.8126 19.8803 12.9985C20.2729 13.0722 20.4501 13.0035 20.5475 12.5863C20.7793 11.5904 21.0775 10.6101 21.3222 9.61684C21.3994 9.30513 21.4998 9.25549 21.7962 9.37765C22.7093 9.75298 23.6445 10.0754 24.5528 10.4611C24.9771 10.6415 25.2009 10.6285 25.4093 10.1558C25.8086 9.25297 26.3013 8.39335 26.7228 7.49977C26.871 7.18721 26.9835 7.14341 27.2727 7.34028C28.135 7.92778 29.0264 8.4711 29.8827 9.06474C30.1824 9.27245 30.3307 9.22058 30.5393 8.95247C31.1801 8.13049 31.8575 7.33809 32.4961 6.51366C32.6998 6.24989 32.8152 6.26749 33.0306 6.48869C33.7556 7.23726 34.5079 7.95731 35.2267 8.7106C35.4624 8.95667 35.6095 8.98545 35.8823 8.7532C36.6592 8.08876 37.4778 7.47227 38.253 6.80679C38.567 6.5362 38.7051 6.59923 38.9045 6.92476C39.4293 7.78005 40.0089 8.60245 40.5246 9.46323C40.727 9.80007 40.9005 9.8142 41.2135 9.64698C42.1308 9.15562 43.0708 8.70367 43.9818 8.20034C44.2975 8.02633 44.3666 8.12603 44.4694 8.40773C44.8321 9.40497 45.2347 10.387 45.5903 11.3861C45.6958 11.6838 45.8171 11.7346 46.1059 11.6527C47.1087 11.3673 48.1239 11.1226 49.1244 10.8287C49.4885 10.7221 49.5991 10.8183 49.648 11.1705C49.7845 12.1662 49.9652 13.1576 50.0956 14.1534C50.1477 14.5457 50.297 14.6618 50.6932 14.63C51.6949 14.5495 52.7016 14.539 53.7017 14.4529C54.0812 14.421 54.1681 14.5189 54.14 14.8781C54.0628 15.8796 54.0317 16.8838 53.9466 17.8843C53.915 18.2642 53.992 18.427 54.4027 18.4776C55.4174 18.6044 56.4219 18.8006 57.4346 18.937C57.7853 18.984 57.8508 19.0983 57.7554 19.427C57.4654 20.4264 57.2185 21.4399 56.9221 22.4379C56.8283 22.7556 56.8855 22.8843 57.1961 22.9966C58.1423 23.3373 59.0678 23.7366 60.0204 24.0558C60.4965 24.2147 60.4974 24.3934 60.2795 24.7852C59.8 25.6489 59.3861 26.548 58.9066 27.4117C58.7256 27.7376 58.8138 27.8686 59.0951 28.0418C59.982 28.5909 60.8453 29.1766 61.7322 29.7257C62.0099 29.8968 62.0105 30.0119 61.8078 30.2511C61.1476 31.0343 60.5338 31.8552 59.8595 32.6255C59.5682 32.9582 59.632 33.1397 59.9199 33.4112C60.6378 34.0874 61.3144 34.808 62.0346 35.4821C62.3338 35.7612 62.2901 35.9093 61.9914 36.1409C61.198 36.7552 60.4373 37.4123 59.6421 38.0255C59.358 38.2441 59.2896 38.3959 59.5155 38.7188C60.1007 39.5564 60.6361 40.4286 61.2058 41.2764C61.3941 41.5549 61.4329 41.7051 61.06 41.8748C60.163 42.2834 59.304 42.7773 58.4029 43.1764C57.9463 43.3791 57.9411 43.6139 58.1065 44.0107C58.4722 44.8889 58.7913 45.7857 59.1552 46.6629C59.3095 47.0353 59.2655 47.2048 58.8352 47.3019C58.1234 47.4623 57.4268 47.6914 56.7241 47.8918C56.4761 47.9507 56.2292 48.0305 55.9776 48.0645C55.5698 48.1208 55.5037 48.3098 55.5806 48.7045C55.7716 49.6886 55.8861 50.6872 56.0681 51.6722C56.1365 52.0404 56.0032 52.1201 55.6866 52.1322C54.9771 52.1601 54.2676 52.2107 53.5575 52.2419C52.086 52.3057 52.0853 52.3029 52.1119 53.76C52.0774 54.5196 52.0444 55.2788 52.0099 56.0384C51.9658 56.179 51.8773 56.2618 51.7227 56.2563C51.372 56.1805 51.0266 56.0457 50.6575 56.1446C49.8652 56.1068 49.1369 55.7365 48.341 55.6966C48.1107 55.6856 47.9768 55.6669 47.9108 55.9468C47.671 56.9751 47.3873 57.9925 47.1567 59.0214C47.0648 59.431 46.9019 59.4565 46.5542 59.3071C45.9016 59.0272 45.2323 58.7866 44.5692 58.5293C43.2293 58.0091 43.2293 58.0091 42.6677 59.3359C42.6476 59.3853 42.6464 59.4432 42.6363 59.4959C42.2355 60.0368 41.9947 60.6652 41.6946 61.2595C41.5626 61.5192 41.4645 61.5607 41.2167 61.3936C40.663 61.019 40.0876 60.676 39.5226 60.3211C39.2125 60.001 38.7824 59.8555 38.4423 59.5874C38.1734 59.376 38.0117 59.5421 37.9072 59.7065C37.3736 60.5377 36.6826 61.2458 36.0989 62.0373C36.0009 62.1697 35.8002 62.269 35.8782 62.4921L35.8823 62.4849C35.6193 62.4766 35.4755 62.2847 35.3114 62.1195C34.5882 61.3947 33.8615 60.6738 33.1411 59.9483C32.9189 59.7244 32.7636 59.7387 32.5159 59.9627C32.0121 60.419 31.6036 60.9878 30.9749 61.3003C30.6392 61.5297 30.3039 61.7605 30.0375 62.0729C29.9061 62.1369 29.7806 62.172 29.6867 62.0138C29.2643 61.3766 28.8419 60.7395 28.4178 60.1013C28.2402 59.8063 28.0436 59.5194 27.8886 59.2123C27.7335 58.9052 27.5731 58.9118 27.2883 59.0654C26.3739 59.556 25.4374 60.004 24.5174 60.4855C24.2435 60.6286 24.1031 60.6025 23.9911 60.2975C23.7015 59.5111 23.3764 58.7388 23.084 57.9531C22.6557 56.8128 22.6523 56.806 21.5166 57.3195ZM12.8672 39.9404C15.9037 51.6915 28.0078 58.9727 40.0684 55.6486C51.786 52.4194 58.7887 40.3733 55.5284 28.664C52.084 16.2961 39.7893 9.94371 28.4705 13.0266C16.2024 16.3684 9.81442 28.9319 12.8672 39.9404Z" fill="#C7233C"/>
<path d="M30.9719 61.3004C31.6006 60.9879 32.0091 60.4191 32.5128 59.9628C32.7605 59.7388 32.9159 59.7245 33.1381 59.9484C33.8588 60.6754 34.587 61.3958 35.3084 62.1196C35.4724 62.2848 35.6177 62.4763 35.8793 62.485C35.6218 63.459 34.905 63.6632 33.9487 63.5056C34.2551 63.9192 34.6298 64.2144 34.6922 64.566C34.7581 64.9364 34.5258 65.3594 34.3889 65.9009C35.2697 65.245 36.006 65.3963 36.7041 66.1233C36.4079 65.1083 36.7889 64.4711 37.7308 64.049C37.4458 63.9586 37.2962 63.8865 37.1402 63.8646C36.6212 63.7945 36.2828 63.5668 36.198 63.0014C36.1716 62.8236 36.1696 62.5391 35.8737 62.4926C35.7957 62.2694 35.9965 62.1702 36.0944 62.0378C36.6767 61.2467 37.3681 60.54 37.9028 59.707C38.0077 59.544 38.169 59.3765 38.4378 59.5879C38.778 59.856 39.208 60.0015 39.5181 60.3216C38.7362 66.6187 37.9542 72.9158 37.1708 79.2133C37.0438 80.2387 36.9133 81.262 36.7729 82.3728C35.5888 81.529 34.4762 80.7372 33.365 79.9451C31.8757 78.8844 30.383 77.8276 28.9003 76.7576C28.6544 76.581 28.4676 76.5401 28.1634 76.661C25.3961 77.7663 22.6187 78.8455 19.8433 79.9317C19.6414 80.0101 19.4344 80.0746 19.1431 80.1754C19.9375 72.5047 20.725 64.91 21.5111 57.3158C22.6468 56.8023 22.6515 56.8086 23.0756 57.9501C23.368 58.7358 23.6932 59.5081 23.9827 60.2945C24.0947 60.5995 24.2355 60.627 24.509 60.4824C25.429 60.001 26.3655 59.553 27.2799 59.0624C27.5637 58.9106 27.7251 58.9022 27.8802 59.2093C28.0352 59.5164 28.2318 59.8033 28.4094 60.0983C28.2013 60.1025 28.2695 60.2267 28.3477 60.2922C29.0287 60.8539 29.023 61.5285 28.6895 62.2636C28.6847 62.274 28.7028 62.2964 28.7301 62.3588C29.0422 62.2449 29.3595 62.128 29.6768 62.0112C29.7708 62.1694 29.8963 62.1343 30.0277 62.0703C30.3055 62.2641 30.5819 62.4584 30.8949 62.6762C31.0103 62.1905 30.7998 61.733 30.9719 61.3004ZM35.1732 68.5223C34.8196 69.522 34.0949 69.7253 33.1586 69.6366C33.9598 70.2678 34.0419 70.987 33.5909 71.8779C34.4524 71.303 35.1686 71.5037 35.8829 72.1611C35.59 71.1528 35.9891 70.532 36.8689 70.0931C35.8984 69.9954 35.2867 69.5682 35.1732 68.5223ZM24.169 66.9355C23.8279 67.9819 23.1616 68.3014 22.181 68.1488C23.0043 68.7892 23.0303 69.531 22.6063 70.3359C23.0787 70.2093 23.4819 69.983 23.8422 70.0381C24.1948 70.0921 24.5042 70.4322 24.9854 70.7458C24.636 69.6965 24.9888 69.0502 25.9395 68.6439C25.4299 68.4788 24.9864 68.4415 24.6927 68.211C24.391 67.9735 24.4027 67.4853 24.169 66.9355ZM27.1768 71.7003C27.9698 72.3518 28.0259 73.0871 27.6052 73.9835C28.4874 73.2878 29.1878 73.6671 29.9028 74.2198C29.5891 73.2185 30.0286 72.6187 30.8643 72.1507C29.8363 72.1215 29.3603 71.5502 29.1791 70.5968C28.8006 71.5319 28.1504 71.8547 27.1768 71.7003ZM25.3266 64.8745C25.0318 63.8591 25.4767 63.2624 26.3056 62.7917C25.27 62.7736 24.8174 62.1764 24.611 61.2419C24.2685 62.2325 23.5568 62.4444 22.5917 62.2877C22.9119 62.7249 23.2795 63.022 23.3412 63.3708C23.4044 63.7313 23.1695 64.1444 23.0279 64.6795C23.9116 64.0683 24.6274 64.1827 25.3266 64.8745ZM30.5421 68.6233C30.2877 67.6228 30.6658 66.9804 31.539 66.5281C30.5244 66.4756 30.0084 65.9469 29.8507 64.9568C29.4747 65.9125 28.8012 66.2218 27.8104 66.0826C28.7432 66.724 28.6361 67.4954 28.2566 68.3474C29.1061 67.7954 29.8365 67.8908 30.5421 68.6233ZM24.1898 76.2796C23.972 75.3254 24.2475 74.6392 25.1888 74.2035C24.1781 74.1257 23.6427 73.6325 23.5322 72.6147C23.1228 73.5475 22.4636 73.9105 21.4652 73.7203C22.32 74.3644 22.3347 75.1153 21.939 75.9974C22.7908 75.4312 23.5002 75.5503 24.1898 76.2796ZM32.7117 74.7798C33.5122 75.4309 33.5327 76.1469 33.1325 76.9954C33.9908 76.482 34.7133 76.6325 35.3998 77.305C35.1523 76.3193 35.5045 75.6762 36.3788 75.2221C35.3575 75.1729 34.8545 74.6362 34.7055 73.6559C34.3144 74.5611 33.6968 74.9433 32.7117 74.7798Z" fill="#407BC6"/>
<path d="M52.1112 53.7618C52.0845 52.3046 52.0853 52.3075 53.5567 52.2436C54.2669 52.2125 54.9764 52.1619 55.6859 52.134C56.0025 52.1219 56.1354 52.0408 56.0674 51.674C55.8836 50.6879 55.7705 49.689 55.5799 48.7062C55.5034 48.3129 55.569 48.1225 55.9769 48.0663C56.2285 48.0322 56.474 47.9528 56.7234 47.8936C59.3499 51.5296 61.9736 55.1664 64.6026 58.8003C66.3553 61.2229 68.1143 63.6408 69.8683 66.063C69.9621 66.1924 70.0444 66.3296 70.1715 66.5214C68.8726 66.7254 67.6314 66.9246 66.3876 67.1139C64.436 67.4109 62.4851 67.7108 60.5295 67.9817C60.1993 68.0277 60.1153 68.2291 60.0112 68.4571C58.7442 71.2356 57.4803 74.0147 56.2133 76.7932C56.1544 76.9242 56.0834 77.0493 55.9992 77.2159C51.5277 71.2881 47.082 65.3943 42.636 59.4991C42.6457 59.4449 42.6454 59.3874 42.6674 59.3391C43.2289 58.0123 43.2289 58.0123 44.5689 58.5325C45.232 58.7898 45.9009 59.029 46.5538 59.3103C46.9016 59.4596 47.0631 59.4346 47.1564 59.0245C47.3884 57.9953 47.6721 56.9779 47.9105 55.95C47.9765 55.67 48.1103 55.6887 48.3407 55.6998C49.1366 55.7397 49.8645 56.1085 50.6571 56.1478C50.8346 56.4989 51.0106 56.8504 51.2002 57.224C51.4805 56.9352 51.5188 56.552 51.7238 56.2591C51.8784 56.2647 51.9669 56.1818 52.0114 56.0426C52.3269 55.9868 52.642 55.9297 53.1863 55.8339C52.1828 55.3358 52.0226 54.642 52.2767 53.8023C52.3007 53.711 52.1755 53.7415 52.1112 53.7618ZM49.0101 59.5162C48.2249 60.2631 47.4796 60.0839 46.6809 59.5809C47.2126 60.5299 46.8162 61.1833 46.0868 61.8047C47.1315 61.6415 47.6354 62.2098 47.9908 63.0665C48.2062 62.0659 48.7964 61.6547 49.8051 61.7027C48.9395 61.1707 48.6796 60.4778 49.0101 59.5162ZM56.4965 70.7222C55.6303 70.2161 55.4308 69.5283 55.7272 68.5636C54.9605 69.3511 54.2211 69.143 53.4134 68.6576C53.9388 69.634 53.5056 70.2745 52.7684 70.8723C53.7939 70.7339 54.3854 71.1651 54.6924 72.1636C54.8888 71.1257 55.528 70.7452 56.4965 70.7222ZM58.2595 52.7889C57.4968 53.3935 56.7583 53.4716 55.944 52.8424C56.4322 53.8273 56.04 54.4796 55.281 55.0862C56.3633 54.8826 56.8695 55.4594 57.218 56.3528C57.412 55.3398 58.0578 54.9666 59.0134 54.9182C58.122 54.4143 57.9574 53.7096 58.2595 52.7889ZM65.6821 64.2546C64.8098 63.7258 64.5973 63.0233 64.991 62.0599C64.4947 62.3066 64.1426 62.6162 63.7847 62.6211C63.4133 62.6266 63.0358 62.3382 62.5533 62.1325C62.9798 63.0626 62.8073 63.7652 61.968 64.3327C62.9489 64.2881 63.5801 64.6692 63.8626 65.6728C64.0727 64.6464 64.6732 64.2172 65.6821 64.2546ZM52.637 60.8893C53.6471 60.8006 54.2377 61.2456 54.5604 62.1839C54.7671 61.1735 55.3876 60.7905 56.415 60.8517C56.0315 60.4724 55.6234 60.2392 55.5016 59.9035C55.3775 59.5593 55.5341 59.1141 55.5716 58.6599C55.1498 58.8624 54.7945 59.1653 54.4362 59.1688C54.0796 59.1734 53.7184 58.8776 53.2227 58.6511C53.6827 59.6269 53.4669 60.3319 52.637 60.8893ZM62.2775 59.7401C61.3808 59.2392 61.2343 58.5281 61.5171 57.6034C60.7525 58.2464 60.0167 58.2495 59.227 57.588C59.308 58.1393 59.4972 58.5736 59.3882 58.9136C59.277 59.2678 58.879 59.5306 58.5857 59.8562C59.0334 59.9258 59.5077 59.8744 59.8038 60.0801C60.1067 60.2884 60.2349 60.7498 60.515 61.2295C60.6985 60.1829 61.2858 59.7557 62.2775 59.7401ZM59.0534 63.2082C58.4998 63.3369 58.2086 63.7666 57.82 63.7191C57.4488 63.6746 57.1045 63.4136 56.5683 63.1662C57.1521 64.1906 56.7931 64.8537 56.0303 65.4295C57.0258 65.3659 57.6478 65.7692 57.8827 66.7931C58.1423 66.3021 58.2501 65.8503 58.5358 65.6267C58.8274 65.397 59.294 65.3902 59.7805 65.2599C58.8834 64.7969 58.6696 64.1236 59.0534 63.2082ZM51.7591 68.0049C51.9118 66.9514 52.5477 66.5582 53.5052 66.4942C52.619 65.9813 52.4805 65.2832 52.7565 64.3786C52.0021 64.9915 51.265 65.0465 50.4591 64.4318C50.8987 65.3993 50.5688 66.0744 49.7386 66.6136C50.2667 66.695 50.7396 66.644 51.0357 66.8497C51.3408 67.0605 51.4732 67.5207 51.7591 68.0049Z" fill="#407BC6"/>
<path d="M12.8682 39.9401C9.81678 28.9312 16.2044 16.3662 28.47 13.0266C39.7888 9.94372 52.085 16.2957 55.5279 28.664C58.7882 40.3734 51.7874 52.4205 40.0679 55.6486C28.0087 58.9723 15.9047 51.6912 12.8682 39.9401ZM14.4708 39.6304C17.4318 50.6074 28.6116 57.0418 39.5977 54.092C50.4339 51.1824 56.9071 39.9042 53.9734 29.0457C51.0293 18.149 39.8044 11.6539 28.9792 14.5818C18.0055 17.5495 11.5303 28.7297 14.4708 39.6304Z" fill="#FEFEFE"/>
<path d="M29.6839 62.0155C29.3665 62.1324 29.0492 62.2492 28.7372 62.3632C28.7094 62.2993 28.6917 62.2783 28.6965 62.2679C29.03 61.5328 29.0361 60.8597 28.3547 60.2965C28.2765 60.231 28.2073 60.1086 28.4164 60.1026C28.8374 60.7401 29.2601 61.3787 29.6839 62.0155Z" fill="#FEFEFE"/>
<path d="M52.1104 53.7616C52.1757 53.7395 52.2995 53.7094 52.2733 53.7983C52.0197 54.6393 52.1794 55.3317 53.183 55.8298C52.6391 55.927 52.3236 55.9828 52.008 56.0385C52.0415 55.2807 52.0759 54.5212 52.1104 53.7616Z" fill="#FEFEFE"/>
<path d="M30.973 61.3009C30.8009 61.7336 31.0114 62.191 30.9013 62.6798C30.5883 62.462 30.3119 62.2678 30.0341 62.0739C30.3024 61.7626 30.6359 61.5307 30.973 61.3009Z" fill="#FEFEFE"/>
<path d="M51.7207 56.2578C51.5172 56.5503 51.4785 56.9321 51.1971 57.2227C51.0093 56.8501 50.8315 56.4976 50.654 56.1465C51.0246 56.0472 51.37 56.182 51.7207 56.2578Z" fill="#FEFEFE"/>
<path d="M35.8779 62.4945C36.1728 62.5428 36.1748 62.8273 36.2022 63.0033C36.287 63.5688 36.6254 63.7964 37.1445 63.8665C37.3 63.887 37.4497 63.9591 37.735 64.0509C36.7931 64.473 36.4121 65.1102 36.7083 66.1253C36.0106 65.3997 35.2725 65.2473 34.3931 65.9028C34.5314 65.361 34.7623 64.9384 34.6964 64.568C34.634 64.2163 34.2593 63.9211 33.9529 63.5075C34.9088 63.6637 35.6275 63.4605 35.8835 62.487C35.8821 62.4874 35.8779 62.4945 35.8779 62.4945Z" fill="#FEFEFE"/>
<path d="M35.173 68.5228C35.2865 69.5687 35.8978 69.9945 36.8673 70.094C35.9875 70.5329 35.5881 71.1522 35.8814 72.162C35.1671 71.5045 34.4509 71.3038 33.5893 71.8788C34.0403 70.9879 33.9583 70.2686 33.157 69.6375C34.0951 69.7272 34.8208 69.5222 35.173 68.5228Z" fill="#FEFEFE"/>
<path d="M24.1689 66.9356C24.4026 67.4854 24.391 67.9736 24.694 68.2107C24.9887 68.4395 25.4312 68.4786 25.9408 68.6437C24.9887 69.0504 24.6363 69.6981 24.9867 70.7456C24.5051 70.4305 24.1957 70.0905 23.8436 70.0378C23.4832 69.9828 23.08 70.2091 22.6076 70.3356C23.0306 69.5326 23.0043 68.7893 22.1823 68.1486C23.1598 68.3005 23.8274 67.9806 24.1689 66.9356Z" fill="#FEFEFE"/>
<path d="M27.1779 71.7009C28.1515 71.8553 28.8032 71.5322 29.1802 70.5974C29.3614 71.5508 29.8374 72.1221 30.8654 72.1513C30.0297 72.6193 29.5902 73.2191 29.9039 74.2204C29.1889 73.6677 28.4885 73.2884 27.6063 73.9841C28.0256 73.0881 27.9709 72.3524 27.1779 71.7009Z" fill="#FEFEFE"/>
<path d="M25.3263 64.8743C24.6271 64.1825 23.9113 64.0681 23.0276 64.6793C23.1696 64.1456 23.4045 63.7325 23.3409 63.3706C23.2789 63.0203 22.9116 62.7246 22.5914 62.2875C23.5565 62.4442 24.2682 62.2323 24.6106 61.2416C24.8185 62.1758 25.2697 62.7734 26.3053 62.7915C25.475 63.2626 25.0315 63.8589 25.3263 64.8743Z" fill="#FEFEFE"/>
<path d="M30.5429 68.6237C29.8373 67.8912 29.1069 67.7958 28.2588 68.3475C28.6387 67.4968 28.7458 66.7254 27.8126 66.0826C28.8037 66.2233 29.4769 65.9125 29.8529 64.9569C30.0106 65.9469 30.5266 66.4756 31.5412 66.5281C30.6665 66.9808 30.2884 67.6232 30.5429 68.6237Z" fill="#FEFEFE"/>
<path d="M49.0104 59.5155C48.6799 60.4771 48.9398 61.17 49.8061 61.6988C48.7977 61.6522 48.2076 62.0635 47.9918 63.0626C47.6364 62.2059 47.1314 61.6394 46.0878 61.8008C46.8157 61.1798 47.2136 60.526 46.6819 59.577C47.4799 60.0832 48.2252 60.2625 49.0104 59.5155Z" fill="#FEFEFE"/>
<path d="M56.4967 70.7216C55.5296 70.7443 54.8889 71.1252 54.694 72.1627C54.387 71.1642 53.7955 70.733 52.77 70.8714C53.5076 70.2751 53.939 69.6335 53.415 68.6567C54.2226 69.1421 54.962 69.3502 55.7287 68.5627C55.431 69.5277 55.6308 70.217 56.4967 70.7216Z" fill="#FEFEFE"/>
<path d="M58.2603 52.7877C57.9583 53.7084 58.1225 54.4117 59.0143 54.917C58.0586 54.9654 57.4124 55.3371 57.2189 56.3515C56.8689 55.4585 56.3641 54.8813 55.2818 55.0849C56.0409 54.4783 56.4327 53.8246 55.9448 52.8412C56.7606 53.4699 57.4976 53.3922 58.2603 52.7877Z" fill="#FEFEFE"/>
<path d="M65.6817 64.2536C64.6728 64.2162 64.0723 64.6454 63.8641 65.6729C63.5815 64.6693 62.9504 64.2882 61.9694 64.3327C62.8084 63.7638 62.9813 63.0627 62.5547 62.1326C63.0373 62.3383 63.4133 62.6271 63.7861 62.6212C64.1426 62.6166 64.4947 62.307 64.9924 62.06C64.5983 63.022 64.8094 63.7249 65.6817 64.2536Z" fill="#FEFEFE"/>
<path d="M52.6374 60.8885C53.4687 60.3308 53.6845 59.6257 53.2227 58.649C53.7184 58.8754 54.0796 59.1712 54.4362 59.1666C54.7945 59.1631 55.1498 58.8602 55.5716 58.6578C55.5341 59.1119 55.3775 59.5571 55.5016 59.9013C55.6234 60.237 56.0301 60.4706 56.415 60.8495C55.388 60.7897 54.7675 61.1727 54.5604 62.1817C54.2367 61.2452 53.6475 60.7998 52.6374 60.8885Z" fill="#FEFEFE"/>
<path d="M62.2776 59.74C61.2862 59.7571 60.6985 60.1829 60.5179 61.2287C60.2374 60.7475 60.1082 60.288 59.8067 60.0792C59.5092 59.874 59.0362 59.9249 58.5886 59.8554C58.8818 59.5297 59.278 59.2659 59.3911 58.9128C59.4983 58.5718 59.3109 58.1384 59.2299 57.5872C60.0199 58.2501 60.7558 58.2469 61.5199 57.6026C61.2343 58.528 61.3809 59.2391 62.2776 59.74Z" fill="#FEFEFE"/>
<path d="M59.0536 63.2079C58.6698 64.1233 58.8832 64.7952 59.7821 65.2592C59.2956 65.3896 58.829 65.3963 58.5373 65.6261C58.252 65.8511 58.1438 66.3015 57.8843 66.7924C57.6493 65.7685 57.026 65.3656 56.0319 65.4288C56.7947 64.8531 57.1532 64.1886 56.5699 63.1655C57.1051 63.4147 57.4504 63.6739 57.8215 63.7184C58.2092 63.7677 58.4999 63.3366 59.0536 63.2079Z" fill="#FEFEFE"/>
<path d="M51.7589 68.0051C51.473 67.5208 51.3406 67.0606 51.0369 66.8494C50.7412 66.6452 50.2682 66.6961 49.7398 66.6134C50.57 66.0741 50.8999 65.3991 50.4603 64.4315C51.2662 65.0463 52.0033 64.9913 52.7577 64.3783C52.4802 65.2833 52.6188 65.9814 53.5064 66.4939C52.5475 66.5583 51.9116 66.9515 51.7589 68.0051Z" fill="#FEFEFE"/>
<path d="M14.47 39.6298C11.5295 28.7291 18.0047 17.5489 28.9798 14.5809C39.805 11.653 51.03 18.148 53.974 29.0447C56.9074 39.9018 50.4331 51.1818 39.5984 54.091C28.6108 57.0412 17.431 50.6068 14.47 39.6298ZM52.6672 29.6268C49.9644 19.3476 39.5642 13.1924 29.3722 15.9097C19.2619 18.6036 13.3116 28.7897 15.6461 38.6674C18.1242 49.1493 28.5973 55.5821 39.1079 52.787C49.5532 50.0079 55.2362 39.4068 52.6672 29.6268Z" fill="#407BC6"/>
<path d="M52.6679 29.6274C55.2369 39.4074 49.5525 50.0089 39.1084 52.7862C28.5977 55.5813 18.1232 49.1489 15.6465 38.6666C13.312 28.7889 19.2627 18.6042 29.3727 15.9089C39.565 13.193 49.9666 19.3478 52.6679 29.6274ZM38.9506 51.9993C48.6339 49.3864 54.486 39.36 51.8912 29.7552C49.2085 19.8223 39.2957 14.0777 29.53 16.6944C19.5749 19.3619 14.145 29.2782 16.4385 38.5787C19.0281 49.0807 29.4303 54.576 38.9506 51.9993Z" fill="#C7233C"/>
<path d="M38.9492 51.9991C29.4304 54.5754 19.0268 49.0805 16.4371 38.5785C14.1436 29.278 19.5749 19.3613 29.5287 16.6942C39.2944 14.0775 49.2068 19.8207 51.8899 29.755C54.4847 39.3598 48.6326 49.3862 38.9492 51.9991ZM29.7094 35.3299C30.3006 37.7909 32.8854 39.325 35.3959 38.7039C37.8208 38.1026 39.366 35.5589 38.7337 33.0407C38.0986 30.5066 35.564 29.0636 33.1036 29.6683C30.6029 30.2808 29.0983 32.7834 29.7094 35.3299Z" fill="#00377C"/>
<path d="M28.3906 35.377C27.6515 32.2963 29.474 29.265 32.5046 28.5208C35.4867 27.7878 38.558 29.5335 39.3266 32.6009C40.0919 35.6489 38.2181 38.7288 35.2789 39.4576C32.2381 40.2119 29.1061 38.3558 28.3906 35.377ZM35.3233 33.0405C35.5573 32.5907 35.7897 32.1413 35.6998 31.6002C35.4915 30.3497 34.4554 29.6439 33.107 29.8639C32.123 30.0248 31.3325 30.4825 31.0604 31.4966C30.8067 32.449 31.094 33.2472 31.9925 33.7477C32.3188 33.93 32.0708 34.0606 31.971 34.1956C31.5963 34.7034 31.4487 35.2566 31.5847 35.8807C31.846 37.0822 32.8293 37.8719 34.0603 37.865C35.4251 37.8571 36.64 36.9811 36.9117 35.8074C37.192 34.6113 36.6609 33.6784 35.3233 33.0405Z" fill="#E5E5E5"/>
<path d="M32.5176 37.3834C32.4651 36.8582 32.3825 36.3918 32.383 35.9253C32.3825 35.493 32.1994 35.2588 31.8194 35.0876C31.4298 34.9122 31.0643 34.6811 30.7005 34.4563C30.2721 34.1929 30.2806 33.9464 30.7287 33.7263C31.1122 33.5371 31.494 33.3228 31.9026 33.2082C32.3804 33.0734 32.5373 32.7668 32.5979 32.3283C32.6543 31.9248 32.7298 31.523 32.8277 31.1287C32.9504 30.6312 33.2748 30.5188 33.5238 30.9354C34.2707 32.1786 35.2931 32.5067 36.66 32.1523C37.1613 32.023 37.3644 32.3316 37.0463 32.7204C36.1528 33.8162 36.0271 34.898 36.8875 36.0582C36.9964 36.2053 37.0294 36.3916 36.8829 36.5665C36.7477 36.7265 36.5744 36.7 36.4343 36.6392C35.1025 36.0616 34.0334 36.3819 33.1514 37.5205C32.8806 37.8645 32.6197 37.7326 32.5176 37.3834ZM33.2147 31.6746C33.4275 33.1015 32.2824 33.3473 31.4035 33.8202C32.9778 33.7461 33.7074 33.1842 33.2147 31.6746Z" fill="#457AC1"/>
</svg>
