<svg width="53" height="66" viewBox="0 0 53 66" fill="none" xmlns="http://www.w3.org/2000/svg">
<path d="M47.5481 74.0596C47.5599 71.1408 48.1681 68.3526 49.3886 65.7004C50.2316 63.8683 51.1701 62.0904 52.3202 60.4269C52.4509 60.2379 52.8269 60.0235 52.5385 59.7218C52.299 59.4714 51.9311 59.5051 51.6505 59.6313C50.8251 60.0029 50.0401 60.4671 49.2049 60.8118C47.9892 61.3135 46.6551 61.1971 46.1945 59.6358C46.2305 59.3349 46.2663 59.0339 46.302 58.7327C46.68 58.2414 47.0138 57.7068 47.4437 57.266C49.141 55.5278 51.3639 54.7302 53.5747 53.9204C53.6962 57.704 53.6412 61.4843 53.4167 65.2638C53.2646 67.825 53.1613 70.389 53.0365 72.9516C51.887 75.4121 50.9261 75.4227 48.2477 72.704C48.0271 73.1643 47.9295 73.6861 47.5481 74.0596Z" fill="#C7243C"/>
<path d="M46.3032 58.7329C46.2674 59.0341 46.2317 59.3353 46.1957 59.636C45.5746 64.5962 44.9535 69.557 44.3181 74.6331C43.6978 74.2518 43.2719 73.7851 42.9907 73.2552C42.5564 72.4362 42.2281 72.647 41.7538 73.2039C41.2128 73.839 40.5842 74.3987 40.0267 75.0209C39.6817 75.4058 39.4522 75.4083 39.1552 74.9704C38.6282 74.1932 38.0637 73.4409 37.5085 72.683C37.3376 72.4496 37.2452 72.2296 37.3092 71.9164C38.2203 67.4542 39.1172 62.9889 40.0175 58.5244C41.0869 58.8401 42.136 58.9074 43.1144 58.2438C43.3634 58.0749 43.7478 57.9767 43.7096 57.5923C43.6629 57.1244 43.2294 57.3129 42.9584 57.2392C41.6564 56.8852 40.7338 56.4212 41.0361 54.801C41.0797 54.5668 41.0786 54.3092 40.8577 54.1283C41.2832 51.3488 41.7223 48.5712 42.1307 45.7892C42.9997 39.8697 42.8794 33.9327 42.4143 27.991C42.3546 27.2283 42.2943 26.466 42.2342 25.7033C42.3417 25.1788 42.2496 24.6816 42.0285 24.202C42.1829 22.9545 41.4666 22.4693 40.3743 22.3203C39.9957 22.2686 39.6158 22.2217 39.235 22.1955C38.9774 22.1776 38.8571 22.3245 38.8855 22.5849C37.2838 22.2 35.6264 22.3563 34.014 22.0911C31.5673 21.6888 29.2997 21.006 27.4381 19.1413C26.3566 18.0579 25.0714 17.1649 24.0835 15.6136C24.0369 16.4045 24.0089 16.8813 23.9701 17.5401C23.1838 16.5926 22.7586 15.6898 22.403 14.7463C21.9234 13.4739 21.3132 12.2822 20.5181 11.1625C19.7678 10.1054 18.8385 9.7693 17.6311 10.0359C16.2773 10.3349 14.9273 10.6514 13.5756 10.9602C12.2586 6.83038 14.1917 4.99244 16.8925 3.49758C20.0813 1.73278 23.6142 1.05276 27.1812 0.585461C32.5273 -0.114653 37.9018 -0.176904 43.2562 0.34539C48.6581 0.87243 53.689 2.53143 57.8322 6.22295C60.9735 9.02173 63.2271 12.491 65.0589 16.2495C65.2096 16.5591 65.3623 16.8676 65.5139 17.1766C65.4946 17.4532 65.4781 17.729 65.7573 17.9058L65.7534 17.896C66.0378 18.8895 66.3284 19.8813 66.6037 20.8776C66.7288 21.3301 67.0629 21.9362 66.6017 22.2103C66.1635 22.4713 65.7478 21.8993 65.3698 21.621C63.8105 20.4723 62.4563 19.0857 61.0569 17.7285C60.6083 18.4593 61.5175 19.5327 60.3175 19.9285C60.3032 19.9332 60.3571 20.1842 60.3998 20.3134C60.519 20.6758 60.6488 21.0345 60.7744 21.3946C60.8261 22.6399 60.9352 23.8863 60.916 25.1305C60.8864 27.0513 60.4674 28.9046 59.7139 30.6775C59.3025 29.4789 58.891 28.2799 58.4798 27.0812C58.4298 26.8716 58.4656 26.6326 58.2721 26.4718C57.981 25.5805 57.6856 24.6903 57.3998 23.7973C57.0673 22.7577 56.8451 21.7008 55.3776 21.6171C54.7674 21.5822 54.1817 21.0937 53.5879 20.805C52.9919 20.5153 52.3996 20.2177 51.5669 19.8051C52.2957 22.0118 52.9347 23.9466 53.5737 25.8814C53.7792 27.1044 54.1278 28.2855 54.6147 29.4258C55.2843 32.0155 55.9557 34.6049 56.6206 37.1957C56.6893 37.4634 56.7206 37.7409 56.7694 38.0142C56.8015 39.2665 56.0004 40.2257 55.5839 41.3169C55.0764 42.647 54.4167 43.9188 53.8844 45.2404C53.603 45.9391 53.2962 46.7053 53.9003 47.4066C54.4949 48.0966 55.2346 48.2008 56.0808 47.8957C56.6061 47.7064 57.0279 47.9479 57.361 48.3638C57.8671 48.9966 57.9603 49.7104 57.6256 50.4217C56.8183 52.1365 55.3488 53.0801 53.6351 53.7126C53.6198 53.1205 53.6069 52.5287 53.5891 51.9369C53.4232 46.4273 52.763 40.9696 51.8552 35.5384C52.0546 35.2001 52.3714 35.0024 52.6868 34.7841C53.2993 34.3604 53.7264 33.7873 53.8939 33.0397C53.9383 32.8412 54.0731 32.6389 53.883 32.468C53.6728 32.2788 53.4188 32.3321 53.2136 32.4739C52.6514 32.8627 52.0311 33.0135 51.3586 32.9911C51.0108 31.5094 50.663 30.0277 50.3152 28.5459C50.2716 28.0574 50.297 27.5549 50.0243 27.113C49.6851 25.6994 49.3415 24.2869 49.0098 22.8719C48.9373 22.5626 48.9068 22.1947 48.5272 22.1533C47.285 22.0179 46.1555 21.5021 44.8739 21.0487C45.2014 22.9707 45.5084 24.7721 45.8155 26.5737C45.8303 27.611 45.9718 28.6297 46.2694 29.6248C46.278 29.9023 46.2624 30.1829 46.2984 30.4564C47.0538 36.1883 47.3472 41.9399 47.1158 47.7201C46.9673 51.4015 46.6074 55.0646 46.3032 58.7329ZM43.0806 8.32161C43.1317 8.41122 43.1044 8.62645 43.2666 8.54214C43.3746 8.48575 43.3238 8.30765 43.1892 8.22363C42.457 6.12468 40.9566 4.87687 38.8077 4.49332C35.0799 3.82782 31.6189 4.71887 28.3364 6.47921C27.4461 6.95656 26.564 7.45066 25.5557 7.65304C23.7915 8.00701 22.1707 7.50733 20.6156 6.76757C19.863 6.40942 19.6698 6.71118 19.6438 7.37026C19.6101 8.22698 20.0439 8.90365 20.7406 9.26599C22.3686 10.1124 23.0629 11.586 23.6661 13.1758C24.0237 14.1182 24.4584 15.0324 24.8827 15.9478C25.0097 16.2219 25.175 16.5605 25.5786 16.4243C25.9005 16.3157 25.8946 15.9952 25.8966 15.718C25.9033 14.8384 25.8991 13.9585 25.8991 13.0787C26.432 13.9683 26.7812 14.8744 27.3476 15.6589C27.6497 16.0773 27.852 16.872 28.4999 16.632C29.0267 16.4369 28.5817 15.7619 28.6284 15.3046C28.6367 15.2217 28.6644 15.1407 28.6917 15.0218C30.4914 17.4066 31.4592 17.8273 33.4647 17.0619C33.1381 16.8612 32.836 16.7074 32.5697 16.5061C31.4595 15.6667 30.3918 14.7896 30.1598 13.29L30.1497 13.3036C31.7976 14.6101 33.461 15.8732 35.8793 15.1131C35.7596 15.4657 35.6842 15.6231 35.6552 15.7887C35.6097 16.0491 35.2976 16.323 35.5184 16.5541C35.8135 16.8623 36.1049 16.5203 36.3455 16.376C37.7555 15.5296 39.1683 14.6712 39.0285 12.6996C39.7383 12.7883 40.3413 13.1445 41.1559 12.8866C40.6852 12.5125 40.3187 12.2208 39.8977 11.8864C40.4385 11.8026 40.8122 12.0075 41.2053 12.1415C41.4769 12.2342 41.7996 12.6331 42.0254 12.2951C42.282 11.911 41.7868 11.7086 41.5632 11.4852C41.2441 11.1665 40.8832 10.884 40.5149 10.621C39.6401 9.99597 39.072 9.15125 38.5598 8.21721C38.1999 7.56092 38.5196 7.40627 39.0042 7.2988C40.5275 6.96047 41.9057 7.24939 43.0806 8.32161ZM52.9249 11.6078C52.0892 10.4599 52.2 9.41924 53.0654 8.32217C51.7059 8.77831 50.7998 8.32496 50.0701 7.17737C49.9626 8.53907 49.3537 9.38519 47.9239 9.69393C49.3007 10.0881 49.8414 10.9685 49.739 12.3797C50.6479 11.2686 51.6947 11.1455 52.9249 11.6078ZM44.8974 3.05066C45.2315 4.17257 44.9493 4.83388 44.3019 5.50552C45.4143 5.28918 45.6823 6.15679 46.2666 6.95879C46.3378 5.72913 47.1898 5.65012 48.0959 5.43713C47.1917 4.88329 47.1133 4.16476 47.4008 3.11096C46.5421 3.83592 45.8353 3.81582 44.8974 3.05066ZM40.1392 0.8166C39.5644 1.64624 39.0332 1.88519 38.2471 1.79475C38.8487 2.41112 38.6148 3.01967 38.1787 3.95706C39.1605 3.3005 39.6859 3.77003 40.3251 4.16699C40.2531 3.32255 40.6855 2.87842 41.3552 2.47951C40.5733 2.25424 40.1426 1.85477 40.1392 0.8166ZM31.658 4.4213C32.2261 3.85853 32.8455 3.77924 33.6098 3.88728C33.202 3.18549 33.406 2.62355 33.8326 1.97369C32.9667 2.17524 32.4561 1.74869 31.8503 1.11474C31.9827 2.1543 31.2683 2.35138 30.5886 2.79495C31.5592 2.97668 31.6499 3.62571 31.658 4.4213ZM27.8964 5.52674C27.7566 4.97904 27.2466 4.53742 27.6413 3.94534C27.7434 3.79209 27.581 3.56737 27.3769 3.64637C26.7664 3.88309 26.3647 3.37057 25.786 3.19693C25.9139 4.00341 25.446 4.43302 24.79 4.88022C25.654 5.01533 25.97 5.55047 26.202 6.49819C26.5755 5.48905 27.2214 5.51697 27.8964 5.52674Z" fill="#FEFEFE"/>
<path d="M42.0276 24.2026C42.2487 24.6822 42.3408 25.1793 42.2333 25.7039C42.1356 25.9705 42.0382 26.2371 41.9405 26.5039C41.6189 27.1195 41.1759 27.5343 40.4258 27.5745C39.9139 27.6018 39.4072 27.7269 38.898 27.8081C37.8797 27.8936 36.8611 27.9787 35.8424 28.0636C34.615 28.0789 33.4702 27.4634 32.2285 27.5904C30.8258 27.6493 29.8942 28.7344 28.6861 29.2167C27.3671 29.5352 26.0442 29.5777 24.716 29.2751C23.5488 28.9136 22.3803 28.5577 21.1663 28.3815C19.8096 27.8866 18.3996 27.666 16.9667 27.5639C15.1787 27.3799 13.4279 27.5181 11.7256 28.137C10.1381 28.7143 8.64572 28.5588 7.34264 27.4327C6.75028 26.921 6.42953 27.113 6.19309 27.7372C5.95916 28.3541 5.65265 28.9711 5.66968 29.6357C5.69062 30.4645 5.27357 30.538 4.6184 30.4327C1.81543 29.9822 0.108126 27.8813 0.0104222 24.738C-0.188893 18.3289 2.46082 14.6065 8.80009 12.4455C10.3773 11.9079 11.9827 11.4534 13.575 10.9607C14.9267 10.652 16.2766 10.3354 17.6305 10.0365C18.8379 9.76986 19.7672 10.1057 20.5175 11.1631C21.3123 12.2828 21.9225 13.4748 22.4024 14.7469C22.758 15.6904 23.1834 16.5932 23.9695 17.5406C24.0083 16.8818 24.0362 16.405 24.0829 15.6142C25.0708 17.1654 26.3557 18.0585 27.4374 19.1418C29.2991 21.0066 31.5667 21.6894 34.0134 22.0916C35.6258 22.3566 37.2831 22.2005 38.8849 22.5857C40.0356 22.9235 41.1829 23.2686 42.0276 24.2026ZM6.87506 26.3342C7.32059 26.5048 7.4328 26.2153 7.61453 26.0922C9.30815 24.9446 11.1746 24.2824 13.218 24.4572C16.0134 24.6964 18.7625 24.8357 21.4326 23.6954C23.1533 22.9604 24.9474 22.9177 26.7454 23.476C27.8076 23.8059 28.8857 24.0895 29.9322 24.4628C32.6249 25.4231 35.3902 25.8264 38.2415 25.6514C38.5809 25.6305 39.0273 25.6824 39.1052 25.2522C39.1939 24.762 38.7018 24.6353 38.3741 24.5058C37.6217 24.209 36.8242 24.1202 36.0144 24.1831C33.4194 24.3846 30.8847 24.1521 28.3946 23.3238C25.8292 22.4705 23.2582 22.2904 20.6565 23.3584C18.8722 24.0909 16.996 24.3882 15.0352 24.0122C14.0191 23.8174 12.9695 23.7124 11.9188 23.7903C9.9047 23.9399 8.22309 24.7067 6.87506 26.3342ZM32.0633 27.1089C30.0282 25.7198 28.108 24.6057 25.8798 24.2545C24.3966 24.0209 22.8953 24.2006 21.4725 24.7651C21.283 24.8402 21.0429 24.9284 21.0859 25.1788C21.1163 25.3566 21.3271 25.4423 21.5049 25.42C22.6712 25.274 23.5449 25.8834 24.4684 26.4607C25.0459 26.8216 25.7508 26.9802 26.4001 27.2253C26.6371 27.3149 26.8102 27.3442 27.0042 27.0589C27.6035 26.1779 28.0239 26.1776 28.8061 26.9938C29.0065 27.2029 29.0716 27.5865 29.5152 27.4285C30.2605 27.1627 31.0469 27.1161 32.0633 27.1089ZM18.7145 11.9375C18.1341 11.6502 17.6177 11.5589 17.1939 11.9891C16.8034 12.3852 16.9452 12.886 17.0826 13.36C17.463 14.6726 18.2553 15.7013 19.2898 16.5616C19.7239 16.9229 20.2297 17.0421 20.5273 16.4888C20.9644 15.6753 20.8176 14.8027 20.4477 13.9892C20.1261 13.2816 19.6329 12.8009 18.7608 12.8643C18.4501 12.8869 17.9569 13.0923 17.8647 12.6379C17.7637 12.1413 18.3228 12.1371 18.7145 11.9375ZM15.2223 12.4737C14.875 12.5167 14.8686 12.7308 14.8605 12.9408C14.8423 13.4117 15.0224 13.8195 15.2683 14.2059C15.8635 15.1405 16.457 16.0762 17.0535 17.01C17.1772 17.2034 17.2419 17.5443 17.5395 17.4538C17.9049 17.343 17.7575 17.0077 17.7078 16.7459C17.405 15.1544 16.3113 13.9853 15.512 12.6596C15.4515 12.5592 15.2935 12.5173 15.2223 12.4737Z" fill="#407BC6"/>
<path d="M38.6628 32.9697C38.2667 40.0926 36.0938 46.8115 34.0063 53.5528C32.352 58.8949 30.6838 64.2337 29.283 69.6506C29.2401 69.817 29.153 69.9719 29.0862 70.1325C27.6291 67.6544 26.6568 64.9455 25.3347 62.1018C25.0698 64.2747 24.8367 66.1886 24.5866 68.2406C23.8496 67.7008 23.4306 67.0651 23.0714 66.3779C23.3357 66.0621 23.4465 65.6903 23.4725 65.2869C25.8587 58.5901 28.6564 52.0612 31.5146 45.557C31.7583 45.1634 32.024 44.779 32.0313 44.2891C33.4991 41.0121 34.4652 37.5886 35.0191 34.045C35.0688 34.0459 35.1154 34.0339 35.1586 34.009C36.3266 33.6626 37.4946 33.3162 38.6628 32.9697Z" fill="#FEFEFE"/>
<path d="M21.1666 28.3809C22.3804 28.557 23.5489 28.9129 24.7163 29.2742C24.1209 31.2324 23.3002 33.0924 22.2721 34.8617C22.1981 34.9345 22.1241 35.0074 22.0502 35.0802C19.3644 35.3976 17.218 36.8847 15.0016 38.3033C16.0897 38.4714 17.2546 38.2726 18.0211 39.2879C16.198 40.6722 14.3282 41.9999 12.5654 43.4573C10.9915 44.7585 9.52626 46.1941 8.58803 48.0636L8.595 48.0552C8.24718 48.1387 8.18744 48.4251 8.13049 48.7135C6.99713 49.7846 5.84256 50.8359 4.84096 52.2657C4.53557 50.9875 4.81584 49.9038 5.13323 48.8408C5.80152 46.6014 7.26372 44.9033 8.96153 43.3775C9.03383 43.2728 9.32219 43.2494 9.14688 43.0615C9.03606 42.9428 8.84959 43.038 8.74714 43.1877C6.95582 43.7208 5.26639 44.582 3.31763 44.962C3.64256 43.761 4.48922 42.992 4.92805 42.0032C5.11201 42.0283 5.21279 41.9463 5.23652 41.7645L5.22647 41.7743C5.42159 41.7026 5.6011 41.6216 5.46208 41.3601L5.45454 41.3695C5.87103 41.3416 6.02569 41.1376 5.88332 40.7331C5.88332 40.7331 5.87215 40.7459 5.87243 40.7459C5.97656 40.9039 6.10468 40.8662 6.20518 40.7604C8.37698 38.4717 11.2059 37.3587 14.0728 36.2705C17.7679 34.8678 20.0444 32.1279 21.1666 28.3809ZM14.4885 38.482C14.4592 38.4901 14.4296 38.4982 14.4003 38.5063C14.4078 38.5308 14.4142 38.5755 14.4229 38.5761C14.4519 38.5775 14.4818 38.5629 14.5111 38.5549C14.5035 38.5303 14.496 38.506 14.4885 38.482Z" fill="#CED7DE"/>
<path d="M8.58826 48.0634C9.52621 46.1939 10.9918 44.7582 12.5656 43.4571C14.3285 41.9996 16.1982 40.672 18.0214 39.2877L18.1194 39.2793L18.2171 39.2891C19.5852 40.9637 19.6583 41.4257 18.2916 43.0621C17.0734 44.5204 16.467 45.9979 17.3676 47.8202C16.1189 49.5697 14.8706 51.3191 13.6219 53.0686C13.3397 52.6655 13.5326 52.1775 13.3377 51.5737C12.6845 52.3344 12.1061 53.0337 11.4993 53.707C10.9633 54.3016 10.4067 54.8792 9.83356 55.438C9.68449 55.5835 9.48015 55.8311 9.21607 55.6301C9.01787 55.4793 9.12479 55.2644 9.15885 55.0545C9.60716 52.3062 10.5898 49.7079 11.3826 47.0562C11.4979 46.6707 11.7321 46.3103 11.6709 45.8718C10.4837 46.4061 9.84388 47.6659 8.58826 48.0634Z" fill="#C7243C"/>
<path d="M13.6213 53.0682C14.87 51.3187 16.1184 49.5693 17.367 47.8196C17.4175 47.8003 17.47 47.7905 17.5242 47.7905C17.7645 48.2718 18.2039 48.4809 18.6888 48.583C19.6957 48.7949 20.23 49.4738 20.5041 50.3939C20.6811 50.9877 20.7928 51.6007 20.9337 52.205C20.9315 52.2835 20.9293 52.3619 20.9273 52.4404C19.9991 53.6231 19.5067 55.0636 18.6525 56.2899C18.1274 56.1961 18.0456 56.6824 17.8614 56.9579C17.2646 57.8498 16.7255 58.7799 16.163 59.6947C15.926 60.0799 15.6678 60.6053 15.2097 60.5511C14.6888 60.4894 14.573 59.8868 14.4373 59.4259C13.8259 57.3509 13.5619 55.2299 13.6213 53.0682Z" fill="#CED7DE"/>
<path d="M21.1657 28.3808C20.0435 32.1282 17.767 34.8681 14.0718 36.2702C11.2049 37.3581 8.37601 38.4711 6.20421 40.7601C6.10371 40.8659 5.97558 40.9036 5.87146 40.7456C7.12374 38.4607 8.60938 36.4087 11.2094 35.5009C12.4801 35.057 13.7631 34.6481 15.0391 34.2193C18.0341 33.2127 18.157 30.9111 17.2458 28.4297C17.1406 28.1427 16.9044 27.904 16.9658 27.5635C18.399 27.6651 19.809 27.8856 21.1657 28.3808Z" fill="#C7243C"/>
<path d="M18.6523 56.2907C19.5068 55.0644 19.999 53.624 20.9272 52.4409C21.8897 56.6999 23.4044 60.8498 23.4719 65.2864C23.446 65.6895 23.3351 66.0613 23.0708 66.3773C21.3861 63.8973 21.2183 61.117 21.4081 58.2107C20.8434 58.9432 20.2854 59.681 19.7098 60.4046C19.5465 60.6098 19.3913 60.923 19.0496 60.7853C18.764 60.6703 18.8313 60.3649 18.8505 60.1394C18.9619 58.8461 18.6239 57.5782 18.6523 56.2907Z" fill="#C7243C"/>
<path d="M5.88277 40.7329C6.02514 41.1371 5.87022 41.3415 5.454 41.3694C5.43948 41.0511 5.55756 40.8225 5.88277 40.7329Z" fill="#C7243C"/>
<path d="M8.1286 48.7134C8.18583 48.4251 8.24557 48.1384 8.59311 48.0552C8.70338 48.4613 8.35332 48.5431 8.1286 48.7134Z" fill="#C7243C"/>
<path d="M5.46066 41.3604C5.5994 41.6222 5.42018 41.7029 5.22505 41.7746C5.16503 41.558 5.22813 41.4109 5.46066 41.3604Z" fill="#C7243C"/>
<path d="M5.23644 41.7646C5.21271 41.9464 5.11166 42.0285 4.92798 42.0033C5.03071 41.9238 5.13343 41.8442 5.23644 41.7646Z" fill="#C7243C"/>
<path d="M51.8539 35.5396C52.7614 40.9711 53.4219 46.4285 53.5877 51.9382C53.6056 52.53 53.6184 53.1218 53.6338 53.7139C53.6145 53.7828 53.5953 53.8518 53.5757 53.9207C51.3648 54.7305 49.1419 55.5281 47.4447 57.2664C47.0145 57.7069 46.6809 58.2414 46.303 58.733C46.6072 55.065 46.9671 51.4019 47.1145 47.721C47.3459 41.9409 47.0525 36.1892 46.2971 30.4574C46.2611 30.1836 46.2764 29.903 46.2681 29.6258C47.0776 30.2492 47.9042 30.1473 48.7802 29.7489C49.3999 29.4672 49.7134 28.8308 50.3141 28.5469C50.6619 30.0286 51.0097 31.5104 51.3576 32.9921L51.2702 32.9748C50.6092 32.7693 50.3484 32.1792 50.0028 31.6664C49.7296 31.2608 49.4465 31.253 49.2525 31.725C48.5063 33.542 49.8194 35.526 51.7202 35.4679C51.7582 35.5039 51.8028 35.5279 51.8539 35.5396Z" fill="#D82234"/>
<path d="M38.6619 32.9692C37.494 33.3156 36.326 33.6621 35.1577 34.0085C35.3858 32.0268 35.6139 30.0451 35.842 28.0634C36.8603 27.978 37.8789 27.8928 38.8976 27.8071C38.8453 29.3916 38.7929 30.9763 38.7407 32.5611C38.7142 32.6973 38.6882 32.8333 38.6619 32.9692Z" fill="#CED7DE"/>
<path d="M39.9684 58.3147C39.6284 58.2276 39.3029 58.1835 38.9704 58.3859C38.7675 58.5092 38.521 58.5679 38.2876 58.6324C37.03 58.981 35.558 58.435 35.2231 57.5024C34.9207 56.661 35.7183 54.8027 36.5809 54.3063C36.7464 54.2111 36.8935 54.1472 37.0526 54.2737C37.2508 54.4314 37.1914 54.6246 37.1353 54.8395C36.9209 55.6633 37.1126 56.3615 37.8644 56.8279C38.4389 57.1844 38.8928 57.1665 39.1421 56.4058C39.4243 55.5447 39.7596 54.6977 40.75 54.3881C40.4893 55.6971 40.2288 57.006 39.9684 58.3147Z" fill="#C7243C"/>
<path d="M38.7411 32.5613C38.7936 30.9766 38.8458 29.3918 38.898 27.8073C39.4069 27.7264 39.9136 27.6016 40.4256 27.574C41.1756 27.5338 41.6187 27.1192 41.9402 26.5034C42.2336 28.3023 41.4366 29.7776 40.4336 31.1276C40.0079 31.7015 39.5482 32.3745 38.7411 32.5613Z" fill="#C7243C"/>
<path d="M39.9696 58.3149C40.23 57.0062 40.4905 55.6975 40.7509 54.3889C40.7864 54.302 40.8218 54.2152 40.857 54.1284C41.0778 54.3096 41.0789 54.5672 41.0354 54.8012C40.7333 56.4214 41.6559 56.8853 42.9576 57.2393C43.2287 57.313 43.6622 57.1246 43.7088 57.5924C43.7471 57.9768 43.3627 58.0751 43.1137 58.244C42.1352 58.9075 41.0862 58.8402 40.0168 58.5245C40.0014 58.4547 39.9855 58.3846 39.9696 58.3149Z" fill="#CED7DE"/>
<path d="M30.1595 13.2898C30.3915 14.7894 31.4593 15.6665 32.5695 16.5059C32.8358 16.7072 33.1381 16.861 33.4644 17.0617C31.459 17.8271 30.4915 17.4064 28.6915 15.0216C28.6644 15.1406 28.6368 15.2215 28.6281 15.3044C28.5815 15.7617 29.0265 16.4364 28.4997 16.6318C27.8518 16.8719 27.6494 16.0771 27.3474 15.6587C26.781 14.8743 26.432 13.9681 25.8988 13.0785C25.8988 13.9584 25.903 14.838 25.8963 15.7178C25.8941 15.995 25.9002 16.3158 25.5784 16.4241C25.1744 16.5603 25.0095 16.2217 24.8824 15.9476C24.4581 15.032 24.0238 14.1177 23.6659 13.1756C23.0624 11.5861 22.3681 10.1125 20.7404 9.2658C20.0436 8.90346 19.6098 8.2268 19.6436 7.37008C19.6696 6.711 19.8627 6.40951 20.6153 6.76739C22.1705 7.50714 23.7912 8.00682 25.5555 7.65286C26.5638 7.45047 27.4459 6.95637 28.3361 6.47902C31.619 4.71841 35.0799 3.82763 38.8074 4.49313C40.956 4.87669 42.4568 6.1245 43.189 8.22344C43.153 8.25666 43.1167 8.2896 43.0801 8.32171C41.9052 7.2492 40.527 6.96028 39.0042 7.29833C38.5196 7.40581 38.2002 7.56046 38.5598 8.21675C39.0718 9.15079 39.6401 9.9955 40.515 10.6205C40.8832 10.8835 41.2441 11.166 41.5632 11.4848C41.7868 11.7081 42.282 11.9105 42.0255 12.2946C41.7996 12.6329 41.4769 12.2338 41.2053 12.1411C40.8123 12.0074 40.4388 11.8022 39.8978 11.8859C40.3185 12.2204 40.6853 12.5121 41.1559 12.8861C40.3411 13.1441 39.7381 12.7879 39.0285 12.6991C39.1681 14.6705 37.7553 15.5291 36.3456 16.3755C36.1049 16.5199 35.8132 16.8618 35.5184 16.5536C35.2973 16.3228 35.6097 16.0489 35.6552 15.7882C35.684 15.6227 35.7596 15.4655 35.8794 15.1126C33.4608 15.8731 31.7976 14.6099 30.1498 13.3032C30.118 13.2585 30.0861 13.2141 30.0543 13.1695C30.0429 13.2105 30.0311 13.2515 30.0197 13.2926C30.066 13.2917 30.1127 13.2909 30.1595 13.2898ZM30.5557 10.4262C30.5381 12.3194 32.074 13.9025 33.965 13.9399C35.8026 13.9762 37.4544 12.3722 37.4834 10.5234C37.5121 8.68126 35.909 7.03454 34.0618 7.00913C32.1884 6.98317 30.5733 8.55731 30.5557 10.4262ZM28.5779 14.7188C28.6005 14.6989 28.6504 14.6719 28.6474 14.6546C28.6359 14.5906 28.6069 14.5301 28.5846 14.4681C28.5648 14.4954 28.5259 14.5253 28.5287 14.5502C28.5357 14.6107 28.562 14.6688 28.5779 14.7188Z" fill="#407BC6"/>
<path d="M58.2699 26.4726C57.8525 26.6404 57.4363 26.8106 57.0178 26.9756C55.9386 27.4008 55.2036 27.2017 54.6291 26.2063C54.3352 25.6971 54.0597 25.5522 53.5712 25.8825C52.9322 23.9477 52.2932 22.0129 51.5646 19.8062C52.3973 20.2187 52.9897 20.5163 53.5857 20.8061C54.1794 21.0947 54.7651 21.5832 55.3753 21.6181C56.8428 21.7019 57.065 22.7587 57.3975 23.7983C57.6834 24.691 57.9787 25.5813 58.2699 26.4726Z" fill="#D82234"/>
<path d="M45.8141 26.5743C45.507 24.7727 45.1999 22.9713 44.8725 21.0493C46.1538 21.5027 47.2835 22.0188 48.5258 22.1539C48.9054 22.1952 48.9358 22.5629 49.0084 22.8725C49.3403 24.2878 49.6837 25.7003 50.0229 27.1139C48.6452 27.7345 47.3394 28.2032 46.4572 26.3348C46.2038 25.7983 45.9151 26.1665 45.8141 26.5743Z" fill="#D82234"/>
<path d="M52.9251 11.6082C51.6949 11.1462 50.6483 11.269 49.7394 12.38C49.8416 10.9692 49.3012 10.0885 47.9244 9.69429C49.3542 9.38555 49.963 8.53944 50.0705 7.17773C50.8002 8.32533 51.7063 8.77867 53.0658 8.32254C52.2002 9.41961 52.0893 10.4603 52.9251 11.6082Z" fill="#407BC6"/>
<path d="M45.8135 26.5747C45.9148 26.1665 46.2032 25.7983 46.4566 26.3352C47.3388 28.2035 48.6449 27.7348 50.0223 27.1143C50.295 27.5562 50.2696 28.0589 50.3131 28.5471C49.7124 28.831 49.3989 29.4672 48.7792 29.7492C47.9032 30.1475 47.0766 30.2494 46.2671 29.6261C45.9698 28.6306 45.8283 27.6123 45.8135 26.5747Z" fill="#C7243C"/>
<path d="M44.8963 3.05078C45.8346 3.81594 46.5411 3.83576 47.3998 3.11108C47.1123 4.16488 47.1907 4.88342 48.0949 5.43725C47.1887 5.65025 46.3368 5.72925 46.2656 6.95891C45.6813 6.15663 45.4133 5.2893 44.3009 5.50564C44.948 4.83428 45.2305 4.17269 44.8963 3.05078Z" fill="#407BC6"/>
<path d="M40.1395 0.816895C40.1428 1.85506 40.5736 2.25453 41.3552 2.48009C40.6855 2.879 40.2531 3.32313 40.3251 4.16756C39.6859 3.77061 39.1605 3.30107 38.1787 3.95764C38.6147 3.02025 38.8487 2.41197 38.2471 1.79533C39.0335 1.88549 39.565 1.64654 40.1395 0.816895Z" fill="#407BC6"/>
<path d="M31.6569 4.42082C31.6488 3.62523 31.5583 2.97592 30.5874 2.79448C31.2672 2.3509 31.9815 2.15382 31.8492 1.11426C32.4552 1.74821 32.9658 2.17476 33.8315 1.97321C33.4049 2.62308 33.2009 3.18501 33.6087 3.8868C32.8444 3.77904 32.2247 3.85805 31.6569 4.42082Z" fill="#407BC6"/>
<path d="M27.8959 5.52658C27.2212 5.51681 26.575 5.48889 26.2015 6.49803C25.9698 5.55059 25.6535 5.01518 24.7895 4.88007C25.4455 4.43286 25.9134 4.00325 25.7855 3.19678C26.3642 3.37041 26.7662 3.88321 27.3764 3.64621C27.5805 3.56721 27.743 3.79193 27.6408 3.94518C27.2458 4.53727 27.7561 4.97888 27.8959 5.52658Z" fill="#407BC6"/>
<path d="M51.8544 35.5397C51.8034 35.5279 51.7587 35.5042 51.7207 35.4682C51.7336 34.6078 51.5423 33.7841 51.2704 32.9748L51.3578 32.9921C52.0303 33.0147 52.6509 32.8637 53.2128 32.4748C53.418 32.3327 53.672 32.2797 53.8822 32.469C54.0723 32.6398 53.9375 32.8422 53.8931 33.0407C53.7256 33.7883 53.2988 34.3613 52.686 34.7851C52.3706 35.0037 52.0538 35.201 51.8544 35.5397Z" fill="#CED7DE"/>
<path d="M42.0272 24.2023C41.1828 23.2683 40.0352 22.9233 38.8839 22.5852C38.8555 22.3248 38.9758 22.1779 39.2337 22.1958C39.6145 22.222 39.9944 22.2689 40.3729 22.3206C41.4653 22.4696 42.1816 22.9548 42.0272 24.2023Z" fill="#D82234"/>
<path d="M43.1894 8.22363C43.324 8.30794 43.3748 8.48604 43.2667 8.54215C43.1045 8.62645 43.1322 8.41122 43.0808 8.3219C43.1171 8.28951 43.1534 8.25685 43.1894 8.22363Z" fill="#407BC6"/>
<path d="M28.6859 29.2165C29.8941 28.7341 30.8256 27.649 32.2283 27.5898C31.8074 29.8052 31.3867 32.0206 30.966 34.2359C30.8937 34.4291 30.8111 34.6189 30.7508 34.8157C29.4538 39.0387 27.5193 42.9321 24.7697 46.4053C22.8636 45.8492 22.5446 45.6102 22.6342 44.3583C22.7003 43.4334 22.4267 43.1688 21.5714 43.4538L21.5212 43.4047C22.0164 42.7886 22.5116 42.1722 23.0071 41.5561C23.0663 41.5466 23.1246 41.5329 23.1819 41.5151C23.6159 41.634 24.0104 41.4472 24.3797 41.292C24.8727 41.0849 25.6066 40.9506 25.6337 40.3577C25.6616 39.7494 24.8115 40.0677 24.4928 39.7112C25.5242 37.9464 26.6224 36.2154 27.2432 34.244C27.9933 32.6456 28.5868 31.0019 28.6859 29.2165Z" fill="#FEFEFE"/>
<path d="M6.87512 26.3338C8.22287 24.7063 9.90476 23.9395 11.918 23.7899C12.969 23.7117 14.0186 23.8169 15.0345 24.0118C16.9952 24.3875 18.8714 24.0905 20.6558 23.358C23.2577 22.29 25.8285 22.47 28.3939 23.3234C30.8842 24.1516 33.4189 24.3842 36.0136 24.1826C36.8234 24.1198 37.6212 24.2086 38.3733 24.5053C38.701 24.6346 39.1932 24.7616 39.1044 25.2518C39.0265 25.6822 38.5801 25.6303 38.2407 25.651C35.3897 25.826 32.6244 25.4226 29.9314 24.4623C28.8849 24.0891 27.8068 23.8055 26.7446 23.4755C24.9469 22.9172 23.1525 22.9599 21.4318 23.6949C18.7617 24.8356 16.0123 24.696 13.2172 24.4567C11.1738 24.282 9.30738 24.9439 7.61376 26.0917C7.43287 26.2149 7.32065 26.5046 6.87512 26.3338Z" fill="#082468"/>
<path d="M30.966 34.2356C31.3867 32.0203 31.8076 29.8049 32.2283 27.5895C33.4703 27.4625 34.6148 28.0781 35.8422 28.0627C35.6144 30.045 35.3864 32.0267 35.1583 34.0084C35.1153 34.0332 35.0687 34.0452 35.0187 34.0444C33.681 34.3835 32.3177 34.1812 30.966 34.2356Z" fill="#C7243C"/>
<path d="M28.686 29.2163C28.5869 31.002 27.9934 32.6457 27.2428 34.2441C25.5536 34.1925 23.9398 34.7469 22.2716 34.8619C23.2997 33.0926 24.1207 31.2326 24.7159 29.2744C26.0441 29.5773 27.367 29.5345 28.686 29.2163Z" fill="#C7243C"/>
<path d="M32.0629 27.1088C31.0465 27.116 30.2602 27.1629 29.5151 27.4284C29.0715 27.5864 29.0065 27.2028 28.8061 26.9938C28.0239 26.1778 27.6035 26.1781 27.0041 27.0588C26.8101 27.3441 26.6371 27.3148 26.4001 27.2252C25.7507 26.9798 25.0459 26.8215 24.4683 26.4606C23.5446 25.8833 22.6711 25.2739 21.5048 25.4199C21.327 25.4422 21.1163 25.3565 21.0858 25.1787C21.0428 24.9283 21.2832 24.8401 21.4725 24.765C22.8953 24.2008 24.3966 24.0208 25.8797 24.2544C28.1074 24.6053 30.0279 25.7197 32.0629 27.1088Z" fill="#082468"/>
<path d="M18.7146 11.9376C18.3233 12.1369 17.7638 12.1414 17.8646 12.6375C17.957 13.0919 18.4503 12.8865 18.7607 12.8638C19.6328 12.8008 20.1263 13.2815 20.4476 13.9888C20.8175 14.8026 20.9643 15.6752 20.5272 16.4884C20.2296 17.0419 19.7241 16.9224 19.2897 16.5612C18.2552 15.7009 17.4629 14.6725 17.0824 13.3596C16.9451 12.8856 16.8033 12.3851 17.1938 11.9887C17.6178 11.5594 18.134 11.6507 18.7146 11.9376Z" fill="#082468"/>
<path d="M15.2222 12.4731C15.2934 12.5167 15.4514 12.5586 15.512 12.6591C16.3112 13.9848 17.4049 15.1541 17.7078 16.7453C17.7578 17.0074 17.9049 17.3427 17.5395 17.4532C17.2419 17.5434 17.1771 17.2028 17.0535 17.0094C16.4569 16.0756 15.8635 15.1399 15.2683 14.2053C15.0221 13.8189 14.842 13.4111 14.8605 12.9402C14.8686 12.73 14.875 12.5159 15.2222 12.4731Z" fill="#082468"/>
<path d="M30.9665 34.2354C32.3178 34.1809 33.6815 34.3833 35.0195 34.0444C34.4656 37.588 33.4995 41.0112 32.0317 44.2885C30.0101 44.1514 29.5849 43.7039 29.6913 41.8024C29.7041 41.5735 29.6701 41.3825 29.4674 41.2644C29.2324 41.1274 29.0744 41.2974 28.9259 41.4406C28.1788 42.1611 27.6549 42.9734 27.6297 44.0716C27.6066 45.0813 28.1844 45.5857 29.0358 45.7099C29.8487 45.8286 30.7052 45.8651 31.5147 45.5564C28.6565 52.0607 25.8588 58.5895 23.4726 65.2863C23.4051 60.8498 21.8907 56.7002 20.9279 52.4409C20.9301 52.3624 20.932 52.284 20.9343 52.2055C21.9054 50.7484 22.8769 49.2912 23.8481 47.834C24.1554 47.3578 24.4625 46.8813 24.7698 46.405C27.5192 42.9318 29.4537 39.0385 30.7507 34.8157C30.8118 34.6187 30.8942 34.4286 30.9665 34.2354Z" fill="#D82234"/>
<path d="M31.5148 45.5563C30.7052 45.8651 29.8491 45.8285 29.0359 45.7099C28.1845 45.5856 27.6067 45.0812 27.6298 44.0715C27.6549 42.9733 28.1789 42.1607 28.9259 41.4405C29.0744 41.2973 29.2324 41.1273 29.4675 41.2644C29.6699 41.3825 29.7039 41.5734 29.6914 41.8023C29.585 43.7036 30.0101 44.1514 32.0318 44.2884C32.0242 44.7783 31.7585 45.163 31.5148 45.5563Z" fill="#C7243C"/>
<path d="M22.2707 34.8619C23.9389 34.7469 25.5527 34.1925 27.2418 34.2441C26.621 36.2155 25.5228 37.9465 24.4913 39.711C24.4436 39.7127 24.3961 39.7194 24.3495 39.7314C23.2896 39.5352 22.961 38.8392 23.0188 37.8421C23.0353 37.559 23.1765 37.159 22.7824 37.0242C22.4273 36.9028 22.2176 37.2349 22.0219 37.4591C20.5625 39.1312 20.3063 41.0973 23.0057 41.5562C22.5105 42.1723 22.0152 42.7887 21.5197 43.4048C20.093 44.781 18.724 46.2097 17.5228 47.7916C17.4687 47.7916 17.4162 47.8014 17.3657 47.8207C16.4649 45.9984 17.0715 44.5208 18.2897 43.0625C19.6567 41.4261 19.5833 40.9641 18.2151 39.2895C19.7027 38.0777 21.06 36.747 22.0485 35.0804C22.1227 35.0076 22.1967 34.9347 22.2707 34.8619Z" fill="#D82234"/>
<path d="M22.0495 35.0806C21.0611 36.7471 19.7038 38.0775 18.2162 39.2896L18.1185 39.2799C18.1185 39.2799 18.0205 39.2885 18.0205 39.2882C17.2543 38.273 16.0894 38.4714 15.0012 38.3037C17.2177 36.885 19.3641 35.398 22.0495 35.0806Z" fill="#FEFEFE"/>
<path d="M14.4886 38.4819C14.4961 38.5062 14.5037 38.5302 14.5112 38.5545C14.4816 38.5629 14.452 38.5771 14.423 38.5757C14.4143 38.5754 14.4079 38.5305 14.4004 38.5059C14.4297 38.4981 14.4593 38.49 14.4886 38.4819Z" fill="#FEFEFE"/>
<path d="M8.74622 43.1879C8.84866 43.0383 9.03514 42.9431 9.14596 43.0617C9.32127 43.2493 9.03291 43.2728 8.96061 43.3777C8.88942 43.3147 8.81768 43.2513 8.74622 43.1879Z" fill="#082468"/>
<path d="M17.5241 47.7917C18.7253 46.21 20.0943 44.781 21.521 43.4048L21.5713 43.4539C21.6427 43.89 21.3217 44.137 21.1171 44.4541C20.0446 46.1154 20.707 47.62 22.6019 47.833C23.0123 47.879 23.4324 47.8363 23.8481 47.8344C22.8769 49.2916 21.9054 50.7487 20.9343 52.2059C20.7933 51.6015 20.6814 50.9885 20.5047 50.3948C20.2305 49.4747 19.6962 48.7961 18.6893 48.5839C18.2042 48.4823 17.7645 48.2729 17.5241 47.7917Z" fill="#FEFEFE"/>
<path d="M51.2701 32.9747C51.5419 33.7839 51.7332 34.6077 51.7203 35.4681C49.8196 35.5261 48.5062 33.5422 49.2526 31.7249C49.4464 31.2529 49.7297 31.2607 50.003 31.6663C50.3486 32.1791 50.609 32.7692 51.2701 32.9747Z" fill="#C7243C"/>
<path d="M30.5558 10.4267C30.5732 8.55777 32.1883 6.98363 34.062 7.00959C35.9091 7.035 37.5123 8.682 37.4836 10.5238C37.4545 12.3727 35.8028 13.9767 33.9651 13.9404C32.0744 13.903 30.5383 12.3199 30.5558 10.4267ZM33.969 7.88809C32.5635 7.91768 31.3966 9.12334 31.4234 10.5183C31.4502 11.9221 32.65 13.0823 34.055 13.063C35.4522 13.044 36.6508 11.8107 36.6107 10.4337C36.5702 9.0287 35.3561 7.85906 33.969 7.88809Z" fill="#082468"/>
<path d="M28.5776 14.7189C28.5617 14.6687 28.5354 14.6106 28.5285 14.5503C28.5257 14.5255 28.5645 14.4959 28.5843 14.4683C28.6066 14.5302 28.6357 14.5908 28.6471 14.6547C28.6502 14.6723 28.6002 14.6991 28.5776 14.7189Z" fill="#FEFEFE"/>
<path d="M30.1593 13.29C30.1127 13.2911 30.0658 13.2922 30.0192 13.293C30.0306 13.252 30.0423 13.211 30.0538 13.1699C30.0856 13.2146 30.1174 13.259 30.1493 13.3036C30.149 13.3036 30.1593 13.29 30.1593 13.29Z" fill="#FEFEFE"/>
<path d="M23.8476 47.8337C23.432 47.8356 23.0118 47.8783 22.6015 47.8323C20.7066 47.6193 20.0444 46.1144 21.1167 44.4534C21.3213 44.1366 21.6423 43.8893 21.5708 43.4532C22.4262 43.1682 22.6997 43.4328 22.6336 44.3577C22.544 45.6097 22.8628 45.8486 24.7691 46.4047C24.462 46.8809 24.1547 47.3574 23.8476 47.8337Z" fill="#CED7DE"/>
<path d="M23.0064 41.556C20.307 41.0974 20.5633 39.131 22.0227 37.4589C22.2184 37.2347 22.428 36.9025 22.7831 37.024C23.1772 37.1588 23.036 37.5588 23.0195 37.8419C22.9617 38.839 23.2903 39.535 24.3505 39.7309C24.1171 40.428 23.496 40.871 23.1812 41.5147C23.1239 41.5328 23.0656 41.5465 23.0064 41.556Z" fill="#C7243C"/>
<path d="M23.1808 41.5148C23.496 40.8711 24.1171 40.4281 24.3502 39.731C24.3966 39.7193 24.444 39.7126 24.4918 39.7109C24.8103 40.0674 25.6606 39.7495 25.6326 40.3577C25.6056 40.9507 24.8717 41.0849 24.3787 41.2921C24.0094 41.447 23.6149 41.6337 23.1808 41.5148Z" fill="#CED7DE"/>
<path d="M33.9675 7.88775C35.3543 7.85844 36.5683 9.02836 36.6091 10.4333C36.649 11.8104 35.4503 13.0437 34.0535 13.0627C32.6485 13.0819 31.4487 11.9218 31.4219 10.5179C31.3954 9.12299 32.5622 7.91734 33.9675 7.88775ZM33.8996 11.8632C34.4381 11.864 34.8817 11.7331 35.1215 11.3015C35.4082 10.7856 34.7513 10.8392 34.6098 10.567C34.4962 10.3482 34.336 10.1338 34.4331 9.88564C34.9074 8.67579 33.9666 9.04539 33.5354 9.17464C32.8246 9.38791 32.5058 9.992 32.6485 10.7429C32.7816 11.4416 33.2406 11.8177 33.8996 11.8632Z" fill="#FEFEFE"/>
<path d="M33.9007 11.8631C33.2416 11.8176 32.7824 11.4416 32.6498 10.7429C32.5071 9.99225 32.8259 9.38789 33.5367 9.17461C33.9677 9.04509 34.9087 8.67549 34.4344 9.88561C34.3373 10.1338 34.4975 10.3484 34.6111 10.567C34.7526 10.8395 35.4095 10.7856 35.1228 11.3015C34.8827 11.7328 34.4394 11.864 33.9007 11.8631Z" fill="#407BC6"/>
</svg>
