<svg width="250" height="275" viewBox="0 0 250 275" fill="none" xmlns="http://www.w3.org/2000/svg">
<g opacity="0.05">
<path d="M118.134 224.862L81.4556 242.768L86.17 247.224L124.999 233.503L118.134 224.862Z" fill="white"/>
<path d="M71.0253 222.745L120.191 217.023L115.088 203.647L68.1398 217.887L71.0253 222.745Z" fill="white"/>
<path d="M118.134 193.174C116.956 192.618 75.9067 157.509 75.9067 157.509L127.064 183.354L118.134 193.174Z" fill="white"/>
<path d="M134.845 176.317L119.866 121.568L148.573 174.646L134.845 176.317Z" fill="white"/>
<path d="M157.795 174.647L179.361 125.747L167.434 179.245L157.795 174.647Z" fill="white"/>
<path d="M176.31 186.559L183.799 195.89L218.469 157.509L176.31 186.559Z" fill="white"/>
<path d="M192.952 214.906L188.237 200.8L239.664 195.888L192.952 214.906Z" fill="white"/>
<path d="M250 347.9H48.083V335.271C48.083 335.271 36.9889 327.838 39.5746 307.778C39.5746 307.778 27.3695 310.752 25.8933 302.584C24.4078 294.402 30.3283 285.487 30.3283 285.487C30.3283 285.487 27.7363 274.344 45.1213 249.824C45.1213 249.824 38.8277 235.714 38.4609 219.732C38.4609 219.732 35.635 213.045 36.8644 209.335C36.8644 209.335 24.4078 201.164 27.7363 130.952C27.7363 130.952 26.6269 135.777 19.9685 135.777C16.8952 135.777 15.0104 134.106 13.9215 131.699V131.687C13.4232 130.551 13.1014 129.247 12.9264 127.876C12.6577 125.859 12.714 123.685 12.945 121.657C12.945 121.657 7.32009 116.351 14.2542 110.234C14.4332 110.076 14.6094 109.932 14.8 109.777L14.743 108.651L14.4203 101.974C14.4203 101.974 14.3755 101.964 14.2994 101.931C13.9667 101.83 12.9676 101.44 12.0699 100.438C12.0699 100.438 12.0699 100.438 12.0699 100.426C10.9284 99.1326 9.97535 96.8478 10.7921 92.8696C10.7921 92.8696 10.7813 92.8582 10.7729 92.8239C10.6377 92.6253 10.0734 91.6986 9.69601 90.4063C9.12966 88.5013 8.96242 85.804 11.2818 83.5848C11.2818 83.5848 9.2526 81.9141 10.362 79.1283C10.362 79.1283 0 72.6196 0 56.8389C0 41.0455 7.58654 34.7266 14.2469 31.5723C14.2469 31.5723 9.06277 25.809 13.8668 18.0094C13.8668 18.0094 15.1668 21.7306 17.5748 21.174C17.5748 21.174 12.7574 11.1452 27.7363 2.59606L28.6695 4.82502C28.6695 4.82502 39.3841 1.84914 46.7828 3.89829C54.1838 5.94041 61.3936 7.05398 65.2781 5.75039C65.2781 5.75039 63.2362 8.35644 61.2069 8.53647C61.2069 8.53647 75.4403 13.1846 85.9809 0C85.9809 0 88.3867 13.7415 78.0355 18.5666C67.6764 23.4045 70.0821 25.0752 74.5201 23.0247C74.5201 23.0247 74.7076 27.3044 67.3073 31.3825C59.9077 35.4738 66.7545 35.4738 68.9734 33.9915C68.9734 33.9915 69.3386 39.0065 58.8012 39.3748C58.8012 39.3748 63.7921 49.2151 62.3166 58.8767C60.8413 68.5413 56.0827 80.2421 43.1122 82.6497C43.1122 82.6497 51.7776 91.0091 51.7776 104.76C51.7776 118.503 54.5511 142.464 62.3166 157.508C70.0824 172.556 75.0767 198.747 76.1863 209.335C76.1863 209.335 78.5914 209.145 78.0357 215.274C78.0357 215.274 80.2105 214.272 81.7003 216.434C82.1871 217.158 82.6072 218.24 82.8431 219.832C82.9399 220.557 83.0065 221.383 83.0294 222.341C83.0294 222.341 87.6436 223.266 87.8341 230.321C87.8341 230.321 91.7154 230.877 90.9721 237.385C90.9721 237.385 94.8577 239.982 93.5684 249.455L103.732 259.677C103.732 259.677 110.576 258.929 112.605 266.731L119.454 272.492C119.454 272.492 118.898 265.617 123.524 260.791C123.524 260.791 122.227 252.8 123.524 250.202C123.524 250.202 113.351 252.051 113.351 242.022C113.351 231.993 118.155 234.222 117.422 230.699C116.68 227.168 110.577 224.747 113.351 213.793C113.351 213.793 103.92 190.387 132.576 175.71C161.244 161.042 185.463 189.085 190.267 203.015C195.084 216.946 198.779 234.41 194.528 237.565C190.267 240.729 192.122 246.669 195.447 250.012C198.779 253.357 198.966 254.47 198.41 265.617C197.856 276.761 197.114 280.662 201.185 283.258C205.246 285.866 205.067 287.538 204.51 289.388C204.51 289.387 237.42 294.034 250 347.9Z" fill="white"/>
<path d="M82.841 219.833C82.8297 219.833 82.8184 219.823 82.8069 219.823C81.9282 219.543 80.5978 219.243 78.9767 219.298C77.3705 219.343 75.4848 219.8 73.6653 220.826C72.7527 221.338 71.8557 221.994 71.024 222.742C70.2109 223.49 69.3467 224.416 68.5073 225.261C66.8164 227 65.132 228.74 63.5568 230.377C62.7572 231.191 61.992 231.981 61.2385 232.706C60.495 233.452 59.7395 234.1 59.0757 234.723C57.7098 235.926 56.5447 236.897 55.7117 237.556C54.9797 238.134 54.5377 238.491 54.438 238.568C54.5275 238.479 54.9483 238.088 55.6143 237.441C56.3897 236.719 57.4659 235.648 58.7195 234.344C59.3186 233.664 60.0059 232.975 60.6726 232.171C61.3486 231.391 62.0478 230.543 62.7701 229.663C64.2 227.904 65.7325 226.019 67.2614 224.135C68.0616 223.198 68.771 222.273 69.6343 221.327C70.4929 220.413 71.4462 219.577 72.4532 218.886C74.4736 217.492 76.7596 216.713 78.7561 216.49C79.833 216.356 80.8314 216.356 81.6979 216.434C82.1849 217.158 82.6051 218.241 82.841 219.833Z" fill="url(#paint0_linear)"/>
<path d="M67.108 16.1069C61.3609 14.5761 51.64 17.9177 51.64 17.9177C53.444 16.3855 52.6103 14.5761 52.6103 14.5761C51.64 15.8286 45.539 17.0822 40.0102 19.4513C34.4804 21.8189 34.9971 26.8338 34.9971 26.8338C50.9478 25.4416 58.8051 39.3727 58.8051 39.3727C69.3448 39.0015 68.9759 33.9865 68.9759 33.9865C66.7571 35.4731 59.9152 35.4717 67.3099 31.3848C74.7075 27.298 74.5226 23.0254 74.5226 23.0254C70.0847 25.0702 67.6789 23.3981 78.0351 18.5688C84.4403 15.5814 85.9636 9.18713 86.1916 4.7417C79.4367 16.6609 72.4606 17.5336 67.108 16.1069Z" fill="url(#paint1_linear)"/>
<path d="M68.142 232.876C68.142 232.876 80.9938 226.69 87.6807 228.642C87.2228 225.492 85.7787 223.878 84.6143 223.081C81.4117 222.997 75.7952 224.503 68.142 232.876Z" fill="url(#paint2_linear)"/>
<path d="M71.377 206.921C68.7884 208.965 67.4914 215.649 61.5757 192.06C61.5757 192.06 59.7286 205.434 65.275 221.037C65.275 221.037 71.2945 212.54 78.0821 214.556C78.3841 209.18 76.1858 209.336 76.1858 209.336C76.1858 209.336 73.9669 204.876 71.377 206.921Z" fill="url(#paint3_linear)"/>
<path d="M32.0454 39.5104C52.6259 39.5104 60.078 48.7809 62.4193 57.9598C62.7997 54.5599 62.4385 51.1812 61.806 48.251C57.5708 41.5836 48.965 36.1475 32.1351 36.1475C15.832 36.1475 6.72565 40.2514 1.70917 45.3864C0.879074 47.8426 0.296225 50.67 0.0874023 53.9857C3.41591 46.7231 11.8077 39.5104 32.0454 39.5104Z" fill="url(#paint4_linear)"/>
<path d="M27.7384 130.948C27.7136 131.026 27.6898 131.113 27.6642 131.194C27.7155 131.041 27.7384 130.948 27.7384 130.948Z" fill="url(#paint5_linear)"/>
<path d="M121.949 234.133C120.56 223.963 123.888 220.202 128.465 218.669C133.044 217.136 132.073 212.261 128.605 212.401C125.137 212.539 124.998 216.162 124.998 216.162C121.255 218.391 120.56 224.865 120.56 224.865C119.174 219.915 119.453 212.539 126.384 207.802C133.32 203.066 135.955 196.518 135.955 196.518C138.382 199.063 143.444 199.861 156.063 201.673C168.682 203.484 171.595 217.847 171.595 217.847C170.348 200.585 156.481 198.189 148.851 197.214C141.225 196.24 135.121 192.06 135.121 192.06C135.121 192.06 131.101 197.632 123.612 201.95C116.122 206.27 113.351 213.794 113.351 213.794C110.576 224.752 116.68 227.168 117.419 230.695C118.157 234.225 113.351 231.996 113.351 242.026C113.351 252.058 123.523 250.199 123.523 250.199C125.37 244.116 123.335 244.303 121.949 234.133Z" fill="url(#paint6_linear)"/>
<path d="M86.1698 291.946C106.968 278.989 112.61 266.731 112.61 266.731C111.685 263.184 109.772 261.413 107.952 260.526C104.581 275.022 86.1698 291.946 86.1698 291.946Z" fill="url(#paint7_linear)"/>
<path d="M58.1535 248.063C47.3372 262.691 42.2276 277.909 34.3027 286.234C34.3027 286.234 44.1488 277.597 51.2194 266.173C58.295 254.751 68.1395 248.899 68.1395 248.899C68.1395 248.899 53.5791 262.97 49.4162 276.481C49.4162 276.481 73.5817 235.595 93.7933 246.875C94.1203 239.514 90.9759 237.38 90.9759 237.38C91.7143 230.882 87.833 230.325 87.833 230.325C87.833 230.325 68.9725 233.435 58.1535 248.063Z" fill="url(#paint8_linear)"/>
<path d="M155.508 262.21C158.972 260.336 166.047 255.584 165.857 259.207C165.665 262.828 166.185 265.617 164.245 272.163C162.303 278.711 160.915 266.311 160.915 266.311C159.252 279.545 151.766 281.219 151.766 281.219C160.776 279.825 164.104 282.611 173.675 284.84C183.242 287.069 185.461 284.84 185.461 284.84C174.784 268.262 178.945 257.536 182.273 252.241C185.599 246.947 184.493 242.349 184.493 242.349C178.39 247.783 172.843 238.588 172.843 238.588C169.652 243.605 164.799 245.973 154.538 244.857C144.275 243.744 139.283 246.53 134.565 247.226C129.85 247.923 130.268 251.267 128.049 253.775C125.83 256.281 123.196 258.277 123.196 258.277C123.35 259.734 123.522 260.786 123.522 260.786C128.141 265.431 132.624 266.869 142.469 266.869C152.319 266.869 152.042 264.084 155.508 262.21Z" fill="url(#paint9_linear)"/>
<path d="M23.2096 76.014C23.2096 76.014 25.8465 79.9139 29.1728 81.4475C32.5013 82.9783 31.8083 86.1826 36.2447 89.3885C36.2447 89.3885 34.6471 85.1846 31.3903 80.7505C29.0589 77.5748 23.4866 77.4062 23.9025 71.9727C24.3197 66.5408 26.5365 63.6133 34.5813 71.9727C42.6271 80.3321 43.1159 82.6539 43.1159 82.6539C53.4298 80.7346 58.5349 72.9437 60.9438 64.9771C59.8606 54.7156 53.9415 42.5352 31.9546 42.5352C7.92416 42.5352 1.80661 54.2402 0.557739 62.8423C2.68438 74.2791 10.3611 79.1241 10.3611 79.1241C9.24738 81.9102 11.2829 83.5822 11.2829 83.5822C11.2829 83.5822 15.0257 81.4473 18.3549 80.7505C21.6859 80.0538 23.071 76.8481 23.2096 76.014Z" fill="url(#paint10_linear)"/>
<path d="M37.7703 133.268C40.6837 130.483 40.8215 125.188 37.7703 122.82C37.7703 122.82 36.5215 121.288 37.3518 119.339C38.1878 117.387 38.6027 110.701 36.5217 106.66C34.4421 102.621 33.8848 97.3264 34.5799 93.7051C34.5799 93.7051 31.9645 104.028 32.8542 111.333C32.948 112.073 33.0404 112.73 33.1342 113.344C33.619 113.945 34.1008 114.585 34.5797 115.297C34.1006 114.585 33.6188 113.945 33.1342 113.344C33.9779 118.816 34.8821 119.773 33.8848 122.403C32.7787 125.328 29.2165 126.117 27.7381 130.946C27.2185 141.908 27.0856 151.355 27.225 159.496C29.0816 157.171 32.164 152.723 33.7485 147.2C36.1036 138.98 34.8584 136.056 37.7703 133.268Z" fill="url(#paint11_linear)"/>
<path d="M162.997 210.587C159.253 209.335 160.087 210.031 158.005 209.892C155.925 209.752 151.487 207.523 150.929 205.574C150.378 203.623 148.556 204.169 147.06 204.372C144.449 204.731 141.889 206.199 139.144 210.171C133.869 217.809 137.34 221.176 133.874 222.43C130.407 223.684 128.882 226.47 129.992 228.839C131.102 231.206 132.073 231.532 134.707 230.325C137.34 229.116 136.788 229.975 136.65 231.009C136.511 232.043 129.831 232.878 129.633 236.64C129.633 236.64 138.174 228.282 144.415 232.878C144.415 232.878 142.946 229.953 138.828 229.675C134.707 229.396 138.727 226.609 140.672 227.028C142.612 227.445 144.692 224.702 141.502 223.078C138.312 221.453 138.174 216.021 141.084 215.324C143.997 214.627 143.721 216.858 146.91 215.324C150.101 213.794 147.882 209.473 152.596 210.449C157.311 211.423 157.453 213.095 156.063 215.324C154.678 217.553 159.116 217.553 162.997 216.438C166.88 215.324 166.741 211.841 162.997 210.587Z" fill="url(#paint12_linear)"/>
<path d="M143.793 233.503C143.793 233.503 141.362 234.896 137.34 235.454C133.32 236.011 130.685 240.399 130.685 240.399C132.419 238.1 133.46 237.891 137.898 237.333C142.335 236.776 145.107 234.757 145.107 234.757C144.831 233.782 143.793 233.503 143.793 233.503Z" fill="url(#paint13_linear)"/>
<path d="M150.107 187.116C151.739 187.296 153.332 187.594 154.882 188.007L158.183 177.758C156.392 177.277 154.514 176.904 152.548 176.66L150.107 187.116Z" fill="url(#paint14_linear)"/>
<path d="M173.67 186.012C172.073 184.638 170.365 183.362 168.525 182.221L163.616 191.629C164.834 192.323 166.022 193.072 167.171 193.883L173.67 186.012Z" fill="url(#paint15_linear)"/>
<path d="M179.098 191.569C177.926 190.155 176.67 188.794 175.32 187.506L168.951 195.213C170.153 196.148 171.307 197.142 172.418 198.177L179.098 191.569Z" fill="url(#paint16_linear)"/>
<path d="M192.659 220.144C192.353 218.899 191.998 217.541 191.573 216.105L187.886 219.618C188.447 220.794 188.952 221.926 189.392 223.004L192.659 220.144Z" fill="url(#paint17_linear)"/>
<path d="M190.833 213.732C190.526 212.786 190.188 211.815 189.823 210.824L185.427 214.911C185.931 215.799 186.401 216.671 186.843 217.535L190.833 213.732Z" fill="url(#paint18_linear)"/>
<path d="M188.968 208.59C188.459 207.322 187.901 206.034 187.294 204.737L181.879 209.247C182.729 210.481 183.527 211.72 184.274 212.948L188.968 208.59Z" fill="url(#paint19_linear)"/>
<path d="M178.406 204.612C179.157 205.541 179.889 206.478 180.586 207.425L186.292 202.675C185.634 201.377 184.928 200.076 184.162 198.788L178.406 204.612Z" fill="url(#paint20_linear)"/>
<path d="M166.597 181.113C164.636 180.049 162.55 179.128 160.314 178.39L157.012 188.644C158.609 189.182 160.157 189.835 161.653 190.585L166.597 181.113Z" fill="url(#paint21_linear)"/>
<path d="M182.956 196.845C182.186 195.65 181.362 194.472 180.49 193.321L174.02 199.724C175.044 200.754 176.027 201.816 176.97 202.903L182.956 196.845Z" fill="url(#paint22_linear)"/>
<path d="M150.32 176.442C149.207 176.362 148.075 176.316 146.909 176.316C145.455 176.316 144.078 176.414 142.748 176.556V187.075C143.993 186.972 145.276 186.905 146.632 186.905C147.048 186.905 147.453 186.936 147.866 186.952L150.32 176.442Z" fill="url(#paint23_linear)"/>
<path d="M116.999 197.438C114.585 203.695 114.181 208.914 114.181 208.914C114.181 208.914 115.142 204.82 118.416 200.165L116.999 197.438Z" fill="url(#paint24_linear)"/>
<path d="M190.243 225.214C191.082 227.562 191.582 229.54 191.704 230.926C191.704 230.926 194.2 231.571 194.063 227.974C194.038 227.355 193.798 225.408 193.215 222.612L190.243 225.214Z" fill="url(#paint25_linear)"/>
<path d="M140.534 176.867C138.675 177.193 136.939 177.651 135.332 178.23L135.878 188.225C137.333 187.843 138.886 187.537 140.534 187.314V176.867Z" fill="url(#paint26_linear)"/>
<path d="M119.907 198.222C120.454 197.566 121.05 196.909 121.695 196.258L119.986 191.252C119.285 192.431 118.676 193.617 118.128 194.79L119.907 198.222Z" fill="url(#paint27_linear)"/>
<path d="M129.532 190.598C130.816 189.957 132.195 189.371 133.689 188.872L133.157 179.11C131.245 179.981 129.525 181.023 127.977 182.191L129.532 190.598Z" fill="url(#paint28_linear)"/>
<path d="M123.478 194.602C124.665 193.586 125.997 192.618 127.484 191.725L126.017 183.797C124.278 185.369 122.797 187.1 121.53 188.893L123.478 194.602Z" fill="url(#paint29_linear)"/>
<path d="M34.4281 112.962L33.551 113.732C24.4209 103.4 14.6906 109.963 14.2799 110.253L14.2557 110.231C14.4347 110.074 14.611 109.93 14.8015 109.774L14.7446 108.649C17.7867 107.089 26.438 103.934 34.4281 112.962Z" fill="url(#paint30_linear)"/>
<path d="M25.6875 126.293C25.6206 126.249 25.3976 126.115 25.0308 125.905C24.5973 125.636 23.979 125.291 23.1914 124.957C22.8133 124.778 22.3782 124.623 21.9242 124.466C21.4586 124.333 20.9696 124.21 20.4606 124.154C19.4407 123.999 18.3512 124.131 17.4512 124.613C16.5558 125.091 15.8548 125.882 15.3673 126.729C14.8789 127.576 14.5691 128.467 14.3566 129.248C14.1498 130.028 14.0362 130.694 13.9799 131.163C13.9573 131.377 13.936 131.566 13.9245 131.688C13.4262 130.552 13.1044 129.248 12.9294 127.877C13.2257 127.23 13.6174 126.539 14.1128 125.871C14.8136 124.934 15.798 124.043 17.0105 123.586C18.2074 123.129 19.5037 123.163 20.5935 123.453C21.1359 123.586 21.636 123.786 22.1023 123.987C22.5586 124.199 22.978 124.411 23.3554 124.644C24.0981 125.091 24.6881 125.513 25.0875 125.825C25.3976 126.071 25.608 126.228 25.6875 126.293Z" fill="url(#paint31_linear)"/>
<path d="M25.6307 85.6362C25.6079 85.7134 25.4637 86.0603 25.2639 86.5959C25.1516 86.9071 24.974 87.2642 24.7871 87.687C24.6185 88.1224 24.354 88.5665 24.0776 89.0807C23.8112 89.582 23.4089 90.073 23.0335 90.6188C22.8019 90.8529 22.5686 91.1085 22.3327 91.3541L21.9566 91.744L21.5361 92.0666C21.2475 92.2906 20.9476 92.5249 20.649 92.7463C20.3263 92.9463 19.9844 93.1161 19.6397 93.3048C18.9409 93.7261 18.2317 93.9286 17.5316 94.1956L17.0005 94.3856C16.7546 94.4742 16.6651 94.5185 16.4882 94.5854L16.0212 94.7639L15.626 95.0309C15.0786 95.365 14.7261 95.8663 14.4361 96.379C14.1929 96.9259 14.0139 97.4828 13.9699 98.0626C13.8826 98.6308 13.9023 99.1993 13.9357 99.712C13.9925 100.593 14.1581 101.361 14.3023 101.931C13.9696 101.83 12.9705 101.44 12.0728 100.438C12.0728 100.438 12.0728 100.438 12.0728 100.426C12.0609 100.213 12.0609 99.9921 12.0609 99.7578C12.0728 99.1451 12.1162 98.4753 12.2839 97.7729C12.4175 97.0603 12.7167 96.3249 13.1269 95.6223C13.5832 94.9426 14.1823 94.2844 14.9351 93.9059L15.4994 93.6047L16.1022 93.4278L16.6543 93.2707L17.198 93.1266C17.9201 92.9365 18.6842 92.781 19.2833 92.4698C19.6074 92.3356 19.9272 92.1898 20.24 92.0557C20.5369 91.8672 20.8257 91.6902 21.1157 91.5101L21.5458 91.2302L21.9239 90.9089C22.1691 90.6862 22.4127 90.4733 22.648 90.2735C23.0575 89.7824 23.4882 89.3583 23.7888 88.8911C24.098 88.4228 24.3999 88.0116 24.6069 87.5975C24.83 87.1977 25.0304 86.8522 25.1749 86.5609C25.4418 86.0492 25.595 85.7134 25.6307 85.6362Z" fill="url(#paint32_linear)"/>
<path d="M24.1175 81.6122C24.031 82.1904 23.8282 83.0602 23.1952 83.9084C22.8752 84.3309 22.4652 84.7438 21.9534 85.0664C21.4467 85.412 20.8439 85.6576 20.2127 85.8474C19.89 85.9246 19.546 85.9802 19.2043 86.0474C18.8696 86.0915 18.5482 86.1044 18.2169 86.1359C17.5177 86.2145 16.9391 86.2245 16.3384 86.4372C16.0421 86.5044 15.7522 86.6256 15.4756 86.7598C15.1992 86.8727 14.9318 87.0268 14.6889 87.2066C14.4201 87.3623 14.1898 87.5394 13.9668 87.7408C13.7338 87.9306 13.5204 88.1306 13.3229 88.3547C13.1238 88.5645 12.9362 88.7772 12.7685 89.0115C12.588 89.2228 12.4243 89.4456 12.2901 89.6796C11.9823 90.125 11.7371 90.5836 11.5246 91.0064C11.1804 91.6961 10.9282 92.3329 10.7727 92.8212C10.6376 92.6226 10.0733 91.6958 9.69586 90.4036C9.75214 90.2908 9.82875 90.1809 9.89474 90.071C10.1946 89.6113 10.5174 89.1343 10.9147 88.6546C11.1038 88.4089 11.3276 88.1747 11.5608 87.9406C11.7703 87.6949 12.0241 87.4609 12.2808 87.2493C12.5337 87.0166 12.814 86.8039 13.1139 86.6152C13.3903 86.4038 13.6994 86.214 14.0328 86.0583C14.3456 85.8799 14.676 85.7355 15.0301 85.6342C15.3754 85.5014 15.7187 85.4001 16.0864 85.3559C16.7843 85.1774 17.5746 85.2444 18.1945 85.2331C18.515 85.2331 18.8612 85.2558 19.1704 85.2444C19.4703 85.2101 19.7695 85.1988 20.0581 85.1545C20.6459 85.0446 21.2109 84.8875 21.6901 84.6205C22.1868 84.3862 22.5984 84.0393 22.9317 83.6965C23.5984 82.9698 23.875 82.1457 24.0312 81.5888C24.1647 81.0206 24.1647 80.6748 24.1647 80.6748C24.1647 80.6748 24.2057 81.021 24.1175 81.6122Z" fill="url(#paint33_linear)"/>
</g>
<defs>
<linearGradient id="paint0_linear" x1="64.4185" y1="216.381" x2="82.9386" y2="229.167" gradientUnits="userSpaceOnUse">
<stop stop-color="#00236A"/>
</linearGradient>
<linearGradient id="paint1_linear" x1="52.9779" y1="4.7417" x2="83.1168" y2="28.7755" gradientUnits="userSpaceOnUse">
<stop stop-color="#00236A"/>
</linearGradient>
<linearGradient id="paint2_linear" x1="75.0077" y1="223.078" x2="83.7305" y2="232.46" gradientUnits="userSpaceOnUse">
<stop stop-color="#00236A"/>
</linearGradient>
<linearGradient id="paint3_linear" x1="67.1944" y1="192.06" x2="81.9512" y2="196.682" gradientUnits="userSpaceOnUse">
<stop stop-color="#00236A"/>
</linearGradient>
<linearGradient id="paint4_linear" x1="22.0448" y1="36.1475" x2="39.8088" y2="63.5922" gradientUnits="userSpaceOnUse">
<stop stop-color="#00236A"/>
</linearGradient>
<linearGradient id="paint5_linear" x1="27.6903" y1="130.948" x2="27.7598" y2="130.96" gradientUnits="userSpaceOnUse">
<stop stop-color="#00236A"/>
</linearGradient>
<linearGradient id="paint6_linear" x1="133.351" y1="192.06" x2="177.097" y2="215.931" gradientUnits="userSpaceOnUse">
<stop stop-color="#00236A"/>
</linearGradient>
<linearGradient id="paint7_linear" x1="95.4608" y1="260.526" x2="116.571" y2="270.107" gradientUnits="userSpaceOnUse">
<stop stop-color="#00236A"/>
</linearGradient>
<linearGradient id="paint8_linear" x1="55.2154" y1="230.325" x2="98.3145" y2="255.066" gradientUnits="userSpaceOnUse">
<stop stop-color="#00236A"/>
</linearGradient>
<linearGradient id="paint9_linear" x1="145.075" y1="238.588" x2="184.904" y2="266.897" gradientUnits="userSpaceOnUse">
<stop stop-color="#00236A"/>
</linearGradient>
<linearGradient id="paint10_linear" x1="21.7767" y1="42.5352" x2="60.9793" y2="69.7834" gradientUnits="userSpaceOnUse">
<stop stop-color="#00236A"/>
</linearGradient>
<linearGradient id="paint11_linear" x1="31.683" y1="93.7051" x2="43.9048" y2="94.9908" gradientUnits="userSpaceOnUse">
<stop stop-color="#00236A"/>
</linearGradient>
<linearGradient id="paint12_linear" x1="142.362" y1="204.145" x2="167.98" y2="219.547" gradientUnits="userSpaceOnUse">
<stop stop-color="#00236A"/>
</linearGradient>
<linearGradient id="paint13_linear" x1="135.752" y1="233.503" x2="141.864" y2="240.396" gradientUnits="userSpaceOnUse">
<stop stop-color="#00236A"/>
</linearGradient>
<linearGradient id="paint14_linear" x1="152.945" y1="176.66" x2="159.722" y2="179.262" gradientUnits="userSpaceOnUse">
<stop stop-color="#00236A"/>
</linearGradient>
<linearGradient id="paint15_linear" x1="167.149" y1="182.221" x2="175.108" y2="185.922" gradientUnits="userSpaceOnUse">
<stop stop-color="#00236A"/>
</linearGradient>
<linearGradient id="paint16_linear" x1="172.517" y1="187.506" x2="180.252" y2="191.473" gradientUnits="userSpaceOnUse">
<stop stop-color="#00236A"/>
</linearGradient>
<linearGradient id="paint17_linear" x1="189.563" y1="216.105" x2="193.598" y2="217.611" gradientUnits="userSpaceOnUse">
<stop stop-color="#00236A"/>
</linearGradient>
<linearGradient id="paint18_linear" x1="187.327" y1="210.824" x2="191.705" y2="212.726" gradientUnits="userSpaceOnUse">
<stop stop-color="#00236A"/>
</linearGradient>
<linearGradient id="paint19_linear" x1="184.37" y1="204.737" x2="189.979" y2="207.349" gradientUnits="userSpaceOnUse">
<stop stop-color="#00236A"/>
</linearGradient>
<linearGradient id="paint20_linear" x1="181.177" y1="198.788" x2="187.288" y2="201.797" gradientUnits="userSpaceOnUse">
<stop stop-color="#00236A"/>
</linearGradient>
<linearGradient id="paint21_linear" x1="160.38" y1="178.39" x2="168.204" y2="181.706" gradientUnits="userSpaceOnUse">
<stop stop-color="#00236A"/>
</linearGradient>
<linearGradient id="paint22_linear" x1="177.16" y1="193.321" x2="184.027" y2="196.775" gradientUnits="userSpaceOnUse">
<stop stop-color="#00236A"/>
</linearGradient>
<linearGradient id="paint23_linear" x1="145.409" y1="176.316" x2="151.781" y2="178.735" gradientUnits="userSpaceOnUse">
<stop stop-color="#00236A"/>
</linearGradient>
<linearGradient id="paint24_linear" x1="115.669" y1="197.437" x2="119.591" y2="198.218" gradientUnits="userSpaceOnUse">
<stop stop-color="#00236A"/>
</linearGradient>
<linearGradient id="paint25_linear" x1="191.587" y1="222.612" x2="195.058" y2="223.469" gradientUnits="userSpaceOnUse">
<stop stop-color="#00236A"/>
</linearGradient>
<linearGradient id="paint26_linear" x1="137.16" y1="176.867" x2="141.88" y2="178.033" gradientUnits="userSpaceOnUse">
<stop stop-color="#00236A"/>
</linearGradient>
<linearGradient id="paint27_linear" x1="119.382" y1="191.252" x2="122.573" y2="192.133" gradientUnits="userSpaceOnUse">
<stop stop-color="#00236A"/>
</linearGradient>
<linearGradient id="paint28_linear" x1="129.984" y1="179.11" x2="135.115" y2="180.485" gradientUnits="userSpaceOnUse">
<stop stop-color="#00236A"/>
</linearGradient>
<linearGradient id="paint29_linear" x1="123.622" y1="183.797" x2="128.889" y2="185.362" gradientUnits="userSpaceOnUse">
<stop stop-color="#00236A"/>
</linearGradient>
<linearGradient id="paint30_linear" x1="21.3441" y1="106.823" x2="26.9261" y2="115.612" gradientUnits="userSpaceOnUse">
<stop stop-color="#00236A"/>
</linearGradient>
<linearGradient id="paint31_linear" x1="17.4125" y1="123.238" x2="24.7992" y2="129.253" gradientUnits="userSpaceOnUse">
<stop stop-color="#00236A"/>
</linearGradient>
<linearGradient id="paint32_linear" x1="16.8291" y1="85.6362" x2="27.7017" y2="90.5192" gradientUnits="userSpaceOnUse">
<stop stop-color="#00236A"/>
</linearGradient>
<linearGradient id="paint33_linear" x1="14.7834" y1="80.6748" x2="24.6475" y2="87.0158" gradientUnits="userSpaceOnUse">
<stop stop-color="#00236A"/>
</linearGradient>
</defs>
</svg>
