<svg width="47" height="65" viewBox="0 0 47 65" fill="none" xmlns="http://www.w3.org/2000/svg">
<path d="M1.46951 74.7327C0.798362 73.7014 0.559876 72.4919 0.0795081 71.3833C-0.186227 70.7685 0.277105 70.4459 0.546247 70.0529C6.35154 61.6842 12.15 53.3088 17.9928 44.967C18.6469 44.0364 18.6674 43.3948 18.0269 42.4238C13.9761 36.2792 9.70391 30.2723 5.93251 23.9496C4.48459 21.524 3.51363 18.8834 2.73346 16.1722C2.48135 15.2954 2.60059 14.6604 3.31263 14.0725C3.82707 13.6459 4.25633 13.1218 4.72307 12.6413C5.28179 15.4634 6.41968 18.0704 7.80968 20.5766C9.19628 23.0795 10.8827 25.3976 12.4805 27.7694C15.2503 31.8849 18.0643 35.9668 20.9397 40.1797C21.6552 39.2491 22.2412 38.4226 22.8953 37.6499C23.5494 36.8772 23.3995 36.2792 22.8442 35.4695C19.3044 30.3462 15.8056 25.196 12.3476 20.0189C10.1911 16.787 8.38204 13.3838 7.8199 9.47328C8.81812 8.46542 9.81974 7.45755 10.818 6.44968C11.455 10.1956 13.121 13.5283 15.2094 16.656C18.6401 21.7995 22.1492 26.8926 25.6378 31.9991C25.8116 32.2545 25.8831 32.6408 26.3601 32.6845C26.9699 31.8043 27.5388 30.867 28.227 30.0237C28.7517 29.382 28.6495 28.9352 28.21 28.2902C24.7316 23.1769 21.2259 18.0805 17.877 12.8866C15.9385 9.87978 14.3781 6.66133 13.8705 3.05652C14.5042 1.93779 15.5705 1.19532 16.3984 0.244566C16.6948 -0.0981094 17.107 0.0194758 17.4784 0.0194758C26.3771 0.0127566 35.2792 0.0194747 44.178 0.00267694C44.8219 0.00267694 45.309 0.150498 45.7281 0.654432C46.4299 1.49432 47.1896 2.28718 47.9221 3.10019C47.2884 7.49114 45.1353 11.2471 42.6892 14.8351C32.891 29.1872 23.0452 43.5123 13.1993 57.8308C9.31552 63.4849 5.38059 69.1021 1.46951 74.7327ZM30.8776 3.55373C26.7076 3.55373 22.541 3.54701 18.371 3.56717C18.003 3.57053 17.3148 3.30848 17.3251 3.89305C17.3421 4.94459 17.8293 5.91886 18.3471 6.83266C18.6878 7.43738 19.3521 7.15182 19.8666 7.15518C26.8847 7.17198 33.9063 7.16862 40.9244 7.16862C43.609 7.16862 43.5988 7.15182 44.3551 4.5784C44.6072 3.72507 44.3824 3.53022 43.5102 3.53694C39.2993 3.57389 35.0884 3.55373 30.8776 3.55373ZM30.8367 10.7264C28.2815 10.7264 25.7298 10.7029 23.1746 10.7398C22.3536 10.7533 21.1407 10.3232 20.8103 10.9683C20.5003 11.5696 21.57 12.3356 21.9175 13.0814C22.4422 14.2103 23.2768 14.4219 24.4624 14.3984C28.3326 14.3211 32.2199 14.1901 36.0764 14.4387C38.342 14.5832 39.6741 13.8306 40.5326 11.9157C40.6825 11.5831 41.1288 11.2841 40.9449 10.9213C40.7507 10.5349 40.2567 10.7365 39.8989 10.7365C36.8805 10.7197 33.8586 10.7264 30.8367 10.7264ZM30.9253 26.1568C32.6798 23.6103 34.3219 21.2217 35.964 18.8397C36.4444 18.1409 36.0049 18.0939 35.4462 18.0939C33.8313 18.0973 32.2165 18.0939 30.6016 18.0939C28.9254 18.0939 27.2527 18.0939 25.3312 18.0939C27.2561 20.8622 29.014 23.3986 30.9253 26.1568Z" fill="#C4243E"/>
<path d="M5.44925 84.2705C4.61457 83.8774 4.70315 82.9838 4.39653 82.3152C4.00474 81.4552 3.73901 80.5414 3.41876 79.6511C4.32839 78.2837 5.2244 76.9097 6.15106 75.5558C19.3016 56.3794 32.4623 37.2098 45.6094 18.03C48.0759 14.432 50.212 10.6827 50.907 6.30518C52.2732 7.06444 53.1147 8.29404 53.9051 9.57067C53.8301 10.0242 53.7824 10.4845 53.6734 10.9313C52.8013 14.5731 50.999 17.7949 48.9106 20.8622C34.503 42.0509 20.0613 63.2195 5.44925 84.2705Z" fill="#C4243E"/>
<path d="M5.44897 84.2706C20.0644 63.2196 34.5027 42.051 48.9137 20.8623C51.0022 17.7916 52.8044 14.5732 53.6765 10.9314C53.7822 10.4846 53.8298 10.0243 53.9082 9.5708C55.0154 10.5552 56.1056 11.5563 56.9574 12.7758C56.2521 16.3269 54.7463 19.5689 52.7294 22.5421C39.3847 42.2425 26.0162 61.9295 12.4194 81.462C10.6172 84.0489 8.94442 86.7265 6.9514 89.1857C6.49147 87.9796 6.01792 86.7768 5.57843 85.5607C5.42513 85.1542 5.08444 84.7376 5.44897 84.2706Z" fill="#FEFEFE"/>
<path d="M50.9071 6.30566C50.2121 10.6832 48.076 14.4358 45.6094 18.0305C32.4623 37.2103 19.3016 56.3799 6.15112 75.5563C5.22445 76.9102 4.32845 78.2842 3.41882 79.6516C2.53985 78.0994 2.01178 76.413 1.47009 74.7332C5.38117 69.1026 9.3161 63.4854 13.1999 57.8346C23.0458 43.5128 32.8882 29.191 42.6897 14.8389C45.1393 11.2509 47.289 7.49831 47.9227 3.104C49.2718 3.84983 50.0281 5.13317 50.9071 6.30566Z" fill="#FEFEFE"/>
<path d="M6.94836 89.1862C8.93797 86.727 10.6142 84.0494 12.4164 81.4626C26.0132 61.9301 39.3817 42.2431 52.7264 22.5426C54.7399 19.566 56.2491 16.3274 56.9543 12.7764C57.697 13.6499 58.8996 14.1336 59.2165 15.3699C57.5573 22.1563 53.5202 27.7298 49.7147 33.4175C47.4049 36.8745 45.0201 40.2811 42.8635 43.8355C40.9591 46.6038 39.0308 49.3586 37.1536 52.1437C35.0175 55.3117 32.9257 58.5101 30.8135 61.6916C28.6467 64.8495 26.4629 67.9941 24.3166 71.1622C19.3766 78.449 14.4537 85.746 9.52736 93.0396C9.31614 93.352 9.12535 93.6813 8.92775 94.0004C7.8614 92.5558 7.44577 90.8559 6.94836 89.1862Z" fill="#C4243E"/>
<path d="M7.82004 9.47314C8.38218 13.3837 10.1878 16.7869 12.3478 20.0188C15.8023 25.1959 19.3046 30.3461 22.8443 35.4694C23.403 36.2791 23.5495 36.8771 22.8954 37.6498C22.2413 38.4225 21.6553 39.2489 20.9399 40.1795C18.0645 35.9666 15.2504 31.8848 12.4806 27.7693C10.8862 25.3975 9.19982 23.0794 7.80982 20.5765C6.41982 18.0703 5.28193 15.4632 4.72321 12.6412C5.62602 11.462 6.62764 10.3769 7.82004 9.47314Z" fill="#FEFEFE"/>
<path d="M13.8697 3.06006C14.3774 6.66487 15.9377 9.88332 17.8762 12.8901C21.2252 18.084 24.7308 23.1805 28.2092 28.2937C28.6487 28.9421 28.7509 29.3856 28.2263 30.0272C27.5381 30.8705 26.9691 31.8044 26.3593 32.688C25.8824 32.6443 25.8108 32.258 25.6371 32.0027C22.1484 26.8961 18.6394 21.803 15.2086 16.6596C13.1236 13.5318 11.4577 10.1991 10.8172 6.45321C11.5872 5.10267 12.8 4.14184 13.8697 3.06006Z" fill="#FEFEFE"/>
<path d="M30.8124 61.6871C32.9246 58.5022 35.0164 55.3073 37.1525 52.1392C39.0297 49.3542 40.958 46.5993 42.8625 43.8311C43.9935 44.98 44.7635 46.3877 45.6697 47.6912C50.8379 55.1158 55.938 62.5875 61.096 70.0188C61.6343 70.7949 61.682 71.3862 61.3243 72.2899C58.6226 79.1602 56.0061 86.0607 53.3658 92.9545C53.2364 93.2938 53.2193 93.8347 52.8071 93.8112C52.5482 93.7944 52.2858 93.3241 52.078 93.0217C45.2643 82.9464 38.454 72.8677 31.6402 62.789C31.3813 62.4128 31.0883 62.0567 30.8124 61.6871ZM43.1077 54.669C43.1248 54.6992 43.1384 54.7362 43.1623 54.7631C43.1725 54.7731 43.2065 54.7597 43.2304 54.7563C43.1827 54.7362 43.1384 54.716 43.0907 54.6959C43.0532 53.5536 42.934 52.3879 44.2627 51.5614C42.6683 51.7025 42.0176 50.7685 41.4145 49.2971C41.1318 51.0911 40.1267 51.5412 38.7231 51.6252C40.0586 52.4013 40.1336 53.4931 39.7452 54.7765C41.3294 54.0777 41.3294 54.0777 43.1077 54.669ZM48.8824 77.3124C48.218 75.9384 48.8619 74.9775 49.8022 74.0133C48.2419 74.2115 47.6695 73.2474 47.1278 72.1219C46.794 73.6169 45.7413 73.9663 44.1264 74.057C45.6901 74.9574 45.9388 76.0056 45.421 77.3628C46.5691 76.5229 47.6389 76.318 48.8824 77.3124ZM46.6304 56.4865C46.3443 58.0756 45.2166 58.3847 43.5677 58.4451C45.1008 59.3354 45.4346 60.3802 44.927 61.7644C46.1296 60.7599 47.2403 60.9312 48.4565 61.7173C47.7888 60.3063 48.402 59.3623 49.7852 58.3477C47.9148 58.5862 47.179 57.7766 46.6304 56.4865ZM52.8889 68.591C52.0099 67.0658 53.0796 66.2729 54.146 65.1811C52.3438 65.4834 51.584 64.704 51.1241 63.3803C50.7051 64.7813 49.8159 65.3927 48.3407 65.3692C49.5263 66.1856 49.884 67.2069 49.4513 68.5977C50.5892 67.7914 51.6351 67.7646 52.8889 68.591ZM41.0568 70.3245C42.2083 69.5317 43.2508 69.5653 44.4126 70.3749C43.8402 68.9572 44.5591 68.03 45.4687 67.0893C43.8709 67.3043 43.2065 66.4039 42.6546 64.8048C42.3378 66.6089 41.4145 67.1531 39.6634 67.0523C41.0704 67.9997 41.4827 68.9538 41.0568 70.3245ZM35.8784 63.4442C37.0469 62.5337 38.1235 62.7185 39.3466 63.4912C38.6311 62.06 39.2512 61.1361 40.5151 60.2089C38.9275 60.2526 37.96 59.7621 37.5409 58.3007C37.2377 59.873 36.1032 60.1921 34.4611 60.266C35.9636 61.1328 36.2804 62.1138 35.8784 63.4442ZM52.4051 72.3571C53.8053 73.0794 53.7849 74.2082 53.3454 75.7502C54.6877 74.6584 55.7438 74.6819 56.9089 75.468C56.4899 74.1343 56.7659 73.1096 58.0332 72.2529C56.4081 72.4847 55.7063 71.5945 55.168 70.3413C54.8444 71.8397 53.8121 72.2563 52.4051 72.3571ZM54.0165 81.0079C52.5005 81.1087 51.7305 80.3394 51.2297 79.0325C50.8447 80.457 49.901 81.0079 48.4531 81.055C49.7886 81.831 50.0032 82.8792 49.5024 84.2499C50.6914 83.2992 51.8089 83.3563 52.9945 84.1894C52.4971 82.8187 52.8241 81.8445 54.0165 81.0079Z" fill="#1C4794"/>
<path d="M30.8772 3.55356C35.0881 3.55356 39.299 3.57708 43.5099 3.53676C44.382 3.53004 44.6035 3.7249 44.3548 4.57823C43.5984 7.15165 43.6087 7.16844 40.9241 7.16844C33.9059 7.16844 26.8844 7.17516 19.8662 7.155C19.3518 7.155 18.6909 7.43721 18.3468 6.83249C17.8289 5.91869 17.3417 4.94441 17.3247 3.89287C17.3145 3.30495 18.0027 3.567 18.3706 3.567C22.5372 3.54348 26.7072 3.55356 30.8772 3.55356Z" fill="#C5C5C5"/>
<path d="M30.8358 10.726C33.8576 10.726 36.8795 10.7193 39.9014 10.7361C40.2592 10.7394 40.7532 10.5345 40.9473 10.9209C41.1279 11.2837 40.685 11.5827 40.5351 11.9153C39.6732 13.8269 38.3445 14.5828 36.0789 14.4383C32.2224 14.1897 28.3351 14.3207 24.4649 14.398C23.2827 14.4215 22.4447 14.2099 21.92 13.081C21.5725 12.3352 20.5027 11.5692 20.8128 10.9679C21.1432 10.3262 22.3561 10.7529 23.1771 10.7394C25.7289 10.6991 28.284 10.726 30.8358 10.726Z" fill="#C5C5C5"/>
<path d="M30.9248 26.1568C29.0135 23.402 27.2522 20.8622 25.3341 18.0939C27.2556 18.0939 28.9283 18.0939 30.6045 18.0939C32.2194 18.0939 33.8342 18.0973 35.4491 18.0939C36.0078 18.0905 36.4473 18.1409 35.9669 18.8397C34.3214 21.2216 32.6793 23.6069 30.9248 26.1568Z" fill="#072468"/>
<path d="M46.6319 56.4868C47.1804 57.7769 47.9163 58.5865 49.79 58.348C48.4034 59.3592 47.7902 60.3066 48.4614 61.7176C47.2417 60.9349 46.1345 60.7602 44.9318 61.7647C45.4395 60.3805 45.1056 59.3391 43.5725 58.4454C45.218 58.385 46.3457 58.0759 46.6319 56.4868Z" fill="#FEFEFE"/>
<path d="M41.0583 70.3244C41.4841 68.9537 41.0685 67.9996 39.6649 67.0522C41.416 67.153 42.3392 66.6088 42.6561 64.8047C43.208 66.4038 43.8723 67.3042 45.4702 67.0892C44.5639 68.0299 43.8417 68.9571 44.414 70.3748C43.2557 69.5652 42.2132 69.5316 41.0583 70.3244Z" fill="#FEFEFE"/>
<path d="M35.8792 63.4447C36.2812 62.1177 35.9643 61.1333 34.4619 60.2632C36.104 60.1893 37.2351 59.8735 37.5417 58.2979C37.9608 59.7593 38.9283 60.2498 40.5159 60.2061C39.252 61.1333 38.6319 62.0572 39.3474 63.4884C38.1243 62.7157 37.0477 62.5343 35.8792 63.4447Z" fill="#FEFEFE"/>
<path d="M43.1048 54.6692C41.3265 54.0746 41.3265 54.0746 39.7389 54.7734C40.1306 53.4934 40.0523 52.3982 38.7168 51.6221C40.1204 51.5381 41.1254 51.088 41.4082 49.2939C42.0112 50.7621 42.6619 51.6994 44.2564 51.5583C42.9311 52.3847 43.0469 53.5505 43.0844 54.6927L43.1048 54.6692Z" fill="#FEFEFE"/>
<path d="M43.0882 54.6963C43.1359 54.7165 43.1802 54.7366 43.2279 54.7568C43.204 54.7601 43.17 54.7736 43.1597 54.7635C43.1359 54.7366 43.1223 54.703 43.1052 54.6694L43.0882 54.6963Z" fill="#FEFEFE"/>
</svg>
