<svg width="127" height="298" viewBox="0 0 127 298" fill="none" xmlns="http://www.w3.org/2000/svg">
<path d="M4.48957 26.4976C4.62383 26.9462 4.96746 27.9442 5.55562 28.7423C3.89821 30.4278 5.81774 33.0869 5.81774 33.0869C5.81774 33.0869 4.94509 34.6831 4.77087 35.9248C4.59666 37.1666 8.43413 44.5264 8.43413 44.5264C8.43413 44.5264 8.52204 62.4398 8.60835 69.7118C8.69625 76.9838 10.9626 81.9493 10.9626 81.9493L10.5535 91.1588C6.63607 94.9963 1.76291 100.874 0.847096 107.039C0.39798 110.062 2.40381 116.18 6.68401 117.688C5.64353 123.985 6.2301 129.484 10.8204 134.006C9.74312 138.173 12.6728 140.923 12.6728 140.923C12.6728 140.923 10.0836 146.422 11.6563 148.462C13.2306 150.502 14.7809 149.362 14.5284 152.06C14.2758 154.759 11.8273 157.546 13.9818 159.487C9.91574 169.569 9.34196 177.018 14.164 183.226C14.164 183.226 6.34198 200.341 14.6259 208.5C13.7532 211.87 14.9743 214.353 14.9743 214.353C14.9743 214.353 11.8353 222.513 16.718 232.356C12.9685 240.781 15.9333 248.407 15.9333 248.407C15.9333 248.407 13.0564 254.526 13.6653 259.846C14.2758 265.168 15.0606 268.093 14.1016 270.577C13.1427 273.061 11.0489 277.139 11.2247 281.839C11.2951 283.741 11.7937 287.341 12.3627 290.955C25.4414 295.389 39.4344 297.789 53.9771 297.789C69.3973 297.789 84.1958 295.09 97.9442 290.131L97.4679 281.929C97.4679 281.929 100.955 279.801 100.955 277.672C100.955 275.543 99.648 248.052 99.648 248.052C99.648 248.052 104.707 244.506 104.444 241.135C104.182 237.765 101.48 222.334 101.48 222.334C101.48 222.334 109.851 206.992 107.846 187.925C115.955 183.58 116.217 183.668 117.088 181.451C117.961 179.234 125.634 165.754 125.372 164.423C125.11 163.094 123.454 160.698 123.454 160.698L125.547 156.353L124.413 154.49L126.593 153.249L123.282 147.132L99.5633 149.172L100.174 151.656H98.168L93.4595 160.257L87.8783 157.774C87.8783 157.774 83.3439 141.634 81.076 138.529C78.808 135.425 72.7921 127.267 72.7921 127.267C72.7921 127.267 69.8273 118.309 69.9136 115.65C73.0526 111.925 72.0936 112.281 71.1347 109.886C70.1757 107.492 68.432 101.816 68.2562 99.3328L37.037 96.1406L33.6358 99.3328C33.6358 99.3328 32.0663 95.2531 30.671 94.1885C31.3503 87.7942 28.8026 83.339 26.4116 82.6222L25.9609 79.0236C28.1409 75.1211 22.2113 62.5292 21.5129 46.8312C23.955 40.1801 24.1292 33.6168 23.7808 32.0207C23.5922 31.1543 22.272 28.5391 21.1053 26.3286C23.7057 24.5488 25.3439 21.9628 25.3439 19.081C25.3439 16.1293 23.6258 13.488 20.9151 11.7066C21.1341 11.5944 21.369 11.5294 21.6008 11.4481C23.7137 10.7053 24.8501 7.77152 24.5176 5.80805C24.4777 5.574 24.2267 5.44397 24.019 5.54962C23.4148 5.85681 22.5613 5.6829 22.5613 5.6829C22.5613 5.6829 24.6455 3.75844 24.1612 1.40975C24.1165 1.19033 23.8863 1.06517 23.6833 1.15294C20.0392 2.71169 15.652 -2.10108 9.30679 1.16107C3.94616 3.9161 5.99355 10.6501 5.99355 10.6501L5.95359 10.8468C2.37824 12.5648 0 15.6091 0 19.0826C0 22.0554 1.74533 24.7162 4.48957 26.4976Z" fill="#13376B"/>
<path d="M52.0766 109.51C63.1943 109.51 72.207 100.793 72.207 90.0399C72.207 79.2867 63.1943 70.5694 52.0766 70.5694C40.9589 70.5694 31.9463 79.2867 31.9463 90.0399C31.9463 100.793 40.9589 109.51 52.0766 109.51Z" fill="#13376B"/>
<path d="M52.0354 47.7358L47.7168 74.3223H56.3523L52.0354 47.7358Z" fill="#13376B"/>
<path d="M76.3541 58.7565L60.7197 73.663L66.1779 78.2173L76.3541 58.7565Z" fill="#13376B"/>
<path d="M89.9014 79.1644L68.5244 80.715L69.9389 87.748L89.9014 79.1644Z" fill="#13376B"/>
<path d="M90.4691 97.0964L69.8545 91.1411L68.8252 98.2439L90.4691 97.0964Z" fill="#13376B"/>
<path d="M27.5723 58.7565L43.2066 73.663L37.7485 78.2173L27.5723 58.7565Z" fill="#13376B"/>
<path d="M14.0234 79.1644L35.3988 80.715L33.986 87.748L14.0234 79.1644Z" fill="#13376B"/>
<path d="M13.4531 97.0964L34.0678 91.1411L35.0971 98.2439L13.4531 97.0964Z" fill="#13376B"/>
<path d="M52.26 82.9886C52.26 82.9886 54.0516 86.2459 56.6584 87.6827C59.2652 89.1179 61.9248 91.8795 61.9248 91.8795C61.9248 91.8795 61.5444 92.8726 61.7617 93.9778C61.9791 95.0815 62.5769 96.7946 62.0878 98.1746C61.5987 99.5545 59.8614 103.364 59.644 104.967C59.4266 106.568 57.798 109.606 55.952 109.164C54.106 108.722 52.0426 108.335 50.7943 108.501C49.5461 108.666 48.8396 109.109 47.7544 108.556C46.6692 108.003 45.1476 104.746 44.5515 101.929C43.9537 99.1124 43.1945 98.1746 43.2489 96.7946C43.3032 95.4147 44.1263 93.9908 44.1263 93.9908C44.1263 93.9908 48.91 95.231 50.3612 91.8795C50.1982 91.2163 49.9265 90.7758 49.9265 90.7758C49.9265 90.7758 47.2653 89.2853 43.845 91.7153C43.682 90.7222 43.519 90.1143 44.9846 89.4511C46.4502 88.788 51.3921 85.8054 52.26 82.9886Z" fill="#B7C9E2"/>
<path d="M60.7837 92.2638C60.7837 92.2638 58.487 94.3654 56.2174 93.6291C55.8226 93.5007 55.4023 93.7234 55.26 94.1184C54.7614 95.5 55.0539 97.0294 55.1913 98.0063C55.3543 99.1652 55.2457 99.6073 54.5392 99.7179C53.8328 99.8284 53.6154 99.8284 53.6154 99.8284C53.6154 99.8284 53.072 100.436 52.2585 100.381C51.4434 100.326 51.0646 99.7179 51.0646 99.7179C51.0646 99.7179 49.5446 99.4968 50.1951 98.6142C50.8472 97.73 52.6932 97.2895 53.398 97.5658C54.1045 97.8422 53.9958 96.3517 53.7784 95.1911C53.5611 94.0322 53.398 91.9891 53.398 91.9891C53.398 91.9891 53.5067 90.8855 53.8871 90.4986C54.2675 90.1101 58.0682 89.2275 60.7837 92.2638Z" fill="#13376B"/>
<path d="M55.7351 102.315C55.7351 102.315 55.0287 102.591 54.4869 102.039C53.9434 101.486 53.6717 100.99 53.3473 100.99C53.0212 100.99 52.099 101.543 52.099 101.543C52.099 101.543 51.1752 100.99 50.8508 100.99C50.5247 100.99 50.253 101.488 49.7112 102.039C49.1678 102.591 48.4629 102.315 48.4629 102.315C48.4629 102.315 48.0825 103.474 49.1694 103.199C49.9845 102.646 52.1006 102.37 52.1006 102.37C52.1006 102.37 54.2183 102.646 55.0335 103.199C56.1139 103.475 55.7351 102.315 55.7351 102.315Z" fill="#13376B"/>
<path d="M52.1937 103.439C51.1852 103.439 50.0488 104.29 50.0488 104.29C50.4756 105.127 52.1937 105.027 52.1937 105.027C52.1937 105.027 53.9119 105.127 54.3386 104.29C54.337 104.29 53.2006 103.439 52.1937 103.439Z" fill="#13376B"/>
<path d="M38.8105 92.739C38.8665 92.6252 39.493 91.2713 40.9059 89.6475C40.8675 88.4415 41.1184 86.6341 42.6624 85.2606C42.453 86.3187 42.64 87.2712 42.7902 87.7962C43.1163 87.5231 43.4647 87.2517 43.8371 86.9868C43.7029 86.2489 43.6245 84.6153 45.1557 83.38C44.908 84.5406 45.1269 85.5239 45.2899 86.0278C45.7119 85.7482 46.1099 85.467 46.4871 85.1891C46.4519 84.4008 46.5414 82.5316 48.1013 82.0163C48.2036 81.9822 47.9031 83.2208 47.836 84.1277C49.8898 82.4113 50.9558 81.0281 50.9558 81.0281C39.8078 81.3581 38.7194 92.9276 38.8105 92.739Z" fill="#B7C9E2"/>
<path d="M65.2234 92.739C65.1675 92.6252 64.541 91.2713 63.1281 89.6475C63.1665 88.4415 62.9155 86.6341 61.3716 85.2606C61.581 86.3187 61.394 87.2712 61.2437 87.7962C60.9177 87.5231 60.5693 87.2517 60.1969 86.9868C60.3311 86.2489 60.4094 84.6153 58.8783 83.38C59.126 84.5406 58.907 85.5239 58.744 86.0278C58.3221 85.7482 57.9241 85.467 57.5469 85.1891C57.5821 84.4008 57.4926 82.5316 55.9326 82.0163C55.8304 81.9822 56.1308 83.2208 56.198 84.1277C54.1442 82.4113 53.0781 81.0281 53.0781 81.0281C64.2277 81.3581 65.3145 92.9276 65.2234 92.739Z" fill="#B7C9E2"/>
<path d="M63.9541 94.421C63.9541 94.421 63.9541 96.1472 65.2871 95.8383C66.62 95.5295 66.3787 93.9285 66.1357 93.9886C65.8928 94.0504 65.7729 94.7899 65.1049 94.7899C64.4368 94.7899 63.9541 94.421 63.9541 94.421Z" fill="#B7C9E2"/>
<path d="M64.0752 96.5173C64.0752 96.5173 64.3789 98.1817 65.5296 97.9346C66.6804 97.6876 66.9841 96.2085 66.7411 95.963C66.4982 95.716 64.8631 97.0098 64.0752 96.5173Z" fill="#B7C9E2"/>
<path d="M63.832 98.4887C63.832 98.4887 63.8928 100.831 65.4079 100.584C66.9231 100.337 67.3466 98.4269 66.9838 98.3034C66.6194 98.1798 65.8922 99.1664 64.9844 98.9812C64.0766 98.7959 63.832 98.4887 63.832 98.4887Z" fill="#B7C9E2"/>
<path d="M64.5276 103.128C64.5276 103.128 64.4669 106.395 64.9511 107.812C65.4354 109.229 65.7391 110.647 65.1333 112.002C64.5276 113.358 64.8904 114.899 64.8904 115.576C64.8904 116.254 62.0423 113.42 62.4658 112.309C62.8893 111.199 64.3438 111.323 64.0417 109.166C63.7396 107.011 63.6789 104.176 64.5276 103.128Z" fill="#B7C9E2"/>
<path d="M65.8008 101.834C65.8168 101.65 64.8306 103.498 65.4971 106.148C66.1636 108.797 67.073 111.817 65.6793 112.989C67.4982 113.236 68.9526 112.989 68.4667 111.139C67.9825 109.291 65.5579 104.668 65.8008 101.834Z" fill="#B7C9E2"/>
<path d="M61.3755 107.442L59.7389 109.413C59.7389 109.413 58.4059 117.118 58.5274 118.597C59.7996 119.46 60.952 119.707 60.952 119.707L61.3755 107.442Z" fill="#B7C9E2"/>
<path d="M63.0116 116.314C63.0116 116.314 64.2838 117.731 64.6482 118.718C65.011 119.704 66.4671 122.292 66.4671 122.292C66.4671 122.292 62.7079 119.828 63.0116 116.314Z" fill="#B7C9E2"/>
<path d="M65.6776 116.62C65.6776 116.62 65.3739 118.715 66.2833 120.38C67.1928 122.044 69.4959 123.769 69.4959 123.769C69.4959 123.769 67.0713 117.852 67.2535 116.373C66.3441 116.004 65.6776 116.62 65.6776 116.62Z" fill="#B7C9E2"/>
<path d="M47.0742 115.879L49.6794 121.118L55.8615 120.809C55.8615 120.809 47.8606 116.926 47.0742 115.879Z" fill="#B7C9E2"/>
<path d="M43.6185 114.526C43.6185 114.526 39.1337 118.039 37.6793 117.485C36.2248 116.93 36.407 109.226 35.6798 109.842C34.9526 110.458 30.105 126.606 31.1343 126.728C32.1652 126.852 36.7091 120.997 37.2557 121.304C37.8007 121.613 35.6798 127.837 31.8008 131.351C27.9218 134.863 19.4988 146.142 18.9538 145.773C18.4088 145.404 28.1647 124.757 27.4982 124.633C26.8317 124.509 15.3177 141.951 14.8319 143.492C14.3476 145.033 15.1947 147.005 16.8313 148.053C18.4679 149.102 18.2857 152.06 18.2857 152.06C18.2857 152.06 30.1034 134.679 41.1332 126.421C40.8902 121.121 40.8295 118.039 41.4976 118.593C42.164 119.147 43.7399 122.722 45.0729 123.461C46.2237 122.598 47.5582 121.858 47.5582 121.858C47.5582 121.858 43.5577 118.962 43.4379 117.545C43.3164 116.129 44.7101 115.573 43.6185 114.526Z" fill="#B7C9E2"/>
<path d="M28.9533 97.582C28.9533 97.582 30.6507 99.3082 30.0449 101.218C29.4392 103.128 25.1366 113.113 26.3481 113.976C27.5596 114.839 30.5292 110.154 32.2873 109.477C34.0454 108.799 34.4689 109.23 34.4689 109.23C34.4689 109.23 27.9847 117.981 26.4696 121.617C24.9544 125.253 14.2891 138.688 14.2891 138.688C14.2891 138.688 12.2896 137.64 13.3189 133.141C14.3498 128.642 18.0466 114.714 18.0466 114.714C18.0466 114.714 21.8649 110.769 22.2884 109.475C17.8037 122.972 15.622 129.566 15.9864 131.045C21.7434 124.019 27.8041 116.007 27.1984 115.638C26.5926 115.268 21.8649 121.124 21.5021 120.199C21.1361 119.276 29.6198 100.171 28.9533 97.582Z" fill="#B7C9E2"/>
<path d="M9.01432 117.487C9.01432 117.487 13.9226 117.549 14.5284 117.056C13.4975 121.617 13.2562 124.637 13.2562 124.637C13.2562 124.637 11.498 120.754 10.8923 120.385C10.2866 120.015 11.1352 126.61 12.831 129.074C12.4075 131.231 12.4075 131.847 12.4075 131.847C12.4075 131.847 9.19493 127.779 8.89285 124.637C8.59078 121.492 9.01432 117.487 9.01432 117.487Z" fill="#B7C9E2"/>
<path d="M27.7401 88.7681C27.7401 88.7681 28.5281 90.4325 27.8008 92.4041C27.0736 94.3757 13.6193 110.215 7.98376 111.016C12.1041 112.804 20.7716 106.764 23.9218 102.696C23.9218 102.696 18.6491 112.249 13.4978 114.9C11.1947 116.07 8.16437 115.516 7.25655 114.961C6.34712 114.407 3.55972 109.723 3.74193 107.133C3.92413 104.544 11.6806 94.2522 11.6806 94.2522L11.8021 99.9215C11.8021 99.9215 7.13508 102.818 6.59007 104.482C9.13613 102.88 10.4691 103.25 10.4691 103.25C10.4691 103.25 8.28744 107.873 7.19581 108.427C12.5293 107.195 27.0736 91.9116 27.7401 88.7681Z" fill="#B7C9E2"/>
<path d="M10.6914 47.7542C10.6914 47.7542 10.9024 57.2708 10.9024 63.7935C10.9024 70.3162 10.5875 75.129 13.1112 81.6516C14.0574 90.2061 14.1629 101.007 14.1629 101.007C14.1629 101.007 22.5746 93.4146 23.4153 91.4901C22.3637 83.6834 21.9433 78.5504 21.9433 78.5504C21.9433 78.5504 21.523 82.2937 20.7862 82.5066C20.0493 82.7212 18.5773 75.8766 19.4196 72.5625C20.2603 69.2483 16.5811 49.3584 15.7388 47.0049C14.4154 48.9277 12.0324 48.9862 10.6914 47.7542Z" fill="#B7C9E2"/>
<path d="M66.5239 124.429C66.5239 124.429 60.5304 128.064 59.3732 129.241C60.2139 126.889 61.1601 126.033 60.0045 126.033C58.849 126.033 25.0949 142.072 15.315 178.643C11.2138 167.95 18.2591 150.519 33.1902 137.154C33.1902 137.154 44.7569 125.071 50.856 122.717C58.7419 121.327 61.3711 122.075 61.3711 122.075C61.3711 122.075 50.7505 125.389 48.7526 126.566C49.384 125.176 49.4895 124.534 49.4895 124.534C49.4895 124.534 33.8215 135.228 31.1939 143.569C45.2844 128.598 58.3823 123.353 62.4243 122.824C62.4227 122.824 63.4744 124.321 66.5239 124.429Z" fill="#B7C9E2"/>
<path d="M54.1184 135.013C54.1184 135.013 39.9225 140.681 35.9268 145.599C20.9956 169.446 12.2674 192.757 14.2653 200.991C15.2115 202.808 15.9483 203.237 15.9483 203.237C15.9483 203.237 30.1442 166.024 25.5172 173.509C20.8902 180.994 18.0516 184.31 24.4655 168.696C30.8794 153.084 40.6593 146.775 40.6593 146.775C40.6593 146.775 18.1571 194.039 18.6829 205.375C37.7153 156.4 54.1184 135.013 54.1184 135.013Z" fill="#B7C9E2"/>
<path d="M62.3199 129.453C62.3199 129.453 59.5853 131.805 54.223 139.826C48.8608 147.846 16.9991 204.094 17.5249 216.07C17.1046 220.988 19.1024 227.405 19.1024 227.405C19.1024 227.405 21.7316 222.487 24.9905 218.958C19.5228 229.866 16.8936 240.88 20.0486 243.874C30.1433 234.677 49.1757 205.164 49.1757 205.164C49.1757 205.164 54.3285 203.987 56.2209 201.315C58.1133 198.641 63.4755 188.91 66.1047 189.124C66.736 186.023 66.525 183.884 66.525 183.884C66.525 183.884 64.5272 154.798 63.581 153.728C59.2704 185.916 57.1671 196.074 57.1671 196.074C57.1671 196.074 49.7015 205.056 51.279 198.213C52.8565 191.369 58.9556 168.379 59.0595 162.819C47.8092 194.579 39.7123 211.366 37.7144 212.33C35.7165 213.292 44.1283 193.937 52.0142 170.84C59.9001 147.742 62.7403 133.627 62.7403 133.627C62.7403 133.627 56.8522 141.112 54.8544 142.503C59.9001 133.837 62.3199 129.453 62.3199 129.453Z" fill="#B7C9E2"/>
<path d="M69.0401 126.659C69.0401 126.659 71.2137 127.074 71.0779 129.769C70.942 132.464 70.3299 149.946 70.3986 150.913C70.3986 150.913 71.5542 150.637 72.7081 150.913C71.5526 151.328 70.4657 152.503 70.4657 152.503C70.4657 152.503 72.7081 152.295 73.795 152.711C71.7571 153.472 70.4657 154.784 70.4657 154.784C70.4657 154.784 73.6591 154.093 74.8818 154.575C72.1631 155.612 70.4657 156.786 70.4657 156.786C70.4657 156.786 72.5723 156.163 73.9995 156.233C75.4268 156.303 76.0373 156.025 76.0373 156.025C76.0373 156.025 75.0176 157.131 73.3187 157.545C71.6197 157.96 70.397 159.065 70.397 159.065C70.397 159.065 73.795 157.751 75.2893 157.613C76.7837 157.475 78.0752 155.955 78.0752 155.955C78.0752 155.955 78.4827 157.96 75.1535 159.135C71.8243 160.31 66.7961 162.935 66.8632 164.316C66.9319 165.698 68.2218 165.906 68.2218 165.906L67.9501 166.873C67.9501 166.873 65.0955 166.459 66.0481 163.418C67.0007 160.376 71.69 128.664 69.0401 126.659Z" fill="#B7C9E2"/>
<path d="M50.6914 261.148C52.5326 260.284 56.808 259.396 56.808 259.396L57.5608 258.05V257.186C57.5624 257.186 53.3126 258.266 50.6914 261.148Z" fill="#13376B"/>
<path d="M51.1533 258.593C52.9945 257.728 57.2699 256.841 57.2699 256.841L58.0227 255.495V254.63C58.0243 254.632 53.7745 255.713 51.1533 258.593Z" fill="#13376B"/>
<path d="M51.6143 256.029C53.4555 255.164 57.7309 254.277 57.7309 254.277L58.4837 252.931V252.066C58.4853 252.066 54.2354 253.147 51.6143 256.029Z" fill="#13376B"/>
<path d="M52.0781 253.467C53.9193 252.603 58.1947 251.715 58.1947 251.715L58.9475 250.369V249.505C58.9475 249.506 54.6977 250.587 52.0781 253.467Z" fill="#13376B"/>
<path d="M52.54 250.906C54.3813 250.041 58.6567 249.154 58.6567 249.154L59.4094 247.808V246.943C59.411 246.943 55.1596 248.024 52.54 250.906Z" fill="#13376B"/>
<path d="M53.002 248.342C54.8432 247.477 59.1186 246.59 59.1186 246.59L59.8714 245.244V244.379C59.873 244.381 55.6231 245.462 53.002 248.342Z" fill="#13376B"/>
<path d="M53.4648 245.78C55.3061 244.916 59.5814 244.028 59.5814 244.028L60.3343 242.682V241.818C60.3358 241.819 56.086 242.899 53.4648 245.78Z" fill="#13376B"/>
<path d="M53.9258 243.222C55.767 242.357 60.0424 241.47 60.0424 241.47L60.7952 240.124V239.259C60.7968 239.259 56.547 240.34 53.9258 243.222Z" fill="#13376B"/>
<path d="M54.3877 240.657C56.2289 239.793 60.5043 238.905 60.5043 238.905L61.2571 237.559V236.695C61.2587 236.696 57.0089 237.776 54.3877 240.657Z" fill="#13376B"/>
<path d="M54.8516 238.094C56.6928 237.229 60.9682 236.341 60.9682 236.341L61.721 234.996V234.131C61.7226 234.131 57.4727 235.212 54.8516 238.094Z" fill="#13376B"/>
<path d="M55.3115 235.529C57.1527 234.664 61.4281 233.777 61.4281 233.777L62.1809 232.431V231.566C62.1825 231.568 57.9327 232.647 55.3115 235.529Z" fill="#13376B"/>
<path d="M55.7754 232.968C57.6166 232.103 61.892 231.216 61.892 231.216L62.6448 229.87V229.005C62.6448 229.005 58.395 230.086 55.7754 232.968Z" fill="#13376B"/>
<path d="M56.2363 230.406C58.0775 229.541 62.353 228.654 62.353 228.654L63.1057 227.308V226.443C63.1073 226.445 58.8559 227.526 56.2363 230.406Z" fill="#13376B"/>
<path d="M56.6992 227.842C58.5404 226.978 62.8158 226.09 62.8158 226.09L63.5686 224.744V223.88C63.5702 223.88 59.3204 224.96 56.6992 227.842Z" fill="#13376B"/>
<path d="M57.1631 225.279C59.0043 224.414 63.2797 223.526 63.2797 223.526L64.0325 222.181V221.316C64.0341 221.318 59.7843 222.398 57.1631 225.279Z" fill="#13376B"/>
<path d="M57.6201 222.719C59.4613 221.855 63.7367 220.967 63.7367 220.967L64.4895 219.621V218.757C64.4911 218.757 60.2413 219.838 57.6201 222.719Z" fill="#13376B"/>
<path d="M58.083 220.158C59.9242 219.293 64.1996 218.406 64.1996 218.406L64.9524 217.06V216.195C64.954 216.197 60.7042 217.278 58.083 220.158Z" fill="#13376B"/>
<path d="M58.5488 217.597C60.39 216.732 64.6655 215.845 64.6655 215.845L65.4182 214.499V213.634C65.4198 213.634 61.17 214.715 58.5488 217.597Z" fill="#13376B"/>
<path d="M59.0098 215.033C60.851 214.169 65.1264 213.281 65.1264 213.281L65.8792 211.935V211.071C65.8808 211.072 61.6309 212.153 59.0098 215.033Z" fill="#13376B"/>
<path d="M59.4717 212.469C61.3129 211.604 65.5883 210.717 65.5883 210.717L66.3411 209.371V208.506C66.3411 208.508 62.0913 209.587 59.4717 212.469Z" fill="#13376B"/>
<path d="M59.9336 209.911C61.7748 209.046 66.0502 208.159 66.0502 208.159L66.803 206.813V205.948C66.8046 205.948 62.5532 207.029 59.9336 209.911Z" fill="#13376B"/>
<path d="M60.3975 207.343C62.2387 206.478 66.5141 205.591 66.5141 205.591L67.2669 204.245V203.38C67.2685 203.382 63.0186 204.461 60.3975 207.343Z" fill="#13376B"/>
<path d="M69.9893 235.718C71.7538 234.7 75.9412 233.452 75.9412 233.452L76.5822 232.046L76.5118 231.185C76.5102 231.186 72.3643 232.623 69.9893 235.718Z" fill="#13376B"/>
<path d="M70.1484 233.369C71.9097 232.345 76.0924 231.084 76.0924 231.084L76.7285 229.676L76.655 228.815C76.655 228.816 72.5139 230.268 70.1484 233.369Z" fill="#13376B"/>
<path d="M70.3086 231.017C72.0651 229.988 76.2446 228.714 76.2446 228.714L76.8759 227.305L76.7992 226.443C76.7992 226.443 72.6629 227.91 70.3086 231.017Z" fill="#13376B"/>
<path d="M70.4688 228.67C72.2221 227.635 76.3968 226.347 76.3968 226.347L77.0233 224.936L76.9434 224.077C76.945 224.075 72.8134 225.554 70.4688 228.67Z" fill="#13376B"/>
<path d="M70.6279 226.321C72.378 225.281 76.5479 223.979 76.5479 223.979L77.1697 222.566L77.0882 221.707C77.0882 221.705 72.9614 223.197 70.6279 226.321Z" fill="#13376B"/>
<path d="M70.7891 223.97C72.536 222.923 76.7011 221.608 76.7011 221.608L77.318 220.193L77.2333 219.333C77.2349 219.333 73.113 220.838 70.7891 223.97Z" fill="#13376B"/>
<path d="M70.9463 221.616C72.69 220.564 76.8519 219.234 76.8519 219.234L77.4657 217.817L77.3778 216.957C77.3762 216.957 73.2606 218.477 70.9463 221.616Z" fill="#13376B"/>
<path d="M71.1074 219.267C72.8479 218.209 77.0051 216.866 77.0051 216.866L77.614 215.447L77.5245 214.587C77.5229 214.589 73.4121 216.12 71.1074 219.267Z" fill="#13376B"/>
<path d="M71.2666 216.914C73.0039 215.851 77.1563 214.495 77.1563 214.495L77.7604 213.075L77.6677 212.216C77.6677 212.215 73.5617 213.761 71.2666 216.914Z" fill="#13376B"/>
<path d="M71.4248 214.567C73.1589 213.498 77.3065 212.129 77.3065 212.129L77.9058 210.707L77.8099 209.849C77.8099 209.847 73.7087 211.406 71.4248 214.567Z" fill="#13376B"/>
<path d="M71.5859 212.214C73.3153 211.14 77.4596 209.757 77.4596 209.757L78.0542 208.331L77.9567 207.473C77.9567 207.475 73.8603 209.046 71.5859 212.214Z" fill="#13376B"/>
<path d="M71.7461 209.869C73.4722 208.788 77.6118 207.391 77.6118 207.391L78.2015 205.964L78.1008 205.106C78.1008 205.108 74.0093 206.692 71.7461 209.869Z" fill="#13376B"/>
<path d="M71.9043 207.517C73.6272 206.431 77.762 205.02 77.762 205.02L78.3486 203.591L78.2447 202.733C78.2447 202.735 74.1579 204.334 71.9043 207.517Z" fill="#13376B"/>
<path d="M72.0635 205.165C73.7832 204.073 77.9132 202.649 77.9132 202.649L78.4949 201.219L78.3879 200.362C78.3879 200.361 74.3075 201.975 72.0635 205.165Z" fill="#13376B"/>
<path d="M72.2227 202.82C73.9392 201.723 78.0644 200.286 78.0644 200.286L78.6413 198.854L78.5327 197.998C78.5343 197.996 74.457 199.621 72.2227 202.82Z" fill="#13376B"/>
<path d="M72.3828 200.467C74.0962 199.364 78.2181 197.914 78.2181 197.914L78.7903 196.479L78.6784 195.622C78.6784 195.622 74.6076 197.262 72.3828 200.467Z" fill="#13376B"/>
<path d="M72.543 198.121C74.2531 197.013 78.3703 195.548 78.3703 195.548L78.9377 194.111L78.8226 193.255C78.8226 193.255 74.7566 194.908 72.543 198.121Z" fill="#13376B"/>
<path d="M72.7012 195.766C74.4065 194.651 78.5205 193.173 78.5205 193.173L79.0847 191.735L78.968 190.878C78.9664 190.88 74.9052 192.546 72.7012 195.766Z" fill="#13376B"/>
<path d="M72.8652 193.417C74.5674 192.298 78.6766 190.805 78.6766 190.805L79.236 189.365L79.1161 188.51C79.1145 188.51 75.0597 190.189 72.8652 193.417Z" fill="#13376B"/>
<path d="M73.0225 191.066C74.7214 189.939 78.8258 188.434 78.8258 188.434L79.3804 186.992L79.2574 186.138C79.2574 186.138 75.2057 187.831 73.0225 191.066Z" fill="#13376B"/>
<path d="M73.1836 188.717C74.8794 187.585 78.979 186.067 78.979 186.067L79.5288 184.622L79.4041 183.767C79.4025 183.767 75.3573 185.474 73.1836 188.717Z" fill="#13376B"/>
<path d="M79.6761 182.249L79.5483 181.394C79.5483 181.394 75.5078 183.114 73.3438 186.365C75.0363 185.229 79.1311 183.696 79.1311 183.696L79.6761 182.249Z" fill="#13376B"/>
<path d="M75.0381 135.413L77.605 143.569C77.605 143.569 74.183 143.569 74.076 145.201C73.9689 146.833 75.5735 147.484 75.5735 147.484L75.3594 145.745C75.3594 145.745 77.4979 147.92 78.6742 149.007C79.8505 150.095 79.9576 153.248 79.9576 153.248C79.9576 153.248 71.2965 147.375 72.7941 144.113C74.2901 140.85 75.0381 135.413 75.0381 135.413Z" fill="#B7C9E2"/>
<path d="M12.6732 38.5148C9.30564 38.5148 7.7585 40.3157 9.2433 41.7737C9.15699 41.0374 9.63009 39.4787 12.6732 39.4787C15.7163 39.4787 16.191 41.0374 16.1031 41.7737C17.5879 40.3157 16.0408 38.5148 12.6732 38.5148Z" fill="#B7C9E2"/>
<path d="M15.1572 42.1748C15.1572 42.1748 15.0245 40.9509 12.6718 40.9509C10.3192 40.9509 10.1865 42.1748 10.1865 42.1748C10.1865 42.1748 10.3591 43.1143 10.674 44.1643C10.5813 43.2248 12.6718 43.0932 12.6718 43.0932C12.6718 43.0932 14.7624 43.2248 14.6697 44.1643C14.9846 43.1143 15.1572 42.1748 15.1572 42.1748Z" fill="#B7C9E2"/>
<path d="M14.4906 45.3042C14.254 44.6703 12.6717 44.6264 12.6717 44.6264C12.6717 44.6264 11.0894 44.6703 10.8529 45.3042C10.7074 45.6959 11.0511 46.2941 11.5721 46.7687C12.1954 47.3359 13.1464 47.3359 13.7698 46.7687C14.2924 46.2957 14.636 45.6959 14.4906 45.3042Z" fill="#B7C9E2"/>
<path d="M12.6718 11.0981C5.21425 11.0753 -0.688203 15.8588 3.17164 22.6773C1.58295 18.6383 5.51632 13.4451 12.6718 13.4451C19.8257 13.4451 23.7607 18.6383 22.172 22.6773C26.0318 15.8572 20.1294 11.0737 12.6718 11.0981Z" fill="#B7C9E2"/>
<path d="M19.94 41.4443C19.94 41.4443 17.7168 38.1415 17.8926 35.4499C18.0684 32.7583 18.2602 30.5688 17.883 29.9951C17.5058 29.4213 15.9523 27.6984 15.7397 25.5805C15.5288 23.4627 16.0578 22.7816 16.3743 22.9962C16.6923 23.2107 17.7152 26.0828 18.81 26.8727C19.9049 27.6627 20.0104 29.0264 20.6449 30.1755C21.2794 31.3247 21.7397 33.0833 21.492 34.6258C21.2458 36.1683 20.6465 40.2952 19.94 41.4443Z" fill="#B7C9E2"/>
<path d="M8.67875 38.7163L8.15451 34.5894C8.15451 34.5894 10.1667 32.5788 10.4129 31.9335C12.318 32.5073 14.4006 30.7844 14.1544 30.0676C13.9067 29.3491 11.5429 30.0318 11.0138 29.8156C8.29676 30.8916 7.83805 31.5386 7.83805 31.5386C7.83805 31.5386 6.49709 35.1274 6.70806 35.8101C6.91904 36.4911 7.71978 38.9666 8.67875 38.7163Z" fill="#B7C9E2"/>
<path d="M7.06056 30.8924C7.06056 30.8924 6.84959 29.3856 7.06056 29.098C7.27154 28.8103 10.3818 26.9801 10.8213 26.9086C11.2608 26.837 14.3663 27.0874 14.7547 27.3393C15.1431 27.5912 13.6966 28.8379 13.6966 28.8379L10.6918 28.5957C10.6918 28.5957 7.58959 29.9952 7.06056 30.8924Z" fill="#B7C9E2"/>
<path d="M6.96454 27.6653C6.96454 27.6653 6.34121 26.4089 6.96454 26.0497C7.58786 25.6905 8.82334 24.829 8.82334 24.829C8.82334 24.829 11.4014 24.33 12.672 23.6847C13.9426 23.0395 14.8185 24.9721 12.672 26.157C11.4701 25.9424 10.3593 25.905 10.3593 25.905C10.3593 25.905 7.61184 26.9111 6.96454 27.6653Z" fill="#B7C9E2"/>
<path d="M5.75494 25.761C5.75494 25.761 6.67236 24.9353 7.20139 24.7207C7.69526 22.7459 6.70751 19.6593 5.75494 20.0185C4.80237 20.3777 5.64946 21.0734 5.3314 22.6809C5.01335 24.29 4.79438 25.1255 5.75494 25.761Z" fill="#B7C9E2"/>
<path d="M52.1381 73.1308C40.6192 73.1308 33.6939 82.6523 34.7951 92.2665C35.1036 93.2449 35.6678 94.7371 35.6678 94.7371C35.6678 94.7371 35.492 93.5115 35.6678 92.5509C36.1712 92.2713 36.9768 92.0665 37.4834 91.956C37.5553 91.6277 37.6353 91.2945 37.7248 90.958C36.7306 91.0946 35.5815 91.3758 35.5815 91.3758C35.5815 91.3758 35.4936 90.0413 35.7573 88.7654C36.5021 88.4305 37.7855 88.5736 38.4616 88.6825C38.5543 88.4436 38.6518 88.2062 38.7541 87.9689L35.9331 87.548C35.9331 87.548 36.0641 86.3468 36.6763 85.2789C37.1558 85.1749 38.949 85.8055 39.705 86.0851C39.8569 85.8251 40.0183 85.5682 40.1861 85.3163C38.965 84.3086 37.2884 84.3443 37.2884 84.3443C37.2884 84.3443 37.8127 82.3874 38.7764 81.7632C40.0023 82.0525 41.0859 83.0521 41.5702 83.5576C41.7157 83.4016 41.8643 83.2472 42.0177 83.096C41.1291 81.4089 39.7833 81.0952 39.7833 81.0952C39.7833 81.0952 40.5713 79.7152 41.5766 79.1821C42.5771 79.6421 43.3283 81.0432 43.6528 81.7486C43.8446 81.6169 44.0428 81.4901 44.2441 81.3682C43.7631 79.7428 42.494 78.5596 42.494 78.5596C42.494 78.5596 43.5441 77.5811 44.5063 77.0463C45.7609 77.6494 46.3779 79.5218 46.576 80.2581C46.7503 80.1947 46.9293 80.1362 47.1099 80.0793C46.7582 77.911 45.7306 76.5571 45.7306 76.5571C45.7306 76.5571 46.9548 75.5331 48.2686 75.5786C49.2484 76.232 49.4721 78.5287 49.5217 79.5413C49.7758 79.5055 50.0347 79.4747 50.2984 79.4487C50.3528 78.3938 50.1562 76.2629 49.5361 75.1771C50.0699 74.8456 51.3613 74.7383 52.1381 74.7041C52.9148 74.7383 54.2062 74.8456 54.7401 75.1771C54.1199 76.2629 53.9233 78.3938 53.9777 79.4487C54.2414 79.4747 54.5003 79.5039 54.7544 79.5413C54.8056 78.5287 55.0278 76.232 56.0075 75.5786C57.3197 75.5347 58.5456 76.5571 58.5456 76.5571C58.5456 76.5571 57.5179 77.9127 57.1662 80.0793C57.3468 80.1362 57.5259 80.1963 57.7001 80.2581C57.8983 79.5218 58.5136 77.6477 59.7698 77.0463C60.732 77.5795 61.7821 78.5596 61.7821 78.5596C61.7821 78.5596 60.5146 79.7428 60.032 81.3682C60.2334 81.4918 60.4315 81.6169 60.6233 81.7486C60.9494 81.0432 61.7006 79.6404 62.6995 79.1821C63.7064 79.7168 64.4928 81.0952 64.4928 81.0952C64.4928 81.0952 63.147 81.4072 62.2584 83.096C62.4118 83.2456 62.5604 83.4 62.7059 83.5576C63.1902 83.0521 64.2722 82.0525 65.4997 81.7632C66.4618 82.3857 66.9877 84.3443 66.9877 84.3443C66.9877 84.3443 65.3111 84.3069 64.09 85.3163C64.2594 85.5699 64.4193 85.8251 64.5711 86.0851C65.3271 85.8055 67.1203 85.1749 67.5998 85.2789C68.212 86.3468 68.343 87.548 68.343 87.548L65.5221 87.9689C65.6243 88.2062 65.7218 88.4436 65.8145 88.6825C66.4906 88.5736 67.774 88.4305 68.5188 88.7654C68.781 90.0397 68.693 91.3758 68.693 91.3758C68.693 91.3758 67.5439 91.0946 66.5498 90.958C66.6393 91.2945 66.7192 91.6277 66.7911 91.956C67.2962 92.0665 68.1033 92.2713 68.6067 92.5509C68.781 93.5115 68.6067 94.7371 68.6067 94.7371C68.6067 94.7371 69.1709 93.2466 69.4794 92.2665C70.5822 82.6523 63.6569 73.1308 52.1381 73.1308Z" fill="#B7C9E2"/>
<path d="M114.313 169.011C114.313 169.011 112.988 170.829 112.056 170.194C110.634 166.815 110.388 165.618 110.388 165.618C110.388 165.618 110.388 164.97 110.878 164.77C111.369 164.57 111.909 164.77 111.909 164.77L114.313 169.011Z" fill="#B7C9E2"/>
<path d="M115 166.32C115 166.32 116.275 165.671 116.472 165.023C115.834 163.576 112.449 161.033 111.91 161.431C111.369 161.831 112.988 164.374 115 166.32Z" fill="#B7C9E2"/>
<path d="M117.698 163.853C117.698 163.853 118.729 163.724 119.023 163.425C118.729 162.179 118.362 161.181 118.362 161.181L114.139 159.035C114.139 159.035 112.99 159.385 113.677 160.332C115.835 162.179 117.062 163.276 117.062 163.276L117.698 163.853Z" fill="#B7C9E2"/>
<path d="M119.951 162.926C119.951 162.926 121.717 163.575 122.305 162.926L119.951 158.237L117.947 157.112L115.191 156.391C115.191 156.391 114.014 156.89 115.191 157.787C116.942 158.624 118.724 159.802 118.724 159.802L119.951 162.926Z" fill="#B7C9E2"/>
<path d="M108.525 164.276C108.869 163.278 110.389 162.929 110.389 162.929C110.389 162.929 109.211 161.033 110.389 160.135C111.567 159.236 112.352 159.805 112.352 159.805C112.352 159.805 112.058 158.688 112.596 158.139C113.136 157.589 113.774 157.54 113.774 157.54C113.774 157.54 113.709 155.678 114.674 155.063C115.286 154.673 117.364 155.312 118.802 155.834L121.304 152.066L118.579 152.281L120.872 149.812L102.404 151.392L103.007 153.51L100.937 153.674L90.8389 170.199C90.8389 170.199 93.2555 185.094 93.5144 187.025L97.5708 187.815L109.577 169.731C109.064 167.92 108.29 164.957 108.525 164.276Z" fill="#B7C9E2"/>
<path d="M8.81235 9.83188C8.81235 9.83188 10.6392 9.56044 11.3456 9.50843C10.4042 5.34094 12.2199 3.02639 15.6929 3.02639C13.7542 3.86996 14.1778 5.34744 14.1778 5.34744C14.1778 5.34744 15.4005 2.92074 19.4953 3.97561C17.4718 1.65456 13.425 0.494038 10.5545 3.02639C7.68397 5.55874 8.81235 9.83188 8.81235 9.83188Z" fill="#D6BB38"/>
<path d="M14.0439 9.03872C14.0439 9.03872 14.3188 6.34873 16.1537 6.13743C17.9885 5.92613 20.7184 7.24593 21.8947 6.77132C19.4957 9.35405 15.6934 7.08665 14.0439 9.03872Z" fill="#D6BB38"/>
<path d="M15.3441 29.2599C16.0569 30.8154 14.5801 33.1982 11.0127 33.1982C10.5716 33.8061 9.8204 34.453 9.31055 34.8594L9.65098 38.2142C9.95146 37.7331 11.4315 37.3836 12.6733 37.3836C13.9152 37.3836 15.3952 37.7331 15.6957 38.2142L16.4693 30.5992L15.3441 29.2599Z" fill="#B7C9E2"/>
<path d="M11.6761 22.6801C12.1859 22.3696 13.3574 22.1096 14.1726 22.6801C14.3772 21.3327 15.4975 21.0222 16.0074 21.0222C16.2455 21.0222 16.797 21.6236 17.3164 22.264L17.3531 21.9048C17.3963 20.6581 15.4832 19.4553 12.675 19.4553C9.8668 19.4553 7.95366 20.6581 7.99681 21.9048L8.16783 23.5952C9.32179 23.3481 11.318 22.8995 11.6761 22.6801Z" fill="#B7C9E2"/>
<path d="M24.9861 294.528C25.4608 294.223 25.9067 293.933 26.2999 293.673C29.2215 291.739 34.929 284.207 36.628 277.158C38.3269 270.11 42.9476 267.553 49.5373 264.858C56.1286 262.163 72.2313 258.984 74.9499 254.079C77.6686 249.173 74.8141 244.957 72.0954 243.852C69.3767 242.747 68.902 241.433 68.902 241.433C68.902 241.433 68.0869 242.47 68.902 244.613C63.8739 241.365 68.0869 237.427 72.5717 235.699C77.0565 233.971 85.0063 232.658 87.5204 231.553C90.0345 230.447 92.0723 227.821 96.3541 226.577C95.539 224.919 90.3062 180.073 87.6563 171.712C87.928 173.302 89.6941 197.556 88.9477 198.385C88.2013 199.214 84.1241 169.225 80.7933 155.059C81.4054 157.615 87.5876 230.239 87.5876 230.239C87.5876 230.239 84.6659 231.829 81.3367 232.312C78.0075 232.796 73.6585 234.246 73.6585 234.246L72.9793 162.451L70.1247 163.626C70.1247 163.626 65.0965 237.217 65.0294 240.811C64.9607 244.405 67.2718 244.887 69.4455 245.716C71.6191 246.545 74.9499 249.24 73.3181 252.764C72.7747 249.032 68.902 248.273 68.902 248.273C68.902 248.273 70.1247 251.52 70.5323 254.009C70.9398 256.496 56.8063 259.399 56.8063 259.399C56.8063 259.399 60.3401 216.142 62.3107 204.464C59.2532 204.464 56.7391 207.367 56.7391 207.367C56.7391 207.367 45.3913 236.526 44.5091 238.048C43.6252 239.567 46.2752 221.948 51.1004 208.818C45.5288 213.447 27.3196 292.844 25.7565 291.323C24.1933 289.803 35.7441 237.425 35.7441 237.425C35.7441 237.425 23.9888 266.723 22.699 267.691C21.4075 268.659 23.2424 258.293 29.4261 239.153C18.2142 248.205 17.399 259.607 18.35 265.273C19.301 270.939 18.35 274.186 15.9718 278.817C14.6516 281.387 15.2989 287.362 16.138 292.171C19.0469 293.057 21.9973 293.844 24.9861 294.528Z" fill="#B7C9E2"/>
<path d="M37.2862 296.724C38.1221 295.276 38.6399 294.673 38.4929 295.859C38.4561 296.162 38.4034 296.495 38.3411 296.854C39.2968 296.969 40.2574 297.075 41.2196 297.169C43.8247 289.002 46.5115 278.092 46.1854 272.281L42.5046 274.204C42.5046 274.204 39.7891 290.666 35.9612 292.441C36.1178 287.581 36.893 284.374 36.893 284.374C36.893 284.374 33.7044 288.56 33.5766 289.169C33.5286 289.397 32.8813 292.389 32.1797 295.962C33.8707 296.249 35.5728 296.503 37.2862 296.724Z" fill="#B7C9E2"/>
<path d="M52.1194 297.778C54.6622 284.089 56.684 271.039 56.123 266.601L49.4119 269.028C49.4119 269.028 47.6538 282.436 45.0693 297.489C47.4044 297.648 49.7539 297.744 52.1194 297.778Z" fill="#B7C9E2"/>
<path d="M72.4304 296.488C71.553 285.588 71.2046 273.895 71.9733 263.261C70.7363 262.94 64.7299 266.606 64.7299 266.606L63.1045 297.478C66.2451 297.26 69.3538 296.929 72.4304 296.488Z" fill="#B7C9E2"/>
<path d="M79.6886 265.238C80.4031 264.511 80.6284 280.887 80.1266 295.19C81.0759 294.997 82.0205 294.794 82.9619 294.581C84.3316 284.354 85.1484 270.197 83.7163 253.712C80.8825 254.622 76.8565 260.537 76.8565 260.537C76.8565 260.537 77.0051 271.154 75.0664 288.747C80.2848 282.831 78.6434 266.301 79.6886 265.238Z" fill="#B7C9E2"/>
<path d="M57.3637 144.966C57.3637 144.966 50.0547 155.958 50.1762 153.246C50.2961 150.535 52.2428 147.087 49.2012 150.26C46.1597 153.433 24.1338 198.913 22.1871 205.165C20.2404 211.418 17.9277 218.892 21.5781 215.032C25.2286 211.171 33.26 190.02 36.789 186.365C40.318 182.709 26.4465 215.937 24.9857 224.072C23.5249 232.207 22.43 235.559 25.2286 234.131C28.0272 232.704 43.481 212.285 46.1581 206.84C48.8352 201.395 51.1543 189.739 51.1543 189.739C51.1543 189.739 41.2913 213.622 35.9371 217.593C30.5829 221.564 42.0218 189.181 46.2796 178.644C50.539 168.107 57.3637 144.966 57.3637 144.966Z" fill="white"/>
<path d="M34.4658 150.258C34.4658 150.258 36.7433 145.218 42.0113 142.339C47.2792 139.462 49.5951 138.242 49.0805 139.549C48.5658 140.857 38.706 158.557 36.4764 162.831C34.2468 167.104 31.6864 170.592 34.4674 162.831C37.2484 155.069 43.2419 144.327 43.2419 144.327C43.2419 144.327 36.3997 147.276 34.4658 150.258Z" fill="white"/>
<path d="M30.7348 140.804C30.9378 140.635 27.0332 146.487 28.112 146.766C29.1909 147.046 37.1743 138.675 39.7843 137.28C42.3959 135.886 42.3959 135.886 42.3959 135.886C42.3959 135.886 26.063 150.797 19.6523 163.703C21.3018 156.379 21.0444 153.243 21.0444 153.243C21.0444 153.243 26.3428 144.487 30.7348 140.804Z" fill="white"/>
<path d="M44.8774 95.2312C44.8774 95.2312 44.2876 96.8241 44.8774 97.796C45.4671 98.7697 46.3174 100.223 46.8848 100.091C47.4522 99.9578 48.6924 98.5535 49.0824 97.2922C49.4724 96.0309 49.4372 94.6249 49.0824 94.5892C48.726 94.5534 45.8107 95.1873 44.8774 95.2312Z" fill="white"/>
<path d="M47.0721 102.118C47.1888 102.211 47.2751 104.104 48.0902 103.995C48.9054 103.886 49.5431 104.052 49.1179 104.493C48.6928 104.933 50.2719 105.762 50.9527 105.617C51.6336 105.473 53.1568 105.507 53.689 105.634C54.2212 105.76 56.0625 106.302 55.6373 107.238C55.2122 108.174 55.1051 107.958 53.689 107.706C52.2713 107.454 49.6853 108.247 48.5505 107.67C47.4174 107.093 46.5671 105.04 46.1052 103.815C45.6433 102.591 45.0263 100.493 47.0721 102.118Z" fill="white"/>
<path d="M59.1517 94.7374C59.1517 94.7374 57.9034 94.9243 56.9125 94.7374C55.9199 94.5505 55.8848 94.9016 56.0622 96.0962C56.2396 97.2909 56.9125 99.6623 57.3728 99.4494C57.8331 99.2365 59.5129 96.5448 59.1517 94.7374Z" fill="white"/>
<path d="M51.6345 85.1473C51.6345 85.1473 50.7395 86.9856 49.3617 87.7056C47.984 88.4257 46.5168 88.9539 47.073 89.1945C47.6292 89.435 49.496 89.3635 50.033 89.6154C50.57 89.8674 50.57 90.6963 51.1726 90.8052C51.7751 90.9141 52.5359 90.9791 52.7581 90.4232C52.9802 89.8674 52.9083 89.3635 53.6531 89.1473C54.3979 88.9311 54.7208 88.7507 54.489 88.2469C54.2573 87.743 52.5391 84.949 51.6345 85.1473Z" fill="white"/>
</svg>
